<?xml version="1.0" encoding="utf-8"?>
<svg viewBox="17.493 223.363 452.399 141.076" width="452.399" height="141.076" xmlns="http://www.w3.org/2000/svg">
  <line class="st5" x1="37.224" y1="353.626" x2="17.475" y2="353.626" style="fill: none; stroke: rgb(188, 149, 91); stroke-miterlimit: 10; stroke-width: 2.0363px;" transform="matrix(1, 0, 0, 1, 2.842170943040401e-14, 0)"/>
  <path class="st6" d="M 427.683 319.971 L 427.683 316.834 L 427.683 315.181 C 427.683 314.928 427.948 314.719 428.269 314.719 L 429.092 314.719 L 430.632 312.126 C 429.963 311.842 429.508 311.279 429.508 310.639 L 429.508 307.817 C 429.508 306.883 430.466 306.127 431.649 306.127 L 434.258 306.127 L 434.258 302.181 C 434.187 302.106 434.127 302.022 434.088 301.931 L 434.072 301.888 L 433.09 302.141 C 432.991 302.169 432.888 302.181 432.785 302.181 C 432.362 302.181 431.986 301.966 431.855 301.65 L 430.838 299.226 C 430.668 298.823 430.949 298.382 431.459 298.248 L 432.437 297.995 L 432.421 297.948 C 432.33 297.735 432.354 297.507 432.477 297.31 C 432.599 297.114 432.821 296.964 433.09 296.895 L 434.103 296.632 C 434.21 296.604 434.321 296.589 434.436 296.589 C 434.891 296.589 435.299 296.82 435.437 297.164 L 435.457 297.21 L 453.729 292.449 L 454.802 290.528 L 455.859 284.951 C 455.918 284.635 456.271 284.395 456.674 284.395 C 456.789 284.395 456.9 284.413 457.007 284.451 C 457.553 284.645 458.084 284.86 458.594 285.104 C 461.706 286.575 464.049 288.884 465.193 291.609 C 465.917 293.336 466.135 295.12 465.834 296.904 L 465.834 310.698 L 466.867 310.698 C 467.275 310.698 467.608 310.957 467.608 311.282 L 467.608 312.573 C 467.608 312.826 467.342 313.035 467.022 313.035 L 466.855 313.035 L 466.855 314.722 L 467.58 314.722 C 467.9 314.722 468.166 314.932 468.166 315.185 L 468.166 351.42 L 468.166 362.824 L 23.809 362.824" style="fill: none; stroke: rgb(222, 201, 163); stroke-miterlimit: 10; stroke-width: 3.3499px;" transform="matrix(1, 0, 0, 1, 2.842170943040401e-14, 0)"/>
  <path class="st6" d="M 336.987 359.222 L 316.918 359.484 L 316.918 358.628 L 316.902 357.044 L 316.902 350.952 C 316.906 349.867 316.914 348.783 316.918 347.699 C 316.273 347.777 315.628 347.846 314.971 347.915 C 314.943 347.918 314.907 347.921 314.876 347.924 C 314.282 347.984 313.815 348.318 313.66 348.755 L 309.698 349.602 L 309.698 349.593 C 309.698 348.699 308.851 348.218 308.047 348.218 C 307.869 348.218 307.691 348.237 307.517 348.283 L 304.742 348.843 C 304.762 348.29 304.782 347.759 304.809 347.243 C 304.916 344.953 305.059 343.019 305.185 341.516 C 305.34 339.757 305.447 339.417 305.526 338.039 C 305.7 335.052 305.423 334.587 305.657 332.059 C 305.779 330.75 305.854 329.906 305.973 329.138 C 306.021 328.819 306.08 328.519 306.147 328.197 C 306.571 326.251 307.066 325.214 306.373 324.704 C 306.04 324.461 305.273 324.483 303.753 324.542 C 301.492 324.632 300.871 324.864 300.479 324.529 C 300.241 324.326 300.273 324.086 300.534 322.47 C 300.744 321.155 300.827 320.711 300.879 320.327 C 300.918 320.055 300.986 319.571 301.045 317.503 C 301.069 316.647 301.092 315.528 301.1 314.207 C 302.379 314.247 303.511 314.254 304.449 314.247 C 305.66 314.238 306.393 314.204 306.804 313.788 C 307.042 313.551 307.097 313.269 307.101 313.06 C 307.469 313.119 310.787 313.672 312.358 313.497 C 312.968 313.429 313.249 313.26 313.403 313.129 C 313.672 312.901 313.815 312.595 313.795 312.279 L 313.771 311.948 C 313.676 310.614 313.589 309.28 313.49 307.949 C 313.589 306.546 312.334 305.918 311.46 305.843 C 311.404 305.837 311.349 305.834 311.297 305.834 C 311.293 305.834 311.293 305.834 300.024 305.89 C 299.853 305.084 299.378 303.99 298.092 303.343 L 297.573 297.639 L 308.942 297.479 C 309.552 297.47 310.078 297.176 310.288 296.726 L 310.901 295.417 C 311.072 295.048 311 294.642 310.704 294.327 C 310.43 294.036 309.991 293.861 309.528 293.861 C 309.5 293.861 309.468 293.861 309.437 293.864 L 297.003 294.483 L 297.003 294.258 C 297.003 293.624 296.346 293.105 295.543 293.105 L 294.042 293.105 C 293.239 293.105 292.582 293.624 292.582 294.258 L 292.582 294.805 L 285.346 294.97 C 285.405 294.652 285.298 294.333 285.041 294.08 C 284.76 293.805 284.348 293.646 283.901 293.646 L 282.096 293.646 C 281.348 293.646 280.726 294.086 280.643 294.667 C 280.643 294.667 280.453 295.995 280.2 297.795 L 280.144 298.213 C 280.077 298.698 280.006 299.213 279.939 299.738 L 279.796 300.813 C 279.658 301.869 279.523 302.934 279.416 303.896 L 279.369 304.3 C 279.297 304.965 279.23 305.565 279.19 306.062 C 279.179 306.19 279.167 306.305 279.159 306.415 L 277.837 306.44 C 277.647 306.443 277.453 306.446 277.247 306.449 L 276.277 306.471 C 276.075 306.474 275.865 306.477 275.715 306.483 L 274.892 306.496 L 271.535 306.568 C 271.175 306.577 270.818 306.583 270.438 306.587 L 270.221 306.593 C 269.884 306.599 269.548 306.605 269.184 306.612 L 268.503 306.627 L 268.396 306.624 C 268.333 306.621 268.265 306.618 268.202 306.618 C 268.083 306.618 267.96 306.624 267.846 306.64 C 267.406 306.686 267.018 306.843 266.71 307.086 C 266.341 307.386 266.147 307.802 266.159 308.236 C 266.159 308.336 266.171 308.436 266.187 308.555 C 266.187 308.57 266.191 308.586 266.191 308.614 C 266.191 308.68 266.191 308.742 266.191 308.814 L 266.191 311.304 C 266.195 311.439 266.231 312.113 266.306 313.123 C 266.33 313.426 266.508 313.719 266.797 313.922 C 266.88 313.979 266.967 314.029 267.07 314.069 C 267.315 314.447 267.814 314.694 268.364 314.694 L 270.917 314.694 C 271.187 314.991 271.626 315.178 272.109 315.178 L 273.146 315.178 L 270.007 322.18 L 250.773 351.402 L 246.399 358.05 L 245.409 359.468 L 242.951 359.468 L 65.665 359.468 L 65.665 351.402 L 65.665 342.191 L 65.665 335.443 L 65.665 334.583 C 65.665 333.98 66.283 333.496 67.043 333.496 L 79.528 333.496 L 79.528 327.935 L 79.033 327.029 C 78.855 326.688 78.894 326.304 79.151 326.001 C 79.357 325.751 79.686 325.585 80.054 325.532 C 79.923 325.364 79.844 325.17 79.844 324.967 L 79.844 324.336 C 79.844 323.83 80.292 323.386 80.921 323.273 L 80.992 323.264 C 80.905 323.18 80.834 323.092 80.782 322.995 C 80.561 322.595 80.66 322.136 81.032 321.817 L 82.069 320.94 C 82.077 320.93 82.085 320.924 82.097 320.918 L 82.097 310.932 L 82.097 307.674 C 81.728 307.477 81.479 307.149 81.479 306.771 L 81.479 306.624 L 81.479 305.799 C 81.479 305.752 81.491 305.705 81.499 305.662 L 81.19 305.418 L 81.067 305.321 C 80.672 305.009 80.557 304.543 80.77 304.134 C 80.869 303.956 81.02 303.803 81.206 303.687 C 81.17 303.634 81.139 303.575 81.115 303.512 L 80.984 303.512 C 80.22 303.512 79.607 303.025 79.607 302.425 L 79.607 301.528 L 79.607 301.11 L 79.607 299.804 L 79.607 297.898 C 79.607 297.301 80.22 296.814 80.984 296.814 L 82.437 296.814 C 83.193 296.814 83.815 297.301 83.815 297.898 C 83.834 298.132 83.85 298.363 83.874 298.598 C 84.139 298.385 84.404 298.179 84.673 297.967 C 84.852 297.823 85.034 297.682 85.212 297.535 L 85.212 296.139 C 85.03 295.817 85.057 295.445 85.295 295.142 L 85.794 294.486 C 85.441 294.289 85.212 293.967 85.212 293.602 L 85.212 292.671 C 85.212 292.202 85.584 291.809 86.11 291.655 L 86.11 290.806 C 85.916 290.618 85.798 290.384 85.798 290.121 L 85.798 289.228 C 85.798 288.947 85.936 288.694 86.154 288.5 L 86.154 280.774 C 85.936 280.577 85.798 280.324 85.798 280.042 L 85.798 279.305 L 85.798 278.562 C 85.798 278.54 85.802 278.524 85.806 278.502 L 85.449 278.112 C 85.295 277.937 85.208 277.721 85.196 277.505 C 85.172 277.421 85.16 277.334 85.16 277.243 L 85.16 276.321 C 85.16 275.912 85.449 275.559 85.877 275.372 C 85.873 275.353 85.865 275.334 85.861 275.312 L 85.806 274.865 C 85.766 274.556 85.893 274.25 86.154 274.025 C 86.348 273.853 86.609 273.738 86.89 273.691 C 86.866 273.656 86.839 273.619 86.823 273.581 C 86.49 273.431 86.249 273.172 86.166 272.869 L 85.228 272.869 C 84.666 272.869 84.167 272.603 83.953 272.194 C 83.949 272.188 83.945 272.179 83.941 272.172 C 83.743 271.776 83.866 271.313 84.25 271.007 L 84.67 270.676 L 85.893 269.713 C 86.154 269.507 86.498 269.392 86.866 269.392 L 87.797 269.392 L 87.797 266.445 C 87.591 266.221 87.464 265.946 87.464 265.649 L 87.464 265.03 C 87.464 264.474 87.888 263.996 88.497 263.787 C 88.497 263.771 88.489 263.755 88.489 263.74 L 88.489 263.243 C 88.489 263.109 88.525 262.981 88.584 262.859 C 88.45 262.687 88.371 262.484 88.371 262.265 L 88.371 261.99 C 88.371 261.518 88.727 261.115 89.238 260.928 L 89.238 255.317 C 88.834 255.185 88.513 254.936 88.339 254.62 C 87.824 254.429 87.468 254.023 87.468 253.548 C 87.468 253.458 87.484 253.37 87.504 253.283 C 87.484 253.192 87.468 253.095 87.468 252.998 C 87.468 252.258 88.232 251.652 89.174 251.652 L 89.392 251.652 C 89.404 251.605 89.412 251.561 89.42 251.524 L 89.435 251.468 C 89.99 249.002 92.341 246.522 95.769 246.522 C 96.414 246.522 97.051 246.522 97.693 246.522 C 97.697 246.291 97.792 246.081 97.942 245.906 C 97.982 245.491 98.314 245.138 98.781 244.981 C 98.75 244.888 98.73 244.791 98.73 244.694 L 98.73 244.394 C 98.441 244.194 98.255 243.91 98.255 243.582 L 98.255 242.738 C 98.255 242.273 98.619 241.879 99.138 241.723 L 100.246 240.517 C 100.416 240.326 100.658 240.198 100.923 240.126 L 100.923 234.824 C 100.923 234.225 101.54 233.734 102.304 233.734 C 103.064 233.734 103.682 234.225 103.682 234.824 L 103.682 240.151 C 103.923 240.233 104.133 240.358 104.287 240.526 L 105.392 241.788 C 105.811 241.976 106.096 242.326 106.096 242.735 L 106.096 243.579 C 106.096 243.832 105.982 244.066 105.8 244.247 L 105.8 244.691 C 105.8 244.807 105.768 244.919 105.724 245.025 C 106.065 245.169 106.322 245.419 106.413 245.722 C 106.69 245.919 106.872 246.203 106.872 246.522 C 106.908 246.519 106.936 246.519 106.975 246.519 C 107.264 246.509 107.549 246.5 107.834 246.5 C 108.353 246.5 108.792 246.525 109.196 246.587 C 109.255 246.597 109.319 246.606 109.378 246.619 C 109.394 246.622 109.449 246.628 109.465 246.631 C 110.601 246.847 111.71 247.356 112.675 248.112 C 112.988 248.356 113.265 248.615 113.503 248.881 C 113.926 249.343 114.267 249.862 114.5 250.405 C 114.666 250.783 114.813 251.196 114.813 251.661 C 115.711 251.696 116.424 252.283 116.424 252.998 C 116.424 253.098 116.412 253.195 116.388 253.283 C 116.408 253.37 116.424 253.458 116.424 253.548 C 116.424 253.942 116.179 254.292 115.803 254.507 C 115.656 254.848 115.343 255.126 114.94 255.279 L 114.94 261.084 C 115.268 261.3 115.478 261.622 115.478 261.984 L 115.478 262.259 C 115.478 262.328 115.47 262.39 115.454 262.456 C 115.7 262.662 115.85 262.937 115.85 263.237 L 115.85 263.734 C 115.85 263.768 115.842 263.799 115.838 263.834 C 116.377 264.062 116.749 264.508 116.749 265.027 L 116.749 265.646 C 116.749 265.811 116.709 265.974 116.634 266.124 L 116.634 269.389 L 117.623 269.389 C 117.988 269.389 118.34 269.504 118.597 269.71 L 120.236 271.004 C 120.632 271.316 120.747 271.785 120.537 272.191 C 120.323 272.597 119.82 272.866 119.262 272.866 L 118.439 272.866 C 118.344 273.21 118.047 273.494 117.651 273.631 C 117.639 273.656 117.623 273.675 117.608 273.7 C 118.197 273.825 118.637 274.241 118.637 274.75 L 118.637 275.272 C 118.637 275.297 118.633 275.325 118.629 275.35 C 119.076 275.531 119.381 275.893 119.381 276.318 L 119.381 277.24 C 119.381 277.327 119.377 277.409 119.353 277.49 C 119.345 277.702 119.262 277.909 119.108 278.096 L 118.862 278.368 C 118.878 278.427 118.89 278.493 118.89 278.562 L 118.89 279.305 L 118.89 280.042 C 118.89 280.324 118.748 280.577 118.53 280.774 L 118.53 288.5 C 118.748 288.694 118.89 288.947 118.89 289.228 L 118.89 290.121 C 118.89 290.403 118.748 290.656 118.53 290.846 L 118.53 291.921 C 118.767 292.118 118.91 292.38 118.91 292.671 L 118.91 293.602 C 118.91 293.799 118.843 293.98 118.72 294.139 L 119.492 295.142 C 119.749 295.483 119.753 295.898 119.508 296.239 C 119.409 296.379 119.278 296.492 119.116 296.582 L 119.116 297.061 C 119.223 297.117 119.31 297.185 119.389 297.27 C 119.638 297.551 119.88 297.838 120.129 298.12 C 120.291 297.888 120.644 297.46 121.309 297.135 C 121.677 296.957 122.025 296.867 122.286 296.817 L 123.735 296.817 C 124.495 296.817 125.113 297.304 125.113 297.901 L 125.113 301.531 L 125.113 302.428 C 125.113 303.028 124.495 303.515 123.735 303.515 L 123.185 303.515 C 123.161 303.581 123.134 303.64 123.09 303.693 C 123.288 303.809 123.454 303.965 123.553 304.159 C 123.763 304.562 123.652 305.031 123.256 305.343 L 123.157 305.418 C 123.213 305.537 123.252 305.668 123.252 305.802 L 123.252 306.774 C 123.252 307.236 122.888 307.624 122.377 307.783 L 122.377 320.971 L 123.569 321.911 C 123.965 322.224 124.08 322.689 123.87 323.095 C 123.814 323.198 123.743 323.292 123.66 323.373 L 123.66 323.392 L 123.973 323.492 C 124.491 323.658 124.832 324.058 124.832 324.501 L 124.832 324.942 C 124.832 325.173 124.729 325.395 124.57 325.57 C 124.859 325.648 125.117 325.795 125.287 326.004 C 125.544 326.307 125.588 326.695 125.406 327.032 L 124.899 327.966 L 124.899 333.502 L 137.087 333.502 C 137.847 333.502 138.465 333.987 138.465 334.59 L 138.465 337.686 C 138.465 338.051 138.239 338.373 137.891 338.57 L 137.891 338.776 L 147.806 338.776 L 147.806 337.236 L 146.888 335.061 C 146.769 334.796 146.829 334.499 147.035 334.277 C 147.141 334.165 147.276 334.074 147.426 334.015 L 146.932 333.152 C 146.773 332.884 146.805 332.568 147.011 332.321 C 147.122 332.184 147.288 332.078 147.47 332.009 L 147.102 331.084 C 147.098 331.069 147.098 331.053 147.094 331.044 C 147.082 331.006 147.07 330.965 147.066 330.931 C 147.062 330.928 147.058 330.894 147.058 330.894 C 147.058 330.89 147.058 330.884 147.058 330.881 L 146.963 330.256 C 146.369 330.256 145.887 329.891 145.855 329.428 L 145.558 324.576 C 145.554 324.539 145.558 324.495 145.562 324.458 L 145.859 321.855 C 145.863 321.836 145.871 321.817 145.875 321.799 L 145.625 321.305 C 145.578 321.202 145.55 321.093 145.55 320.983 L 145.55 319.871 C 145.309 319.712 145.158 319.471 145.158 319.206 L 145.158 317.628 C 145.158 317.478 145.202 317.343 145.285 317.222 C 145.257 317.14 145.245 317.059 145.245 316.975 L 145.245 315.963 C 145.245 315.85 145.269 315.744 145.313 315.647 C 145.265 315.547 145.245 315.441 145.245 315.335 L 145.245 314.766 C 145.245 314.585 145.309 314.416 145.435 314.275 C 145.309 314.029 145.245 313.766 145.245 313.488 L 145.245 310.229 C 145.245 309.88 145.352 309.548 145.538 309.261 C 145.253 309.105 145.067 308.845 145.067 308.545 L 145.067 303.725 C 145.067 303.315 145.427 302.972 145.91 302.878 C 145.898 302.725 145.93 302.566 146.025 302.425 C 145.855 302.181 145.847 301.9 145.989 301.65 C 145.843 301.394 145.851 301.103 146.033 300.86 L 146.302 300.494 C 146.389 300.375 146.508 300.282 146.647 300.21 L 146.647 300.113 C 145.681 298.248 146.164 297.66 146.326 297.464 C 146.421 297.351 146.532 297.257 146.658 297.182 C 146.829 296.901 147.11 296.679 147.454 296.561 C 147.502 296.492 147.565 296.429 147.632 296.364 C 147.89 296.139 148.23 296.004 148.614 295.983 C 148.871 295.786 149.216 295.655 149.651 295.655 C 149.671 295.655 149.687 295.655 149.706 295.658 C 149.948 295.523 150.245 295.433 150.593 295.433 C 150.696 295.433 150.807 295.442 150.934 295.461 C 151.135 295.383 151.373 295.336 151.638 295.336 C 151.789 295.336 151.935 295.348 152.085 295.383 C 152.268 295.317 152.481 295.283 152.703 295.283 C 152.881 295.283 153.099 295.305 153.32 295.383 C 153.491 295.333 153.677 295.298 153.887 295.298 C 154.049 295.298 154.282 295.32 154.528 295.411 C 154.69 295.367 154.872 295.336 155.078 295.336 C 155.363 295.336 155.727 295.392 156.103 295.605 C 156.194 295.595 156.281 295.592 156.372 295.592 C 156.756 295.592 157.184 295.701 157.512 295.973 C 157.952 296.011 158.419 296.211 158.692 296.639 C 158.831 296.704 158.957 296.786 159.068 296.886 C 159.329 297.123 159.472 297.442 159.488 297.842 C 159.535 297.888 159.583 297.935 159.622 297.988 C 159.773 298.176 159.971 298.563 159.721 299.101 L 159.452 300.432 L 159.452 300.66 C 159.5 300.763 159.535 300.869 159.535 300.975 L 159.535 301.597 C 159.701 301.825 159.717 302.1 159.595 302.341 C 159.701 302.512 159.733 302.706 159.686 302.894 C 160.137 303.003 160.465 303.328 160.465 303.722 L 160.465 308.542 C 160.465 308.908 160.173 309.223 159.765 309.352 C 159.919 309.62 160.006 309.917 160.006 310.226 L 160.006 313.485 C 160.006 313.813 159.911 314.116 159.745 314.391 C 159.812 314.503 159.856 314.632 159.856 314.763 L 159.856 315.278 C 159.856 315.391 159.828 315.5 159.781 315.6 C 159.82 315.697 159.844 315.797 159.844 315.897 L 159.844 316.731 C 159.844 316.809 159.828 316.89 159.804 316.965 C 159.935 317.109 160.006 317.284 160.006 317.472 L 160.006 319.049 C 160.006 319.165 159.979 319.277 159.931 319.377 C 159.979 319.481 160.006 319.593 160.006 319.705 L 160.006 321.08 C 160.006 321.239 159.951 321.399 159.844 321.536 L 159.551 321.914 L 159.844 324.458 C 159.852 324.495 159.852 324.539 159.848 324.576 L 159.547 329.428 C 159.519 329.891 159.036 330.256 158.447 330.256 L 158.284 330.256 L 158.011 330.972 C 158.007 330.997 157.995 331.025 157.987 331.053 C 157.984 331.065 157.984 331.075 157.98 331.087 L 157.972 331.1 C 157.972 331.103 157.611 332.021 157.611 332.021 C 157.754 332.078 157.885 332.159 157.98 332.265 C 158.189 332.481 158.261 332.759 158.17 333.021 L 157.841 333.974 C 158.027 334.027 158.201 334.118 158.328 334.24 C 158.538 334.446 158.613 334.715 158.542 334.974 L 157.904 337.239 L 157.465 338.739 L 173.267 338.739 L 173.204 337.42 L 173.204 333.715 C 172.737 333.615 172.392 333.281 172.392 332.881 L 172.392 331.865 C 172.392 331.64 172.507 331.44 172.681 331.284 L 172.681 331.112 C 172.681 330.634 173.172 330.244 173.782 330.244 L 174.842 330.244 C 174.874 330.203 174.906 330.166 174.949 330.128 L 174.949 329.675 C 174.704 329.469 174.553 329.197 174.553 328.897 L 174.553 328.038 C 174.553 327.738 174.704 327.463 174.949 327.26 L 174.949 323.617 C 174.704 323.411 174.553 323.139 174.553 322.839 L 174.553 321.98 C 174.553 321.68 174.704 321.405 174.949 321.202 L 174.949 313.31 C 174.846 313.291 174.751 313.269 174.656 313.235 C 174.462 313.163 174.284 313.069 174.122 312.948 C 173.809 312.707 173.603 312.401 173.536 312.07 C 173.532 312.054 173.528 312.035 173.528 312.02 C 173.504 311.882 173.504 311.745 173.528 311.61 C 173.528 311.601 173.532 311.592 173.532 311.582 C 173.544 311.535 173.56 311.485 173.572 311.442 C 173.56 311.432 173.54 311.426 173.528 311.417 C 173.52 311.417 173.512 311.41 173.504 311.407 C 173.322 311.279 173.2 311.111 173.152 310.923 C 173.144 310.917 173.132 310.911 173.124 310.904 L 172.606 310.386 L 170.369 310.386 C 169.76 310.386 169.269 309.998 169.269 309.517 L 169.269 308.983 C 169.269 308.642 169.522 308.336 169.914 308.196 L 170.318 308.052 L 171.545 307.608 C 171.684 307.324 172.008 307.105 172.412 307.055 L 174.767 306.771 L 175.195 306.274 L 178.239 302.728 C 178.421 302.512 178.718 302.375 179.046 302.35 L 179.648 302.306 L 200.05 300.763 L 205.591 298.301 L 208.121 297.176 L 209.692 296.479 L 210.274 296.22 C 210.441 296.145 210.627 296.111 210.813 296.111 C 211.011 296.111 211.216 296.151 211.391 296.239 L 215.147 298.076 L 221.56 301.21 L 241.554 302.822 C 241.934 302.853 242.27 303.04 242.437 303.312 L 244.38 306.505 L 248.758 307.036 C 249.162 307.083 249.483 307.302 249.621 307.589 L 251.26 308.177 C 251.656 308.317 251.905 308.627 251.905 308.964 L 251.905 309.498 C 251.905 309.98 251.41 310.367 250.801 310.367 L 248.564 310.367 L 248.042 310.886 C 247.844 311.082 247.551 311.198 247.238 311.207 C 247.23 311.342 247.187 311.467 247.107 311.582 C 247.143 311.67 247.163 311.745 247.179 311.829 C 247.21 311.97 247.21 312.142 247.171 312.307 C 247.107 312.629 246.902 312.935 246.601 313.173 C 246.431 313.298 246.252 313.394 246.055 313.46 C 245.94 313.497 245.825 313.532 245.702 313.551 L 245.702 321.349 C 245.92 321.549 246.058 321.808 246.058 322.096 L 246.058 322.945 C 246.058 323.23 245.92 323.489 245.702 323.692 L 245.702 327.335 C 245.92 327.541 246.058 327.797 246.058 328.082 L 246.058 328.932 C 246.058 329.219 245.92 329.475 245.702 329.681 L 245.702 330.15 C 245.734 330.178 245.766 330.216 245.793 330.256 L 246.913 330.256 C 247.523 330.256 248.018 330.641 248.018 331.122 L 248.018 331.29 C 248.188 331.443 248.299 331.643 248.299 331.868 L 248.299 332.871 C 248.299 333.312 247.887 333.671 247.353 333.73 L 247.353 335.839 C 247.353 335.924 247.357 338.229 247.357 338.258 C 247.357 338.261 247.361 338.701 247.361 338.701 C 247.361 339.36 247.361 339.485 247.361 339.501 C 247.361 340.313 247.487 342.179 247.361 342.191 C 247.361 342.191 247.361 342.191 247.333 342.191 C 247.286 342.191 247.23 342.191 247.183 342.191 C 247.092 342.191 247.005 342.191 246.91 342.191 C 246.779 342.191 246.644 342.191 246.514 342.191 C 246.347 342.191 246.173 342.191 246.007 342.191 C 245.797 342.191 245.583 342.191 245.374 342.191 C 245.124 342.191 244.883 342.191 244.633 342.191 C 244.348 342.191 244.059 342.191 243.778 342.191 C 243.454 342.191 243.133 342.191 242.813 342.191 C 242.46 342.191 242.096 342.191 241.74 342.191 C 241.348 342.191 240.956 342.191 240.564 342.191 C 240.137 342.191 239.713 342.191 239.286 342.191 C 238.822 342.191 238.363 342.191 237.904 342.191 C 237.413 342.191 236.922 342.191 236.428 342.191 C 235.905 342.191 235.379 342.191 234.852 342.191 C 234.298 342.191 233.744 342.191 233.19 342.191 C 232.6 342.191 232.014 342.191 231.432 342.191 C 230.819 342.191 230.205 342.191 229.587 342.191 C 228.946 342.191 228.305 342.191 227.66 342.191 C 226.987 342.191 226.318 342.191 225.645 342.191 C 224.944 342.191 224.248 342.191 223.547 342.191 C 222.823 342.191 222.098 342.191 221.374 342.191 C 220.626 342.191 219.873 342.191 219.121 342.191 C 218.346 342.191 217.574 342.191 216.794 342.191 C 215.998 342.191 215.203 342.191 214.403 342.191 C 213.58 342.191 212.756 342.191 211.933 342.191 C 211.09 342.191 210.247 342.191 209.399 342.191 C 208.533 342.191 207.67 342.191 206.803 342.191 C 205.912 342.191 205.029 342.191 204.143 342.191 C 203.236 342.191 202.326 342.191 201.419 342.191 C 200.493 342.191 199.567 342.191 198.64 342.191 C 197.694 342.191 196.752 342.191 195.81 342.191 C 194.848 342.191 193.886 342.191 192.921 342.191 C 191.943 342.191 190.961 342.191 189.983 342.191 C 188.99 342.191 187.992 342.191 186.999 342.191 C 185.985 342.191 184.976 342.191 183.967 342.191 C 182.937 342.191 181.916 342.191 180.887 342.191 C 179.85 342.191 178.813 342.191 177.772 342.191 C 176.719 342.191 175.67 342.191 174.621 342.191 C 173.556 342.191 172.491 342.191 171.426 342.191 C 170.354 342.191 169.277 342.191 168.2 342.191 C 167.116 342.191 166.031 342.191 164.942 342.191 C 163.85 342.191 162.749 342.191 161.657 342.191 C 160.556 342.191 159.448 342.191 158.348 342.191 C 157.235 342.191 156.123 342.191 155.007 342.191 C 153.887 342.191 152.766 342.191 151.642 342.191 C 150.518 342.191 149.386 342.191 148.262 342.191 C 147.133 342.191 145.997 342.191 144.865 342.191 C 143.729 342.191 142.585 342.191 141.449 342.191 C 140.313 342.191 139.165 342.191 138.025 342.191 C 136.885 342.191 135.733 342.191 134.589 342.191 C 133.445 342.191 132.293 342.191 131.145 342.191 C 130.001 342.191 128.846 342.191 127.698 342.191 C 126.55 342.191 125.394 342.191 124.246 342.191 C 123.094 342.191 121.942 342.191 120.794 342.191 C 119.642 342.191 118.49 342.191 117.338 342.191 C 116.19 342.191 115.039 342.191 113.891 342.191 C 112.747 342.191 111.595 342.191 110.447 342.191 C 109.307 342.191 108.155 342.191 107.011 342.191 C 105.875 342.191 104.731 342.191 103.591 342.191 C 102.455 342.191 101.311 342.191 100.179 342.191 C 99.047 342.191 97.914 342.191 96.782 342.191 C 95.658 342.191 94.526 342.191 93.402 342.191 C 92.286 342.191 91.165 342.191 90.045 342.191 C 88.933 342.191 87.82 342.191 86.704 342.191 C 85.604 342.191 84.499 342.191 83.395 342.191 C 82.302 342.191 81.206 342.191 80.113 342.191 C 79.029 342.191 77.944 342.191 76.86 342.191 C 75.783 342.191 74.714 342.191 73.637 342.191 C 72.577 342.191 71.512 342.191 70.451 342.191 C 69.398 342.191 68.349 342.191 67.3 342.191 C 66.754 342.191 66.211 342.191 65.665 342.191 C 65.17 342.191 64.679 342.191 64.185 342.191 C 63.159 342.191 62.138 342.191 61.113 342.191 C 60.107 342.191 59.098 342.191 58.089 342.191 C 57.428 342.191 56.763 342.191 56.102 342.191 C 55.769 342.191 55.441 342.191 55.108 342.191 C 54.134 342.191 53.153 342.191 52.175 342.191 C 51.949 342.191 51.72 342.191 51.494 342.191 C 51.494 342.191 50.849 342.191 50.204 342.191 C 51.328 341.263 52.456 340.338 52.456 340.338 C 53.117 339.795 53.829 338.995 53.976 338.011 C 54.095 337.217 53.814 336.464 53.157 335.839 C 52.123 334.849 50.544 334.415 49.182 334.165 L 46.645 331.731 C 47.338 330.894 47.9 330 48.311 329.075 C 48.375 328.944 48.43 328.81 48.478 328.691 C 48.585 328.432 48.672 328.182 48.751 327.929 C 49.459 325.704 49.368 323.377 48.493 321.193 C 48.493 321.186 48.49 321.18 48.49 321.171 C 48.323 320.715 48.054 320.315 47.702 319.996 C 47.555 319.859 47.385 319.727 47.183 319.602 C 46.51 319.196 45.663 318.987 44.67 318.987 C 44.397 318.987 44.108 319.002 43.815 319.034 C 42.726 319.149 41.626 319.421 40.466 319.865 C 40.137 319.987 39.832 320.115 39.571 320.227 L 36.563 319.949 L 35.201 319.821 L 31.591 319.487 C 31.484 319.081 31.207 318.724 30.795 318.478 C 30.427 318.259 29.972 318.14 29.485 318.14 C 29.354 318.14 29.22 318.15 29.089 318.165 C 28.602 318.221 28.143 318.371 27.644 318.634 C 27.003 318.974 26.441 319.431 26.025 319.959 C 25.966 320.04 25.911 320.112 25.855 320.199 C 25.796 320.296 25.744 320.38 25.693 320.483 C 25.634 320.615 25.582 320.746 25.562 320.849 C 25.519 321.008 25.499 321.171 25.507 321.327 C 25.511 321.471 25.535 321.611 25.594 321.793 C 25.685 322.046 25.835 322.271 26.045 322.455 C 26.109 322.52 26.176 322.564 26.231 322.595 C 26.469 322.752 26.734 322.867 27.027 322.936 L 27.534 329.397 C 27.067 330.019 26.698 330.606 26.413 331.187 C 25.911 332.206 24.866 334.33 26.683 335.877 C 27.181 336.308 27.819 336.595 28.587 336.727 C 30.17 337.136 31.821 337.342 33.491 337.342 C 34.279 337.342 35.07 337.298 35.846 337.205 C 35.625 337.427 35.423 337.667 35.245 337.939 C 34.663 338.826 34.615 339.776 35.106 340.607 C 35.565 341.394 36.4 341.935 37.232 342.307 C 37.232 345.344 37.232 348.38 37.232 351.417" style="fill: none; stroke: rgb(222, 201, 163); stroke-miterlimit: 10; stroke-width: 3.3499px;" transform="matrix(1, 0, 0, 1, 2.842170943040401e-14, 0)"/>
  <g transform="matrix(0.3958420157432556, 0, 0, 0.3124300241470337, -0.6424250602721884, 217.43765258789062)" style="">
    <g>
      <path class="st7" d="M306.4,212.82c13.84,0,27.68,0,41.52,0c-0.7-0.7-1.4-1.4-2.09-2.09c0,7.76,0,15.52,0,23.28 c0,1.13,0.96,2.09,2.09,2.09c12.37,0,24.75,0,37.12,0c1.13,0,2.09-0.96,2.09-2.09c0-31.02,0-62.04,0-93.06 c-0.7,0.7-1.4,1.4-2.09,2.09c6.99-0.15,13.98-0.29,20.97-0.44c-0.7-0.7-1.4-1.4-2.09-2.09c0,29.38,0,58.75,0,88.13 c0,4.24,0,8.49,0,12.73c0,1.13,0.96,2.09,2.09,2.09c5.21,0,10.43,0,15.64,0c1.13,0,2.09-0.96,2.09-2.09c0-5.23,0-10.46,0-15.69 c-0.7,0.7-1.4,1.4-2.09,2.09c13.65,0,27.29,0,40.94,0c-0.7-0.7-1.4-1.4-2.09-2.09c0,10.08,0,20.16,0,30.24 c0,1.13,0.96,2.09,2.09,2.09c9.04,0,18.07,0,27.11,0c1.13,0,2.09-0.96,2.09-2.09c0-4.68,0-9.35,0-14.03 c-0.7,0.7-1.4,1.4-2.09,2.09c4.82,0,9.65,0,14.47,0c1.13,0,2.09-0.96,2.09-2.09c0-13.45,0-26.91,0-40.36 c-0.7,0.7-1.4,1.4-2.09,2.09c5.93,0,11.86,0,17.78,0c1.13,0,2.09-0.96,2.09-2.09c0-17.69,0-35.38,0-53.08 c-0.7,0.7-1.4,1.4-2.09,2.09c9.31,0,18.62,0,27.92,0c-0.7-0.7-1.4-1.4-2.09-2.09c0,6.73,0,13.46,0,20.19 c0,1.13,0.96,2.09,2.09,2.09c2.71,0,5.41,0,8.12,0c-0.7-0.7-1.4-1.4-2.09-2.09c0,3.04,0,6.09,0,9.13c0,1.13,0.96,2.09,2.09,2.09 c10.9,0,21.8,0,32.71,0c-0.7-0.7-1.4-1.4-2.09-2.09c0,24.33,0,48.67,0,73c0,3.43,0,6.85,0,10.28c0,1.92,2.24,2.62,3.57,1.48 c9.38-8.02,18.76-16.04,28.14-24.06c-0.99,0-1.97,0-2.96,0c5.69,5.46,11.39,10.93,17.08,16.39c1.65,1.59,3.31,3.17,4.96,4.76 c0.57,0.55,1.98,2.5,2.8,2.68c0.61,0.14,0.01-1.81-0.37-0.77c-0.24,0.64,0,1.84,0,2.5c0,18.66,0,37.31,0,55.97 c0,6.27,0,12.55,0,18.82c0,1.13,0.96,2.09,2.09,2.09c4.09,0,8.18,0,12.27,0c1.13,0,2.09-0.96,2.09-2.09c0-16.38,0-32.76,0-49.14 c0-25.96,0-51.93,0-77.89c0-5.99,0-11.99,0-17.98c-0.7,0.7-1.4,1.4-2.09,2.09c5.56-0.01,11.11-0.03,16.67-0.04 c1.13,0,2.09-0.96,2.09-2.09c0.02-5.02,0.03-10.04,0.05-15.06c-0.7,0.7-1.4,1.4-2.09,2.09c4.2,0,8.4,0,12.6,0 c-0.7-0.7-1.4-1.4-2.09-2.09c0,1.47,0,2.95,0,4.42c0,1.13,0.96,2.09,2.09,2.09c1.9,0,3.8,0,5.71,0c-0.7-0.7-1.4-1.4-2.09-2.09 c0,1.09,0,2.18,0,3.26c0,1.13,0.96,2.09,2.09,2.09c3.45,0,6.91,0,10.36,0c-0.7-0.7-1.4-1.4-2.09-2.09c0,1.08,0,2.16,0,3.23 c0,1.13,0.96,2.09,2.09,2.09c2.32,0,4.63,0,6.95,0c-0.7-0.7-1.4-1.4-2.09-2.09c0,1.46,0,2.93,0,4.39c0,1.13,0.96,2.09,2.09,2.09 c3.4,0,6.79,0,10.19,0c-0.7-0.7-1.4-1.4-2.09-2.09c0,0.97,0,1.95,0,2.92c0,1.13,0.96,2.09,2.09,2.09c2.17,0,4.34,0,6.51,0 c-0.7-0.7-1.4-1.4-2.09-2.09c0,1.64,0,3.27,0,4.91c0,1.13,0.96,2.09,2.09,2.09c1.77,0,3.54,0,5.32,0c-0.7-0.7-1.4-1.4-2.09-2.09 c0,1.05,0,2.09,0,3.14c0,1.13,0.96,2.09,2.09,2.09c1.95,0,3.91,0,5.86,0c-0.7-0.7-1.4-1.4-2.09-2.09c0,1.66,0,3.32,0,4.98 c0,1.13,0.96,2.09,2.09,2.09c2.21,0,4.41,0,6.62,0c-0.7-0.7-1.4-1.4-2.09-2.09c0,4.11,0,8.22,0,12.34c0,1.14,0.96,2.09,2.09,2.09 c6.93,0.04,13.87,0.09,20.8,0.13c1.13,0.01,2.09-0.97,2.09-2.09c-0.02-39.3-0.04-78.6-0.06-117.9c-0.7,0.7-1.4,1.4-2.09,2.09 c19.6,0,39.2,0,58.8,0c2.86,0,5.73,0,8.59,0c1.13,0,2.09-0.96,2.09-2.09c0-12.11,0-24.22,0-36.33c0-6.71,0-13.42,0-20.13 c0-0.78,0.08-1.6,0-2.38c-0.12-1.2,0.46-0.95-0.27,0.04c1.36-1.85,2.61-3.79,3.91-5.69c4.07-5.91,8.13-11.82,12.2-17.73 c-0.6,0.35-1.21,0.69-1.81,1.04c5.38,0,10.77,0,16.15,0c-0.7-0.7-1.4-1.4-2.09-2.09c0,9.78,0,19.57,0,29.35 c0,23.5,0,46.99,0,70.49c0,28.43,0,56.86,0,85.29c0,24.58,0,49.17,0,73.75c0,8.11,0,16.21,0,24.32c0,3.8-0.34,7.77,0,11.56 c0.02,0.17,0,0.34,0,0.51c0,1.13,0.96,2.09,2.09,2.09c4.93,0,9.85,0,14.78,0c1.13,0,2.09-0.96,2.09-2.09c0-21.9,0-43.81,0-65.71 c0-34.75,0-69.51,0-104.26c0-7.99,0-15.99,0-23.98c-0.7,0.7-1.4,1.4-2.09,2.09c24.21,0,48.42,0,72.62,0c3.45,0,6.9,0,10.35,0 c-0.7-0.7-1.4-1.4-2.09-2.09c0,16.85,0,33.71,0,50.56c0,27,0,54.01,0,81.01c0,6.17,0,12.33,0,18.5c0,1.13,0.96,2.09,2.09,2.09 c8.73,0,17.47,0,26.2,0c1.13,0,2.09-0.96,2.09-2.09c0-34.34,0-68.67,0-103.01c0-4.89,0-9.78,0-14.68 c-0.35,0.6-0.69,1.21-1.04,1.81c12.11-6.1,24.22-12.21,36.33-18.31c0.65-0.33,1.04-1.11,1.04-1.81c0-12.72,0-25.44,0-38.15 c-0.7,0.7-1.4,1.4-2.09,2.09c16.3,0,32.6,0,48.9,0c-0.7-0.7-1.4-1.4-2.09-2.09c0,56.29,0,112.58,0,168.86c0,16.05,0,32.09,0,48.14 c0,2.69,4.19,2.7,4.19,0c0-56.29,0-112.58,0-168.86c0-16.05,0-32.09,0-48.14c0-1.13-0.96-2.09-2.09-2.09c-16.3,0-32.6,0-48.9,0 c-1.13,0-2.09,0.96-2.09,2.09c0,12.72,0,25.44,0,38.15c0.35-0.6,0.69-1.21,1.04-1.81c-12.11,6.1-24.22,12.21-36.33,18.31 c-0.65,0.33-1.04,1.11-1.04,1.81c0,34.34,0,68.67,0,103.01c0,4.89,0,9.78,0,14.68c0.7-0.7,1.4-1.4,2.09-2.09 c-8.73,0-17.47,0-26.2,0c0.7,0.7,1.4,1.4,2.09,2.09c0-16.85,0-33.71,0-50.56c0-27,0-54.01,0-81.01c0-6.17,0-12.33,0-18.5 c0-1.13-0.96-2.09-2.09-2.09c-24.21,0-48.42,0-72.62,0c-3.45,0-6.9,0-10.35,0c-1.13,0-2.09,0.96-2.09,2.09c0,21.9,0,43.81,0,65.71 c0,34.75,0,69.51,0,104.26c0,7.99,0,15.99,0,23.98c0.7-0.7,1.4-1.4,2.09-2.09c-4.93,0-9.85,0-14.78,0c0.7,0.7,1.4,1.4,2.09,2.09 c0-9.78,0-19.57,0-29.35c0-23.5,0-46.99,0-70.49c0-28.43,0-56.86,0-85.29c0-24.58,0-49.17,0-73.75c0-8.11,0-16.21,0-24.32 c0-3.8,0.34-7.77,0-11.56c-0.02-0.17,0-0.34,0-0.51c0-1.13-0.96-2.09-2.09-2.09c-3.91,0-7.83,0-11.74,0 c-2.67,0-4.94-0.58-6.66,1.68c-5.17,6.8-9.73,14.14-14.57,21.18c-2.4,3.49-1.4,8.21-1.4,12.31c0,9.76,0,19.52,0,29.28 c0,6.97,0,13.94,0,20.91c0.7-0.7,1.4-1.4,2.09-2.09c-19.6,0-39.2,0-58.8,0c-2.86,0-5.73,0-8.59,0c-1.13,0-2.09,0.96-2.09,2.09 c0.02,39.3,0.04,78.6,0.06,117.9c0.7-0.7,1.4-1.4,2.09-2.09c-6.93-0.04-13.87-0.09-20.8-0.13c0.7,0.7,1.4,1.4,2.09,2.09 c0-4.11,0-8.22,0-12.34c0-1.13-0.96-2.09-2.09-2.09c-2.21,0-4.41,0-6.62,0c0.7,0.7,1.4,1.4,2.09,2.09c0-1.66,0-3.32,0-4.98 c0-1.13-0.96-2.09-2.09-2.09c-1.95,0-3.91,0-5.86,0c0.7,0.7,1.4,1.4,2.09,2.09c0-1.05,0-2.09,0-3.14c0-1.13-0.96-2.09-2.09-2.09 c-1.77,0-3.54,0-5.32,0c0.7,0.7,1.4,1.4,2.09,2.09c0-1.64,0-3.27,0-4.91c0-1.13-0.96-2.09-2.09-2.09c-2.17,0-4.34,0-6.51,0 c0.7,0.7,1.4,1.4,2.09,2.09c0-0.97,0-1.95,0-2.92c0-1.13-0.96-2.09-2.09-2.09c-3.4,0-6.79,0-10.19,0c0.7,0.7,1.4,1.4,2.09,2.09 c0-1.46,0-2.93,0-4.39c0-1.13-0.96-2.09-2.09-2.09c-2.32,0-4.63,0-6.95,0c0.7,0.7,1.4,1.4,2.09,2.09c0-1.08,0-2.16,0-3.23 c0-1.13-0.96-2.09-2.09-2.09c-3.45,0-6.91,0-10.36,0c0.7,0.7,1.4,1.4,2.09,2.09c0-1.09,0-2.18,0-3.26c0-1.13-0.96-2.09-2.09-2.09 c-1.9,0-3.8,0-5.71,0c0.7,0.7,1.4,1.4,2.09,2.09c0-1.47,0-2.95,0-4.42c0-1.13-0.96-2.09-2.09-2.09c-4.2,0-8.4,0-12.6,0 c-1.13,0-2.09,0.96-2.09,2.09c-0.02,5.02-0.03,10.04-0.05,15.06c0.7-0.7,1.4-1.4,2.09-2.09c-5.56,0.01-11.11,0.03-16.67,0.04 c-1.13,0-2.09,0.96-2.09,2.09c0,16.38,0,32.76,0,49.14c0,25.96,0,51.93,0,77.89c0,5.99,0,11.99,0,17.98c0.7-0.7,1.4-1.4,2.09-2.09 c-4.09,0-8.18,0-12.27,0c0.7,0.7,1.4,1.4,2.09,2.09c0-15.86,0-31.72,0-47.58c0-8.73,0-17.46,0-26.19c0-1.31,0.37-3.27-0.07-4.55 c-0.74-2.12-3.89-4.14-5.42-5.61c-6.73-6.46-13.47-12.92-20.2-19.38c-0.86-0.83-2.08-0.75-2.96,0 c-9.38,8.02-18.76,16.04-28.14,24.06c1.19,0.49,2.38,0.99,3.57,1.48c0-24.33,0-48.67,0-73c0-3.43,0-6.85,0-10.28 c0-1.13-0.96-2.09-2.09-2.09c-10.9,0-21.8,0-32.71,0c0.7,0.7,1.4,1.4,2.09,2.09c0-3.04,0-6.09,0-9.13c0-1.13-0.96-2.09-2.09-2.09 c-2.71,0-5.41,0-8.12,0c0.7,0.7,1.4,1.4,2.09,2.09c0-6.73,0-13.46,0-20.19c0-1.13-0.96-2.09-2.09-2.09c-9.31,0-18.62,0-27.92,0 c-1.13,0-2.09,0.96-2.09,2.09c0,17.69,0,35.38,0,53.08c0.7-0.7,1.4-1.4,2.09-2.09c-5.93,0-11.86,0-17.78,0 c-1.13,0-2.09,0.96-2.09,2.09c0,13.45,0,26.91,0,40.36c0.7-0.7,1.4-1.4,2.09-2.09c-4.82,0-9.65,0-14.47,0 c-1.13,0-2.09,0.96-2.09,2.09c0,4.68,0,9.35,0,14.03c0.7-0.7,1.4-1.4,2.09-2.09c-9.04,0-18.07,0-27.11,0 c0.7,0.7,1.4,1.4,2.09,2.09c0-10.08,0-20.16,0-30.24c0-1.13-0.96-2.09-2.09-2.09c-13.65,0-27.29,0-40.94,0 c-1.13,0-2.09,0.96-2.09,2.09c0,5.23,0,10.46,0,15.69c0.7-0.7,1.4-1.4,2.09-2.09c-5.21,0-10.43,0-15.64,0 c0.7,0.7,1.4,1.4,2.09,2.09c0-29.38,0-58.75,0-88.13c0-4.24,0-8.49,0-12.73c0-1.11-0.96-2.12-2.09-2.09 c-6.99,0.15-13.98,0.29-20.97,0.44c-1.13,0.02-2.09,0.94-2.09,2.09c0,31.02,0,62.04,0,93.06c0.7-0.7,1.4-1.4,2.09-2.09 c-12.37,0-24.75,0-37.12,0c0.7,0.7,1.4,1.4,2.09,2.09c0-7.76,0-15.52,0-23.28c0-1.13-0.96-2.09-2.09-2.09 c-13.84,0-27.68,0-41.52,0C303.7,208.63,303.7,212.82,306.4,212.82L306.4,212.82z" style="fill: rgb(188, 149, 91);"/>
    </g>
  </g>
  <g transform="matrix(0.3958420157432556, 0, 0, 0.3124300241470337, -0.6424250602721884, 217.43765258789062)" style="">
    <g>
      <path class="st7" d="M89.89,315.65c0-17.71,0-35.42,0-53.13c0-9.08,0-18.16,0-27.23c0-3.06,0-6.12,0-9.19 c-0.7,0.7-1.4,1.4-2.09,2.09c7.02,0,14.03,0,21.05,0c11.17,0,22.35,0,33.52,0c2.55,0,5.11,0,7.66,0c1.13,0,2.09-0.96,2.09-2.09 c0-7.27,0-14.53,0-21.8c0-11.49,0-22.98,0-34.47c0-2.66,0-5.32,0-7.97c-0.7,0.7-1.4,1.4-2.09,2.09c11.36,0,22.71,0,34.07,0 c1.61,0,3.22,0,4.82,0c-0.7-0.7-1.4-1.4-2.09-2.09c0,4.31,0,8.61,0,12.92c0,10.3,0,20.6,0,30.89c0,12.45,0,24.9,0,37.35 c0,10.79,0,21.59,0,32.38c0,5.2-0.18,10.44,0,15.65c0,0.08,0,0.15,0,0.23c0,1.13,0.96,2.09,2.09,2.09c2.21,0,4.41,0,6.62,0 c1.13,0,2.09-0.96,2.09-2.09c0-4.67,0-9.33,0-14c0-11.21,0-22.41,0-33.62c0-13.56,0-27.11,0-40.67c0-11.71,0-23.43,0-35.14 c0-3.84,0-7.68,0-11.52c0-1.82,0.16-3.72,0-5.53c-0.01-0.08,0-0.16,0-0.23c-0.7,0.7-1.4,1.4-2.09,2.09c7.33,0,14.66,0,21.99,0 c2.69,0,2.7-4.19,0-4.19c-7.33,0-14.66,0-21.99,0c-1.13,0-2.09,0.96-2.09,2.09c0,4.67,0,9.33,0,14c0,11.21,0,22.41,0,33.62 c0,13.56,0,27.11,0,40.67c0,11.71,0,23.43,0,35.14c0,3.84,0,7.68,0,11.52c0,1.82-0.16,3.72,0,5.53c0.01,0.08,0,0.16,0,0.23 c0.7-0.7,1.4-1.4,2.09-2.09c-2.21,0-4.41,0-6.62,0c0.7,0.7,1.4,1.4,2.09,2.09c0-4.31,0-8.61,0-12.92c0-10.3,0-20.6,0-30.89 c0-12.45,0-24.9,0-37.35c0-10.79,0-21.59,0-32.38c0-5.2,0.18-10.44,0-15.65c0-0.08,0-0.15,0-0.23c0-1.13-0.96-2.09-2.09-2.09 c-11.36,0-22.71,0-34.07,0c-1.61,0-3.22,0-4.82,0c-1.13,0-2.09,0.96-2.09,2.09c0,7.27,0,14.53,0,21.8c0,11.49,0,22.98,0,34.47 c0,2.66,0,5.32,0,7.97c0.7-0.7,1.4-1.4,2.09-2.09c-7.02,0-14.03,0-21.05,0c-11.17,0-22.35,0-33.52,0c-2.55,0-5.11,0-7.66,0 c-1.13,0-2.09,0.96-2.09,2.09c0,7.56,0,15.12,0,22.68c0,10.16,0,20.31,0,30.47c0,12.13,0,24.27,0,36.4 C85.7,318.34,89.89,318.35,89.89,315.65L89.89,315.65z" style="fill: rgb(188, 149, 91);"/>
    </g>
  </g>
  <path class="st8" d="M 437.052 301.778 C 437.179 301.578 437.199 301.356 437.108 301.141 L 437.092 301.097 L 445.618 298.876 L 444.158 303.15 L 442.745 303.15 C 442.424 303.15 442.159 303.356 442.159 303.612 L 442.159 304.953 C 442.159 305.206 442.424 305.415 442.745 305.415 L 443.382 305.415 L 440.223 314.641 L 438.731 312.126 C 439.4 311.842 439.859 311.279 439.859 310.639 L 439.859 307.817 C 439.859 306.883 438.897 306.127 437.717 306.127 L 435.79 306.127 L 435.79 302.369 L 436.435 302.2 C 436.708 302.128 436.922 301.981 437.052 301.778 Z" style="fill: none; stroke: rgb(222, 201, 163); stroke-miterlimit: 10; stroke-width: 1.7454px;" transform="matrix(1, 0, 0, 1, 2.842170943040401e-14, 0)"/>
  <line class="st9" x1="37.224" y1="353.626" x2="37.224" y2="351.417" style="fill: none; stroke: rgb(188, 149, 91); stroke-miterlimit: 10; stroke-width: 1.928px;" transform="matrix(1, 0, 0, 1, 2.842170943040401e-14, 0)"/>
  <g transform="matrix(0.3958420157432556, 0, 0, 0.3124300241470337, -0.6424250602721884, 217.43765258789062)" style="">
    <path class="st6" d="M 1022.05 419.83 C 1022.05 429.8 1022.05 439.77 1022.05 449.72999999999996 C 1022.05 451.50999999999993 1023.5 452.96 1025.28 452.96 L 1034.17 452.96 C 1035.95 452.96 1037.4 451.51 1037.4 449.72999999999996 L 1037.4 409.36999999999995 L 1038.3200000000002 410.22999999999996 C 1038.92 410.78999999999996 1039.7100000000003 411.10999999999996 1040.5300000000002 411.10999999999996 L 1052.3400000000001 411.10999999999996 L 1054.88 412.21999999999997 L 1056.3500000000001 413.21 C 1056.89 413.57 1057.5200000000002 413.76 1058.15 413.76 C 1058.43 413.76 1058.7 413.71999999999997 1058.98 413.65 L 1061.43 413 C 1061.6000000000001 412.96 1061.76 412.9 1061.92 412.82 L 1065.1000000000001 411.39 C 1065.21 411.34 1065.3200000000002 411.28 1065.43 411.21999999999997 L 1066.95 410.32 L 1070.3 410.40999999999997 C 1070.96 410.42999999999995 1071.59 410.24999999999994 1072.1299999999999 409.9 L 1073.06 409.31 L 1073.06 449.73 C 1073.06 451.51 1074.51 452.96000000000004 1076.29 452.96000000000004 L 1086.05 452.96000000000004 C 1087.83 452.96000000000004 1089.28 451.51000000000005 1089.28 449.73 L 1089.28 372.03000000000003 C 1089.92 371.69000000000005 1090.45 371.14000000000004 1090.74 370.43 L 1093.19 364.6 C 1093.6100000000001 363.6 1093.5 362.46000000000004 1092.9 361.56 C 1092.3000000000002 360.66 1091.2900000000002 360.12 1090.21 360.12 L 1089.28 360.12 L 1089.28 359.89 C 1089.28 349.44 1097.28 340.94 1107.11 340.94 C 1116.9399999999998 340.94 1124.9399999999998 349.44 1124.9399999999998 359.89 L 1124.9399999999998 360.12 L 1122.9099999999999 360.12 C 1121.83 360.12 1120.82 360.66 1120.2199999999998 361.56 C 1119.62 362.46 1119.5099999999998 363.6 1119.9299999999998 364.6 L 1122.3799999999999 370.43 C 1122.83 371.5 1123.81 372.23 1124.9499999999998 372.38 L 1124.9499999999998 450.57 C 1124.9499999999998 452.34999999999997 1126.3999999999999 453.8 1128.1799999999998 453.8 L 1136.12 453.8 C 1137.8999999999999 453.8 1139.35 452.35 1139.35 450.57 L 1139.35 372.35 C 1140.3999999999999 372.15000000000003 1141.29 371.44 1141.7199999999998 370.43 L 1144.1699999999998 364.6 C 1144.59 363.6 1144.4799999999998 362.46000000000004 1143.8799999999999 361.56 C 1143.28 360.66 1142.27 360.12 1141.1899999999998 360.12 L 1139.36 360.12 L 1139.36 359.89 C 1139.36 349.44 1147.35 340.94 1157.1799999999998 340.94 C 1158.9599999999998 340.94 1160.4099999999999 339.49 1160.4099999999999 337.71 L 1160.4099999999999 331.40999999999997 C 1160.4099999999999 329.63 1158.9599999999998 328.17999999999995 1157.1799999999998 328.17999999999995 L 833.2799999999999 328.17999999999995 C 831.4999999999999 328.17999999999995 830.0499999999998 329.62999999999994 830.0499999999998 331.40999999999997 L 830.0499999999998 337.71 C 830.0499999999998 339.48999999999995 831.4999999999999 340.94 833.2799999999999 340.94 C 843.1099999999999 340.94 851.1099999999999 349.44 851.1099999999999 359.89 L 851.1099999999999 360.12 L 849.9899999999999 360.12 C 848.9099999999999 360.12 847.8999999999999 360.66 847.2999999999998 361.56 C 846.6999999999998 362.46 846.5899999999998 363.6 847.0099999999999 364.6 L 849.4599999999999 370.43 C 849.78 371.2 850.3799999999999 371.79 851.1199999999999 372.12 L 851.1199999999999 449.73 C 851.1199999999999 451.51 852.5699999999999 452.96000000000004 854.3499999999999 452.96000000000004 L 864.1099999999999 452.96000000000004 C 865.8899999999999 452.96000000000004 867.3399999999999 451.51000000000005 867.3399999999999 449.73 L 867.3399999999999 372.02000000000004 C 867.9799999999999 371.68000000000006 868.5099999999999 371.13000000000005 868.8 370.43000000000006 L 871.25 364.6000000000001 C 871.67 363.6000000000001 871.56 362.4600000000001 870.96 361.56000000000006 C 870.36 360.6600000000001 869.35 360.12000000000006 868.27 360.12000000000006 L 867.34 360.12000000000006 L 867.34 359.89000000000004 C 867.34 349.44000000000005 875.34 340.94000000000005 885.1700000000001 340.94000000000005 C 895.0000000000001 340.94000000000005 903.0000000000001 349.44000000000005 903.0000000000001 359.89000000000004 L 903.0000000000001 360.12000000000006 L 901.9300000000001 360.12000000000006 C 900.85 360.12000000000006 899.84 360.6600000000001 899.24 361.56000000000006 C 898.64 362.46000000000004 898.53 363.6000000000001 898.95 364.6000000000001 L 901.4000000000001 370.43000000000006 C 901.7200000000001 371.18000000000006 902.3000000000001 371.77000000000004 903.0100000000001 372.1000000000001 L 903.0100000000001 449.7300000000001 C 903.0100000000001 451.51000000000005 904.4600000000002 452.9600000000001 906.2400000000001 452.9600000000001 L 915.7500000000001 452.9600000000001 C 917.5300000000001 452.9600000000001 918.9800000000001 451.5100000000001 918.9800000000001 449.7300000000001 L 918.9800000000001 372.1700000000001 C 919.7600000000001 371.8500000000001 920.4100000000001 371.24000000000007 920.7500000000001 370.43000000000006 L 923.2000000000002 364.6000000000001 C 923.6200000000001 363.6000000000001 923.5100000000001 362.4600000000001 922.9100000000002 361.56000000000006 C 922.3100000000002 360.6600000000001 921.3000000000002 360.12000000000006 920.2200000000001 360.12000000000006 L 918.9900000000001 360.12000000000006 L 918.9900000000001 359.89000000000004 C 918.9900000000001 349.44000000000005 926.9900000000001 340.94000000000005 936.8200000000002 340.94000000000005 C 946.6500000000002 340.94000000000005 954.6500000000002 349.44000000000005 954.6500000000002 359.89000000000004 L 954.6500000000002 360.12000000000006 L 953.3400000000003 360.12000000000006 C 952.2600000000002 360.12000000000006 951.2500000000002 360.6600000000001 950.6500000000002 361.56000000000006 C 950.0500000000002 362.46000000000004 949.9400000000002 363.6000000000001 950.3600000000002 364.6000000000001 L 952.8100000000003 370.43000000000006 C 953.1600000000003 371.26000000000005 953.8400000000003 371.89000000000004 954.6600000000003 372.20000000000005 L 954.6600000000003 449.73 C 954.6600000000003 451.51 956.1100000000004 452.96000000000004 957.8900000000003 452.96000000000004 L 966.9400000000003 452.96000000000004 C 968.7200000000003 452.96000000000004 970.1700000000003 451.51000000000005 970.1700000000003 449.73 C 970.1700000000003 439.73 970.1700000000003 429.73 970.1700000000003 419.73 L 970.1700000000003 418.67 L 972.3300000000003 418.67 L 972.3400000000003 419.84000000000003 L 972.3400000000003 449.73 C 972.3400000000003 451.51 973.7900000000003 452.96000000000004 975.5700000000003 452.96000000000004 C 977.3500000000003 452.96000000000004 978.8000000000003 451.51000000000005 978.8000000000003 449.73 L 978.8000000000003 419.84000000000003 C 978.8000000000003 410.78000000000003 986.5700000000003 403.41 996.1300000000003 403.41 C 1005.6800000000003 403.41 1013.4500000000004 410.78000000000003 1013.4500000000004 419.84000000000003 L 1013.4500000000004 450.57000000000005 C 1013.4500000000004 452.35 1014.9000000000004 453.80000000000007 1016.6800000000004 453.80000000000007 C 1018.4600000000004 453.80000000000007 1019.9100000000004 452.3500000000001 1019.9100000000004 450.57000000000005 C 1019.9100000000004 440.33000000000004 1019.9100000000004 430.08000000000004 1019.9100000000004 419.84000000000003 L 1022.05 419.83 Z" style="fill: none; stroke: rgb(222, 201, 163); stroke-miterlimit: 10; stroke-width: 3.3499px;"/>
    <path class="st6" d="M 1071.62 402.57 C 1071.52 402.62 1071.4199999999998 402.68 1071.33 402.74 L 1069.48 403.93 L 1066.19 403.84000000000003 C 1065.5800000000002 403.83000000000004 1064.98 403.98 1064.45 404.29 L 1062.28 405.58000000000004 L 1059.51 406.82000000000005 L 1058.73 407.03000000000003 L 1058.23 406.70000000000005 C 1058.07 406.59000000000003 1057.9 406.50000000000006 1057.72 406.4200000000001 L 1054.29 404.9200000000001 C 1053.8799999999999 404.74000000000007 1053.44 404.6500000000001 1053 404.6500000000001 L 1041.8 404.6500000000001 L 1041.02 403.9100000000001 C 1040.7 403.61000000000007 1040.33 403.3800000000001 1039.92 403.2300000000001 L 1037.4 402.31000000000006 L 1037.4 372.24000000000007 C 1038.26 371.95000000000005 1038.98 371.30000000000007 1039.3500000000001 370.43000000000006 L 1041.8000000000002 364.6000000000001 C 1042.2200000000003 363.6000000000001 1042.1100000000001 362.4600000000001 1041.5100000000002 361.56000000000006 C 1040.9100000000003 360.6600000000001 1039.9000000000003 360.12000000000006 1038.8200000000002 360.12000000000006 L 1037.41 360.12000000000006 L 1037.41 359.89000000000004 C 1037.41 349.44000000000005 1045.41 340.94000000000005 1055.24 340.94000000000005 C 1065.07 340.94000000000005 1073.07 349.44000000000005 1073.07 359.89000000000004 L 1073.07 360.12000000000006 L 1071.95 360.12000000000006 C 1070.8700000000001 360.12000000000006 1069.8600000000001 360.6600000000001 1069.26 361.56000000000006 C 1068.66 362.46000000000004 1068.55 363.6000000000001 1068.97 364.6000000000001 L 1071.42 370.43000000000006 C 1071.74 371.20000000000005 1072.3400000000001 371.7900000000001 1073.0700000000002 372.12000000000006 L 1073.0700000000002 401.8500000000001 L 1071.62 402.57 Z" style="fill: none; stroke: rgb(222, 201, 163); stroke-miterlimit: 10; stroke-width: 3.3499px;"/>
    <path class="st6" d="M 970.12 372.25 C 971 371.96 971.73 371.31 972.1 370.43 L 974.5500000000001 364.6 C 974.97 363.6 974.86 362.46000000000004 974.2600000000001 361.56 C 973.6600000000001 360.66 972.6500000000001 360.12 971.57 360.12 L 970.12 360.12 L 970.12 359.89 C 970.12 349.44 981.77 340.94 996.08 340.94 C 1010.4000000000001 340.94 1022.0500000000001 349.44 1022.0500000000001 359.89 L 1022.0500000000001 360.12 L 1020.5400000000001 360.12 C 1019.46 360.12 1018.45 360.66 1017.85 361.56 C 1017.25 362.46 1017.14 363.6 1017.5600000000001 364.6 L 1020.0100000000001 370.43 C 1020.3900000000001 371.33 1021.1500000000001 372 1022.0600000000001 372.27 L 1022.0600000000001 392.49 L 1004.6700000000001 392.49 L 1004.8100000000001 385.83 C 1004.83 384.91999999999996 1004.46 384.03999999999996 1003.7900000000001 383.40999999999997 L 998.0600000000001 378.02 C 997.44 377.43 996.6400000000001 377.14 995.84 377.14 C 995.0400000000001 377.14 994.25 377.43 993.62 378.02 L 988.22 383.10999999999996 C 987.57 383.71999999999997 987.2 384.56999999999994 987.2 385.46 L 987.2 392.5 L 970.12 392.5 L 970.12 372.25 Z" style="fill: none; stroke: rgb(222, 201, 163); stroke-miterlimit: 10; stroke-width: 3.3499px;"/>
  </g>
  <path class="st10" d="M 305.981 329.135 C 305.862 329.903 305.787 330.747 305.664 332.056 C 305.435 334.583 305.708 335.046 305.534 338.036 C 305.451 339.414 305.348 339.754 305.193 341.513 C 305.063 343.016 304.92 344.95 304.817 347.24" style="fill: none; stroke: rgb(188, 149, 91); stroke-miterlimit: 10; stroke-width: 0.2358px;" transform="matrix(1, 0, 0, 1, 2.842170943040401e-14, 0)"/>
  <rect x="71.136" y="350.036" class="st11" width="23.062" height="2.487" style="fill: rgb(238, 228, 209);" transform="matrix(1, 0, 0, 1, 2.842170943040401e-14, 0)"/>
  <rect x="105.962" y="350.036" class="st11" width="23.062" height="2.487" style="fill: rgb(238, 228, 209);" transform="matrix(1, 0, 0, 1, 2.842170943040401e-14, 0)"/>
  <rect x="140.788" y="350.036" class="st11" width="23.062" height="2.487" style="fill: rgb(238, 228, 209);" transform="matrix(1, 0, 0, 1, 2.842170943040401e-14, 0)"/>
  <rect x="175.614" y="350.036" class="st11" width="23.062" height="2.487" style="fill: rgb(238, 228, 209);" transform="matrix(1, 0, 0, 1, 2.842170943040401e-14, 0)"/>
  <rect x="210.441" y="350.036" class="st11" width="23.062" height="2.487" style="fill: rgb(238, 228, 209);" transform="matrix(1, 0, 0, 1, 2.842170943040401e-14, 0)"/>
</svg>