<svg xmlns="http://www.w3.org/2000/svg" width="452.399" height="141.076" viewBox="17.493 223.363 452.399 141.076"><path d="M37.224 353.626H17.475" class="st5" style="fill:none;stroke:#bc955b;stroke-miterlimit:10;stroke-width:2.0363px"/><path d="M427.683 319.971v-4.79c0-.253.265-.462.586-.462h.823l1.54-2.593c-.669-.284-1.124-.847-1.124-1.487v-2.822c0-.934.958-1.69 2.141-1.69h2.609v-3.946a.866.866 0 0 1-.17-.25l-.016-.043-.982.253a1.12 1.12 0 0 1-.305.04c-.423 0-.799-.215-.93-.531l-1.017-2.424c-.17-.403.111-.844.621-.978l.978-.253-.016-.047a.677.677 0 0 1 .056-.638c.122-.196.344-.346.613-.415l1.013-.263a1.31 1.31 0 0 1 .333-.043c.455 0 .863.231 1.001.575l.02.046 18.272-4.761 1.073-1.921 1.057-5.577c.059-.316.412-.556.815-.556.115 0 .226.018.333.056.546.194 1.077.409 1.587.653 3.112 1.471 5.455 3.78 6.599 6.505.724 1.727.942 3.511.641 5.295v13.794h1.033c.408 0 .741.259.741.584v1.291c0 .253-.266.462-.586.462h-.167v1.687h.725c.32 0 .586.21.586.463V362.824H23.809" class="st6" style="fill:none;stroke:#dec9a3;stroke-miterlimit:10;stroke-width:3.3499px"/><path d="m336.987 359.222-20.069.262v-.856l-.016-1.584v-6.092c.004-1.085.012-2.169.016-3.253-.645.078-1.29.147-1.947.216l-.095.009c-.594.06-1.061.394-1.216.831l-3.962.847v-.009c0-.894-.847-1.375-1.651-1.375-.178 0-.356.019-.53.065l-2.775.56a154.084 154.084 0 0 1 .443-7.327c.155-1.759.262-2.099.341-3.477.174-2.987-.103-3.452.131-5.98.122-1.309.197-2.153.316-2.921.048-.319.107-.619.174-.941.424-1.946.919-2.983.226-3.493-.333-.243-1.1-.221-2.62-.162-2.261.09-2.882.322-3.274-.013-.238-.203-.206-.443.055-2.059.21-1.315.293-1.759.345-2.143.039-.272.107-.756.166-2.824.024-.856.047-1.975.055-3.296 1.279.04 2.411.047 3.349.04 1.211-.009 1.944-.043 2.355-.459.238-.237.293-.519.297-.728.368.059 3.686.612 5.257.437.61-.068.891-.237 1.045-.368.269-.228.412-.534.392-.85l-.024-.331c-.095-1.334-.182-2.668-.281-3.999.099-1.403-1.156-2.031-2.03-2.106a1.54 1.54 0 0 0-.163-.009l-11.273.056c-.171-.806-.646-1.9-1.932-2.547l-.519-5.704 11.369-.16c.61-.009 1.136-.303 1.346-.753l.613-1.309c.171-.369.099-.775-.197-1.09-.274-.291-.713-.466-1.176-.466-.028 0-.06 0-.091.003l-12.434.619v-.225c0-.634-.657-1.153-1.46-1.153h-1.501c-.803 0-1.46.519-1.46 1.153v.547l-7.236.165c.059-.318-.048-.637-.305-.89-.281-.275-.693-.434-1.14-.434h-1.805c-.748 0-1.37.44-1.453 1.021 0 0-.19 1.328-.443 3.128l-.056.418c-.067.485-.138 1-.205 1.525l-.143 1.075a166.842 166.842 0 0 0-.38 3.083l-.047.404c-.072.665-.139 1.265-.179 1.762-.011.128-.023.243-.031.353l-1.322.025-.59.009-.97.022c-.202.003-.412.006-.562.012l-.823.013-3.357.072c-.36.009-.717.015-1.097.019l-.217.006-1.037.019-.681.015-.107-.003a4.188 4.188 0 0 0-.194-.006c-.119 0-.242.006-.356.022-.44.046-.828.203-1.136.446-.369.3-.563.716-.551 1.15 0 .1.012.2.028.319 0 .015.004.031.004.059V311.304c.004.135.04.809.115 1.819.024.303.202.596.491.799.083.057.17.107.273.147.245.378.744.625 1.294.625h2.553c.27.297.709.484 1.192.484h1.037l-3.139 7.002-19.234 29.222-4.374 6.648-.99 1.418H65.665v-24.885c0-.603.618-1.087 1.378-1.087h12.485v-5.561l-.495-.906a.9.9 0 0 1 .118-1.028c.206-.25.535-.416.903-.469a.922.922 0 0 1-.21-.565v-.631c0-.506.448-.95 1.077-1.063l.071-.009a1.097 1.097 0 0 1-.21-.269c-.221-.4-.122-.859.25-1.178l1.037-.877a.076.076 0 0 1 .028-.022v-13.244c-.369-.197-.618-.525-.618-.903v-.972c0-.047.012-.094.02-.137l-.309-.244-.123-.097c-.395-.312-.51-.778-.297-1.187a1.25 1.25 0 0 1 .436-.447.853.853 0 0 1-.091-.175h-.131c-.764 0-1.377-.487-1.377-1.087v-4.527c0-.597.613-1.084 1.377-1.084h1.453c.756 0 1.378.487 1.378 1.084.019.234.035.465.059.7.265-.213.53-.419.799-.631.179-.144.361-.285.539-.432v-1.396a.873.873 0 0 1 .083-.997l.499-.656c-.353-.197-.582-.519-.582-.884v-.931c0-.469.372-.862.898-1.016v-.849a.948.948 0 0 1-.312-.685v-.893c0-.281.138-.534.356-.728v-7.726c-.218-.197-.356-.45-.356-.732v-1.48c0-.022.004-.038.008-.06l-.357-.39a1.009 1.009 0 0 1-.253-.607.947.947 0 0 1-.036-.262v-.922c0-.409.289-.762.717-.949-.004-.019-.012-.038-.016-.06l-.055-.447c-.04-.309.087-.615.348-.84.194-.172.455-.287.736-.334-.024-.035-.051-.072-.067-.11-.333-.15-.574-.409-.657-.712h-.938c-.562 0-1.061-.266-1.275-.675l-.012-.022c-.198-.396-.075-.859.309-1.165l.42-.331 1.223-.963c.261-.206.605-.321.973-.321h.931v-2.947a1.178 1.178 0 0 1-.333-.796v-.619c0-.556.424-1.034 1.033-1.243 0-.016-.008-.032-.008-.047v-.497c0-.134.036-.262.095-.384a.961.961 0 0 1-.213-.594v-.275c0-.472.356-.875.867-1.062v-5.611c-.404-.132-.725-.381-.899-.697-.515-.191-.871-.597-.871-1.072 0-.09.016-.178.036-.265a1.34 1.34 0 0 1-.036-.285c0-.74.764-1.346 1.706-1.346h.218c.012-.047.02-.091.028-.128l.015-.056c.555-2.466 2.906-4.946 6.334-4.946h1.924a.97.97 0 0 1 .249-.616c.04-.415.372-.768.839-.925a.913.913 0 0 1-.051-.287v-.3c-.289-.2-.475-.484-.475-.812v-.844c0-.465.364-.859.883-1.015l1.108-1.206a1.38 1.38 0 0 1 .677-.391v-5.302c0-.599.617-1.09 1.381-1.09.76 0 1.378.491 1.378 1.09v5.327c.241.082.451.207.605.375l1.105 1.262c.419.188.704.538.704.947v.844a.947.947 0 0 1-.296.668v.444a.875.875 0 0 1-.076.334c.341.144.598.394.689.697.277.197.459.481.459.8.036-.003.064-.003.103-.003.289-.01.574-.019.859-.019.519 0 .958.025 1.362.087.059.01.123.019.182.032l.087.012a7.517 7.517 0 0 1 3.21 1.481c.313.244.59.503.828.769.423.462.764.981.997 1.524.166.378.313.791.313 1.256.898.035 1.611.622 1.611 1.337 0 .1-.012.197-.036.285.02.087.036.175.036.265 0 .394-.245.744-.621.959-.147.341-.46.619-.863.772v5.805c.328.216.538.538.538.9v.275a.811.811 0 0 1-.024.197c.246.206.396.481.396.781v.497c0 .034-.008.065-.012.1.539.228.911.674.911 1.193v.619c0 .165-.04.328-.115.478v3.265h.989c.365 0 .717.115.974.321l1.639 1.294c.396.312.511.781.301 1.187-.214.406-.717.675-1.275.675h-.823c-.095.344-.392.628-.788.765-.012.025-.028.044-.043.069.589.125 1.029.541 1.029 1.05v.522a.516.516 0 0 1-.008.078c.447.181.752.543.752.968v.922a.865.865 0 0 1-.028.25 1.01 1.01 0 0 1-.245.606l-.246.272a.744.744 0 0 1 .028.194v1.48c0 .282-.142.535-.36.732v7.726c.218.194.36.447.36.728v.893c0 .282-.142.535-.36.725v1.075c.237.197.38.459.38.75v.931a.865.865 0 0 1-.19.537l.772 1.003a.893.893 0 0 1 .016 1.097c-.099.14-.23.253-.392.343v.479a.991.991 0 0 1 .273.209c.249.281.491.568.74.85.162-.232.515-.66 1.18-.985.368-.178.716-.268.977-.318h1.449c.76 0 1.378.487 1.378 1.084v4.527c0 .6-.618 1.087-1.378 1.087h-.55a.575.575 0 0 1-.095.178c.198.116.364.272.463.466.21.403.099.872-.297 1.184l-.099.075a.91.91 0 0 1 .095.384v.972c0 .462-.364.85-.875 1.009v13.188l1.192.94c.396.313.511.778.301 1.184a1.169 1.169 0 0 1-.21.278v.019l.313.1c.518.166.859.566.859 1.009v.441a.949.949 0 0 1-.262.628c.289.078.547.225.717.434a.894.894 0 0 1 .119 1.028l-.507.934v5.536h12.188c.76 0 1.378.485 1.378 1.088v3.096c0 .365-.226.687-.574.884v.206h9.915v-1.54l-.918-2.175c-.119-.265-.059-.562.147-.784a1.09 1.09 0 0 1 .391-.262l-.494-.863a.704.704 0 0 1 .079-.831c.111-.137.277-.243.459-.312l-.368-.925c-.004-.015-.004-.031-.008-.04a.664.664 0 0 1-.028-.113c-.004-.003-.008-.037-.008-.037v-.013l-.095-.625c-.594 0-1.076-.365-1.108-.828l-.297-4.852a.583.583 0 0 1 .004-.118l.297-2.603c.004-.019.012-.038.016-.056l-.25-.494a.778.778 0 0 1-.075-.322v-1.112c-.241-.159-.392-.4-.392-.665v-1.578c0-.15.044-.285.127-.406a.752.752 0 0 1-.04-.247v-1.012a.76.76 0 0 1 .068-.316.714.714 0 0 1-.068-.312v-.569c0-.181.064-.35.19-.491a1.705 1.705 0 0 1-.19-.787v-3.259c0-.349.107-.681.293-.968-.285-.156-.471-.416-.471-.716v-4.82c0-.41.36-.753.843-.847a.702.702 0 0 1 .115-.453.702.702 0 0 1-.036-.775.697.697 0 0 1 .044-.79l.269-.366a.973.973 0 0 1 .345-.284v-.097c-.966-1.865-.483-2.453-.321-2.649a1.3 1.3 0 0 1 .332-.282 1.49 1.49 0 0 1 .796-.621c.048-.069.111-.132.178-.197.258-.225.598-.36.982-.381.257-.197.602-.328 1.037-.328.02 0 .036 0 .055.003.242-.135.539-.225.887-.225.103 0 .214.009.341.028.201-.078.439-.125.704-.125.151 0 .297.012.447.047.183-.066.396-.1.618-.1.178 0 .396.022.617.1.171-.05.357-.085.567-.085.162 0 .395.022.641.113a2.077 2.077 0 0 1 1.575.194c.091-.01.178-.013.269-.013.384 0 .812.109 1.14.381.44.038.907.238 1.18.666.139.065.265.147.376.247.261.237.404.556.42.956.047.046.095.093.134.146.151.188.349.575.099 1.113l-.269 1.331v.228a.758.758 0 0 1 .083.315v.622a.699.699 0 0 1 .06.744.71.71 0 0 1 .091.553c.451.109.779.434.779.828v4.82c0 .366-.292.681-.7.81.154.268.241.565.241.874v3.259c0 .328-.095.631-.261.906a.734.734 0 0 1 .111.372v.515a.757.757 0 0 1-.075.322.8.8 0 0 1 .063.297v.834a.782.782 0 0 1-.04.234.745.745 0 0 1 .202.507v1.577a.759.759 0 0 1-.075.328.786.786 0 0 1 .075.328v1.375a.741.741 0 0 1-.162.456l-.293.378.293 2.544a.39.39 0 0 1 .004.118l-.301 4.852c-.028.463-.511.828-1.1.828h-.163l-.273.716c-.004.025-.016.053-.024.081-.003.012-.003.022-.007.034l-.008.013c0 .003-.361.921-.361.921a.98.98 0 0 1 .369.244c.209.216.281.494.19.756l-.329.953c.186.053.36.144.487.266.21.206.285.475.214.734l-.638 2.265-.439 1.5h15.802l-.063-1.319v-3.705c-.467-.1-.812-.434-.812-.834v-1.016c0-.225.115-.425.289-.581v-.172c0-.478.491-.868 1.101-.868h1.06a.822.822 0 0 1 .107-.116v-.453c-.245-.206-.396-.478-.396-.778v-.859c0-.3.151-.575.396-.778v-3.643c-.245-.206-.396-.478-.396-.778v-.859c0-.3.151-.575.396-.778v-7.892a1.85 1.85 0 0 1-.827-.362c-.313-.241-.519-.547-.586-.878a1.176 1.176 0 0 1-.008-.46c0-.009.004-.018.004-.028.012-.047.028-.097.04-.14-.012-.01-.032-.016-.044-.025-.008 0-.016-.007-.024-.01a.857.857 0 0 1-.352-.484c-.008-.006-.02-.012-.028-.019l-.518-.518h-2.237c-.609 0-1.1-.388-1.1-.869v-.534c0-.341.253-.647.645-.787l.404-.144 1.227-.444c.139-.284.463-.503.867-.553l2.355-.284.428-.497 3.044-3.546c.182-.216.479-.353.807-.378l.602-.044 20.402-1.543 5.541-2.462 2.53-1.125 1.571-.697.582-.259c.167-.075.353-.109.539-.109.198 0 .403.04.578.128l3.756 1.837 6.413 3.134 19.994 1.612c.38.031.716.218.883.49l1.943 3.193 4.378.531c.404.047.725.266.863.553l1.639.588c.396.14.645.45.645.787v.534c0 .482-.495.869-1.104.869h-2.237l-.522.519a1.194 1.194 0 0 1-.804.321.72.72 0 0 1-.131.375c.036.088.056.163.072.247.031.141.031.313-.008.478-.064.322-.269.628-.57.866a1.97 1.97 0 0 1-.546.287c-.115.037-.23.072-.353.091v7.798c.218.2.356.459.356.747v.849c0 .285-.138.544-.356.747v3.643c.218.206.356.462.356.747v.85c0 .287-.138.543-.356.749v.469a.562.562 0 0 1 .091.106h1.12c.61 0 1.105.385 1.105.866v.168c.17.153.281.353.281.578v1.003c0 .441-.412.8-.946.859v2.109l.004 2.419.004.443v.8c0 .812.126 2.678 0 2.69H50.204c1.124-.928 2.252-1.853 2.252-1.853.661-.543 1.373-1.343 1.52-2.327.119-.794-.162-1.547-.819-2.172-1.034-.99-2.613-1.424-3.975-1.674l-2.537-2.434a11.52 11.52 0 0 0 1.666-2.656 8.977 8.977 0 0 0 .44-1.146c.708-2.225.617-4.552-.258-6.736 0-.007-.003-.013-.003-.022a2.944 2.944 0 0 0-.788-1.175 3.308 3.308 0 0 0-.519-.394c-.673-.406-1.52-.615-2.513-.615-.273 0-.562.015-.855.047-1.089.115-2.189.387-3.349.831-.329.122-.634.25-.895.362l-3.008-.278-1.362-.128-3.61-.334c-.107-.406-.384-.763-.796-1.009a2.566 2.566 0 0 0-1.31-.338c-.131 0-.265.01-.396.025-.487.056-.946.206-1.445.469a5.118 5.118 0 0 0-1.619 1.325c-.059.081-.114.153-.17.24-.059.097-.111.181-.162.284a1.863 1.863 0 0 0-.131.366 1.59 1.59 0 0 0 .032.944c.091.253.241.478.451.662a.828.828 0 0 0 .186.14c.238.157.503.272.796.341l.507 6.461a11.224 11.224 0 0 0-1.121 1.79c-.502 1.019-1.547 3.143.27 4.69.498.431 1.136.718 1.904.85a19.62 19.62 0 0 0 4.904.615c.788 0 1.579-.044 2.355-.137a4.63 4.63 0 0 0-.601.734c-.582.887-.63 1.837-.139 2.668.459.787 1.294 1.328 2.126 1.7v9.11" class="st6" style="fill:none;stroke:#dec9a3;stroke-miterlimit:10;stroke-width:3.3499px"/><g><path d="M306.4 212.82h41.52l-2.09-2.09v23.28c0 1.13.96 2.09 2.09 2.09h37.12c1.13 0 2.09-.96 2.09-2.09v-93.06l-2.09 2.09c6.99-.15 13.98-.29 20.97-.44l-2.09-2.09v100.86c0 1.13.96 2.09 2.09 2.09h15.64c1.13 0 2.09-.96 2.09-2.09v-15.69l-2.09 2.09h40.94l-2.09-2.09v30.24c0 1.13.96 2.09 2.09 2.09h27.11c1.13 0 2.09-.96 2.09-2.09v-14.03l-2.09 2.09h14.47c1.13 0 2.09-.96 2.09-2.09v-40.36l-2.09 2.09h17.78c1.13 0 2.09-.96 2.09-2.09v-53.08l-2.09 2.09h27.92l-2.09-2.09v20.19c0 1.13.96 2.09 2.09 2.09h8.12l-2.09-2.09v9.13c0 1.13.96 2.09 2.09 2.09h32.71l-2.09-2.09v83.28c0 1.92 2.24 2.62 3.57 1.48l28.14-24.06h-2.96l17.08 16.39c1.65 1.59 3.31 3.17 4.96 4.76.57.55 1.98 2.5 2.8 2.68.61.14.01-1.81-.37-.77-.24.64 0 1.84 0 2.5V338.82c0 1.13.96 2.09 2.09 2.09h12.27c1.13 0 2.09-.96 2.09-2.09V193.81l-2.09 2.09c5.56-.01 11.11-.03 16.67-.04 1.13 0 2.09-.96 2.09-2.09.02-5.02.03-10.04.05-15.06l-2.09 2.09h12.6l-2.09-2.09v4.42c0 1.13.96 2.09 2.09 2.09h5.71l-2.09-2.09v3.26c0 1.13.96 2.09 2.09 2.09h10.36l-2.09-2.09v3.23c0 1.13.96 2.09 2.09 2.09h6.95l-2.09-2.09v4.39c0 1.13.96 2.09 2.09 2.09h10.19l-2.09-2.09v2.92c0 1.13.96 2.09 2.09 2.09h6.51l-2.09-2.09v4.91c0 1.13.96 2.09 2.09 2.09h5.32l-2.09-2.09v3.14c0 1.13.96 2.09 2.09 2.09h5.86l-2.09-2.09v4.98c0 1.13.96 2.09 2.09 2.09h6.62l-2.09-2.09v12.34c0 1.14.96 2.09 2.09 2.09 6.93.04 13.87.09 20.8.13 1.13.01 2.09-.97 2.09-2.09l-.06-117.9-2.09 2.09h67.39c1.13 0 2.09-.96 2.09-2.09V48.07c0-.78.08-1.6 0-2.38-.12-1.2.46-.95-.27.04 1.36-1.85 2.61-3.79 3.91-5.69 4.07-5.91 8.13-11.82 12.2-17.73-.6.35-1.21.69-1.81 1.04h16.15l-2.09-2.09v283.2c0 3.8-.34 7.77 0 11.56.02.17 0 .34 0 .51 0 1.13.96 2.09 2.09 2.09h14.78c1.13 0 2.09-.96 2.09-2.09V122.58l-2.09 2.09h82.97l-2.09-2.09v150.07c0 1.13.96 2.09 2.09 2.09h26.2c1.13 0 2.09-.96 2.09-2.09V154.96c-.35.6-.69 1.21-1.04 1.81 12.11-6.1 24.22-12.21 36.33-18.31.65-.33 1.04-1.11 1.04-1.81V98.5l-2.09 2.09h48.9l-2.09-2.09v217c0 2.69 4.19 2.7 4.19 0v-217c0-1.13-.96-2.09-2.09-2.09h-48.9c-1.13 0-2.09.96-2.09 2.09v38.15c.35-.6.69-1.21 1.04-1.81-12.11 6.1-24.22 12.21-36.33 18.31-.65.33-1.04 1.11-1.04 1.81v117.69l2.09-2.09h-26.2l2.09 2.09V122.58c0-1.13-.96-2.09-2.09-2.09h-82.97c-1.13 0-2.09.96-2.09 2.09v193.95l2.09-2.09h-14.78l2.09 2.09V33.33c0-3.8.34-7.77 0-11.56-.02-.17 0-.34 0-.51 0-1.13-.96-2.09-2.09-2.09H851.7c-2.67 0-4.94-.58-6.66 1.68-5.17 6.8-9.73 14.14-14.57 21.18-2.4 3.49-1.4 8.21-1.4 12.31v50.19l2.09-2.09h-67.39c-1.13 0-2.09.96-2.09 2.09l.06 117.9 2.09-2.09c-6.93-.04-13.87-.09-20.8-.13l2.09 2.09v-12.34c0-1.13-.96-2.09-2.09-2.09h-6.62l2.09 2.09v-4.98c0-1.13-.96-2.09-2.09-2.09h-5.86l2.09 2.09v-3.14c0-1.13-.96-2.09-2.09-2.09h-5.32l2.09 2.09v-4.91c0-1.13-.96-2.09-2.09-2.09h-6.51l2.09 2.09v-2.92c0-1.13-.96-2.09-2.09-2.09h-10.19l2.09 2.09v-4.39c0-1.13-.96-2.09-2.09-2.09h-6.95l2.09 2.09v-3.23c0-1.13-.96-2.09-2.09-2.09h-10.36l2.09 2.09v-3.26c0-1.13-.96-2.09-2.09-2.09h-5.71l2.09 2.09v-4.42c0-1.13-.96-2.09-2.09-2.09h-12.6c-1.13 0-2.09.96-2.09 2.09-.02 5.02-.03 10.04-.05 15.06l2.09-2.09c-5.56.01-11.11.03-16.67.04-1.13 0-2.09.96-2.09 2.09v145.01l2.09-2.09h-12.27l2.09 2.09v-73.77c0-1.31.37-3.27-.07-4.55-.74-2.12-3.89-4.14-5.42-5.61-6.73-6.46-13.47-12.92-20.2-19.38-.86-.83-2.08-.75-2.96 0l-28.14 24.06c1.19.49 2.38.99 3.57 1.48v-83.28c0-1.13-.96-2.09-2.09-2.09h-32.71l2.09 2.09v-9.13c0-1.13-.96-2.09-2.09-2.09h-8.12l2.09 2.09v-20.19c0-1.13-.96-2.09-2.09-2.09h-27.92c-1.13 0-2.09.96-2.09 2.09v53.08l2.09-2.09h-17.78c-1.13 0-2.09.96-2.09 2.09v40.36l2.09-2.09H489.7c-1.13 0-2.09.96-2.09 2.09v14.03l2.09-2.09h-27.11l2.09 2.09v-30.24c0-1.13-.96-2.09-2.09-2.09h-40.94c-1.13 0-2.09.96-2.09 2.09v15.69l2.09-2.09h-15.64l2.09 2.09V140.51c0-1.11-.96-2.12-2.09-2.09-6.99.15-13.98.29-20.97.44-1.13.02-2.09.94-2.09 2.09v93.06l2.09-2.09h-37.12l2.09 2.09v-23.28c0-1.13-.96-2.09-2.09-2.09H306.4c-2.7-.01-2.7 4.18 0 4.18z" class="st7" style="fill:#bc955b" transform="matrix(.39584 0 0 .31243 -.642 217.438)"/></g><g><path d="M89.89 315.65V226.1l-2.09 2.09H150.03c1.13 0 2.09-.96 2.09-2.09v-64.24l-2.09 2.09h38.89l-2.09-2.09V275.4c0 5.2-.18 10.44 0 15.65v.23c0 1.13.96 2.09 2.09 2.09h6.62c1.13 0 2.09-.96 2.09-2.09V156.33c0-1.82.16-3.72 0-5.53-.01-.08 0-.16 0-.23l-2.09 2.09h21.99c2.69 0 2.7-4.19 0-4.19h-21.99c-1.13 0-2.09.96-2.09 2.09v134.95c0 1.82-.16 3.72 0 5.53.01.08 0 .16 0 .23l2.09-2.09h-6.62l2.09 2.09V177.73c0-5.2.18-10.44 0-15.65v-.23c0-1.13-.96-2.09-2.09-2.09h-38.89c-1.13 0-2.09.96-2.09 2.09v64.24l2.09-2.09H87.8c-1.13 0-2.09.96-2.09 2.09v89.55c-.01 2.7 4.18 2.71 4.18.01z" class="st7" style="fill:#bc955b" transform="matrix(.39584 0 0 .31243 -.642 217.438)"/></g><path d="M437.052 301.778a.665.665 0 0 0 .056-.637l-.016-.044 8.526-2.221-1.46 4.274h-1.413c-.321 0-.586.206-.586.462v1.341c0 .253.265.462.586.462h.637l-3.159 9.226-1.492-2.515c.669-.284 1.128-.847 1.128-1.487v-2.822c0-.934-.962-1.69-2.142-1.69h-1.927v-3.758l.645-.169a1.02 1.02 0 0 0 .617-.422Z" class="st8" style="fill:none;stroke:#dec9a3;stroke-miterlimit:10;stroke-width:1.7454px"/><path d="M37.224 353.626v-2.209" class="st9" style="fill:none;stroke:#bc955b;stroke-miterlimit:10;stroke-width:1.928px"/><g><path d="M1022.05 419.83v29.9c0 1.78 1.45 3.23 3.23 3.23h8.89c1.78 0 3.23-1.45 3.23-3.23v-40.36l.92.86c.6.56 1.39.88 2.21.88h11.81l2.54 1.11 1.47.99c.54.36 1.17.55 1.8.55.28 0 .55-.04.83-.11l2.45-.65c.17-.04.33-.1.49-.18l3.18-1.43c.11-.05.22-.11.33-.17l1.52-.9 3.35.09c.66.02 1.29-.16 1.83-.51l.93-.59v40.42c0 1.78 1.45 3.23 3.23 3.23h9.76c1.78 0 3.23-1.45 3.23-3.23v-77.7c.64-.34 1.17-.89 1.46-1.6l2.45-5.83c.42-1 .31-2.14-.29-3.04-.6-.9-1.61-1.44-2.69-1.44h-.93v-.23c0-10.45 8-18.95 17.83-18.95 9.83 0 17.83 8.5 17.83 18.95v.23h-2.03c-1.08 0-2.09.54-2.69 1.44-.6.9-.71 2.04-.29 3.04l2.45 5.83c.45 1.07 1.43 1.8 2.57 1.95v78.19c0 1.78 1.45 3.23 3.23 3.23h7.94c1.78 0 3.23-1.45 3.23-3.23v-78.22c1.05-.2 1.94-.91 2.37-1.92l2.45-5.83c.42-1 .31-2.14-.29-3.04-.6-.9-1.61-1.44-2.69-1.44h-1.83v-.23c0-10.45 7.99-18.95 17.82-18.95 1.78 0 3.23-1.45 3.23-3.23v-6.3c0-1.78-1.45-3.23-3.23-3.23h-323.9c-1.78 0-3.23 1.45-3.23 3.23v6.3c0 1.78 1.45 3.23 3.23 3.23 9.83 0 17.83 8.5 17.83 18.95v.23h-1.12c-1.08 0-2.09.54-2.69 1.44-.6.9-.71 2.04-.29 3.04l2.45 5.83c.32.77.92 1.36 1.66 1.69v77.61c0 1.78 1.45 3.23 3.23 3.23h9.76c1.78 0 3.23-1.45 3.23-3.23v-77.71c.64-.34 1.17-.89 1.46-1.59l2.45-5.83c.42-1 .31-2.14-.29-3.04-.6-.9-1.61-1.44-2.69-1.44h-.93v-.23c0-10.45 8-18.95 17.83-18.95 9.83 0 17.83 8.5 17.83 18.95v.23h-1.07c-1.08 0-2.09.54-2.69 1.44-.6.9-.71 2.04-.29 3.04l2.45 5.83c.32.75.9 1.34 1.61 1.67v77.63c0 1.78 1.45 3.23 3.23 3.23h9.51c1.78 0 3.23-1.45 3.23-3.23v-77.56c.78-.32 1.43-.93 1.77-1.74l2.45-5.83c.42-1 .31-2.14-.29-3.04-.6-.9-1.61-1.44-2.69-1.44h-1.23v-.23c0-10.45 8-18.95 17.83-18.95 9.83 0 17.83 8.5 17.83 18.95v.23h-1.31c-1.08 0-2.09.54-2.69 1.44-.6.9-.71 2.04-.29 3.04l2.45 5.83a3.25 3.25 0 0 0 1.85 1.77v77.53c0 1.78 1.45 3.23 3.23 3.23h9.05c1.78 0 3.23-1.45 3.23-3.23v-31.06h2.16l.01 1.17v29.89c0 1.78 1.45 3.23 3.23 3.23s3.23-1.45 3.23-3.23v-29.89c0-9.06 7.77-16.43 17.33-16.43 9.55 0 17.32 7.37 17.32 16.43v30.73c0 1.78 1.45 3.23 3.23 3.23s3.23-1.45 3.23-3.23v-30.73l2.14-.01Z" class="st6" style="fill:none;stroke:#dec9a3;stroke-miterlimit:10;stroke-width:3.3499px" transform="matrix(.39584 0 0 .31243 -.642 217.438)"/><path d="M1071.62 402.57c-.1.05-.2.11-.29.17l-1.85 1.19-3.29-.09c-.61-.01-1.21.14-1.74.45l-2.17 1.29-2.77 1.24-.78.21-.5-.33c-.16-.11-.33-.2-.51-.28l-3.43-1.5a3.21 3.21 0 0 0-1.29-.27h-11.2l-.78-.74c-.32-.3-.69-.53-1.1-.68l-2.52-.92v-30.07c.86-.29 1.58-.94 1.95-1.81l2.45-5.83c.42-1 .31-2.14-.29-3.04-.6-.9-1.61-1.44-2.69-1.44h-1.41v-.23c0-10.45 8-18.95 17.83-18.95 9.83 0 17.83 8.5 17.83 18.95v.23h-1.12c-1.08 0-2.09.54-2.69 1.44-.6.9-.71 2.04-.29 3.04l2.45 5.83c.32.77.92 1.36 1.65 1.69v29.73l-1.45.72ZM970.12 372.25c.88-.29 1.61-.94 1.98-1.82l2.45-5.83c.42-1 .31-2.14-.29-3.04-.6-.9-1.61-1.44-2.69-1.44h-1.45v-.23c0-10.45 11.65-18.95 25.96-18.95 14.32 0 25.97 8.5 25.97 18.95v.23h-1.51c-1.08 0-2.09.54-2.69 1.44-.6.9-.71 2.04-.29 3.04l2.45 5.83c.38.9 1.14 1.57 2.05 1.84v20.22h-17.39l.14-6.66c.02-.91-.35-1.79-1.02-2.42l-5.73-5.39c-.62-.59-1.42-.88-2.22-.88-.8 0-1.59.29-2.22.88l-5.4 5.09c-.65.61-1.02 1.46-1.02 2.35v7.04h-17.08v-20.25Z" class="st6" style="fill:none;stroke:#dec9a3;stroke-miterlimit:10;stroke-width:3.3499px" transform="matrix(.39584 0 0 .31243 -.642 217.438)"/></g><path d="M305.981 329.135c-.119.768-.194 1.612-.317 2.921-.229 2.527.044 2.99-.13 5.98-.083 1.378-.186 1.718-.341 3.477a138.42 138.42 0 0 0-.376 5.727" class="st10" style="fill:none;stroke:#bc955b;stroke-miterlimit:10;stroke-width:.2358px"/><path d="M71.136 350.036h23.062v2.487H71.136zM105.962 350.036h23.062v2.487h-23.062zM140.788 350.036h23.062v2.487h-23.062zM175.614 350.036h23.062v2.487h-23.062zM210.441 350.036h23.062v2.487h-23.062z" class="st11" style="fill:#eee4d1"/></svg>