<svg xmlns="http://www.w3.org/2000/svg" xml:space="preserve" id="Capa_1" x="0" y="0" style="enable-background:new 0 0 230 300" version="1.1" viewBox="0 0 230 300"><style>.st0{fill:#fff}</style><path d="M41.2 157.2s0-.1 0 0v-.5l-.3-4.9s0-2.3-3.8-2.3-4.7 3-4.7 3l-.3 7.3v.8c0 .9.4 2 .9 3.2 1.5 3.6 4.2 8.2 4.2 8.2l1.1 1.8-.1-9.1-.2-.2c-.1-.1-.8-.9-1.5-2s-1.3-2.5-1.3-3.9v-.3c.1.1.2.3.2.4.3.4.6.7.6.7.5.4 1.1.5 1.8.5s1.4-.2 2-.6c.6-.4 1.1-1 1.2-1.9.2.1.2 0 .2-.2zm-4-.9c.1 0 .2.1.3.1.2.1.3.2.5.5v.2l-.2.2h-.1c-.3 0-.5-.2-.5-.4v-.1l-1-.3s0-.1.1-.1c.1-.1.4-.1.7-.2-.1.1 0 .1.2.1zm2.8 1.1c-.1.5-.3.8-.7 1.1s-.9.4-1.4.4c-.4 0-.8-.1-1.1-.3-.1-.1-.3-.3-.4-.6-.2-.3-.4-.7-.4-1v-.3.2c0 .4.2.8.5 1.1s.7.4 1.1.4h.3c.5-.1.9-.5 1.1-.8s.2-.6.2-.8V156.5c-.2-.5-.6-.9-1-1.1-.4-.2-.8-.3-1.1-.3H37c-1 0-1.6.5-2 .9s-.5.9-.6.9c-.2.6-.2 1.1-.2 1.7 0 1.9.8 3.6 1.6 4.8.6.9 1.1 1.5 1.4 1.8v4.4c-.7-1.2-1.5-2.8-2.3-4.3-.4-.9-.8-1.8-1.1-2.7-.3-.8-.5-1.5-.5-2v-.4c0-1.4.4-2.8 1-3.9s1.5-1.7 2.4-1.8h.4c.9 0 1.6.3 2.2.8.6.5.9 1.2.9 1.8-.1.1-.2.2-.2.3zM37.8 135.8c.6 0 1.2.1 1.7.4l-.1-67H186l-.1 66.9c.5-.2 1-.3 1.5-.3.3 0 .5 0 .8.1v-3.6c-.4-.5 0-8.5 0-8.5l.1.1.1-57.1H37.1l.1 69h.6z" class="st0"/><path d="M39.6 150v-4.1c-.5.3-1.3.5-2.3.5v3c-.1 0 1.2 0 2.3.6zM37.2 160v41c0 .2-.1.9-.1 1.9 0 2.7.6 7.7 4.8 12.5 4.1 4.8 11.6 9 25 10.4 6.2.6 11.3 1.1 15.6 1.5-.5-.5-.6-.7-.7-.7l3.2.1s.2.4.6.9c4.1.4 7.4.7 10.2 1.1.3-1 1.2-1.8 3.1-1.3 1 .3 1.9 1.2 2.2 2.3 1.6.5 3 1 4.3 1.8 2.1 1.2 4 2.9 6.3 5.3l.3.4h1.1l.3-.4c2.3-2.5 4.2-4.1 6.3-5.3 1.6-.9 3.1-1.5 5.1-2 .2-1.1 1.7-2.2 2.6-2.4 1.9-.6 3 1.4 3 1.4s14.6-1.3 27.8-2.6c13.3-1.4 20.8-5.7 25-10.4 4.1-4.7 4.8-9.8 4.8-12.5 0-1-.1-1.6-.1-1.9v-29s-.5-7.8-.4-7.9c.1-.1.3-.3.4-.5v-3.6c-.2.1-.5.1-.7.1-.5 0-1.1-.1-1.6-.3v41.5s.1.6.1 1.6c0 2.3-.6 6.8-4.2 11-3.7 4.2-10.5 8.3-23.5 9.7-16 1.7-25 2-31.4 3.2-3.2.6-5.7 1.4-8.1 2.8-2.1 1.2-4 2.8-6 4.9-2.1-2.1-3.9-3.7-6-4.9-1.8-1-3.6-1.7-5.8-2.3-6.5-1.6-15.6-1.8-33.7-3.7-13-1.4-19.8-5.5-23.5-9.7s-4.2-8.7-4.2-11c0-.5 0-.9.1-1.2v-42c.2-.1-.9.4-2.2.2z" class="st0"/><path d="M41.2 138.7v-.5c-.1-.8-.6-1.5-1.2-1.9-.6-.4-1.3-.6-2-.6-.6 0-1.3.2-1.8.5 0 0-.3.3-.6.7-.1.1-.2.2-.2.4v-.3c0-1.6.7-3 1.4-4.1.4-.5.7-1 1-1.3.1-.2.2-.3.3-.4l.1-.1.2-.2.1-9.1-1.1 1.8s-1.2 2-2.5 4.5c-.6 1.2-1.3 2.5-1.7 3.7-.5 1.2-.8 2.3-.9 3.2V135.6l.3 7.5s.9 3 4.7 3 3.8-2.3 3.8-2.3l.3-4.9c-.2.1-.2 0-.2-.2zm-4.1.2c0-.2.1-.4.5-.4h.1c.2 0 .2.1.2.2v.2c-.2.3-.3.4-.5.5-.1 0-.2.1-.3.1h-.4c-.2 0-.4 0-.5-.1l-.2-.1s0-.1-.1-.1l1-.3h.2zm-4-3.6c0-.6.3-1.7.8-2.9.7-1.7 1.7-3.8 2.6-5.3.2-.3.3-.6.5-.8v4.4c-.3.3-.8.9-1.4 1.8-.8 1.2-1.6 2.9-1.6 4.8 0 .5.1 1.1.2 1.7 0 0 .2.5.6.9.4.4 1.1.9 2 .9h.1c.4 0 .8-.1 1.1-.3.4-.2.7-.6 1-1.1V139.1c0-.1 0-.4-.2-.8-.1-.3-.5-.7-1.1-.8h-.3c-.4 0-.8.2-1.1.4-.3.3-.5.7-.5 1.1v.2-.3c0-.3.2-.7.4-1.1.1-.2.2-.3.3-.4l.1-.1c.2-.2.6-.3 1.1-.3s1 .1 1.4.4c.4.3.7.6.7 1.1v.3c0 .6-.3 1.3-.9 1.8s-1.3.8-2.2.8h-.4c-.9-.1-1.8-.8-2.4-1.8-.6-1-1-2.4-1-3.9.2-.1.2-.3.2-.4zM193.3 160.3v-.5l-.3-7.3s-.9-3-4.7-3c-3.8 0-3.8 2.3-3.8 2.3l-.3 4.8c0 .2-.1.4-.1.5v.5c.1.8.6 1.5 1.2 1.9s1.3.6 2 .6c.6 0 1.3-.2 1.8-.5 0 0 .3-.3.6-.7.1-.1.2-.2.2-.4v.3c0 1.6-.7 3-1.4 4.1-.4.5-.7 1-1 1.3-.1.2-.2.3-.3.4l-.1.1-.2.2-.1 9.1 1.1-1.8s1.2-2 2.5-4.5c.6-1.2 1.3-2.5 1.7-3.7.5-1.2.8-2.3.9-3.2.3-.3.3-.3.3-.5zm-5.1-3.3c0 .2-.1.4-.5.4h-.1c-.2 0-.2-.1-.2-.2v-.2c.2-.3.3-.4.5-.5.1 0 .2-.1.3-.1h.4c.2 0 .4 0 .5.1l.2.1.1.1-1 .3h-.2zm4 3.5c0 .6-.3 1.7-.8 2.9-.7 1.7-1.7 3.8-2.6 5.3-.2.3-.3.6-.5.8v-4.4c.3-.3.8-.9 1.4-1.8.8-1.2 1.6-2.9 1.6-4.8 0-.5-.1-1.1-.2-1.7 0 0-.2-.5-.6-.9-.4-.4-1.1-.9-2-.9h-.1c-.4 0-.8.1-1.2.3s-.7.6-1 1.1V156.7c0 .1 0 .4.2.8.1.3.5.7 1.1.8h.3c.4 0 .8-.2 1.1-.4.3-.3.5-.7.5-1.1v-.2.3c0 .3-.2.7-.4 1.1-.1.2-.2.3-.3.4l-.1.1c-.2.2-.6.3-1.1.3-.5 0-1-.1-1.4-.4-.4-.3-.7-.6-.7-1.1v-.3c0-.6.3-1.3.9-1.8s1.3-.8 2.2-.8h.4c.9.1 1.8.8 2.4 1.8.6 1 1 2.4 1 3.9-.1.2-.1.3-.1.4zM193.3 135.7v-.4c0-.9-.4-2-.9-3.2-1.5-3.6-4.2-8.2-4.2-8.2l-1.1-1.8.1 9.1.2.2c.1.1.9.9 1.5 2 .7 1.1 1.3 2.5 1.3 3.9v.3c-.1-.1-.2-.3-.2-.4-.3-.4-.6-.7-.6-.7-.5-.4-1.1-.5-1.8-.5s-1.4.2-2 .6c-.6.4-1.1 1-1.2 1.9v.5c0 .2 0 .4.1.5l.3 4.8s0 2.3 3.8 2.3 4.7-3 4.7-3l.3-6.9c-.3-.5-.3-.7-.3-1zm-5.2 3.8c-.1 0-.2-.1-.3-.1-.2-.1-.3-.2-.5-.5v-.2l.2-.2h.1c.3 0 .5.2.5.4v.1l1 .3s0 .1-.1.1c-.1.1-.4.1-.7.1h-.2zm-2.7-1.1c.1-.5.3-.8.7-1.1s.9-.4 1.4-.4c.4 0 .8.1 1.1.3.1.1.3.3.5.6s.4.7.4 1v.3-.2c0-.4-.2-.8-.5-1.1s-.7-.4-1.1-.4h-.3c-.5.1-.9.5-1.1.8-.2.3-.2.6-.2.8V139.3c.2.5.6.9 1 1.1.4.2.8.3 1.2.3h.1c1 0 1.6-.5 2-.9.4-.4.5-.9.6-.9.2-.6.2-1.1.2-1.7 0-1.9-.8-3.6-1.6-4.8-.6-.9-1.1-1.5-1.4-1.8v-4.4c.7 1.2 1.5 2.8 2.3 4.3.4.9.8 1.8 1.1 2.7.3.8.5 1.5.5 2v.4c0 1.4-.4 2.8-1 3.9s-1.5 1.7-2.4 1.8h-.4c-.9 0-1.6-.3-2.2-.8-.6-.5-.9-1.2-.9-1.8-.1-.1 0-.2 0-.3zM101 171.1h.3v-.1c0-.1 0-.3-.1-.6-.1-.2-.3-.5-.7-.6-.2 0-.3-.1-.5-.1s-.5.1-.6.2c-.2.1-.3.3-.4.5-.1.2-.2.4-.2.6-.2.7-.2 1.6-.2 1.6v.2s.2.5.9.7h.3c.2 0 .4 0 .6-.2.2-.1.3-.3.4-.5.1-.4.5-1.7.5-1.7h-.3l-.3-.1s-.1.3-.2.7c-.1.4-.2.8-.3 1l-.1.2c-.1 0-.2.1-.3.1h-.2c-.2 0-.3-.1-.4-.2l-.1-.1-.3.1h.3s0-.4.1-.9c0-.2.1-.5.1-.7s.1-.4.1-.4l.3-.3c.1-.1.2-.1.3-.1h.3c.2 0 .2.1.3.2.1.1.1.3.1.3l.3.2-.3-.1.3.1zM92.5 166.3h.3v-.2c0-.2 0-.4-.1-.7-.1-.3-.3-.6-.7-.7-.1-.1-.3-.1-.4-.1-.4 0-.9.2-1.2.5-.3.3-.5.6-.5 1.1 0 .4.2.8.4 1l.3.3c.1.1.2.1.3.1.1 0 .2-.1.3-.1.1-.1.1-.2.1-.3s.1-.2.1-.3l.2-.2c.3-.1.6-.2.7-.2h.1v-.1l-.1.1h.1v-.1l-.1.1.4.4.1-.6h-.3l.2-.2c-.2-.1-.3-.1-.4-.1-.3 0-.6.1-1 .2-.3.2-.5.5-.5.7 0 .1-.1.2-.1.2l.1.1-.1-.1.1.1-.1-.1.1.2v-.3h-.1l.1.2v-.2.2-.2.2-.2.1-.1.1-.1s-.2-.1-.3-.3-.2-.4-.2-.6c0-.2.1-.4.3-.6.2-.2.5-.3.8-.3h.2c.2.1.3.2.4.4.1.2.1.4.1.5v.1l.4.1.2-.2-.2.2zM93 164.3v.3h.3c.2 0 .5 0 .8-.2.1-.1.3-.2.4-.4.1-.1.2-.3.2-.5v-.2c-.1-.3-.3-.5-.6-.8-.3-.2-.6-.4-1-.5v.3-.3c-.3 0-.7.1-.9.3-.3.2-.5.4-.6.7v.3l.1.3c.1.1.2.2.3.2h.2c.1 0 .3.1.5.2s.3.2.3.3l.1.2h.2l-.3-.2.3-.1c-.1-.3-.4-.5-.6-.6s-.5-.2-.6-.3c-.1-.1-.2-.1-.2-.1v.2l-.1.1.1-.1v-.1l-.1.1.1-.1h-.1.1-.1.1v-.1c0-.1.2-.3.4-.4.2-.1.5-.2.7-.2.1 0 .4.1.7.3.2.2.4.4.4.5l-.1.2-.3.3s-.3.1-.4.1H93v.3l.3-.1-.3.1zM100.7 159.7l-.1.3c.1 0 .2.1.3.2.1.1.2.2.2.4v.3c0 .3-.1.5-.1.5l.1.1-.1-.1.1.1-.1-.1s-.2.1-.3.1h-1l-.1.1.1-.1-.1.1.1-.1c0-.1-.1-.2-.1-.5-.1-.2-.2-.6-.5-.9H99h.1-.1.1-.1.1-.1.1l.4-.2c.2 0 .4-.1.6-.1h.4l.1.1h.1v-.2l.2-.2c-.1-.1-.2-.2-.4-.2h-.4c-.3 0-.6.1-.9.2-.1.1-.3.1-.4.2-.1.1-.2.2-.2.4s.1.3.2.4c.3.3.3.4.4.6 0 .2 0 .4.2.6.1.2.3.2.4.3h.5c.2 0 .5 0 .7-.1.1 0 .2 0 .3-.1l.2-.1c.2-.2.3-.5.3-.9v-.4c-.1-.4-.3-.6-.5-.8l-.4-.2-.2.3.2-.2-.2.2zM111 158.4l-.3-.1s-.1.3-.1.8c0 .3 0 .5.1.9s.3.6.5.8c.2.1.5.2.7.2h.4l-.1-.3v.3s.3 0 .6-.1c.1-.1.3-.2.4-.3s.2-.4.2-.6v-1.1c0-.2 0-.4-.1-.6-.1-.2-.3-.3-.5-.4-.2-.1-.5-.1-.7-.1h-.1v.3-.3c-.2 0-.5.1-.7.1-.1 0-.2.1-.3.1-.1.1-.2.1-.3.3l.3.1-.3-.1.3.1.3.1h-.1l.1.1v-.1h-.1l.1.1c.1-.1.5-.2.8-.2.1 0 .3 0 .5.1.1.1.3.1.3.2v1.3c0 .1 0 .2-.1.2-.1.1-.2.2-.3.2h-.4c-.1 0-.3 0-.4-.1-.1-.1-.2-.2-.2-.4-.1-.3-.1-.5-.1-.7v-.6l-.4-.2zM122.3 159.8l.1.3h.1c.1-.1.4-.2.6-.2h.2c.2.1.3.2.4.2l.1.2c0 .2 0 .5-.1.7 0 .1 0 .2-.1.3v.1l.1.1-.1-.1.1.1-.1-.1v.1-.1.1-.1h-.4c-.2 0-.4 0-.5-.1-.1 0-.3-.1-.3-.1v-.4c0-.2 0-.5.1-.7 0-.2.1-.3.1-.3h-.3l.1.3-.1-.3-.3-.1s-.1.6-.1 1.2c0 .3 0 .5.2.8.2.2.4.3.6.3.2.1.4.1.6.1h.4c.1 0 .2 0 .3-.1s.2-.2.2-.4c.1-.4.1-.9.1-1.2 0-.3-.1-.5-.3-.6-.2-.2-.4-.3-.6-.4-.1 0-.2-.1-.4-.1-.5 0-.9.3-.9.3l-.1.1v.1h.3zM132.6 163.3h.3s0-.3-.2-.5c-.2-.3-.5-.5-1-.6h-.2c-.9 0-1.5.5-1.6 1.1v.2c0 .2 0 .4.1.6.1.2.2.3.4.4.1 0 .4.1.8.1.3 0 .6-.1.9-.3.2-.2.3-.4.4-.5l.1-.2v-.3.3h.1l-.1-.3v.3-.3l-.1.3h.1v-.3l-.1.3.4.1-.1-.4h-.2l.1-.3h-.1c-.1 0-.2 0-.2.1l-.3.3c-.1.1-.3.3-.4.5-.1.1-.2.1-.5.1-.2 0-.5-.1-.6-.1 0 0-.1-.2-.1-.5v-.2c0-.2.4-.6 1-.6h.1c.3 0 .5.2.6.3l.1.2v.1l.3.1.1-.3-.1.3zM134.2 165.7v-.3s-.2 0-.5.1-.6.2-.8.5c-.1.2-.1.4-.1.5 0 .4.1.7.3.9.1.1.2.2.3.2.2 0 .3-.1.4-.2l.1-.1c.1 0 .3 0 .4.1l.2.1h.1c0 .1.1.2.3.2.1 0 .2-.1.2-.1.1-.1.2-.3.2-.5s.1-.4.1-.6c0-.2 0-.4-.1-.6-.1-.3-.3-.5-.5-.6-.2-.1-.4-.1-.6-.1h-.3l.3.5v-.3.6h.2c.1 0 .2 0 .3.1.1 0 .1.1.2.2 0 .1.1.3.1.4 0 .2 0 .4-.1.5l-.1.1.2.1v-.2c-.1 0-.2.1-.2.1l.2.1v-.2.2l.2-.1s-.1-.1-.2-.1v.2l.2-.1c-.2-.2-.4-.3-.6-.4-.2-.1-.4-.1-.6-.1-.2 0-.3.1-.5.2l-.1.1v.1-.2.1-.1.1l.1-.1h-.1v.1l.1-.1c-.1-.1-.2-.3-.2-.5l.1-.3c0-.1.2-.2.4-.2l.3-.1h.1v-.2zM131.3 169.8l-.2.2h.1-.1.1-.1s.3.4.3 1c0 .2 0 .4-.1.6-.1.3-.1.4-.2.4l-.2.1h-.2c-.1 0-.2-.1-.3-.1h-.1l.1.3v-.3.2-.2.2-.2.2l.2-.2-.2-.1v.2l.2-.2-.1.1.2-.1v-.1l-.1.1.2-.1V171c0-.2 0-.5-.1-.7v-.2l.1-.3c.1-.1.2-.1.4-.1h.3l-.2.1-.2.2.2-.2.1-.3c-.2 0-.3-.1-.5-.1-.3 0-.6.1-.8.3-.2.2-.3.4-.3.7 0 .2 0 .3.1.5 0 0 .1.2.1.4V172.2l.1.2c0 .1.2.1.3.1h.1v-.2.2-.2.2-.1.1-.1.1l.2.1c.1 0 .2.1.4.1s.4-.1.6-.2c.2-.2.3-.4.4-.7.1-.3.1-.5.1-.7 0-.8-.4-1.3-.4-1.3l-.1-.1h-.1l-.3.1zM115.8 172.6l.1.2s.3-.2.6-.2c.2 0 .3 0 .5.2s.3.4.4.6c.1.2.1.5.1.8v.4l-.1.1c-.1 0-.2.1-.4.1-.1 0-.3 0-.4-.1l-.1-.1-.2-.4-.3.1.3-.1s-.1-.2-.2-.5-.2-.6-.3-.8l.1-.1-.1-.2-.1-.3-.3.2c-.1.1-.2.2-.2.4 0 .1 0 .3.1.4.1.1.2.4.3.6.1.2.1.5.1.5l.2.4c.1.2.3.3.5.4.2.1.4.1.6.1s.5 0 .7-.2c.2-.1.4-.4.4-.6v-.4c0-.3 0-.6-.1-.9-.1-.3-.2-.6-.5-.9-.3-.3-.6-.3-.9-.3-.5 0-.9.2-.9.2l.1.4-.1-.3.1.3zM93.9 189.7h-.3l-.1.2c-.1.1-.2.1-.4.1s-.3 0-.4-.1l-.1-.2v-1l.1-.2c.1-.1.2-.1.4-.1s.3.1.4.1l.1.2v1h.6v-1c0-.3-.1-.5-.3-.7-.2-.2-.5-.3-.7-.3-.3 0-.5.1-.7.3-.2.2-.3.4-.3.7v1c0 .3.1.5.3.7s.5.3.7.3c.3 0 .5-.1.7-.3s.3-.4.3-.7h-.3zM106.2 195.3h-.3l-.1.2c-.1.1-.2.1-.4.1s-.3-.1-.4-.1l-.1-.2v-1l.1-.2c.1-.1.2-.1.4-.1s.3.1.4.1l.1.2v1h.6v-1c0-.3-.1-.5-.3-.7-.2-.2-.5-.3-.7-.3-.3 0-.5.1-.7.3-.2.2-.3.4-.3.7v1c0 .3.1.5.3.7.2.2.5.3.7.3.3 0 .5-.1.7-.3s.3-.4.3-.7h-.3zM123.4 194.6h-.3c0 .1 0 .1-.2.2-.1.1-.3.1-.5.1s-.4-.1-.5-.1l-.2-.2v-1c0-.1 0-.1.2-.2.1-.1.3-.1.5-.1s.4.1.5.1l.2.2v1h.6v-1c0-.3-.2-.5-.4-.7s-.5-.2-.8-.2c-.3 0-.6.1-.8.2-.2.2-.4.4-.4.7v1c0 .3.2.5.4.7s.5.2.8.2c.3 0 .6-.1.8-.2.2-.1.4-.4.4-.7h-.3zM133.8 187.7h-.3l-.1.2c-.1.1-.2.1-.3.1s-.3 0-.3-.1l-.1-.2v-.8l.1-.2c.1-.1.2-.1.3-.1s.3 0 .3.1l.1.2v.8h.6v-.8c0-.3-.1-.5-.3-.6-.2-.1-.4-.2-.7-.2s-.5.1-.7.2c-.2.1-.3.4-.3.6v.8c0 .3.1.5.3.6.2.1.4.2.7.2s.5-.1.7-.2c.2-.1.3-.4.3-.6h-.3zM83.2 84.9s-.1-.1-.3-.1H81s-.7-.4-1.3-1.1c-.3-.3-.6-.7-.8-1.1v11.1h4.3v-8.8zM86 93.5v-7.6c0-.1 0-.2-.1-.3-.1-.1-.3-.3-.8-.3h-1.3v8.4h1.7c.3 0 .4-.1.5-.2zM143.3 95.3l.6.1s.1-.5.1-1.2c0-2-.6-6.4-4.9-11L138 82l.1 1.6s.2 2.2.8 4.8c.7 2.6 1.8 5.6 4 7.3l.7.6.2-.9-.5-.1.3-.5c-1.8-1.3-3-4.2-3.6-6.7-.3-1.2-.5-2.4-.6-3.3-.1-.4-.1-.8-.1-1v-.4h-.6l-.4.4c4 4.3 4.5 8.4 4.6 10.2v1l.4.3.3-.5-.3.5z" class="st0"/><path d="m140.8 94.2-.3-.5c-.1 0-1 .4-2.2.4-1.3 0-2.9-.4-4.5-2.2l-.4.4-.2.5s2 .6 3.5.6c.3 0 .6 0 .8-.1h.4c.5 0 1 .2 1.5.4.4.2.8.6.9.7l.5-.2-.3-.5.3.5.5-.3c-.3-.4-.7-.8-1.3-1.1-.6-.3-1.3-.5-2-.6-.2 0-.4 0-.7.1-.2 0-.4.1-.6.1-.6 0-1.4-.1-2.1-.3-.3-.1-.6-.1-.8-.2-.2-.1-.3-.1-.3-.1l-2-.6 1.4 1.6c1.8 2 3.8 2.6 5.4 2.6 1.6 0 2.7-.5 2.7-.6l.6-.3-.4-.5-.4.2zM165.7 92.8l5.1-4.8c.7-.8.6-1.4.9-2.4.3-1 2-2.6 4.2-4s2.1-1.8 2.9-2.9c.7-1.1-1.9 7.5-7.3 9.4 0 0-4.7 3.8-5.4 5.2l-.4-.5z" class="st0"/><path d="M167.3 91.8c-.1-.3-.5-1.6-.5-3.1 0-.7.1-1.4.3-2.1.7-2.3 1.5-3.8 1.5-5.5 0-.3 0-.6-.1-.9l-.6.1-.4.4c.1.1 1.2 1.4 1.2 4.8 0 1.2-.2 2.7-.6 4.5l.6.1-.4-.4-1.8 1.8.8.8 2-1.9v-.2c.4-1.9.6-3.5.6-4.8 0-3.8-1.4-5.5-1.5-5.6l-1.5-1.6.5 2.1c0 .2.1.4.1.7 0 1.2-.7 2.8-1.4 5.2-.2.8-.3 1.7-.3 2.4 0 1.9.6 3.4.6 3.5l.9-.3z" class="st0"/><path d="m171.4 83.8-.4-.4s-1 1-1.9 2.4c-1 1.4-2 3.2-2 5v.4l.1 1 .8-.5s.7-.5 1.5-1.2 1.6-1.7 2-2.9c.4-1.4.5-2.6.5-3.3v-.6l-.1-1.2-.9.9.4.4-.6.1v.4c0 .6-.1 1.7-.5 2.9-.3.8-1 1.7-1.7 2.4-.3.3-.7.6-.9.8-.1.1-.2.2-.3.2l-.1.1.3.5.6-.1v-.3c0-1.3.9-3 1.8-4.4.5-.7.9-1.2 1.3-1.6.2-.2.3-.4.4-.5s.1-.2.1-.2l-.4-.3-.6.1.6-.1z" class="st0"/><path d="M167.4 91.8s2.7-3 6.4-3.8c3.7-.7 4.5-.7 4.5-.7s-2.2 1.6-2.7 2.5c-.6.9-4 2.3-8.2 2" class="st0"/><path d="m168.3 90.8.4.4v-.1c.3-.3 1.5-1.6 3.2-2.8 1.7-1.3 3.9-2.5 6.1-2.8l-.1-.6-.5-.3c-.1.1-2 3.3-9.4 5.6l.3.6.4.4-.4-.4.2.5c7.9-2.5 10-6 10.1-6.1l.6-1-1.1.1c-2.7.3-5.2 1.8-7 3.2-1.9 1.4-3.1 2.8-3.1 2.8l-1.4 1.6 2-.6-.3-.5zM156 112.9l-.2-.5s-1.6.5-3.4 1.7-3.7 3.1-4.3 5.9l-.3 1.2 1.1-.6s.5-.2 1.1-.6c.7-.3 1.5-.7 2.2-1 .9-.3 1.9-1.1 2.8-2.2s1.6-2.4 1.6-3.9v-.8l-.8.2.2.6h-.6c0 1.1-.6 2.2-1.3 3.2-.8.9-1.7 1.6-2.3 1.9-1.5.6-3.4 1.6-3.4 1.6l.3.5.6.1c.5-2.4 2.2-4.1 3.9-5.2.8-.5 1.6-.9 2.2-1.2.3-.1.5-.2.7-.3l.2-.1h.1l-.4-.5h-.6.6z" class="st0"/><path d="m156 110.2-.2-.5s-1.8.8-3.8 2.1c-2 1.4-4.2 3.2-5 5.6l-.4 1.1 1.1-.3s1.6-.5 3.5-1.4 4-2.1 5-3.8c.4-.6.6-1.1.7-1.4.2-.4.2-.7.2-1s-.1-.5-.3-.7-.4-.2-.6-.2-.4.1-.4.1l.2.4.2.5v-.3l-.2.2.2.1v-.3l-.2.2.2-.2-.3.1.1.1.2-.2-.3.1h.1-.1.1-.1s0 .2-.1.5-.3.7-.7 1.3c-.7 1.3-2.7 2.5-4.5 3.3-.9.4-1.7.7-2.3 1-.3.1-.6.2-.7.3-.2.1-.3.1-.3.1l.2.5.5.2c.6-1.9 2.7-3.7 4.6-5 .9-.6 1.9-1.2 2.5-1.5.3-.2.6-.3.8-.4.2-.1.3-.1.3-.1l-.2-.5.2.5-.2-.5zM52.6 64.2c-.7.1-1.3.1-1.9.3-.9.4-1.3 1-1.7 1.9 0 .1.1.3.2.3s.3-.1.3-.2c.1-.4.2-.8.5-1.2.7-.7 1.7-.9 2.6-1.1zM47.4 67.6l.1-.2-.2-.1c-.5.2-.9.3-1.2.8-.2.3-.3.7-.3 1.1.2-.5.4-1.1.8-1.4.3-.1.5-.2.8-.2zM14.6 247.1H7.7v2.7H14v2.3H7.7v3.4h7.2v2.3H5v-13.1h9.6zM18.8 254.7c.1.4.2.8.3 1 .3.3.9.5 1.8.5.5 0 .9-.1 1.2-.2.3-.1.4-.4.4-.7s-.1-.5-.4-.6c-.2-.1-1.1-.4-2.6-.8-1.1-.3-1.9-.6-2.3-1s-.7-1-.7-1.7c0-.9.4-1.7 1.1-2.3s1.7-1 3-1c1.2 0 2.2.2 3 .7.7.5 1.2 1.3 1.3 2.5h-2.5c0-.3-.1-.6-.3-.8-.3-.3-.8-.5-1.4-.5s-.9.1-1.2.3c-.2.2-.4.4-.4.6 0 .3.1.5.4.6.2.1 1.1.4 2.6.7 1 .2 1.8.6 2.3 1.1s.7 1.1.7 1.8c0 1-.4 1.7-1.1 2.3s-1.8.9-3.3.9c-1.5 0-2.7-.3-3.4-1-.7-.6-1.1-1.5-1.1-2.5l2.6.1zM26 250v-1.8h1.4v-2.7h2.5v2.7h1.6v1.8h-1.6v5.1c0 .4 0 .6.2.7.1.1.4.2.9.2h.5v1.9h-1.2c-1.2 0-2-.2-2.5-.6-.3-.3-.4-.7-.4-1.3v-6H26zM36.8 251.9c.5-.1.8-.1 1-.2.4-.2.5-.4.5-.7 0-.4-.1-.7-.4-.8s-.7-.2-1.2-.2c-.6 0-1 .2-1.3.4-.2.2-.3.5-.4.9h-2.4c.1-.8.3-1.5.7-2.1.7-.9 1.8-1.3 3.5-1.3 1.1 0 2 .2 2.8.6.8.4 1.2 1.2 1.2 2.4v5.5c0 .3.1.6.1.7.1.1.2.2.4.3v.4h-2.8c-.1-.2-.1-.4-.2-.6 0-.2-.1-.4-.1-.6-.4.4-.8.7-1.2 1-.6.3-1.2.5-1.9.5-.9 0-1.6-.2-2.2-.7s-.9-1.2-.9-2.1c0-1.2.5-2.1 1.4-2.6.5-.3 1.3-.5 2.2-.6l1.2-.2zm1.6 1.2c-.2.1-.3.2-.5.2-.2.1-.4.1-.7.2l-.6.1c-.5.1-.9.2-1.2.3-.4.2-.6.6-.6 1.1 0 .4.1.8.4.9.2.2.5.3.9.3.6 0 1.1-.2 1.5-.5.5-.3.7-.9.7-1.8l.1-.8zM48.4 248.3c.5.3.8.6 1.1 1.1v-4.6h2.6v13.1h-2.5v-1.3c-.4.6-.8 1-1.2 1.2-.5.3-1 .4-1.7.4-1.1 0-2.1-.5-2.9-1.4-.8-.9-1.2-2.1-1.2-3.5 0-1.6.4-2.9 1.1-3.9.8-1 1.8-1.4 3-1.4.7-.1 1.2.1 1.7.3m.6 6.9c.4-.5.6-1.2.6-2.1 0-1.2-.3-2-.9-2.5-.4-.3-.8-.5-1.3-.5-.7 0-1.3.3-1.6.8-.3.6-.5 1.2-.5 2.1 0 .9.2 1.6.5 2.1.4.5.9.8 1.6.8.7.1 1.2-.2 1.6-.7M62.4 256.6c-.8 1-2.1 1.5-3.7 1.5-1.7 0-2.9-.5-3.7-1.5-.8-1-1.2-2.2-1.2-3.6s.4-2.6 1.2-3.6 2.1-1.5 3.7-1.5c1.7 0 2.9.5 3.7 1.5s1.2 2.2 1.2 3.6-.4 2.6-1.2 3.6m-2-1.4c.4-.5.6-1.3.6-2.2 0-1-.2-1.7-.6-2.2-.4-.5-1-.8-1.7-.8s-1.3.3-1.7.8c-.4.5-.6 1.3-.6 2.2 0 1 .2 1.7.6 2.2s1 .8 1.7.8 1.3-.2 1.7-.8M70.7 244.7h2.7v10.8H80v2.3h-9.3zM84.2 247h-2.6v-2.3h2.6v2.3zm-2.6 1.1h2.6v9.7h-2.6v-9.7zM94.9 249.3c.7.9 1.1 2.1 1.1 3.6s-.4 2.7-1.1 3.7c-.7 1-1.7 1.5-3 1.5-.8 0-1.5-.2-1.9-.5-.3-.2-.6-.5-.9-1v1.2h-2.5v-13.1h2.5v4.7c.3-.4.7-.8 1.1-1 .5-.3 1-.4 1.8-.4 1.2-.1 2.2.4 2.9 1.3m-2.1 5.9c.4-.5.5-1.2.5-2.1 0-.7-.1-1.3-.3-1.7-.3-.9-1-1.3-1.9-1.3-.9 0-1.6.4-1.9 1.3-.2.4-.3 1-.3 1.7 0 .8.2 1.5.5 2.1.4.5.9.8 1.7.8.8 0 1.4-.3 1.7-.8M103.1 247.9h.2v2.6h-.7c-1 0-1.7.3-2 1-.2.4-.3.9-.3 1.7v4.6h-2.6v-9.7h2.4v1.7c.4-.6.7-1.1 1-1.3.5-.4 1.1-.6 1.8-.6h.2zM111.3 248.3c.7.3 1.2.8 1.7 1.4.4.6.6 1.2.8 2 .1.5.1 1.1.1 1.9h-7c0 1 .4 1.7 1 2 .4.2.9.4 1.4.4.6 0 1-.2 1.4-.5.2-.2.4-.4.5-.7h2.6c-.1.6-.4 1.2-.9 1.7-.9.9-2.1 1.4-3.6 1.4-1.3 0-2.4-.4-3.4-1.2-1-.8-1.5-2.1-1.5-3.9 0-1.7.4-3 1.3-3.9.9-.9 2-1.3 3.5-1.3.6.3 1.4.5 2.1.7m-3.8 2.2c-.4.4-.6.9-.7 1.5h4.4c-.1-.7-.3-1.2-.7-1.5-.4-.4-.9-.5-1.5-.5-.7 0-1.2.2-1.5.5M120.5 259.7h1c.2 0 .4-.1.6-.2.1-.1.3-.3.4-.6.1-.3.2-.5.2-.6l-3.6-10.1h2.8l2.1 7.1 2-7.1h2.7l-3.3 9.5c-.6 1.8-1.1 3-1.5 3.4s-1.1.7-2.2.7h-1.1l-.1-2.1zM137.5 253.8c.1.6.2 1 .5 1.3.5.5 1.2.8 2.3.8.7 0 1.2-.1 1.6-.2.8-.3 1.2-.8 1.2-1.5 0-.4-.2-.8-.6-1-.4-.2-1-.4-1.8-.6l-1.4-.3c-1.4-.3-2.3-.6-2.9-1-.9-.6-1.3-1.5-1.3-2.8 0-1.2.4-2.1 1.3-2.9.9-.8 2.1-1.2 3.8-1.2 1.4 0 2.6.4 3.6 1.1 1 .7 1.5 1.8 1.5 3.2h-2.6c0-.8-.4-1.3-1.1-1.7-.4-.2-1-.3-1.6-.3-.7 0-1.3.1-1.7.4-.4.3-.7.7-.7 1.2s.2.8.6 1c.3.1.9.3 1.7.5l2.3.5c1 .2 1.8.6 2.3.9.8.6 1.2 1.5 1.2 2.7s-.5 2.2-1.4 3-2.2 1.2-3.9 1.2-3.1-.4-4.1-1.2c-1-.8-1.5-1.9-1.5-3.2h2.7v.1zM155.5 256.6c-.8 1-2.1 1.5-3.7 1.5-1.7 0-2.9-.5-3.7-1.5-.8-1-1.2-2.2-1.2-3.6s.4-2.6 1.2-3.6c.8-1 2.1-1.5 3.7-1.5 1.7 0 2.9.5 3.7 1.5.8 1 1.2 2.2 1.2 3.6s-.4 2.6-1.2 3.6m-2-1.4c.4-.5.6-1.3.6-2.2 0-1-.2-1.7-.6-2.2-.4-.5-1-.8-1.7-.8s-1.3.3-1.7.8c-.4.5-.6 1.3-.6 2.2 0 1 .2 1.7.6 2.2s1 .8 1.7.8 1.3-.2 1.7-.8M166.8 249.3c.7.9 1.1 2.1 1.1 3.6s-.4 2.7-1.1 3.7c-.7 1-1.7 1.5-3 1.5-.8 0-1.5-.2-1.9-.5-.3-.2-.6-.5-.9-1v1.2h-2.5v-13.1h2.5v4.7c.3-.4.7-.8 1.1-1 .5-.3 1-.4 1.8-.4 1.2-.1 2.2.4 2.9 1.3m-2.1 5.9c.4-.5.5-1.2.5-2.1 0-.7-.1-1.3-.3-1.7-.3-.9-1-1.3-1.9-1.3s-1.6.4-1.9 1.3c-.2.4-.3 1-.3 1.7 0 .8.2 1.5.5 2.1.4.5.9.8 1.7.8s1.3-.3 1.7-.8M176 248.3c.7.3 1.2.8 1.7 1.4.4.6.7 1.2.8 2 .1.5.1 1.1.1 1.9h-7c0 1 .4 1.7 1 2 .4.2.8.4 1.4.4.6 0 1-.2 1.4-.5.2-.2.4-.4.5-.7h2.6c-.1.6-.4 1.2-.9 1.7-.9.9-2.1 1.4-3.6 1.4-1.3 0-2.4-.4-3.4-1.2s-1.5-2.1-1.5-3.9c0-1.7.4-3 1.3-3.9.9-.9 2-1.3 3.5-1.3.7.3 1.5.5 2.1.7m-3.8 2.2c-.4.4-.6.9-.7 1.5h4.4c0-.7-.3-1.2-.7-1.5-.4-.4-.9-.5-1.5-.5-.7 0-1.2.2-1.5.5M185.2 247.9h.2v2.6h-.7c-1 0-1.7.3-2.1 1-.2.4-.3.9-.3 1.7v4.6h-2.5v-9.7h2.4v1.7c.4-.6.7-1.1 1-1.3.5-.4 1.1-.6 1.9-.6h.1zM190.8 251.9c.5-.1.8-.1 1-.2.4-.2.5-.4.5-.7 0-.4-.1-.7-.4-.8s-.7-.2-1.2-.2c-.6 0-1 .2-1.3.4-.2.2-.3.5-.4.9h-2.4c.1-.8.3-1.5.7-2.1.7-.9 1.8-1.3 3.5-1.3 1.1 0 2 .2 2.8.6.8.4 1.2 1.2 1.2 2.4v5.5c0 .3.1.6.1.7.1.1.2.2.4.3v.4h-2.8c-.1-.2-.1-.4-.2-.6 0-.2-.1-.4-.1-.6-.4.4-.8.7-1.2 1-.5.3-1.2.5-1.9.5-.9 0-1.6-.2-2.2-.7-.6-.5-.9-1.2-.9-2.1 0-1.2.5-2.1 1.4-2.6.5-.3 1.3-.5 2.2-.6l1.2-.2zm1.5 1.2c-.2.1-.3.2-.5.2-.2.1-.4.1-.7.2l-.6.1c-.5.1-.9.2-1.2.3-.4.2-.6.6-.6 1.1 0 .4.1.8.4.9.2.2.5.3.9.3.6 0 1.1-.2 1.5-.5.5-.3.7-.9.7-1.8v-.8h.1zM204.8 248.7c.6.5 1 1.4 1 2.6v6.5h-2.6v-5.9c0-.5-.1-.9-.2-1.2-.2-.5-.7-.8-1.4-.8-.9 0-1.4.4-1.8 1.1-.2.4-.2.9-.2 1.5v5.2h-2.5V248h2.5v1.4c.3-.5.6-.9.9-1.1.5-.4 1.2-.6 2-.6.9.2 1.7.5 2.3 1M216.2 256.6c-.8 1-2.1 1.5-3.7 1.5-1.7 0-2.9-.5-3.7-1.5-.8-1-1.2-2.2-1.2-3.6s.4-2.6 1.2-3.6c.8-1 2.1-1.5 3.7-1.5 1.7 0 2.9.5 3.7 1.5.8 1 1.2 2.2 1.2 3.6.1 1.4-.4 2.6-1.2 3.6m-2-1.4c.4-.5.6-1.3.6-2.2 0-1-.2-1.7-.6-2.2s-1-.8-1.7-.8-1.3.3-1.7.8-.6 1.3-.6 2.2c0 1 .2 1.7.6 2.2.4.5 1 .8 1.7.8s1.3-.2 1.7-.8M73.1 270.1c.5.3.8.6 1.1 1.1v-4.6h2.6v13.1h-2.5v-1.3c-.4.6-.8 1-1.2 1.3-.5.3-1 .4-1.7.4-1.1 0-2.1-.5-2.8-1.4-.8-.9-1.2-2.1-1.2-3.5 0-1.6.4-2.9 1.1-3.9.8-.9 1.8-1.4 3-1.4.6-.2 1.2 0 1.6.2m.6 6.9c.4-.5.6-1.2.6-2.1 0-1.2-.3-2-.9-2.5-.4-.3-.8-.5-1.3-.5-.7 0-1.3.3-1.6.9-.3.6-.5 1.3-.5 2.1 0 .9.2 1.6.5 2.1.4.5.9.8 1.6.8.7 0 1.3-.2 1.6-.8M85.4 270.2c.7.3 1.2.8 1.7 1.4.4.6.7 1.2.8 2 .1.5.1 1.1.1 1.9h-7c0 1 .4 1.7 1 2 .4.2.8.4 1.4.4.6 0 1-.1 1.4-.4.2-.2.4-.4.5-.7h2.6c-.1.6-.4 1.1-.9 1.7-.9.9-2.1 1.4-3.7 1.4-1.3 0-2.4-.4-3.4-1.2-1-.8-1.5-2.1-1.5-3.9 0-1.7.5-3 1.3-3.9.9-.9 2-1.3 3.5-1.3.8.1 1.5.3 2.2.6m-3.8 2.2c-.4.4-.6.9-.7 1.5h4.4c-.1-.7-.3-1.2-.7-1.5s-.9-.5-1.5-.5c-.6-.1-1.1.1-1.5.5M94.4 279.7v-13.1h2.8v4.9h5.1v-4.9h2.7v13.1h-2.7v-5.9h-5.1v5.9zM110.1 268.8h-2.6v-2.3h2.6v2.3zm-2.6 1.2h2.6v9.7h-2.6V270zM117.7 270.1c.5.3.8.6 1.1 1.1v-4.6h2.6v13.1H119v-1.3c-.4.6-.8 1-1.2 1.3-.5.3-1 .4-1.7.4-1.1 0-2.1-.5-2.9-1.4s-1.2-2.1-1.2-3.5c0-1.6.4-2.9 1.2-3.9.8-.9 1.8-1.4 3-1.4.5-.2 1 0 1.5.2m.6 6.9c.4-.5.6-1.2.6-2.1 0-1.2-.3-2-.9-2.5-.4-.3-.8-.5-1.3-.5-.7 0-1.3.3-1.6.9s-.5 1.3-.5 2.1c0 .9.2 1.6.5 2.1.4.5.9.8 1.6.8.7 0 1.2-.2 1.6-.8M127.5 273.8c.5-.1.8-.1 1-.2.4-.2.6-.4.6-.7 0-.4-.1-.7-.4-.8-.3-.1-.7-.2-1.2-.2-.6 0-1 .2-1.3.5-.2.2-.3.5-.4.9h-2.4c.1-.9.3-1.5.7-2.1.7-.8 1.8-1.3 3.5-1.3 1.1 0 2 .2 2.8.6.8.4 1.2 1.2 1.2 2.4v5.5c0 .3.1.6.2.7.1.1.2.2.4.3v.4h-2.8c-.1-.2-.1-.4-.2-.6 0-.2-.1-.4-.1-.6-.4.4-.8.7-1.2 1-.5.3-1.2.5-1.9.5-.9 0-1.6-.3-2.2-.8-.6-.5-.9-1.2-.9-2.1 0-1.2.5-2.1 1.4-2.6.5-.3 1.2-.5 2.2-.6l1-.2zm1.5 1.2c-.2.1-.3.2-.5.2-.2.1-.4.1-.7.2l-.6.1c-.6.1-.9.2-1.2.3-.4.2-.6.6-.6 1.1 0 .4.1.7.4.9.2.2.5.3.9.3.6 0 1.1-.2 1.5-.5.5-.3.7-.9.7-1.7v-.9h.1zM133.8 266.6h2.5v13.1h-2.5zM143.6 270c.6.3 1.1.7 1.5 1.4V270h2.5v9.2c0 1.2-.2 2.2-.6 2.8-.7 1.1-2.1 1.6-4.2 1.6-1.2 0-2.3-.2-3-.7-.8-.5-1.2-1.2-1.3-2.2h2.8c.1.3.2.5.3.6.3.2.7.3 1.4.3.9 0 1.5-.3 1.8-.9.2-.4.3-1 .3-2v-.6c-.2.4-.5.7-.8.9-.5.4-1.2.6-2 .6-1.2 0-2.2-.4-3-1.3-.7-.9-1.1-2-1.1-3.6 0-1.4.4-2.6 1.1-3.6.7-1 1.7-1.5 3-1.5.5.1.9.2 1.3.4m.9 6.9c.4-.4.6-1.2.6-2.1s-.2-1.6-.6-2.1c-.4-.5-.9-.7-1.6-.7-.9 0-1.5.4-1.8 1.3-.2.4-.3 1-.3 1.6s.1 1.1.3 1.5c.3.8 1 1.2 1.8 1.2.7 0 1.2-.2 1.6-.7M158 278.5c-.8 1-2.1 1.5-3.7 1.5-1.7 0-2.9-.5-3.7-1.5-.8-1-1.2-2.2-1.2-3.6s.4-2.6 1.2-3.6c.8-1 2.1-1.5 3.7-1.5 1.7 0 2.9.5 3.7 1.5.8 1 1.2 2.2 1.2 3.6 0 1.3-.4 2.6-1.2 3.6m-2-1.4c.4-.5.6-1.3.6-2.2 0-1-.2-1.7-.6-2.2-.4-.5-1-.8-1.7-.8s-1.3.3-1.7.8c-.4.5-.6 1.3-.6 2.2 0 1 .2 1.7.6 2.2.4.5 1 .8 1.7.8s1.3-.3 1.7-.8M104.1 229.2v4.3h5.9l2.8 2.4 3.4-2.4h5.9v-4.3l-9.3 6.1z" class="st0"/><path d="M110.6 234c0 .9-.8 1.6-1.9 1.6-1 0-1.9-.7-1.9-1.6v-.5c0-.9.8-1.6 1.9-1.6 1 0 1.9.7 1.9 1.6v.5zM118 234c0 .9-.8 1.6-1.9 1.6-1 0-1.9-.7-1.9-1.6v-.5c0-.9.8-1.6 1.9-1.6 1 0 1.9.7 1.9 1.6v.5zM199.5 90.9c.3-.1.6 0 .8-.2.5-.2 1.1-.5 1.4-1h-.1c-.1.1-.2.2-.4.3-.4.1-.7.1-1 .3-.2.1-.4.2-.5.3h-.2v-.1c.2-.2.4-.3.6-.4.4-.2.8-.2 1.1-.4.1-.1.4-.1.3-.3-.5-.1-1.1.2-1.5.4-.3.1-.6.3-.8.5-.4.3-.7.3-1 .5-.1.1-.4.2-.5.3l.2.1.1-.1.1-.1c.5-.1 1-.2 1.4-.1zM200.7 88.4c-.3 0-.6.2-.8.4l-.1.1c-.5.2-1 .8-1.1 1.4.2.1.4-.2.5-.3.4-.3.8-.5 1.1-.8l.1-.2-.2.1c-.4.1-.6.4-.9.6v-.2c.5-.4 1-.7 1.4-1.1zM201.7 90.6c-.4.3-.8.6-1.2.7-.1.1-.3.1-.5.1-.1.1-.2-.1-.3 0v-.1c.1-.1.2 0 .3 0 .5-.2 1.1-.3 1.5-.8v-.1c-.2.1-.5.2-.7.4-.5.3-.9.3-1.4.3-.2.1-.4 0-.6.2l.9.3c.2.1.4.1.6 0 .1-.1.2 0 .3-.1.2 0 .4-.2.6-.2.2-.1.3-.2.5-.3-.1-.2.2-.3 0-.4zM196.6 91.5c-.1.1-.4 0-.5.1-.2 0-.4.1-.6.1l-.2.1c-.2 0-.5.1-.7.1h-.5l-.1-.1c.1-.1.3-.1.4-.2.3 0 .6-.1.9-.1.6-.2 1.2-.1 1.7-.4-.3 0-.7-.1-1 0-.1-.1-.3 0-.4 0h-.1c-.6.1-1.3.3-1.9.5-.2.1-.3.2-.5.1-.3 0-.5 0-.8.1l.3.1c.2 0 .3.1.5.1.3 0 .6 0 .9.1.1 0 .2 0 .3.1.3.2.6-.1.8 0h.3c.1-.1.3 0 .4-.1.3 0 .5-.1.7-.2.3-.2.7-.2.9-.5-.1-.1-.5 0-.8.1zM194.9 90.6c.6-.1 1-.3 1.5-.4-.3-.2-.7 0-.9 0-.1-.1-.3 0-.4 0-.5.1-.9.3-1.3.6-.1.2-.3.3-.3.5h.1c.5-.3 1-.3 1.6-.4.2 0 .4 0 .6-.1.2 0 .3-.2.4-.1l.3-.1.1-.1c-.1 0-.3-.1-.4 0-.2-.1-.4.1-.6.1s-.4.1-.7 0c-.2.1-.4.2-.6.1.2 0 .4-.1.6-.1zM196.5 92.6c-.3.1-1.3.2-1.3.2-.2 0-.3 0-.4-.1l.1-.1h.2c.5-.1 1-.2 1.5-.2.1-.1.3 0 .4-.1h-.2c-.3-.3-.6.1-.9 0 0 0-2.1 0-2.2.1.1.1 1 .7 1.2.7.2-.1.4-.1.6-.1.1-.1.2 0 .3-.1.4 0 .9-.1 1.3-.3-.2-.1-.5.1-.6 0zM187.4 88l-.3-.1v-.3l.3.1zM112.3 72.8v-.9l-71-.5.1 127h.9l-.8-.1s-.1.7-.1 1.8c0 2.5.6 7.2 4.5 11.7s10.9 8.5 23.5 9.8c15.3 1.6 23.9 1.9 29.6 3 2.9.5 5 1.3 7 2.4 2 1.2 3.8 2.8 6 5.1l.3.3h.8l.3-.3c2.2-2.4 4-4 6-5.1 3-1.7 6.4-2.5 11.9-3.1 5.6-.6 13.3-1.1 24.7-2.3 12.6-1.3 19.7-5.4 23.5-9.8 3.9-4.5 4.5-9.2 4.5-11.7 0-1.1-.1-1.8-.1-1.8l-.8.1h.9l.1-127-71 .6h-1V73.7h1l69.2-.4-.1 125.4v.1c0 .1.1.7.1 1.5 0 2.2-.5 6.5-4 10.6-3.5 4-10.1 7.9-22.4 9.2-15.2 1.6-23.8 1.9-29.8 3-3 .6-5.4 1.3-7.6 2.6-2.2 1.3-4.2 3-6.4 5.4l.6.6v-.9h-.1v.9l.6-.6c-2.3-2.4-4.2-4.2-6.4-5.4-3.3-1.9-7-2.7-12.6-3.3s-13.3-1.1-24.7-2.3c-12.3-1.3-18.9-5.2-22.4-9.2s-4-8.3-4-10.6V198.6L43 73.2l69.2.4.1-.8z" class="st0"/><path d="M157.7 146.6c-3.6.1-7.5-2.1-9.2-3.7-1.7-1.6-6.4-4.5-8.5-7.5-2.1-3.1-2.6-3.3-3.8-3.5-1.2-.2-2.3-1.5-2.8-4s-1.7-1.9-2.4-2.7c-.7-.8-.3-5.5-.7-10-.4-4.5-2.2-7.1-2.8-7.4s-1.1 1.7-1.7 1.2-.9-1.6-1.2-1.7c-.4-.1-1 1-1.3-.5-.4-1.4-2.3-5-2.9-7.3-.6-2.4-.2-5.3-.6-6.8-.4-1.4-2.3-.5-2.3-.5-.7-1-8.1 1.1-8.4 2.4-.3 1.2-.2 4.1-2.6 5.8-2.4 1.7-2.4 3.4-2.9 5.1s-3.1 3.5-4.4 4.4c-1.2.9-1.6 3.1-2.1 4.1s-.7 1-1.5-.2c-.9-1.2-1.8 0-1.9.8-.1.8-.7.1-.7.1-1.7-.9-1.9 2.5-1.9 2.5.5 5.8-.9 10.1-2.9 12.3-2 2.2-5.1 2.9-5.6 4s-2.7 2.3-3.7 2.8-5.8 3.1-6.2 3.7c-.4.6.3 2.2-2.4 3.2-2.7 1-5.8 3.3-5.8 3.3l-.8 1.2 45.9 1c3.3-1.4 9.3-3.4 7.6-4.8-2.4-1.9 5.9-4.5 5.7-8.5-.1-1.8 2.4-1.3 1.9-3.1-.6-1.8.9-2.2-.4-2.8-1.3-.6-1.4-4.6-1.4-4.6 0-10.2-3.8-13.3-4.3-14-.4-.7-.3-5-1.5-7.2-1.1-2.2-.5-5.4-.6-7.3l1-3.3s1.1-1.1 1.2.8c.1 1.9-.2 6.1.9 8.3 1.1 2.2 2.7 5.3 3.1 6 .4.7.9-.3 1.3.3s.5.9 1 1.1c.4.2 1.5.4 1.6-.2.1-.7.7-.4 1 .7.4 1.1 1.7 3.4 1.7 13.6 0 0-.2 2.5 1.1 3.1s1.4.6 2 2.3c.6 1.8.4 2.3 1.7 3.5s2.6.2 3.5 1.9c.9 1.6 3.5 4.7 5.9 6.6 2.4 1.9 7.3 5.2 8.3 6.1L123 149l34.6.8c.4.1 3.7-3.3.1-3.2zM124.2 161.5c0 .1-.1.1 0 0 2.2.6 4.2 1.3 5.7 2V163.2c0-.3.2-.5.4-.7-.5-.3-1.1-.5-1.6-.7-1.3-.5-2.7-.9-4.3-1.3-.1.3-.1.7-.2 1zM121.9 161.2v-.3c0-.3 0-.7.1-.9-2.6-.5-5.5-.9-8.5-1v.9c0 .1 0 .2-.1.3 3 .2 5.9.5 8.5 1zM132.1 164.3c-.1.2-.3.2-.4.3.6.4 1.1.9 1.4 1.3.2-.2.5-.3.7-.4.1 0 .3-.1.4-.1-.2-.3-.5-.6-.9-.9-.2-.2-.5-.4-.8-.6-.2.1-.3.2-.4.4zM130 171.3c0-.2 0-.4-.1-.4 0-.1 0-.1-.1-.2-2.8 1.2-7.1 2-12.2 2.1.1.1.1.3.2.4.1.3.1.6.1.8 4.8-.2 9-1.1 12-2.2.1-.1.1-.3.1-.5zM115.6 173.9c-.1-.2-.2-.5-.3-.6-.1-.1-.1-.2-.1-.4-.8 0-1.6 0-2.5-.1-4.2-.2-8.2-.7-11.4-1.6-.1.2-.2.8-.4 1.2 3.3.9 7.3 1.5 11.5 1.6.9 0 1.8.1 2.6.1h.5c.1 0 .1-.1.1-.2zM98.7 171.1c0-.2.1-.3.2-.5-3.2-1-5.4-2.4-6.2-3.8l-.3-.3h-.1c-.2 0-.5.1-.7.2l-.2.2c0 .1-.1.2-.1.3 0 0 0 .1-.1.1.3.4.6.9 1.1 1.3 1.1.9 2.6 1.8 4.6 2.6.5.2 1.1.4 1.6.6.1-.2.2-.5.2-.7zM134.7 167.6l-.2-.1c-.2-.1-.4-.1-.4-.1l-.1.1c-.1.1-.2.1-.4.1-.1.8-.8 1.6-1.8 2.2.1.2.3.6.3 1.1.5-.3.9-.6 1.3-.9.8-.7 1.3-1.5 1.3-2.4zM101.8 160.4v.4c2.6-.4 5.6-.6 8.9-.6v-.1c-.1-.3-.1-.6-.1-.9v-.2h-.1c-3.3 0-6.4.3-9.1.7.1.1.3.4.4.7zM99.2 161c0-.2-.1-.3-.4-.6-.1 0-.1-.1-.1-.2-2.1.5-3.8 1.2-5.2 2 .2.1.3.2.5.3.2.2.4.3.5.5 1.2-.7 2.8-1.3 4.8-1.8 0 0-.1-.1-.1-.2zM92.7 164.4c0-.1-.1-.2-.3-.3-.2-.1-.4-.2-.5-.2h-.2s-.1 0-.1-.1l-.6.9c.2-.1.3-.1.5-.1.1 0 .3 0 .4.1.3.1.4.2.6.4.1-.2.1-.3.2-.5v-.2zM132.8 188.5c-.2 0-.3-.1-.4-.2-.1 0-.1-.1-.2-.2-1.7 1.3-4.8 3.3-8.9 4.9.2.1.3.3.3.6v.2c4.8-1.8 8.1-4.3 9.2-5.3zM92 188.8c0-.1 0-.2.1-.3-.5-.3-.9-.7-1.3-1v.8c.4.3.8.6 1.2 1v-.5zM121.2 194.6v-.8c-2.5.8-5.2 1.3-8.2 1.4h-1.1c-1.9 0-3.6-.2-5.3-.4v.5c0 .2 0 .3-.1.4 1.7.3 3.5.5 5.4.5h1.1c3-.1 5.7-.7 8.2-1.6 0 .1 0 .1 0 0zM104.3 194.4c-4.1-1-7.5-2.7-10.2-4.5 0 .2-.2.4-.3.5 0 0-.1 0-.1.1 2.7 1.9 6.2 3.8 10.6 4.9v-1z" class="st0"/><path d="M131.8 181c-1.2.5-3.1.8-4.3.9l-4.1 10.6c4.4-1.7 7.7-4 9.2-5.2l-.8-6.3zM105.6 193.1l10.3-18.6h-3.5c-4.5-.2-8.6-.8-12-1.8l5.2 20.4zM131.2 176.2l-.4-3.1-1.4 3.5c.7.1 1.4-.1 1.8-.4zM115.1 178.7c.8.2 1.7.2 2.4.1l-.8-3.1-1.6 3zM126.2 182l3.9-9.9c-3.2 1.3-7.6 2.1-12.7 2.3l-.1.1 4.9 17.2 4-9.7zM132.1 175.8l.6 4.6.8 6.2 1-17.4c-.6.9-1.6 1.7-3 2.4l.6 4.2zM91 172.6l-.5-5v4.8s.2.1.5.2zM91.5 177.8c-.4-.1-.8-.2-1-.5v9.3c.6.5 1.2 1 1.9 1.5l-.9-10.3zM93.6 186.6l5.3-13.8-.1-.4.3-.1c-3.3-1-5.8-2.3-7.2-3.8l.4 4.1.5 5.3.8 8.7zM118.9 184.1c-2.5.6-5.2.2-6.8 0l-5.6 10.1c2 .4 4.2.5 6.5.5 3-.1 5.8-.7 8.2-1.4l-2.3-9.2zM99.9 176.7l-.6-2.3-.8 2.2c.4 0 .9 0 1.4.1zM101.6 182.7c-1.3-.2-3.6-.6-4.8-1.4L94 189c2.7 1.9 6.3 3.7 10.7 4.8l-3.1-11.1zM52.9 93.7v-8.4h-1.3c-.5 0-.7.1-.8.3-.2.1-.2.2-.2.3V93.6c.1 0 .2.1.6.1h1.7zM57.8 82.6c-.2.4-.5.8-.8 1.1-.7.7-1.3 1.1-1.3 1.1h-1.9c-.2 0-.3.1-.3.1V93.7h4.3V82.6zM58.3 84.7v9h1.6c.1-.5.5-1.7 1.5-2.9 1.2-1.6 3.3-3.2 6.8-3.2h.2c3.5 0 5.6 1.6 6.8 3.2.9 1.2 1.3 2.4 1.5 2.9h1.6v-9h-20zM65.4 84.1l-3-6.4h-.2c-.3 0-.9.2-2.1 1-1.6 1.1-1.8 1.8-1.8 2v3.5l7.1-.1zM78.3 80.6c0-.2-.1-.8-1.8-2-1.2-.8-1.9-1-2.1-1l-3 6.5h6.9v-3.5zM73.7 77.7l-.1-.4c-.1-.2-.2-.4-.5-.7-.6-.5-1.8-1-4.4-1h-.8c-2.4 0-3.7.5-4.3 1-.5.4-.6.7-.6.9l3.1 6.7h4.7l2.9-6.5zM156 112.9s-4.8 1.6-5.2 6.1c0 0 5.4-1.9 5.2-6.1" class="st0"/><path d="M155.8 110.3s-5.9 3.2-6.1 6.5c0 0 5.9-2.3 6.6-5.4s0-.1 0-.1l-.5-1z" class="st0"/><path d="M156.6 109.8c.1 0 1.4.2 2.6 3 1.2 2.8 1.2 5.2 1.2 5.3 0 .1-3.5-1.6-4.4-6.3l.6-2zM155.6 117.5s3.6 3.8-1.3 11.8c0 0 .4-3.2.1-4.4-.2-1.1-1.1-6.7 1.2-7.4" class="st0"/><path d="M155.6 117.5s1.9 4.9-5.7 10.4c0 0 1.6-2.8 1.8-4 .2-1.2 1.5-6.6 3.9-6.4M130 87s3.5-.9 7.3 2.9c3.9 3.8 7.6 6.7 10.1 6.7.2 0-.3 1.1-.3 1.1s-4.5-1.4-7.8-4.3c-3.3-3-5.8-2.8-7.9-4.4-2.1-1.7-1.4-2-1.4-2" class="st0"/><path d="M139.2 87.2s4 2.1 4.1 8.5c0-.1-2.7-1.5-4.1-8.5" class="st0"/><path d="M142.7 95.2s-.6 2.3-4.8 2.4c-4.2 0-5.6-1-5.7-1-.1 0 3.1-1 3.7-1.4.6-.3 3.7-2.1 6.8 0M146.6 99s-3-.5-3.6-1c-.7-.5-1-1-1.8-.5s-.3 1.1.3 1.2c.7.1 1.3-.2 1.8.1.5.3.6.4.6.4s-.5.4-1.3.3c-.7-.1-1.4-.2-1.8.6-.4.8.6 1.4 1.2 1.1.6-.3.6-.8 1.3-1.1.7-.3 2.4-.6 3.1-.7.8 0 .2-.4.2-.4M140.6 92.8s-2.4-3.5-2.7-5.3c0 0 .8-.9 0-1.6-.8-.8-1.5.1-1.2.8.3.6.9 1.3.9 1.3s1.6 2.4 1.2 3.5c-.5 1 1.8 1.3 1.8 1.3M168.3 90.8s2.7-3 5.6-3.3c0 0-1.2 1.9-5.6 3.3M166.9 91.8s-1.4-2.8-.1-6.2c0 0 1.9 2 .1 6.2" class="st0"/><path d="M167.7 91.1s0-2.5 2.4-5.7c0-.1 1.2 2.1-2.4 5.7M166.3 94c.1-.1 2.1-.3 2.6-.1 0 0 .8-.7 1.4-.3.5.4.7.8.4 1.3-.2.5-1.3.7-1.9-.2-.6-.9-2.2-.1-2.2-.1l-.3-.6zM160.4 119.2c-.6-.1-1-.1-1-.1-.1 0-1.5-.3-1.9-1.3s-.9-1.7-.9-1.7.2-4.4.3-5.9c.1-1.3.2-3 .6-4.5h-.9c-.1 1-.3 2.5-.6 2.9 0 0-2.4.3-3.2.7 0 0-.5.1-1 0s-1.3.6-1 1.1c.4.5 1 .7 1.3.3.3-.4.2-.6.7-.9.5-.3 2.4-.7 3-.6 0 0-1.4 3.7-.6 7.8 0 0 0 .3.1.6s.1.6.1.6.7-1.2.6-1.6c0 0 .1-.2.4.4.3.6.6 1.7.7 2.1.2.4.5 1 .4 1.5 0 .5-.1 1.2.9 1.2 0 0 .8-.7-.2-1.3 0 0-.4-.6-.4-1.5 0 0 1 .2 1.5.6 0 0 .1.4.3.6.2.2.8.2 1.1-.1.4 0 .3-.8-.3-.9z" class="st0"/><path d="M148.9 93.3c-1.1 1-2.6 6-2.6 6l.1.3c.3 0 .6 0 1 .1 1.3.2 8 .6 10.8.3 2.8-.3 6-1.2 6-1.2s2.1-.7 3.6-.8v-.1c-1.5-8.6-4.5-7.8-7.2-11.7-2.7-3.9-6.7-4.3-9.4-3.8-2.6.4-5.7 3.8-5.5 7.6.3 3.5 3.2 3.3 3.2 3.3z" class="st0"/><path d="m164.2 98.7.2.5s.1 0 .4-.1c.8-.2 2.5-.7 3.5-.7.2 0 .4 0 .5.1h.1l.1-.1h-.1l.1-.1h-.1c.1.1.1.3.1.4 0 .3-.1.6-.2.9-.1.4-.3.8-.3 1.3 0 .2 0 .3.1.5.1.4.2.8.2 1.2 0 .4-.1.7-.2 1-.2.3-.4.6-.9.9-.1.1-.4.2-.9.3-1.4.2-4 .3-6.6.3h-5.1c-1.2 0-2.2 0-3 .1-1.5.1-2.9.2-4 .2-.6 0-1.1 0-1.4-.1-.2 0-.2-.1-.3-.1 0-.1-.1-.2-.1-.3 0-.2 0-.3.1-.5s.2-.4.2-.8c0-.1 0-.3-.1-.5-.2-.5-.5-.8-.7-1.1-.2-.3-.4-.6-.4-.8 0-.1 0-.2.1-.3.3-.4.5-.7.6-.8.1-.1.2-.1.5-.1.2 0 .4 0 .7.1.5.1 1.7.2 3.1.3 1.4.1 3.1.1 4.7.1 1.2 0 2.4 0 3.2-.1 2.9-.3 6.1-1.2 6.1-1.2l-.2-.5-.1-.6s-.2.1-.5.1c-1 .3-3.3.8-5.4 1-.8.1-1.9.1-3.1.1-1.5 0-3.2-.1-4.6-.1-1.4-.1-2.6-.2-3-.2-.3-.1-.6-.1-.9-.1-.4 0-.9.1-1.2.4s-.6.6-.8 1c-.2.3-.3.6-.3.9 0 .6.3 1.1.6 1.5s.5.7.5.8v.1c0 .1 0 .2-.1.4s-.2.5-.2.8c0 .2 0 .4.1.6.1.3.2.5.4.6.3.2.7.3 1 .4.4.1.8.1 1.3.1 1.1 0 2.5-.1 4.1-.2.7-.1 1.7-.1 2.9-.1h5.1c1.8 0 3.5 0 4.9-.1.7 0 1.3-.1 1.9-.2.5-.1.9-.2 1.3-.4.6-.4 1-.8 1.3-1.3s.3-1 .3-1.5-.1-1-.2-1.5v-.3c0-.3.1-.6.2-1s.3-.8.3-1.3c0-.3 0-.6-.2-.8-.1-.4-.5-.6-.7-.6-.3-.1-.6-.1-.9-.1-.9 0-1.9.2-2.7.4-.8.2-1.5.4-1.5.4l.2.8-.1-.6.1.6zM144.8 225.9c-.1-.1-.3-.2-.4-.2h-.1l-3.3.2-.2.2-.2.2c-.4.6-1.4 2-2.8 3.3-1.3 1.3-3 2.6-4.5 2.8-.7.1-1.4.2-2 .2-1.3 0-2.4-.3-3.1-.7-.5-.3-.7-.6-.9-1 .1.2.3.3.5.4.2.1.4.1.7.1.6 0 1.1-.2 1.6-.6.5-.4.9-.9.9-1.7v-.1c0-.6-.2-1.3-.6-1.8-.4-.5-1.1-.9-2-.9-.4 0-.8.1-1.2.2-.2 0-.3.1-.5.2-1.9-.3-5.3.6-5.4 4.4-.1 4.5 4.8 5.1 4.8 5.1 1.5.1 2.9.1 4.2-.1h.8c3.3 0 7-1.9 9.8-5.2 1.8-2.1 2.8-3.2 3.3-3.9.3-.3.4-.5.5-.6l.1-.1v-.2s0-.1.1-.3c0 .4 0 .3-.1.1zm-17.4 3.6s0-.1.1-.1c.1-.1.2-.1.3-.2-.2.1-.3.2-.4.3zm12.7 1c-2.7 3.1-6.1 4.8-9 4.8-1.5 0-2.8-.5-3.9-1.4-1.3-1.2-1.8-2.3-1.8-3.3 0-1.4.9-2.5 2-2.8.4-.1.7-.2.9-.2.6 0 .9.2 1.1.5s.4.7.4 1.1c0 .3-.2.5-.4.8-.3.2-.7.3-.9.3H128.2l.1-.2c.3 0 .6-.1.8-.3.2-.2.2-.4.2-.6v-.1c-.1-.3-.3-.6-.5-.8-.3-.2-.6-.3-.9-.3-.5 0-.9.2-1.3.6-.4.4-.6 1-.6 1.8 0 1.1.6 2.1 1.6 2.6 1 .6 2.2.9 3.7.9.7 0 1.5-.1 2.2-.2 2.2-.4 4.2-2.1 5.7-3.7 1.2-1.2 2-2.4 2.3-2.9l1.4-.1c-.4.6-1.3 1.7-2.8 3.5zM113.4 66.9l-86-45.6-2.4-6.1L8.6 9.8l11.1 13.5 7.2-.6S-1.2 50.8 8.5 96.1c4.1 18.9 13.7 31.8 23.5 40.4v-1.4c0-.9.4-2 .9-3.2.5-1.2 1.1-2.5 1.7-3.7 1.2-2.4 2.5-4.5 2.5-4.5v-6l-.8-1.2.8-.8v-2.3l-5.2-4.3L35 107l-5.1-6.1 2.6-1-4.8-5.8h4.1L26.3 86h5.1l-4.6-4.9 4-.4-6.2-7.2 4.5.5-5.1-8.3 5.4 1.9-4.3-7.7 4.8-1.5-4.4-6.3 5.9-1.8-4.2-6.4 4.4-2.3-1.2-10.8 6.3 7.7 3.3-3.1v5.1l5.1-4 .4 5.3 6.1-3-1.9 5.9 7.4-2.8-1.1 5.4 7.1-2.3-1.1 6.7 7.1-4.4-.9 5.8 7-.9s-1.4 5.1-1.1 5.3 6.6-1.8 6.6-1.8l-1 6.6 6.4-2.9-.8 5.5 5.8-.7-.8 2.3h23v.4zm-91-48-1.6 2.5-7.2-8.2 8.8 5.7 1.5-2.3 1.4 4.1-2.9-1.8zM97.7 228.8c.2 0 .3.1.5.1.4.1.8.2 1.1.2-.4-.7-1.3-.6-1.6-.3z" class="st0"/><path d="M99.6 226.9c-.2-.1-.3-.1-.5-.2-.4-.1-.9-.2-1.2-.2-.9 0-1.6.4-2 .9-.4.5-.6 1.2-.6 1.8v.1c0 .7.4 1.3.9 1.7s1.1.6 1.6.6c.2 0 .4 0 .7-.1.2-.1.4-.2.5-.4-.2.4-.4.7-.9 1-.7.4-1.8.7-3.1.7-.6 0-1.3-.1-2-.2-1.7-.3-3.6-1.8-5-3.3-.7-.8-1.3-1.5-1.6-2-.2-.3-.4-.5-.5-.7l-.1-.2v-.1l-.2-.3h-.3l-3.1-.1H82c-.1 0-.3 0-.4.2-.1.2-.1.3-.1.4v.2l.1.1.2.3h.1l.1.1c.4.4 1.3 1.5 3.6 4.1 2.9 3.3 6.5 5.2 9.8 5.2h.8c1.2.2 2.6.2 4.2.1 0 0 4.9-.6 4.8-5.1-.3-3.9-3.7-4.9-5.6-4.6zm-.8 2.6-.3-.3c.1 0 .2.1.3.2 0 0 .1.1 0 .1.1 0 .1 0 0 0zm.6 4.8c-3.4 3-9.4 1.5-13.7-3.5-3.1-3.6-3.7-4.2-3.8-4.4l3.2.1s3.6 5.8 7.6 6.5 6.9-.5 6.9-2.8-2-2.1-2.1-1.1c0 0-.1.3.5.4.5 0 1 1 .2 1.4-.8.3-2.4-.4-2.4-1.6 0-1.2.9-2.7 3.2-2 2.2.7 3.7 4 .4 7zM187.9 66.9s0-.1 0 0c-.2-.2-.3-.1-.4 0h.4zM189.4 87.4c-.2-.2-.4-.3-.5-.4-.1-.1-.3-.3-.4-.5-.1 0-.1-.1-.2-.2v1.1c.1.1.3.3.3.5s.3.4.6.5c.2.1.3-.1.1-.3-.2-.2-.5-.3-.4-.5.1-.1.3 0 .5.2.1.2.3.5.4.5.1 0 .1-.3 0-.5-.2-.1-.2-.2-.4-.4z" class="st0"/><path d="M204.9 76.9c-.3-.4-.5-1.7-.5-3.1-.1-1.4-1.1-2.9-1.5-3.6-.4-.8-.9-.4-1.1-.7-.2-.3-.4-.4-.7-.5-.3-.1-.7.2-.9.5-.2.3.1.8.3 1.6.1.8-1 1.5-.6 1.2.3-.4.3-1.3.1-1.5-.2-.2 0-.7-.3-1.2s-.1-.4.2-.9c.2-.5-.2-.3-.4-.2-.2.1-.9.1-.5-.2.4-.2.6-.8.4-.6-.3.3-.9.3-.9.3s.1-.3.3-.5c.2-.1.2-.5-.2-.2-.4.2-.6.2-.6.2.4-.4.2-.5-.2-.3-.3.2-.8.1-1.3 0 0-.1-.1-.1-.1-.2-.1-.2-.2-.2-.2-.2-.4-.5-.3-1.1.1-1.1 0 0-.5.3.3.7.5.3.7.3.7.2h.1s-.2-.4-.5-.4-.3-.3-.3-.3h.7c.1 0 .2.4.5.4l.3-.3.3-.4s0-.3-.2-.3-.1-.1-.2 0-.5.1-.6.2c-.1 0 .1-.2.2-.2s-.1-.1-.3-.2c-.2 0-.7-.1-.9-.2-.2 0-.7-.1-1 .3-.3.3-.7 1.1-.7 1.4 0 .2.4.7.5.8-.1 0-.2.1-.2.1 0-.3-.8-.8-1.5 0-.4.5-.3.9-.1 1.2h-.1c-.4-.1-1.4-.5-2.6.6-1.3 1.1-.6 2.4-.6 2.4s1.1 1.3.9 1.5c-.2.2-.4.3-.4.3s-1.8-.4-2-1.4c-.2-1 .2-.8.5-1.1.2-.3.6-.6.6-1.6s1.1-.6 1.6-1 .7-1 .6-1.5.2-.1.1-.3l-.4-.8c-.1-.2 0-.4-.1-.5-.1-.1-.3-.3-.4-.2-.2.1-.4.3-.5.6 0 .3-.1.8.1 1s.3.3.4.3c.2 0 .2.2-.1.4-.3.1-.5.5-.8.5s-.7.1-1 .3c-.3.2-.5.4-.6.9-.1.6 0 1-.3 1.4l-.1.1v14.1c.2.3.3.6.4.7h.1v.1c0 .1-.1.4.4.4h.2c.1.3-.1.5-.3.7-.2.2 0 .3.4.3s.8 1.2 1 1.3c.2.1.3.8.3.7 0-.1.3-.2.5-.2s.4.2.5.3c.1.1.4.3.6.4.1.1 0-.1-.1-.4 0-.3.2-.3.1-.5 0-.1.3 0 .5.1s.5.1.6 0 .3.1.3.3c0 .2.1.2.1.3.1.1.1.1.3 0 .2-.1 0-.2.3-.3.2-.1.2-.1.4-.1.1 0 .5.2.6.3.1.1.2-.2.2-.4 0-.1-.1-.2-.3-.2.2-.1.3-.2.5-.2.6-.2.3-.5 2.3-1.3 2-.7 2.5-1.7 2.8-2.1s.4-.3.7-.1c.3.2.4-.3.4-.3 2-2.7 2.6-6.1 2.5-6.5s0-.9.2-.8c.2 0 .6.1.2-.3zm-10.8-8.6c.5-.5.5-.1 1 .2.2.1.5.3.7.4-.1.1-.1.2-.1.2-.2-.1-.3-.2-.4-.3-.1-.1-.3 0-.3.1-.3-.1-.7-.3-1.1-.4 0 .1.1 0 .2-.2zm-4.5 5.7c-.2 0-.4.1-.7 0s-.3-.3-.3-.5c.2.2.6.4 1 .5zm.2 4.3c-.3.6-.2 1-.4 1.2s-.4 1.1-.5 1.3c-.1-.3-.1-1-.2-1.1 0 0-.1-.2 0-.3.1-.2.1-.2.2-.5.2-.3.2-.6 0-.5-.2.1-.3.1-.3-.2 0-.3-.3-.4-.1-.7l.1.1c.6.4.2.9.6.9.3.1.9-.8.6-.2zm.1-4.1h.5c-.2.2-.3.3-.5 0zm1.6 11.8c-.3.1-1-.1-1.3-.3-.2-.2 0-.4.2-.5.3-.1.3-.2.2-.5-.1-.3-.3-1-.6-1.6V83c0-.2.1-.4.3-.4.2 0 .5-.3.5-.3-.2.5-.3 1.3-.3 1.5-.1.2.3.4.4.6s.1.7.3.9c.2.3.2-.3.3.1 0 .2.1.3.2.5 0 0-.1.1-.2.1zm.5-14.1c-.1-.2-.3-.4-.5-.6 0 0-.9-1 .6-1.7 0 0 1.8.5 2.1.5-.1 0-.1-.1-.1-.1.2.1.2.1.1.1.3.1 1.3.4 2 0l.1-.1c.1.2.1.3 0 .4-.1 0-.3.1-.6 0-.4 0-.5.4-1.1.4s-.2.2-1.1.2c-.6 0-1 .4-1.5.9zm6.8 12.7c-.2.6-2 2.2-3.5 3.1-.4.2-.7.4-.9.5-.1-.2 0 0 .1-.2s-.3-.2-.6 0-.3.1-.3-.1c0-.3-.5-.2-.6-.3-.1 0-.2-.2-.1-.3v-.1c.1.1.2.2.3.2.4.2.4 0 .6-.2.2-.2.3-4.9.3-5.7 0-.8-.3-.7 0-.9.3-.2 1.1-1.2 1.3-1.4.1-.2.2-.4.4-.4.3 0 .4 0 .1.2-.3.2 0 1.6 0 1.9s-.7 1.5-.7 1.9-.1.4.3.1c.3-.3 1-1.3 1-1.3.3.4-.3 1.3-.6 1.7-.4.4-1.3 1.3-.6 1.2.7-.1 2.1-2.1 2.1-1.8 0 .3-.4.6-.7 1s-.9 1-1.5 1.9c-.6.8-1 1.1-.8 1.1.2 0 .9-.5 1.6-1 .7-.5 2-1.6 1.7-1.3-.2.3-1.2 1-1.4 1.4s-1.3 1.2-1.5 1.4c-.3.2-.6.5-.4.5.2.1 1.2-.7 2.5-1.4 1.4-.8 2.1-2.4 1.9-1.7zM183.1 66.9c.2-.1.5-.3.7-.4s.3.1.5.1l.3.1c.1 0 .3 0 .3-.2-.1-.2-.3-.3-.3-.4.2 0 .3.1.5.1.2.2.4 0 .6 0 .4-.2-.2-.3-.2-.5.2-.1.5 0 .6-.2.7-.4-.3-.4-.3-.8-.2-.2-.5-.1-.7 0-.1 0-.3.1-.4 0l.1-.2-.1-.2c-.3 0-.6.2-.7.5-.1.1-.1.2-.3.2 0-.1-.1-.3-.2-.4-.2.1-.3.2-.4.4 0 .2.1.5 0 .8-.4.2-.1.7-.4 1 0 .1-.1.2-.2.2l.6-.1zM50.1 66.9l.1-.2c.2-.2.5-.3.8-.5l1.3-1.3-1.6.9c-.3.2-.5.7-.7 1.1h.1zM52.3 66.9c.3-.3.5-.6.5-1.2L51 66.9h1.3z" class="st0"/><path d="M44.4 66.9c.4-1.2 1.2-2.4 2.7-3.3 3.7-2.1 5.9-1.8 9.6 3.3h.9c-4.2-6.2-6.5-6.6-10.5-4.4-1.9 1.1-2.7 2.8-2.9 4.4h.2zM37.1 78.4l-5.8-1.9 5.8 3.9zM37.1 71.7l-6.4-.6 6.4 4z" class="st0"/><path d="M37.1 69.9v-3.1h5.4c-.4-1.7-.5-3-.4-4.1 1.3.1 2.6-.9 2.9-1.1.3-.2 7.6-5.2 8.6-5.9 4.5 1.6 10.7 7.3 14.3 11h5.7l4.8-8.7-11.9 6.8L73 53.3l-9.2 4.6 3.8-8.4-9.1 5.5 3.2-8.8-10.2 8.9 3.7-11.2-6.1 4.2.3-2.5-2.3 1.9.6-6.4-2.8 3.8-.3-5.1-3.6 6.1-2.3-6.5v5l-5.1-4.6 3.6 9.4H37l4.6 6.6-3.8-8.4 4.9 7.2-2.9-9.6 4.7 8-2.8-8 4.4 7.5-2.9-8 4.2 7.4-2.2-6.6 3.2 6.1v-3.7l2.9 5.1c-2.8.6-9.5 5.6-9.8 5.7-.2 0-.9.9-1.1 1.8l-.3-.2-2.5-5.3 3.4 2.6-4.2-8.4-6.2-1.1 6.9 7.2.6 1.1.2.7-7.7-1.8 8.2 9.5-8.2-1.5 6.5 6.8zM81.4 66.9l1.3-4.6-8.1 4.6zM37.1 84.8l-4.6-1.6 4.6 3.3zM37.1 103.3l-1.8-.4 1.8 1.1zM37.1 108.6l-.8-.1.8.6zM37.1 91 33 89.6l4.1 2.8zM37.1 98.2l-3.8-.5 3.8 1.9zM191.3 92.7h-.9c-.1 0-.3-.1-.5-.1-.3-.1-.6-.3-.9-.5V92c.2 0 2 .4 2.2.4v-.1c-.2-.1-2-.6-2.5-.8-.2-.1-.3-.2-.5-.4v.5c.2.2.4.5.7.6l.2.2.3.1c.1.1.8.3 1 .3h.3c.2.1.4 0 .6-.1 0 .1.1.1 0 0z" class="st0"/><path d="M191.4 91.8s-.8-.1-1.1-.4c-.1 0-.2-.1-.3-.1-.2-.1-.5-.2-.8-.3-.2-.1-.4 0-.6-.2.2-.1.4.1.7 0 .1 0 .3.1.4.1.1 0 .2.1.3.1.1.1.2 0 .3.1.4.1.7.3 1.2.3h.3c-.1-.2-.4-.3-.7-.4l-.2-.1c-.2-.1-.4-.1-.6-.1l-.2-.1c-.3 0-.7-.2-1-.2-.1 0-.3-.1-.5-.1l.2-.1h.4c.2 0 .4.2.6.1.3.1.7.1 1 0v-.1c-.1-.1-.2-.1-.4-.1-.1-.1-.2 0-.3-.1-.3 0-.6-.1-.9-.1h-.5v-.1c.2-.2.5-.2.7-.2.4.2.9.1 1.3.3.2 0 .4.1.7-.1-.2-.2-.5 0-.7-.2-.5-.1-1-.4-1.5-.3h-.2c-.3.1-.7.1-1 .4v.1l.1.2h-.1v.9c.2.2.5.3.8.4 0 .1.2.2.3.2.2.2.5.2.8.3.2 0 .4.1.6.2.2.1.4 0 .6 0 .2-.1.4-.1.5-.2.2-.2-.1-.1-.2-.1zM188.2 89.3v.3s.1-.1.1-.2l-.1-.1zM83.5 110.9c-.1-.1-.2-.1-.3-.2-.2-.2-.3-.5-.4-.7-.1-.1-.1-.3-.2-.3v-.1c-.1-.2-.3-.4-.5-.4H80.9c-.1 0-.2 0-.4.1-1.5-1-2.3-2.1-2.7-2.8.3-.1.6-.2.9-.4a1.75 1.75 0 0 0 0-2.8c-.4-.3-.8-.4-1.3-.4h-.2s-.2 0-.4.1c-1.3-2.8-1.3-6.1-1.3-6.1 0-.5-.1-1-.2-1.5.3 0 .6-.1.8-.3.2-.2.4-.5.4-.8s-.2-.6-.4-.8c-.2-.2-.5-.3-.8-.3h-.7c-2-4.2-6.4-4-6.4-4s-4.4-.2-6.3 4h-.7c-.3 0-.6.1-.8.3-.2.2-.4.5-.4.8s.2.6.4.8c.2.2.5.3.8.3-.1.5-.1 1-.2 1.5 0 0 0 3.4-1.3 6.1H59c-.5 0-.9.1-1.3.4a1.75 1.75 0 0 0 0 2.8c.3.2.6.3.9.4-.4.7-1.1 1.8-2.7 2.8-.1 0-.3 0-.4-.1h-1.2c-.2 0-.5.1-.5.4 0 .1-.3.7-.6 1.1-.1 0-.2.1-.3.2-.1.1-.2.3-.2.4v1c0 .2.2.4.4.5.1 0 2.6 1 13.2 1.1.3 1 1.1 1.7 2.2 1.7 1 0 1.9-.7 2.2-1.7 10.1-.1 12.5-1 12.7-1 .2-.1.3-.3.4-.5v-1c-.1-.3-.1-.5-.3-.6zM60.6 94.3c0-.3.3-.6.7-.6h14c.4 0 .7.3.7.6s-.3.6-.7.6h-14c-.4 0-.7-.3-.7-.6zm-2.1 10.9-.2-.2c0-.1-.1-.2-.1-.2 0-.4.4-.6.9-.6.3.1 2.5.5 9.1.5 6.7 0 8.9-.4 9.1-.5.5 0 .9.3.9.6 0 .1 0 .2-.1.2 0 .1-.1.1-.1.2-.1.1-.3.2-.6.2h-.1s-1.7.5-9.2.5-9.2-.5-9.2-.5l-.4-.2zm24.1 6.7c-1 .2-4.5.9-13.6.9h-1.4c-5.8 0-9.3-.3-11.3-.5-1-.1-1.7-.2-2.1-.3H54v-.1s.1 0 .1-.1c.4-.5.7-1 .8-1.3h.6c.9.2 2.7.4 5.8.6H64.5c1.2 0 2.5.1 3.9.1 7.5 0 11.2-.5 12.8-.8h.6c.2.3.4.9.8 1.3-.1 0 0 .1 0 .2zM119 206.8c-1.1.2-2-.2-2.9-.7-.9-.5-2.3-1-3-1-.7 0-1.4.6-2.1.2-.8-.4-2.7 0-3.2.4-.4.4-1.7.6-3 .4-1.3-.1-2 .5-2.4.9-.5.4-1 .9-1.8.9-.7 0-1.7 1.1-1.7 1.1s1 .3 1.6.3c.6 0 2.8-.1 4.3.4s4.1.2 4.5 0c.4-.2 1.6-.9 3.1-.3 1.6.6 2.5.1 3.4 0 .9-.1 1.5-.6 1.5-.6s1.7.1 3.9 0 1.7-.9 1.7-.9c.1-.4-2.8-1.3-3.9-1.1zM167.9 179.5c-1.1.2-2-.2-2.9-.7s-2.3-1-3-1-1.4.6-2.1.2c-.8-.4-2.7 0-3.2.4-.4.4-1.7.6-3 .4-1.3-.1-2 .5-2.5.9s-1 .9-1.8.9c-.7 0-1.7 1.1-1.7 1.1s1 .4 1.6.4 2.8-.1 4.3.4 4.1.2 4.5 0 1.6-.9 3.1-.3c1.6.6 2.5.1 3.4 0s1.5-.6 1.5-.6 1.7.1 3.9 0 1.7-.9 1.7-.9c.2-.5-2.7-1.4-3.8-1.2z" class="st0"/><path d="m183 198.9.1-51.8H42.6v33.6c.8-.4 2-1 2.7-1.6 1.2-.9 3.3-1.1 3.3-1.1 1-1.3 1.8-.6 4.1-1.9 2.3-1.4 4.4-1.1 5.9-1.9 1.6-.8 2.6.1 4.2-.9 1.6-.9 3.5-.1 4.6-.3s3.3.8 5.2.8c2 0 3.3 1.4 4.4 1.4 1.1.1 3.2 2.3 4.3 3.4 1.1 1.1 2.4.9 1.7 1.1-.8.1-2.5 1-3.8 1.4s-1.3 1.3-2.6 1.4c-1.4.1-2.4-.4-3.3.7-.9 1.1-2.1 1.4-2.6 1.3-.5-.1-.8-.6-1.4 0-.6.6-3 .9-3.7.8-.7-.1-1.5-.6-2.9-.7-1.4-.1-4.2-.2-5.6-.7-1.4-.5-4.8-1.4-6.1-1.4-1.4.1-1.4.4-1.9.6-.6.1-.7-.4-1.1-.6-.3-.2-3.6-.8-5.3-1.1v17.7s-3.4 19 27 22.1c30.4 3.2 34.3 1.2 43.2 10.7h.1c8.9-9.5 12.7-7.5 43.2-10.7 30.1-3.3 26.8-22.3 26.8-22.3zm-16.8-51.2c6.3.4 11.1 4.2 11.1 4.2s-10.7-6.3-23.6 0c0 0 6.2-4.6 12.5-4.2zm-21.3 6c8.3.4 14.6 4.2 14.6 4.2-17.4-7-31.1 0-31.1 0s8.2-4.6 16.5-4.2zm-54.6 11.5c.1-.7.5-1.4 1.1-2v-.1c.1-.3.3-.6.6-.7.2-.1.4-.2.6-.2 1-.7 2.2-1.2 3.6-1.8.8-.3 1.6-.5 2.5-.7v-.1c.1-.1.2-.2.4-.2.3-.1.6-.2.9-.2h.4c2.9-.6 6.3-.9 9.9-.9h.2c0-.2.2-.2.2-.3.1-.1.2-.1.3-.1.2-.1.5-.1.7-.1h.1c.2 0 .5.1.7.1.2.1.4.2.5.4 0 .1.1.1.1.2 3.1.1 6.1.5 8.8 1 .2-.1.5-.2.8-.2.1 0 .2 0 .4.1s.4.2.6.4l.2.2c2.6.6 4.8 1.4 6.6 2.4.2-.1.4-.1.6-.1h.2c.5 0 .9.3 1 .6.2.3.2.5.2.5v.2c.2.2.5.4.7.5.5.4.9.9 1.2 1.3.1 0 .2 0 .3.1.2.1.4.3.5.6.1.2.1.4.1.6 0 .2 0 .4-.1.6 0 .2-.1.3-.2.4 0 .5-.2 1.1-.6 1.6l-.9 17.1c.2.1.3.3.3.6v.8c0 .2-.1.4-.3.6v.1l-.1.1s-3.9 3.6-10.1 6v.1c0 .3-.2.5-.4.7-.2.2-.5.2-.8.2s-.6-.1-.8-.2c-2.6.8-5.4 1.4-8.5 1.5h-1.1c-2.2 0-4.2-.2-6.1-.6h-.3c-.3 0-.5-.1-.7-.3-4.9-1.1-8.8-3.3-11.7-5.4-.2 0-.5-.1-.7-.2-.1-.1-.3-.3-.3-.5-.6-.5-1.2-.9-1.7-1.4l-.1-.1V167.3h.2l-.2-.2c-.2-.2-.4-.6-.4-1 .1-.3.3-.7.6-.9zm54.6 25.7c8.3.4 14.6 4.3 14.6 4.3s-15.3-6.5-31.1 0c0 0 8.2-4.7 16.5-4.3zm-98.5-39.1s.3-.2.9-.5c1.8-.9 5.9-2.6 10.1-2.4 5.6.3 9.8 2.8 9.8 2.8-9.6-4.4-17.3-1.7-19.9-.5l-.9.6zm18.2 5.4s-6.9-4.5-14.4 0c0 0 3.8-3.1 7.7-2.8 3.8.3 6.7 2.8 6.7 2.8zM48 163.4s5.7-4.7 11.5-4.3 10.2 4.3 10.2 4.3c-12.3-7.1-21.7 0-21.7 0zm13.4 7.9s6.5-4.7 13.1-4.3 11.6 4.3 11.6 4.3c-13.2-7.4-24.7 0-24.7 0zm16.5 25.3c8.3.4 14.6 4.3 14.6 4.3-15.6-7.2-31.1 0-31.1 0s8.2-4.7 16.5-4.3zM46.6 190s4.5-2.5 9-2.3 7.9 2.3 7.9 2.3-8.5-2.3-16.9 0zm5.1 22.2s8.2-4.7 16.5-4.3 14.6 4.3 14.6 4.3-15.8-6.9-31.1 0zm34.9 8.6s8.2-4.7 16.5-4.3 14.6 4.3 14.6 4.3-14.9-7.1-31.1 0zm41.8-12.3c-.8.1-2.5 1-3.8 1.4s-1.3 1.3-2.6 1.4c-1.4.1-2.4-.4-3.3.7-.9 1.1-2.1 1.4-2.6 1.3-.5-.1-.8-.6-1.4 0s-3 .9-3.7.8c-.7-.1-1.5-.6-2.9-.7-1.4-.1-4.2-.2-5.6-.7-1.4-.5-4.8-1.4-6.1-1.4-1.4.1-1.4.4-1.9.6-.6.1-.7-.4-1.1-.6-.5-.3-6.4-1.3-6.4-1.3.5-.1 2.5-1.1 3.7-2 1.2-.9 3.3-1.1 3.3-1.1 1-1.3 1.8-.6 4.1-1.9 2.3-1.4 4.4-1.1 5.9-1.9 1.6-.8 2.6.1 4.2-.9 1.6-.9 3.5-.1 4.6-.3s3.3.8 5.2.8c1.9 0 3.3 1.4 4.4 1.4 1.1.1 3.2 2.3 4.3 3.4 1.1 1 2.4.9 1.7 1zm7.5 4.7s8.2-4.7 16.5-4.3c8.3.4 14.6 4.3 14.6 4.3s-14.5-6-31.1 0zm15.4-10.2s5.9-4.7 11.8-4.3c5.9.4 10.4 4.3 10.4 4.3-11.5-6.4-22.2 0-22.2 0zm26.1-21.8c-.8.1-2.5 1-3.8 1.4s-1.3 1.3-2.6 1.4c-1.4.1-2.4-.4-3.3.7-.9 1.1-2.1 1.4-2.6 1.3-.5-.1-.8-.6-1.4 0s-3 .9-3.7.8c-.7-.1-1.5-.6-2.9-.7-1.4-.1-4.2-.2-5.6-.7-1.4-.5-4.8-1.4-6.1-1.4-1.4.1-1.4.4-1.9.6-.6.1-.7-.4-1.1-.6-.4-.3-6.3-1.3-6.3-1.3.5-.1 2.5-1.1 3.7-2s3.3-1.1 3.3-1.1c1-1.3 1.8-.6 4.1-1.9 2.3-1.4 4.4-1.1 5.9-1.9 1.6-.8 2.6.1 4.2-.9 1.6-.9 3.5-.1 4.6-.3 1.1-.2 3.3.8 5.2.8 2 0 3.3 1.4 4.4 1.4 1.1.1 3.2 2.3 4.3 3.4 1 1 2.3.9 1.6 1zm-31.2-9.3s8.2-4.7 16.5-4.3 14.6 4.3 14.6 4.3c-15.4-7.2-31.1 0-31.1 0zm2.3-6.3s8.2-4.7 16.5-4.3 14.6 4.3 14.6 4.3c-15-6.8-31.1 0-31.1 0z" class="st0"/><path d="M59.4 180.8c1.5.5 4.1.2 4.5 0s1.6-.9 3.1-.3c1.6.6 2.5.1 3.4 0 .9-.1 1.5-.6 1.5-.6s1.7.1 3.9 0 1.7-.9 1.7-.9c0-.4-2.9-1.3-4-1.1s-2-.2-2.9-.7c-.9-.5-2.3-1-3-1s-1.4.6-2.1.2c-.8-.4-2.7 0-3.2.4-.4.4-1.7.6-3 .4-1.3-.1-2 .5-2.4.9-.5.4-1 .9-1.8.9-.7 0-1.7 1.1-1.7 1.1s1 .3 1.6.3c.7 0 2.9-.1 4.4.4zM224.9 73.6c-.5-12.8-3.6-23.7-7.1-32.2-1.7-4.1-4-8.1-6.1-11.5-1.8-2.9-3.6-5.4-4.8-7.1l3.7.3 11.1-13.5-16.4 5.3L203 21l-86.7 45.9h58.8l39.6-24.2c3.4 8.2 6.4 18.7 6.9 31v.7l-33.3 28.4v21.1c.3.4 2.8 4.7 4.2 8.2.5 1.2.8 2.3.9 3.2V136.5l-.3 6.9s-.9 3-4.7 3h-.1v3h.1c3.3 0 4.4 2.2 4.6 2.9.3-.4.7-.7 1-1.1 11.3-12.3 23.9-30.4 28.8-53.5 1.5-7.2 2.2-14 2.2-20.4 0-1.2 0-2.5-.1-3.7zm-19.5-53-.2.1h-.7l3.4-2.2-1.2-2 11-4.5-9.8 6.5 1.5 2.5-3.9-.2-.1-.2z" class="st0"/></svg>