<?xml version="1.0" encoding="utf-8"?>
<!-- Generator: Adobe Illustrator 26.0.0, SVG Export Plug-In . SVG Version: 6.00 Build 0)  -->
<svg version="1.1" id="Capa_1" xmlns="http://www.w3.org/2000/svg" xmlns:xlink="http://www.w3.org/1999/xlink" x="0px" y="0px"
	 viewBox="0 0 230 300" style="enable-background:new 0 0 230 300;" xml:space="preserve">
<style type="text/css">
	.st0{fill:#FFFFFF;}
</style>
<g>
	<path class="st0" d="M41.2,157.2C41.2,157.2,41.2,157.1,41.2,157.2c0-0.2,0-0.4,0-0.5l-0.3-4.9c0,0,0-2.3-3.8-2.3
		c-3.8,0-4.7,3-4.7,3l-0.3,7.3c0,0.1,0,0.3,0,0.4v0.1v0.1l0,0c0,0.1,0,0.1,0,0.2c0,0.9,0.4,2,0.9,3.2c1.5,3.6,4.2,8.2,4.2,8.2
		l1.1,1.8l-0.1-9.1l-0.2-0.2l0,0c-0.1-0.1-0.8-0.9-1.5-2s-1.3-2.5-1.3-3.9c0-0.1,0-0.2,0-0.3c0.1,0.1,0.2,0.3,0.2,0.4
		c0.3,0.4,0.6,0.7,0.6,0.7l0,0l0,0c0.5,0.4,1.1,0.5,1.8,0.5c0.7,0,1.4-0.2,2-0.6c0.6-0.4,1.1-1,1.2-1.9
		C41.2,157.5,41.2,157.4,41.2,157.2L41.2,157.2L41.2,157.2z M37.2,156.3c0.1,0,0.2,0.1,0.3,0.1c0.2,0.1,0.3,0.2,0.5,0.5v0.2
		c-0.1,0.1-0.1,0.1-0.2,0.2h-0.1c-0.3,0-0.5-0.2-0.5-0.4v-0.1l-1-0.3c0,0,0-0.1,0.1-0.1c0.1-0.1,0.4-0.1,0.7-0.2
		C36.9,156.3,37,156.3,37.2,156.3z M40,157.4c-0.1,0.5-0.3,0.8-0.7,1.1s-0.9,0.4-1.4,0.4c-0.4,0-0.8-0.1-1.1-0.3
		c-0.1-0.1-0.3-0.3-0.4-0.6c-0.2-0.3-0.4-0.7-0.4-1c0-0.1,0-0.2,0-0.3c0,0.1,0,0.1,0,0.2c0,0.4,0.2,0.8,0.5,1.1s0.7,0.4,1.1,0.4
		c0.1,0,0.2,0,0.3,0c0.5-0.1,0.9-0.5,1.1-0.8s0.2-0.6,0.2-0.8v-0.1v-0.1v-0.1c-0.2-0.5-0.6-0.9-1-1.1c-0.4-0.2-0.8-0.3-1.1-0.3h-0.1
		l0,0c-1,0-1.6,0.5-2,0.9s-0.5,0.9-0.6,0.9l0,0l0,0c-0.2,0.6-0.2,1.1-0.2,1.7c0,1.9,0.8,3.6,1.6,4.8c0.6,0.9,1.1,1.5,1.4,1.8v4.4
		c-0.7-1.2-1.5-2.8-2.3-4.3c-0.4-0.9-0.8-1.8-1.1-2.7c-0.3-0.8-0.5-1.5-0.5-2c0-0.1,0-0.3,0-0.4c0-1.4,0.4-2.8,1-3.9
		c0.6-1.1,1.5-1.7,2.4-1.8c0.1,0,0.3,0,0.4,0c0.9,0,1.6,0.3,2.2,0.8c0.6,0.5,0.9,1.2,0.9,1.8C40.1,157.2,40,157.3,40,157.4z"/>
	<g>
		<path class="st0" d="M37.8,135.8c0.6,0,1.2,0.1,1.7,0.4l-0.1-67H186l-0.1,66.9c0.5-0.2,1-0.3,1.5-0.3c0.3,0,0.5,0,0.8,0.1v-3.6
			c-0.4-0.5,0-8.5,0-8.5s0,0,0.1,0.1l0.1-57.1H37.1l0.1,69C37.4,135.8,37.6,135.8,37.8,135.8z"/>
		<path class="st0" d="M39.6,150v-4.1c-0.5,0.3-1.3,0.5-2.3,0.5v3C37.2,149.4,38.5,149.4,39.6,150z"/>
		<path class="st0" d="M37.2,160v41c0,0.2-0.1,0.9-0.1,1.9c0,2.7,0.6,7.7,4.8,12.5c4.1,4.8,11.6,9,25,10.4
			c6.2,0.6,11.3,1.1,15.6,1.5c-0.5-0.5-0.6-0.7-0.7-0.7l0,0l0,0l3.2,0.1c0,0,0.2,0.4,0.6,0.9c4.1,0.4,7.4,0.7,10.2,1.1
			c0.3-1,1.2-1.8,3.1-1.3c1,0.3,1.9,1.2,2.2,2.3c1.6,0.5,3,1,4.3,1.8c2.1,1.2,4,2.9,6.3,5.3l0.3,0.4h0.6h0.5l0.3-0.4
			c2.3-2.5,4.2-4.1,6.3-5.3c1.6-0.9,3.1-1.5,5.1-2c0.2-1.1,1.7-2.2,2.6-2.4c1.9-0.6,3,1.4,3,1.4s14.6-1.3,27.8-2.6
			c13.3-1.4,20.8-5.7,25-10.4c4.1-4.7,4.8-9.8,4.8-12.5c0-1-0.1-1.6-0.1-1.9v-29l0,0c0,0-0.5-7.8-0.4-7.9c0.1-0.1,0.3-0.3,0.4-0.5
			v-3.6c-0.2,0.1-0.5,0.1-0.7,0.1c-0.5,0-1.1-0.1-1.6-0.3v41.4v0.1l0,0c0,0,0.1,0.6,0.1,1.6c0,2.3-0.6,6.8-4.2,11
			c-3.7,4.2-10.5,8.3-23.5,9.7c-16,1.7-25,2-31.4,3.2c-3.2,0.6-5.7,1.4-8.1,2.8c-2.1,1.2-4,2.8-6,4.9c-2.1-2.1-3.9-3.7-6-4.9
			c-1.8-1-3.6-1.7-5.8-2.3c-6.5-1.6-15.6-1.8-33.7-3.7c-13-1.4-19.8-5.5-23.5-9.7s-4.2-8.7-4.2-11c0-0.5,0-0.9,0.1-1.2
			c0-0.1,0-0.2,0-0.3v-0.1l0,0v-0.1v-41.5C39.6,159.7,38.5,160.2,37.2,160z"/>
	</g>
	<path class="st0" d="M41.2,138.7L41.2,138.7v-0.1l0,0c0-0.1,0-0.3,0-0.4c-0.1-0.8-0.6-1.5-1.2-1.9c-0.6-0.4-1.3-0.6-2-0.6
		c-0.6,0-1.3,0.2-1.8,0.5l0,0l0,0c0,0-0.3,0.3-0.6,0.7c-0.1,0.1-0.2,0.2-0.2,0.4c0-0.1,0-0.2,0-0.3c0-1.6,0.7-3,1.4-4.1
		c0.4-0.5,0.7-1,1-1.3c0.1-0.2,0.2-0.3,0.3-0.4l0.1-0.1l0,0l0.2-0.2l0.1-9.1l-1.1,1.8c0,0-1.2,2-2.5,4.5c-0.6,1.2-1.3,2.5-1.7,3.7
		c-0.5,1.2-0.8,2.3-0.9,3.2c0,0.1,0,0.3,0,0.4c0,0.1,0,0.1,0,0.2l0,0l0.3,7.5c0,0,0.9,3,4.7,3s3.8-2.3,3.8-2.3l0.3-4.9
		C41.2,139,41.2,138.9,41.2,138.7z M37.1,138.9c0-0.2,0.1-0.4,0.5-0.4h0.1c0.2,0,0.2,0.1,0.2,0.2v0.2c-0.2,0.3-0.3,0.4-0.5,0.5
		c-0.1,0-0.2,0.1-0.3,0.1c-0.1,0-0.3,0-0.4,0c-0.2,0-0.4,0-0.5-0.1l-0.2-0.1c0,0,0-0.1-0.1-0.1l1-0.3L37.1,138.9z M33.1,135.3
		c0-0.6,0.3-1.7,0.8-2.9c0.7-1.7,1.7-3.8,2.6-5.3c0.2-0.3,0.3-0.6,0.5-0.8v4.4c-0.3,0.3-0.8,0.9-1.4,1.8c-0.8,1.2-1.6,2.9-1.6,4.8
		c0,0.5,0.1,1.1,0.2,1.7l0,0l0,0c0,0,0.2,0.5,0.6,0.9c0.4,0.4,1.1,0.9,2,0.9l0,0h0.1c0.4,0,0.8-0.1,1.1-0.3c0.4-0.2,0.7-0.6,1-1.1
		v-0.1v-0.1v-0.1c0-0.1,0-0.4-0.2-0.8c-0.1-0.3-0.5-0.7-1.1-0.8c-0.1,0-0.2,0-0.3,0c-0.4,0-0.8,0.2-1.1,0.4
		c-0.3,0.3-0.5,0.7-0.5,1.1c0,0.1,0,0.1,0,0.2c0-0.1,0-0.2,0-0.3c0-0.3,0.2-0.7,0.4-1.1c0.1-0.2,0.2-0.3,0.3-0.4l0.1-0.1
		c0.2-0.2,0.6-0.3,1.1-0.3s1,0.1,1.4,0.4c0.4,0.3,0.7,0.6,0.7,1.1c0,0.1,0,0.2,0,0.3c0,0.6-0.3,1.3-0.9,1.8s-1.3,0.8-2.2,0.8
		c-0.1,0-0.3,0-0.4,0c-0.9-0.1-1.8-0.8-2.4-1.8c-0.6-1-1-2.4-1-3.9C33.1,135.6,33.1,135.4,33.1,135.3z"/>
	<path class="st0" d="M193.3,160.3v-0.1c0-0.1,0-0.3,0-0.4l-0.3-7.3c0,0-0.9-3-4.7-3c-3.8,0-3.8,2.3-3.8,2.3l-0.3,4.8
		c0,0.2-0.1,0.4-0.1,0.5c0,0.2,0,0.3,0,0.5c0.1,0.8,0.6,1.5,1.2,1.9s1.3,0.6,2,0.6c0.6,0,1.3-0.2,1.8-0.5l0,0l0,0
		c0,0,0.3-0.3,0.6-0.7c0.1-0.1,0.2-0.2,0.2-0.4c0,0.1,0,0.2,0,0.3c0,1.6-0.7,3-1.4,4.1c-0.4,0.5-0.7,1-1,1.3
		c-0.1,0.2-0.2,0.3-0.3,0.4l-0.1,0.1l0,0l-0.2,0.2l-0.1,9.1l1.1-1.8c0,0,1.2-2,2.5-4.5c0.6-1.2,1.3-2.5,1.7-3.7
		c0.5-1.2,0.8-2.3,0.9-3.2C193.3,160.5,193.3,160.5,193.3,160.3L193.3,160.3L193.3,160.3z M188.2,157c0,0.2-0.1,0.4-0.5,0.4h-0.1
		c-0.2,0-0.2-0.1-0.2-0.2V157c0.2-0.3,0.3-0.4,0.5-0.5c0.1,0,0.2-0.1,0.3-0.1c0.1,0,0.3,0,0.4,0c0.2,0,0.4,0,0.5,0.1l0.2,0.1
		l0.1,0.1l-1,0.3L188.2,157z M192.2,160.5c0,0.6-0.3,1.7-0.8,2.9c-0.7,1.7-1.7,3.8-2.6,5.3c-0.2,0.3-0.3,0.6-0.5,0.8v-4.4
		c0.3-0.3,0.8-0.9,1.4-1.8c0.8-1.2,1.6-2.9,1.6-4.8c0-0.5-0.1-1.1-0.2-1.7l0,0l0,0c0,0-0.2-0.5-0.6-0.9c-0.4-0.4-1.1-0.9-2-0.9l0,0
		c0,0,0,0-0.1,0c-0.4,0-0.8,0.1-1.2,0.3s-0.7,0.6-1,1.1v0.1v0.1v0.1c0,0.1,0,0.4,0.2,0.8c0.1,0.3,0.5,0.7,1.1,0.8c0.1,0,0.2,0,0.3,0
		c0.4,0,0.8-0.2,1.1-0.4c0.3-0.3,0.5-0.7,0.5-1.1c0-0.1,0-0.1,0-0.2c0,0.1,0,0.2,0,0.3c0,0.3-0.2,0.7-0.4,1.1
		c-0.1,0.2-0.2,0.3-0.3,0.4l-0.1,0.1l0,0c-0.2,0.2-0.6,0.3-1.1,0.3c-0.5,0-1-0.1-1.4-0.4c-0.4-0.3-0.7-0.6-0.7-1.1
		c0-0.1,0-0.2,0-0.3c0-0.6,0.3-1.3,0.9-1.8s1.3-0.8,2.2-0.8c0.1,0,0.3,0,0.4,0c0.9,0.1,1.8,0.8,2.4,1.8c0.6,1,1,2.4,1,3.9
		C192.2,160.3,192.2,160.4,192.2,160.5z"/>
	<path class="st0" d="M193.3,135.7c0-0.1,0-0.2,0-0.3l0,0l0,0v-0.1c0-0.9-0.4-2-0.9-3.2c-1.5-3.6-4.2-8.2-4.2-8.2l-1.1-1.8l0.1,9.1
		l0.2,0.2l0,0c0.1,0.1,0.9,0.9,1.5,2c0.7,1.1,1.3,2.5,1.3,3.9c0,0.1,0,0.2,0,0.3c-0.1-0.1-0.2-0.3-0.2-0.4c-0.3-0.4-0.6-0.7-0.6-0.7
		l0,0l0,0c-0.5-0.4-1.1-0.5-1.8-0.5c-0.7,0-1.4,0.2-2,0.6c-0.6,0.4-1.1,1-1.2,1.9c0,0.2,0,0.3,0,0.5s0,0.4,0.1,0.5l0.3,4.8
		c0,0,0,2.3,3.8,2.3c3.8,0,4.7-3,4.7-3l0.3-6.9C193.3,136.2,193.3,136,193.3,135.7z M188.1,139.5c-0.1,0-0.2-0.1-0.3-0.1
		c-0.2-0.1-0.3-0.2-0.5-0.5v-0.2c0.1-0.1,0.1-0.1,0.2-0.2h0.1c0.3,0,0.5,0.2,0.5,0.4v0.1l1,0.3c0,0,0,0.1-0.1,0.1
		c-0.1,0.1-0.4,0.1-0.7,0.1C188.4,139.5,188.3,139.5,188.1,139.5z M185.4,138.4c0.1-0.5,0.3-0.8,0.7-1.1s0.9-0.4,1.4-0.4
		c0.4,0,0.8,0.1,1.1,0.3c0.1,0.1,0.3,0.3,0.5,0.6s0.4,0.7,0.4,1c0,0.1,0,0.2,0,0.3c0-0.1,0-0.1,0-0.2c0-0.4-0.2-0.8-0.5-1.1
		s-0.7-0.4-1.1-0.4c-0.1,0-0.2,0-0.3,0c-0.5,0.1-0.9,0.5-1.1,0.8c-0.2,0.3-0.2,0.6-0.2,0.8v0.1v0.1v0.1c0.2,0.5,0.6,0.9,1,1.1
		c0.4,0.2,0.8,0.3,1.2,0.3h0.1l0,0c1,0,1.6-0.5,2-0.9c0.4-0.4,0.5-0.9,0.6-0.9l0,0l0,0c0.2-0.6,0.2-1.1,0.2-1.7
		c0-1.9-0.8-3.6-1.6-4.8c-0.6-0.9-1.1-1.5-1.4-1.8v-4.4c0.7,1.2,1.5,2.8,2.3,4.3c0.4,0.9,0.8,1.8,1.1,2.7c0.3,0.8,0.5,1.5,0.5,2
		c0,0.1,0,0.3,0,0.4c0,1.4-0.4,2.8-1,3.9c-0.6,1.1-1.5,1.7-2.4,1.8c-0.1,0-0.3,0-0.4,0c-0.9,0-1.6-0.3-2.2-0.8
		c-0.6-0.5-0.9-1.2-0.9-1.8C185.3,138.6,185.4,138.5,185.4,138.4z"/>
	<path class="st0" d="M101,171.1h0.3V171c0-0.1,0-0.3-0.1-0.6c-0.1-0.2-0.3-0.5-0.7-0.6c-0.2,0-0.3-0.1-0.5-0.1s-0.5,0.1-0.6,0.2
		c-0.2,0.1-0.3,0.3-0.4,0.5c-0.1,0.2-0.2,0.4-0.2,0.6c-0.2,0.7-0.2,1.6-0.2,1.6v0.1v0.1c0,0,0.2,0.5,0.9,0.7c0.1,0,0.2,0,0.3,0
		c0.2,0,0.4,0,0.6-0.2c0.2-0.1,0.3-0.3,0.4-0.5c0.1-0.4,0.5-1.7,0.5-1.7l0,0l0,0H101l-0.3-0.1c0,0-0.1,0.3-0.2,0.7
		c-0.1,0.4-0.2,0.8-0.3,1l-0.1,0.2c-0.1,0-0.2,0.1-0.3,0.1h-0.2c-0.2,0-0.3-0.1-0.4-0.2l-0.1-0.1l0,0l0,0l0,0l0,0l0,0l0,0l-0.3,0.1
		h0.3c0,0,0-0.4,0.1-0.9c0-0.2,0.1-0.5,0.1-0.7s0.1-0.4,0.1-0.4c0.1-0.1,0.2-0.2,0.3-0.3c0.1-0.1,0.2-0.1,0.3-0.1c0.1,0,0.2,0,0.3,0
		c0.2,0,0.2,0.1,0.3,0.2c0.1,0.1,0.1,0.3,0.1,0.3l0,0L101,171.1l-0.3-0.1L101,171.1z"/>
	<path class="st0" d="M92.5,166.3h0.3c0,0,0-0.1,0-0.2c0-0.2,0-0.4-0.1-0.7c-0.1-0.3-0.3-0.6-0.7-0.7c-0.1-0.1-0.3-0.1-0.4-0.1
		c-0.4,0-0.9,0.2-1.2,0.5c-0.3,0.3-0.5,0.6-0.5,1.1c0,0.4,0.2,0.8,0.4,1c0.1,0.1,0.2,0.2,0.3,0.3c0.1,0.1,0.2,0.1,0.3,0.1l0,0l0,0
		l0,0c0.1,0,0.2-0.1,0.3-0.1c0.1-0.1,0.1-0.2,0.1-0.3s0.1-0.2,0.1-0.3l0.2-0.2c0.3-0.1,0.6-0.2,0.7-0.2h0.1l0,0v-0.1l-0.1,0.1h0.1
		v-0.1l-0.1,0.1l0.4,0.4l0.1-0.6H92.5l0.2-0.2c-0.2-0.1-0.3-0.1-0.4-0.1c-0.3,0-0.6,0.1-1,0.2c-0.3,0.2-0.5,0.5-0.5,0.7
		c0,0.1-0.1,0.2-0.1,0.2l0,0l0.1,0.1l-0.1-0.1l0,0l0.1,0.1l-0.1-0.1l0.1,0.2V167h-0.1l0.1,0.2V167v0.2V167l0,0v0.2V167l0,0v0.1V167
		l0,0v0.1V167c0,0-0.2-0.1-0.3-0.3s-0.2-0.4-0.2-0.6c0-0.2,0.1-0.4,0.3-0.6c0.2-0.2,0.5-0.3,0.8-0.3h0.2c0.2,0.1,0.3,0.2,0.4,0.4
		c0.1,0.2,0.1,0.4,0.1,0.5v0.1l0,0L92.5,166.3l0.2-0.2L92.5,166.3z"/>
	<path class="st0" d="M93,164.3v0.3c0,0,0.1,0,0.3,0s0.5,0,0.8-0.2c0.1-0.1,0.3-0.2,0.4-0.4c0.1-0.1,0.2-0.3,0.2-0.5v-0.2
		c-0.1-0.3-0.3-0.5-0.6-0.8c-0.3-0.2-0.6-0.4-1-0.5l0,0v0.3V162c-0.3,0-0.7,0.1-0.9,0.3c-0.3,0.2-0.5,0.4-0.6,0.7v0.3l0.1,0.3
		c0.1,0.1,0.2,0.2,0.3,0.2h0.2c0.1,0,0.3,0.1,0.5,0.2C92.9,164.1,93,164.2,93,164.3l0.1,0.2h0.2L93,164.3l0.3-0.1
		c-0.1-0.3-0.4-0.5-0.6-0.6s-0.5-0.2-0.6-0.3c-0.1-0.1-0.2-0.1-0.2-0.1v0.1l0,0l0,0v0.1l0,0l-0.1,0.1l0.1-0.1v-0.1l-0.1,0.1l0.1-0.1
		h-0.1h0.1l0,0h-0.1h0.1v-0.1c0-0.1,0.2-0.3,0.4-0.4c0.2-0.1,0.5-0.2,0.7-0.2l0,0l0,0c0.1,0,0.4,0.1,0.7,0.3
		c0.2,0.2,0.4,0.4,0.4,0.5l0,0l-0.1,0.2c-0.1,0.1-0.2,0.2-0.3,0.3c0,0-0.3,0.1-0.4,0.1h-0.2H93L93,164.3l0.3-0.1L93,164.3z"/>
	<path class="st0" d="M100.7,159.7l-0.1,0.3l0,0c0.1,0,0.2,0.1,0.3,0.2c0.1,0.1,0.2,0.2,0.2,0.4v0.3c0,0.3-0.1,0.5-0.1,0.5l0.1,0.1
		l-0.1-0.1l0,0l0.1,0.1l-0.1-0.1l0,0l0,0l0,0l0,0l0,0c0,0-0.2,0.1-0.3,0.1c-0.2,0-0.4,0-0.5,0c-0.1,0-0.3,0-0.4,0h-0.1l0,0l0,0l0,0
		l0,0l-0.1,0.1l0.1-0.1l0,0l-0.1,0.1l0.1-0.1c0-0.1-0.1-0.2-0.1-0.5c-0.1-0.2-0.2-0.6-0.5-0.9l0,0H99h0.1l0,0H99h0.1H99h0.1l0,0H99
		h0.1l0,0c0,0,0.2-0.1,0.4-0.2c0.2,0,0.4-0.1,0.6-0.1c0.1,0,0.2,0,0.3,0h0.1l0,0l0,0l0,0l0,0l0,0l0,0l0.1,0.1h0.1V159.7l0.2-0.2
		c-0.1-0.1-0.2-0.2-0.4-0.2c-0.1,0-0.3,0-0.4,0c-0.3,0-0.6,0.1-0.9,0.2c-0.1,0.1-0.3,0.1-0.4,0.2c-0.1,0.1-0.2,0.2-0.2,0.4
		s0.1,0.3,0.2,0.4c0.3,0.3,0.3,0.4,0.4,0.6c0,0.2,0,0.4,0.2,0.6c0.1,0.2,0.3,0.2,0.4,0.3c0.2,0,0.3,0,0.5,0s0.5,0,0.7-0.1
		c0.1,0,0.2,0,0.3-0.1l0.2-0.1c0.2-0.2,0.3-0.5,0.3-0.9c0-0.1,0-0.2,0-0.4c-0.1-0.4-0.3-0.6-0.5-0.8c-0.2-0.1-0.4-0.2-0.4-0.2
		L100.7,159.7l0.2-0.2L100.7,159.7z"/>
	<path class="st0" d="M111,158.4l-0.3-0.1c0,0-0.1,0.3-0.1,0.8c0,0.3,0,0.5,0.1,0.9c0.1,0.4,0.3,0.6,0.5,0.8
		c0.2,0.1,0.5,0.2,0.7,0.2s0.3,0,0.4,0l-0.1-0.3v0.3c0,0,0.3,0,0.6-0.1c0.1-0.1,0.3-0.2,0.4-0.3s0.2-0.4,0.2-0.6v-0.1
		c0-0.1,0-0.2,0-0.3c0-0.3,0-0.5,0-0.7s0-0.4-0.1-0.6c-0.1-0.2-0.3-0.3-0.5-0.4c-0.2-0.1-0.5-0.1-0.7-0.1H112v0.3v-0.3
		c-0.2,0-0.5,0.1-0.7,0.1c-0.1,0-0.2,0.1-0.3,0.1c-0.1,0.1-0.2,0.1-0.3,0.3L111,158.4l-0.3-0.1L111,158.4l0.3,0.1h-0.1l0.1,0.1v-0.1
		h-0.1l0.1,0.1l0,0c0.1-0.1,0.5-0.2,0.8-0.2l0,0l0,0c0.1,0,0.3,0,0.5,0.1c0.1,0.1,0.3,0.1,0.3,0.2l0,0c0,0,0,0.1,0,0.3s0,0.4,0,0.7
		c0,0.1,0,0.2,0,0.3l0,0c0,0.1,0,0.2-0.1,0.2c-0.1,0.1-0.2,0.2-0.3,0.2h-0.2l0,0l0,0l0,0l0,0l0,0h-0.2c-0.1,0-0.3,0-0.4-0.1
		c-0.1-0.1-0.2-0.2-0.2-0.4c-0.1-0.3-0.1-0.5-0.1-0.7s0-0.4,0-0.5v-0.1l0,0l0,0l0,0L111,158.4z"/>
	<path class="st0" d="M122.3,159.8l0.1,0.3h0.1c0.1-0.1,0.4-0.2,0.6-0.2h0.2c0.2,0.1,0.3,0.2,0.4,0.2l0.1,0.2l0,0
		c0,0.2,0,0.5-0.1,0.7c0,0.1,0,0.2-0.1,0.3v0.1l0,0l0.1,0.1l-0.1-0.1l0,0l0.1,0.1l-0.1-0.1v0.1v-0.1l0,0v0.1v-0.1c0,0-0.2,0-0.4,0
		c-0.2,0-0.4,0-0.5-0.1c-0.1,0-0.3-0.1-0.3-0.1l0,0c0-0.1,0-0.2,0-0.4s0-0.5,0.1-0.7c0-0.2,0.1-0.3,0.1-0.3H122.3l0.1,0.3
		L122.3,159.8l-0.3-0.1c0,0-0.1,0.6-0.1,1.2c0,0.3,0,0.5,0.2,0.8c0.2,0.2,0.4,0.3,0.6,0.3c0.2,0.1,0.4,0.1,0.6,0.1
		c0.1,0,0.3,0,0.4,0c0.1,0,0.2,0,0.3-0.1s0.2-0.2,0.2-0.4c0.1-0.4,0.1-0.9,0.1-1.2l0,0c0-0.3-0.1-0.5-0.3-0.6
		c-0.2-0.2-0.4-0.3-0.6-0.4c-0.1,0-0.2-0.1-0.4-0.1c-0.5,0-0.9,0.3-0.9,0.3l-0.1,0.1v0.1L122.3,159.8z"/>
	<path class="st0" d="M132.6,163.3h0.3c0,0,0-0.3-0.2-0.5c-0.2-0.3-0.5-0.5-1-0.6h-0.2c-0.9,0-1.5,0.5-1.6,1.1v0.2
		c0,0.2,0,0.4,0.1,0.6c0.1,0.2,0.2,0.3,0.4,0.4c0.1,0,0.4,0.1,0.8,0.1c0.3,0,0.6-0.1,0.9-0.3c0.2-0.2,0.3-0.4,0.4-0.5l0.1-0.2l0,0
		V163.3v0.3h0.1L132.6,163.3v0.3V163.3l-0.1,0.3h0.1V163.3l-0.1,0.3l0.4,0.1l-0.1-0.4L132.6,163.3l0.1-0.3h-0.1
		c-0.1,0-0.2,0-0.2,0.1c-0.1,0.1-0.2,0.2-0.3,0.3s-0.3,0.3-0.4,0.5c-0.1,0.1-0.2,0.1-0.5,0.1c-0.2,0-0.5-0.1-0.6-0.1l0,0
		c0,0-0.1-0.2-0.1-0.5v-0.2c0-0.2,0.4-0.6,1-0.6h0.1c0.3,0,0.5,0.2,0.6,0.3l0.1,0.2v0.1l0,0l0,0l0,0l0,0l0,0L132.6,163.3l0.1-0.3
		L132.6,163.3z"/>
	<path class="st0" d="M134.2,165.7v-0.3c0,0-0.2,0-0.5,0.1s-0.6,0.2-0.8,0.5c-0.1,0.2-0.1,0.4-0.1,0.5c0,0.4,0.1,0.7,0.3,0.9
		c0.1,0.1,0.2,0.2,0.3,0.2c0.2,0,0.3-0.1,0.4-0.2l0.1-0.1l0,0l0,0c0.1,0,0.3,0,0.4,0.1l0.2,0.1h0.1l0,0l0,0l0,0l0,0l0,0l0,0
		c0,0.1,0.1,0.2,0.3,0.2c0.1,0,0.2-0.1,0.2-0.1c0.1-0.1,0.2-0.3,0.2-0.5s0.1-0.4,0.1-0.6c0-0.2,0-0.4-0.1-0.6
		c-0.1-0.3-0.3-0.5-0.5-0.6c-0.2-0.1-0.4-0.1-0.6-0.1s-0.3,0-0.3,0L134.2,165.7v-0.3V165.7v0.3c0,0,0.1,0,0.2,0c0.1,0,0.2,0,0.3,0.1
		c0.1,0,0.1,0.1,0.2,0.2c0,0.1,0.1,0.3,0.1,0.4c0,0.2,0,0.4-0.1,0.5l-0.1,0.1l0,0l0.2,0.1v-0.2c-0.1,0-0.2,0.1-0.2,0.1l0.2,0.1v-0.2
		v0.2l0.2-0.1c0,0-0.1-0.1-0.2-0.1v0.2l0.2-0.1c-0.2-0.2-0.4-0.3-0.6-0.4c-0.2-0.1-0.4-0.1-0.6-0.1c-0.2,0-0.3,0.1-0.5,0.2l-0.1,0.1
		l0,0l0,0v0.1V167l0,0v0.1V167v0.1l0.1-0.1h-0.1v0.1l0.1-0.1c-0.1-0.1-0.2-0.3-0.2-0.5l0.1-0.3c0-0.1,0.2-0.2,0.4-0.2l0.3-0.1h0.1
		l0,0l0,0L134.2,165.7z"/>
	<path class="st0" d="M131.3,169.8l-0.2,0.2h0.1h-0.1l0,0h0.1h-0.1c0,0,0.3,0.4,0.3,1c0,0.2,0,0.4-0.1,0.6c-0.1,0.3-0.1,0.4-0.2,0.4
		l-0.2,0.1h-0.2c-0.1,0-0.2-0.1-0.3-0.1h-0.1l0.1,0.3V172v0.2V172l0,0v0.2V172v0.2l0.2-0.2l-0.2-0.1v0.2l0.2-0.2l-0.1,0.1l0.2-0.1
		v-0.1l-0.1,0.1l0.2-0.1l0,0l0,0l0,0l0,0l0,0v-0.1c0-0.2,0-0.4,0-0.7c0-0.2,0-0.5-0.1-0.7v-0.2l0.1-0.3c0.1-0.1,0.2-0.1,0.4-0.1
		c0.1,0,0.2,0,0.3,0L131.3,169.8l-0.2,0.2L131.3,169.8l0.1-0.3c-0.2,0-0.3-0.1-0.5-0.1c-0.3,0-0.6,0.1-0.8,0.3
		c-0.2,0.2-0.3,0.4-0.3,0.7c0,0.2,0,0.3,0.1,0.5c0,0,0.1,0.2,0.1,0.4s0,0.5,0,0.7v0.2l0.1,0.2c0,0.1,0.2,0.1,0.3,0.1h0.1l0,0l0,0
		v-0.2v0.2l0,0v-0.2v0.2v-0.1v0.1l0,0v-0.1v0.1l0.2,0.1c0.1,0,0.2,0.1,0.4,0.1s0.4-0.1,0.6-0.2c0.2-0.2,0.3-0.4,0.4-0.7
		c0.1-0.3,0.1-0.5,0.1-0.7c0-0.8-0.4-1.3-0.4-1.3l-0.1-0.1h-0.1L131.3,169.8z"/>
	<path class="st0" d="M115.8,172.6l0.1,0.2l0,0c0,0,0.3-0.2,0.6-0.2c0.2,0,0.3,0,0.5,0.2s0.3,0.4,0.4,0.6c0.1,0.2,0.1,0.5,0.1,0.8
		v0.1v0.3l0,0l-0.1,0.1c-0.1,0-0.2,0.1-0.4,0.1c-0.1,0-0.3,0-0.4-0.1l-0.1-0.1l0,0c-0.2-0.4-0.2-0.4-0.2-0.4l-0.3,0.1l0.3-0.1
		c0,0-0.1-0.2-0.2-0.5c-0.1-0.3-0.2-0.6-0.3-0.8l0,0l0,0l0.1-0.1l0,0l0,0L115.8,172.6l-0.1-0.3l-0.3,0.2c-0.1,0.1-0.2,0.2-0.2,0.4
		c0,0.1,0,0.3,0.1,0.4c0.1,0.1,0.2,0.4,0.3,0.6c0.1,0.2,0.1,0.5,0.1,0.5l0,0l0,0l0.2,0.4c0.1,0.2,0.3,0.3,0.5,0.4
		c0.2,0.1,0.4,0.1,0.6,0.1s0.5,0,0.7-0.2c0.2-0.1,0.4-0.4,0.4-0.6l0,0v-0.3v-0.1c0-0.3,0-0.6-0.1-0.9c-0.1-0.3-0.2-0.6-0.5-0.9
		c-0.3-0.3-0.6-0.3-0.9-0.3c-0.5,0-0.9,0.2-0.9,0.2L115.8,172.6l-0.1-0.3L115.8,172.6z"/>
	<path class="st0" d="M93.9,189.7h-0.3l-0.1,0.2c-0.1,0.1-0.2,0.1-0.4,0.1s-0.3,0-0.4-0.1l-0.1-0.2v-1l0.1-0.2
		c0.1-0.1,0.2-0.1,0.4-0.1c0.2,0,0.3,0.1,0.4,0.1l0.1,0.2v1H93.9h0.3v-1c0-0.3-0.1-0.5-0.3-0.7c-0.2-0.2-0.5-0.3-0.7-0.3
		c-0.3,0-0.5,0.1-0.7,0.3c-0.2,0.2-0.3,0.4-0.3,0.7v1c0,0.3,0.1,0.5,0.3,0.7s0.5,0.3,0.7,0.3c0.3,0,0.5-0.1,0.7-0.3s0.3-0.4,0.3-0.7
		H93.9z"/>
	<path class="st0" d="M106.2,195.3h-0.3l-0.1,0.2c-0.1,0.1-0.2,0.1-0.4,0.1c-0.2,0-0.3-0.1-0.4-0.1l-0.1-0.2v-1l0.1-0.2
		c0.1-0.1,0.2-0.1,0.4-0.1c0.2,0,0.3,0.1,0.4,0.1l0.1,0.2v1H106.2h0.3v-1c0-0.3-0.1-0.5-0.3-0.7c-0.2-0.2-0.5-0.3-0.7-0.3
		c-0.3,0-0.5,0.1-0.7,0.3c-0.2,0.2-0.3,0.4-0.3,0.7v1c0,0.3,0.1,0.5,0.3,0.7c0.2,0.2,0.5,0.3,0.7,0.3c0.3,0,0.5-0.1,0.7-0.3
		s0.3-0.4,0.3-0.7H106.2z"/>
	<path class="st0" d="M123.4,194.6h-0.3c0,0.1,0,0.1-0.2,0.2c-0.1,0.1-0.3,0.1-0.5,0.1s-0.4-0.1-0.5-0.1c-0.1-0.1-0.2-0.2-0.2-0.2
		v-1c0-0.1,0-0.1,0.2-0.2c0.1-0.1,0.3-0.1,0.5-0.1s0.4,0.1,0.5,0.1c0.1,0.1,0.2,0.2,0.2,0.2v1H123.4h0.3v-1c0-0.3-0.2-0.5-0.4-0.7
		s-0.5-0.2-0.8-0.2c-0.3,0-0.6,0.1-0.8,0.2c-0.2,0.2-0.4,0.4-0.4,0.7v1c0,0.3,0.2,0.5,0.4,0.7s0.5,0.2,0.8,0.2
		c0.3,0,0.6-0.1,0.8-0.2c0.2-0.1,0.4-0.4,0.4-0.7H123.4z"/>
	<path class="st0" d="M133.8,187.7h-0.3l-0.1,0.2c-0.1,0.1-0.2,0.1-0.3,0.1s-0.3,0-0.3-0.1l-0.1-0.2v-0.8l0.1-0.2
		c0.1-0.1,0.2-0.1,0.3-0.1s0.3,0,0.3,0.1l0.1,0.2v0.8H133.8h0.3v-0.8c0-0.3-0.1-0.5-0.3-0.6c-0.2-0.1-0.4-0.2-0.7-0.2
		s-0.5,0.1-0.7,0.2c-0.2,0.1-0.3,0.4-0.3,0.6v0.8c0,0.3,0.1,0.5,0.3,0.6c0.2,0.1,0.4,0.2,0.7,0.2s0.5-0.1,0.7-0.2
		c0.2-0.1,0.3-0.4,0.3-0.6H133.8z"/>
	<path class="st0" d="M83.2,84.9L83.2,84.9L83.2,84.9L83.2,84.9L83.2,84.9c0,0-0.1-0.1-0.3-0.1h-1.1h-0.6H81c0,0-0.7-0.4-1.3-1.1
		c-0.3-0.3-0.6-0.7-0.8-1.1v11.1c1.1,0,2.5,0,3.7,0c0.2,0,0.4,0,0.6,0L83.2,84.9L83.2,84.9L83.2,84.9L83.2,84.9z"/>
	<g>
		<path class="st0" d="M86,93.5v-7.6l0,0l0,0l0,0c0-0.1,0-0.2-0.1-0.3c-0.1-0.1-0.3-0.3-0.8-0.3H85l0,0c-0.6,0-1,0-1.2,0v8.4
			c0.7,0,1.2,0,1.5,0h0.2C85.8,93.7,85.9,93.6,86,93.5L86,93.5L86,93.5z"/>
	</g>
	<path class="st0" d="M143.3,95.3l0.6,0.1c0,0,0.1-0.5,0.1-1.2c0-2-0.6-6.4-4.9-11L138,82l0.1,1.6c0,0,0.2,2.2,0.8,4.8
		c0.7,2.6,1.8,5.6,4,7.3l0.7,0.6l0.2-0.9L143.3,95.3l0.3-0.5c-1.8-1.3-3-4.2-3.6-6.7c-0.3-1.2-0.5-2.4-0.6-3.3
		c-0.1-0.4-0.1-0.8-0.1-1s0-0.4,0-0.4h-0.6l-0.4,0.4c4,4.3,4.5,8.4,4.6,10.2c0,0.3,0,0.6,0,0.8V95l0,0l0,0L143.3,95.3l0.3-0.5
		L143.3,95.3z"/>
	<path class="st0" d="M140.8,94.2l-0.3-0.5l0,0c-0.1,0-1,0.4-2.2,0.4c-1.3,0-2.9-0.4-4.5-2.2l-0.4,0.4l-0.2,0.5c0,0,2,0.6,3.5,0.6
		c0.3,0,0.6,0,0.8-0.1c0.1,0,0.3,0,0.4,0c0.5,0,1,0.2,1.5,0.4c0.4,0.2,0.8,0.6,0.9,0.7L140.8,94.2l-0.3-0.5L140.8,94.2l0.5-0.3
		c-0.3-0.4-0.7-0.8-1.3-1.1c-0.6-0.3-1.3-0.5-2-0.6c-0.2,0-0.4,0-0.7,0.1c-0.2,0-0.4,0.1-0.6,0.1c-0.6,0-1.4-0.1-2.1-0.3
		c-0.3-0.1-0.6-0.1-0.8-0.2c-0.2-0.1-0.3-0.1-0.3-0.1l-2-0.6l1.4,1.6c1.8,2,3.8,2.6,5.4,2.6c1.6,0,2.7-0.5,2.7-0.6l0.6-0.3l-0.4-0.5
		L140.8,94.2z"/>
	<path class="st0" d="M165.7,92.8l5.1-4.8c0.7-0.8,0.6-1.4,0.9-2.4c0.3-1,2-2.6,4.2-4s2.1-1.8,2.9-2.9c0.7-1.1-1.9,7.5-7.3,9.4
		c0,0-4.7,3.8-5.4,5.2L165.7,92.8z"/>
	<path class="st0" d="M167.3,91.8L167.3,91.8c-0.1-0.3-0.5-1.6-0.5-3.1c0-0.7,0.1-1.4,0.3-2.1c0.7-2.3,1.5-3.8,1.5-5.5
		c0-0.3,0-0.6-0.1-0.9l-0.6,0.1l-0.4,0.4l0,0c0.1,0.1,1.2,1.4,1.2,4.8c0,1.2-0.2,2.7-0.6,4.5l0.6,0.1l-0.4-0.4l-1.8,1.8l0.8,0.8
		l2-1.9v-0.2c0.4-1.9,0.6-3.5,0.6-4.8c0-3.8-1.4-5.5-1.5-5.6l-1.5-1.6l0.5,2.1c0,0.2,0.1,0.4,0.1,0.7c0,1.2-0.7,2.8-1.4,5.2
		c-0.2,0.8-0.3,1.7-0.3,2.4c0,1.9,0.6,3.4,0.6,3.5L167.3,91.8z"/>
	<path class="st0" d="M171.4,83.8l-0.4-0.4c0,0-1,1-1.9,2.4c-1,1.4-2,3.2-2,5c0,0.1,0,0.3,0,0.4l0.1,1l0.8-0.5c0,0,0.7-0.5,1.5-1.2
		c0.8-0.7,1.6-1.7,2-2.9c0.4-1.4,0.5-2.6,0.5-3.3c0-0.3,0-0.6,0-0.6l-0.1-1.2l-0.9,0.9L171.4,83.8l-0.6,0.1l0,0c0,0.1,0,0.2,0,0.4
		c0,0.6-0.1,1.7-0.5,2.9c-0.3,0.8-1,1.7-1.7,2.4c-0.3,0.3-0.7,0.6-0.9,0.8c-0.1,0.1-0.2,0.2-0.3,0.2l-0.1,0.1l0.3,0.5l0.6-0.1
		c0-0.1,0-0.2,0-0.3c0-1.3,0.9-3,1.8-4.4c0.5-0.7,0.9-1.2,1.3-1.6c0.2-0.2,0.3-0.4,0.4-0.5s0.1-0.2,0.1-0.2L171.4,83.8l-0.6,0.1
		L171.4,83.8z"/>
	<path class="st0" d="M167.4,91.8c0,0,2.7-3,6.4-3.8c3.7-0.7,4.5-0.7,4.5-0.7s-2.2,1.6-2.7,2.5C175,90.7,171.6,92.1,167.4,91.8"/>
	<path class="st0" d="M168.3,90.8l0.4,0.4v-0.1c0.3-0.3,1.5-1.6,3.2-2.8c1.7-1.3,3.9-2.5,6.1-2.8l-0.1-0.6l-0.5-0.3l0,0l0,0l0,0l0,0
		c-0.1,0.1-2,3.3-9.4,5.6L168.3,90.8l0.4,0.4L168.3,90.8l0.2,0.5c7.9-2.5,10-6,10.1-6.1l0.6-1l-1.1,0.1c-2.7,0.3-5.2,1.8-7,3.2
		c-1.9,1.4-3.1,2.8-3.1,2.8l-1.4,1.6l2-0.6L168.3,90.8z"/>
	<path class="st0" d="M156,112.9l-0.2-0.5c0,0-1.6,0.5-3.4,1.7s-3.7,3.1-4.3,5.9l-0.3,1.2l1.1-0.6c0,0,0.5-0.2,1.1-0.6
		c0.7-0.3,1.5-0.7,2.2-1c0.9-0.3,1.9-1.1,2.8-2.2s1.6-2.4,1.6-3.9v-0.8l-0.8,0.2L156,112.9h-0.6c0,1.1-0.6,2.2-1.3,3.2
		c-0.8,0.9-1.7,1.6-2.3,1.9c-1.5,0.6-3.4,1.6-3.4,1.6l0.3,0.5l0.6,0.1c0.5-2.4,2.2-4.1,3.9-5.2c0.8-0.5,1.6-0.9,2.2-1.2
		c0.3-0.1,0.5-0.2,0.7-0.3l0.2-0.1h0.1L156,112.9h-0.6H156z"/>
	<path class="st0" d="M156,110.2l-0.2-0.5c0,0-1.8,0.8-3.8,2.1c-2,1.4-4.2,3.2-5,5.6l-0.4,1.1l1.1-0.3c0,0,1.6-0.5,3.5-1.4
		s4-2.1,5-3.8c0.4-0.6,0.6-1.1,0.7-1.4c0.2-0.4,0.2-0.7,0.2-1s-0.1-0.5-0.3-0.7s-0.4-0.2-0.6-0.2s-0.4,0.1-0.4,0.1l0,0l0,0
		L156,110.2l0.2,0.5v-0.3l-0.2,0.2l0.2,0.1v-0.3l-0.2,0.2l0.2-0.2l-0.3,0.1l0.1,0.1l0.2-0.2l-0.3,0.1h0.1h-0.1l0,0h0.1h-0.1l0,0
		c0,0,0,0.2-0.1,0.5s-0.3,0.7-0.7,1.3c-0.7,1.3-2.7,2.5-4.5,3.3c-0.9,0.4-1.7,0.7-2.3,1c-0.3,0.1-0.6,0.2-0.7,0.3
		c-0.2,0.1-0.3,0.1-0.3,0.1l0.2,0.5l0.5,0.2c0.6-1.9,2.7-3.7,4.6-5c0.9-0.6,1.9-1.2,2.5-1.5c0.3-0.2,0.6-0.3,0.8-0.4
		c0.2-0.1,0.3-0.1,0.3-0.1L156,110.2l0.2,0.5L156,110.2z"/>
	<path class="st0" d="M52.6,64.2L52.6,64.2c-0.7,0.1-1.3,0.1-1.9,0.3c-0.9,0.4-1.3,1-1.7,1.9c0,0.1,0.1,0.3,0.2,0.3s0.3-0.1,0.3-0.2
		c0.1-0.4,0.2-0.8,0.5-1.2C50.7,64.6,51.7,64.4,52.6,64.2z"/>
	<path class="st0" d="M47.4,67.6l0.1-0.2l-0.2-0.1c-0.5,0.2-0.9,0.3-1.2,0.8c-0.2,0.3-0.3,0.7-0.3,1.1c0.2-0.5,0.4-1.1,0.8-1.4
		C46.9,67.7,47.1,67.6,47.4,67.6z"/>
	<polygon class="st0" points="14.6,247.1 7.7,247.1 7.7,249.8 14,249.8 14,252.1 7.7,252.1 7.7,255.5 14.9,255.5 14.9,257.8 
		5,257.8 5,244.7 14.6,244.7 	"/>
	<path class="st0" d="M18.8,254.7c0.1,0.4,0.2,0.8,0.3,1c0.3,0.3,0.9,0.5,1.8,0.5c0.5,0,0.9-0.1,1.2-0.2c0.3-0.1,0.4-0.4,0.4-0.7
		s-0.1-0.5-0.4-0.6c-0.2-0.1-1.1-0.4-2.6-0.8c-1.1-0.3-1.9-0.6-2.3-1s-0.7-1-0.7-1.7c0-0.9,0.4-1.7,1.1-2.3s1.7-1,3-1
		c1.2,0,2.2,0.2,3,0.7c0.7,0.5,1.2,1.3,1.3,2.5h-2.5c0-0.3-0.1-0.6-0.3-0.8c-0.3-0.3-0.8-0.5-1.4-0.5s-0.9,0.1-1.2,0.3
		c-0.2,0.2-0.4,0.4-0.4,0.6c0,0.3,0.1,0.5,0.4,0.6c0.2,0.1,1.1,0.4,2.6,0.7c1,0.2,1.8,0.6,2.3,1.1s0.7,1.1,0.7,1.8
		c0,1-0.4,1.7-1.1,2.3s-1.8,0.9-3.3,0.9c-1.5,0-2.7-0.3-3.4-1c-0.7-0.6-1.1-1.5-1.1-2.5L18.8,254.7L18.8,254.7z"/>
	<path class="st0" d="M26,250v-1.8h1.4v-2.7h2.5v2.7h1.6v1.8h-1.6v5.1c0,0.4,0,0.6,0.2,0.7c0.1,0.1,0.4,0.2,0.9,0.2h0.2h0.3v1.9
		h-1.2c-1.2,0-2-0.2-2.5-0.6c-0.3-0.3-0.4-0.7-0.4-1.3v-6L26,250L26,250z"/>
	<path class="st0" d="M36.8,251.9c0.5-0.1,0.8-0.1,1-0.2c0.4-0.2,0.5-0.4,0.5-0.7c0-0.4-0.1-0.7-0.4-0.8s-0.7-0.2-1.2-0.2
		c-0.6,0-1,0.2-1.3,0.4c-0.2,0.2-0.3,0.5-0.4,0.9h-2.4c0.1-0.8,0.3-1.5,0.7-2.1c0.7-0.9,1.8-1.3,3.5-1.3c1.1,0,2,0.2,2.8,0.6
		c0.8,0.4,1.2,1.2,1.2,2.4v4.4c0,0.3,0,0.7,0,1.1c0,0.3,0.1,0.6,0.1,0.7c0.1,0.1,0.2,0.2,0.4,0.3v0.4h-2.8c-0.1-0.2-0.1-0.4-0.2-0.6
		c0-0.2-0.1-0.4-0.1-0.6c-0.4,0.4-0.8,0.7-1.2,1c-0.6,0.3-1.2,0.5-1.9,0.5c-0.9,0-1.6-0.2-2.2-0.7s-0.9-1.2-0.9-2.1
		c0-1.2,0.5-2.1,1.4-2.6c0.5-0.3,1.3-0.5,2.2-0.6L36.8,251.9z M38.4,253.1c-0.2,0.1-0.3,0.2-0.5,0.2c-0.2,0.1-0.4,0.1-0.7,0.2
		l-0.6,0.1c-0.5,0.1-0.9,0.2-1.2,0.3c-0.4,0.2-0.6,0.6-0.6,1.1c0,0.4,0.1,0.8,0.4,0.9c0.2,0.2,0.5,0.3,0.9,0.3
		c0.6,0,1.1-0.2,1.5-0.5c0.5-0.3,0.7-0.9,0.7-1.8L38.4,253.1L38.4,253.1z"/>
	<path class="st0" d="M48.4,248.3c0.5,0.3,0.8,0.6,1.1,1.1v-4.6h2.6v13.1h-2.5v-1.3c-0.4,0.6-0.8,1-1.2,1.2c-0.5,0.3-1,0.4-1.7,0.4
		c-1.1,0-2.1-0.5-2.9-1.4c-0.8-0.9-1.2-2.1-1.2-3.5c0-1.6,0.4-2.9,1.1-3.9c0.8-1,1.8-1.4,3-1.4C47.4,247.9,47.9,248.1,48.4,248.3
		 M49,255.2c0.4-0.5,0.6-1.2,0.6-2.1c0-1.2-0.3-2-0.9-2.5c-0.4-0.3-0.8-0.5-1.3-0.5c-0.7,0-1.3,0.3-1.6,0.8
		c-0.3,0.6-0.5,1.2-0.5,2.1c0,0.9,0.2,1.6,0.5,2.1c0.4,0.5,0.9,0.8,1.6,0.8C48.1,256,48.6,255.7,49,255.2"/>
	<path class="st0" d="M62.4,256.6c-0.8,1-2.1,1.5-3.7,1.5c-1.7,0-2.9-0.5-3.7-1.5c-0.8-1-1.2-2.2-1.2-3.6c0-1.4,0.4-2.6,1.2-3.6
		s2.1-1.5,3.7-1.5c1.7,0,2.9,0.5,3.7,1.5s1.2,2.2,1.2,3.6C63.6,254.4,63.2,255.6,62.4,256.6 M60.4,255.2c0.4-0.5,0.6-1.3,0.6-2.2
		c0-1-0.2-1.7-0.6-2.2c-0.4-0.5-1-0.8-1.7-0.8c-0.7,0-1.3,0.3-1.7,0.8c-0.4,0.5-0.6,1.3-0.6,2.2c0,1,0.2,1.7,0.6,2.2s1,0.8,1.7,0.8
		C59.4,256,60,255.8,60.4,255.2"/>
	<polygon class="st0" points="70.7,244.7 73.4,244.7 73.4,255.5 80,255.5 80,257.8 70.7,257.8 	"/>
	<path class="st0" d="M84.2,247h-2.6v-2.3h2.6V247z M81.6,248.1h2.6v9.7h-2.6V248.1z"/>
	<path class="st0" d="M94.9,249.3c0.7,0.9,1.1,2.1,1.1,3.6s-0.4,2.7-1.1,3.7c-0.7,1-1.7,1.5-3,1.5c-0.8,0-1.5-0.2-1.9-0.5
		c-0.3-0.2-0.6-0.5-0.9-1v1.2h-2.5v-13.1h2.5v4.7c0.3-0.4,0.7-0.8,1.1-1c0.5-0.3,1-0.4,1.8-0.4C93.2,247.9,94.2,248.4,94.9,249.3
		 M92.8,255.2c0.4-0.5,0.5-1.2,0.5-2.1c0-0.7-0.1-1.3-0.3-1.7c-0.3-0.9-1-1.3-1.9-1.3c-0.9,0-1.6,0.4-1.9,1.3
		c-0.2,0.4-0.3,1-0.3,1.7c0,0.8,0.2,1.5,0.5,2.1c0.4,0.5,0.9,0.8,1.7,0.8C91.9,256,92.5,255.7,92.8,255.2"/>
	<path class="st0" d="M103.1,247.9c0,0,0.1,0,0.2,0v2.6c-0.2,0-0.3,0-0.4,0s-0.2,0-0.3,0c-1,0-1.7,0.3-2,1c-0.2,0.4-0.3,0.9-0.3,1.7
		v4.6h-2.6v-9.7h2.4v1.7c0.4-0.6,0.7-1.1,1-1.3c0.5-0.4,1.1-0.6,1.8-0.6L103.1,247.9L103.1,247.9z"/>
	<path class="st0" d="M111.3,248.3c0.7,0.3,1.2,0.8,1.7,1.4c0.4,0.6,0.6,1.2,0.8,2c0.1,0.5,0.1,1.1,0.1,1.9h-7c0,1,0.4,1.7,1,2
		c0.4,0.2,0.9,0.4,1.4,0.4c0.6,0,1-0.2,1.4-0.5c0.2-0.2,0.4-0.4,0.5-0.7h2.6c-0.1,0.6-0.4,1.2-0.9,1.7c-0.9,0.9-2.1,1.4-3.6,1.4
		c-1.3,0-2.4-0.4-3.4-1.2c-1-0.8-1.5-2.1-1.5-3.9c0-1.7,0.4-3,1.3-3.9c0.9-0.9,2-1.3,3.5-1.3C109.8,247.9,110.6,248.1,111.3,248.3
		 M107.5,250.5c-0.4,0.4-0.6,0.9-0.7,1.5h4.4c-0.1-0.7-0.3-1.2-0.7-1.5c-0.4-0.4-0.9-0.5-1.5-0.5C108.3,250,107.8,250.2,107.5,250.5
		"/>
	<path class="st0" d="M120.5,259.7h0.3c0.2,0,0.5,0,0.7,0c0.2,0,0.4-0.1,0.6-0.2c0.1-0.1,0.3-0.3,0.4-0.6c0.1-0.3,0.2-0.5,0.2-0.6
		l-3.6-10.1h2.8l2.1,7.1l2-7.1h2.7l-3.3,9.5c-0.6,1.8-1.1,3-1.5,3.4s-1.1,0.7-2.2,0.7c-0.2,0-0.4,0-0.5,0c-0.1,0-0.3,0-0.6,0
		L120.5,259.7L120.5,259.7z"/>
	<path class="st0" d="M137.5,253.8c0.1,0.6,0.2,1,0.5,1.3c0.5,0.5,1.2,0.8,2.3,0.8c0.7,0,1.2-0.1,1.6-0.2c0.8-0.3,1.2-0.8,1.2-1.5
		c0-0.4-0.2-0.8-0.6-1c-0.4-0.2-1-0.4-1.8-0.6l-1.4-0.3c-1.4-0.3-2.3-0.6-2.9-1c-0.9-0.6-1.3-1.5-1.3-2.8c0-1.2,0.4-2.1,1.3-2.9
		c0.9-0.8,2.1-1.2,3.8-1.2c1.4,0,2.6,0.4,3.6,1.1c1,0.7,1.5,1.8,1.5,3.2h-2.6c0-0.8-0.4-1.3-1.1-1.7c-0.4-0.2-1-0.3-1.6-0.3
		c-0.7,0-1.3,0.1-1.7,0.4c-0.4,0.3-0.7,0.7-0.7,1.2s0.2,0.8,0.6,1c0.3,0.1,0.9,0.3,1.7,0.5l2.3,0.5c1,0.2,1.8,0.6,2.3,0.9
		c0.8,0.6,1.2,1.5,1.2,2.7s-0.5,2.2-1.4,3s-2.2,1.2-3.9,1.2s-3.1-0.4-4.1-1.2c-1-0.8-1.5-1.9-1.5-3.2h2.7V253.8z"/>
	<path class="st0" d="M155.5,256.6c-0.8,1-2.1,1.5-3.7,1.5c-1.7,0-2.9-0.5-3.7-1.5c-0.8-1-1.2-2.2-1.2-3.6c0-1.4,0.4-2.6,1.2-3.6
		c0.8-1,2.1-1.5,3.7-1.5c1.7,0,2.9,0.5,3.7,1.5c0.8,1,1.2,2.2,1.2,3.6C156.7,254.4,156.3,255.6,155.5,256.6 M153.5,255.2
		c0.4-0.5,0.6-1.3,0.6-2.2c0-1-0.2-1.7-0.6-2.2c-0.4-0.5-1-0.8-1.7-0.8s-1.3,0.3-1.7,0.8c-0.4,0.5-0.6,1.3-0.6,2.2
		c0,1,0.2,1.7,0.6,2.2s1,0.8,1.7,0.8S153.1,255.8,153.5,255.2"/>
	<path class="st0" d="M166.8,249.3c0.7,0.9,1.1,2.1,1.1,3.6s-0.4,2.7-1.1,3.7c-0.7,1-1.7,1.5-3,1.5c-0.8,0-1.5-0.2-1.9-0.5
		c-0.3-0.2-0.6-0.5-0.9-1v1.2h-2.5v-13.1h2.5v4.7c0.3-0.4,0.7-0.8,1.1-1c0.5-0.3,1-0.4,1.8-0.4C165.1,247.9,166.1,248.4,166.8,249.3
		 M164.7,255.2c0.4-0.5,0.5-1.2,0.5-2.1c0-0.7-0.1-1.3-0.3-1.7c-0.3-0.9-1-1.3-1.9-1.3s-1.6,0.4-1.9,1.3c-0.2,0.4-0.3,1-0.3,1.7
		c0,0.8,0.2,1.5,0.5,2.1c0.4,0.5,0.9,0.8,1.7,0.8S164.3,255.7,164.7,255.2"/>
	<path class="st0" d="M176,248.3c0.7,0.3,1.2,0.8,1.7,1.4c0.4,0.6,0.7,1.2,0.8,2c0.1,0.5,0.1,1.1,0.1,1.9h-7c0,1,0.4,1.7,1,2
		c0.4,0.2,0.8,0.4,1.4,0.4c0.6,0,1-0.2,1.4-0.5c0.2-0.2,0.4-0.4,0.5-0.7h2.6c-0.1,0.6-0.4,1.2-0.9,1.7c-0.9,0.9-2.1,1.4-3.6,1.4
		c-1.3,0-2.4-0.4-3.4-1.2s-1.5-2.1-1.5-3.9c0-1.7,0.4-3,1.3-3.9c0.9-0.9,2-1.3,3.5-1.3C174.6,247.9,175.4,248.1,176,248.3
		 M172.2,250.5c-0.4,0.4-0.6,0.9-0.7,1.5h4.4c0-0.7-0.3-1.2-0.7-1.5c-0.4-0.4-0.9-0.5-1.5-0.5C173,250,172.5,250.2,172.2,250.5"/>
	<path class="st0" d="M185.2,247.9c0,0,0.1,0,0.2,0v2.6c-0.2,0-0.3,0-0.4,0s-0.2,0-0.3,0c-1,0-1.7,0.3-2.1,1
		c-0.2,0.4-0.3,0.9-0.3,1.7v4.6h-2.5v-9.7h2.4v1.7c0.4-0.6,0.7-1.1,1-1.3c0.5-0.4,1.1-0.6,1.9-0.6L185.2,247.9L185.2,247.9z"/>
	<path class="st0" d="M190.8,251.9c0.5-0.1,0.8-0.1,1-0.2c0.4-0.2,0.5-0.4,0.5-0.7c0-0.4-0.1-0.7-0.4-0.8s-0.7-0.2-1.2-0.2
		c-0.6,0-1,0.2-1.3,0.4c-0.2,0.2-0.3,0.5-0.4,0.9h-2.4c0.1-0.8,0.3-1.5,0.7-2.1c0.7-0.9,1.8-1.3,3.5-1.3c1.1,0,2,0.2,2.8,0.6
		c0.8,0.4,1.2,1.2,1.2,2.4v4.4c0,0.3,0,0.7,0,1.1c0,0.3,0.1,0.6,0.1,0.7c0.1,0.1,0.2,0.2,0.4,0.3v0.4h-2.8c-0.1-0.2-0.1-0.4-0.2-0.6
		c0-0.2-0.1-0.4-0.1-0.6c-0.4,0.4-0.8,0.7-1.2,1c-0.5,0.3-1.2,0.5-1.9,0.5c-0.9,0-1.6-0.2-2.2-0.7c-0.6-0.5-0.9-1.2-0.9-2.1
		c0-1.2,0.5-2.1,1.4-2.6c0.5-0.3,1.3-0.5,2.2-0.6L190.8,251.9z M192.3,253.1c-0.2,0.1-0.3,0.2-0.5,0.2c-0.2,0.1-0.4,0.1-0.7,0.2
		l-0.6,0.1c-0.5,0.1-0.9,0.2-1.2,0.3c-0.4,0.2-0.6,0.6-0.6,1.1c0,0.4,0.1,0.8,0.4,0.9c0.2,0.2,0.5,0.3,0.9,0.3
		c0.6,0,1.1-0.2,1.5-0.5c0.5-0.3,0.7-0.9,0.7-1.8v-0.8H192.3z"/>
	<path class="st0" d="M204.8,248.7c0.6,0.5,1,1.4,1,2.6v6.5h-2.6v-5.9c0-0.5-0.1-0.9-0.2-1.2c-0.2-0.5-0.7-0.8-1.4-0.8
		c-0.9,0-1.4,0.4-1.8,1.1c-0.2,0.4-0.2,0.9-0.2,1.5v5.2h-2.5V248h2.5v1.4c0.3-0.5,0.6-0.9,0.9-1.1c0.5-0.4,1.2-0.6,2-0.6
		C203.4,247.9,204.2,248.2,204.8,248.7"/>
	<path class="st0" d="M216.2,256.6c-0.8,1-2.1,1.5-3.7,1.5c-1.7,0-2.9-0.5-3.7-1.5c-0.8-1-1.2-2.2-1.2-3.6c0-1.4,0.4-2.6,1.2-3.6
		c0.8-1,2.1-1.5,3.7-1.5c1.7,0,2.9,0.5,3.7,1.5c0.8,1,1.2,2.2,1.2,3.6C217.5,254.4,217,255.6,216.2,256.6 M214.2,255.2
		c0.4-0.5,0.6-1.3,0.6-2.2c0-1-0.2-1.7-0.6-2.2s-1-0.8-1.7-0.8s-1.3,0.3-1.7,0.8s-0.6,1.3-0.6,2.2c0,1,0.2,1.7,0.6,2.2
		c0.4,0.5,1,0.8,1.7,0.8S213.8,255.8,214.2,255.2"/>
	<path class="st0" d="M73.1,270.1c0.5,0.3,0.8,0.6,1.1,1.1v-4.6h2.6v13.1h-2.5v-1.3c-0.4,0.6-0.8,1-1.2,1.3c-0.5,0.3-1,0.4-1.7,0.4
		c-1.1,0-2.1-0.5-2.8-1.4c-0.8-0.9-1.2-2.1-1.2-3.5c0-1.6,0.4-2.9,1.1-3.9c0.8-0.9,1.8-1.4,3-1.4C72.1,269.7,72.7,269.9,73.1,270.1
		 M73.7,277c0.4-0.5,0.6-1.2,0.6-2.1c0-1.2-0.3-2-0.9-2.5c-0.4-0.3-0.8-0.5-1.3-0.5c-0.7,0-1.3,0.3-1.6,0.9
		c-0.3,0.6-0.5,1.3-0.5,2.1c0,0.9,0.2,1.6,0.5,2.1c0.4,0.5,0.9,0.8,1.6,0.8C72.8,277.8,73.4,277.6,73.7,277"/>
	<path class="st0" d="M85.4,270.2c0.7,0.3,1.2,0.8,1.7,1.4c0.4,0.6,0.7,1.2,0.8,2c0.1,0.5,0.1,1.1,0.1,1.9h-7c0,1,0.4,1.7,1,2
		c0.4,0.2,0.8,0.4,1.4,0.4c0.6,0,1-0.1,1.4-0.4c0.2-0.2,0.4-0.4,0.5-0.7h2.6c-0.1,0.6-0.4,1.1-0.9,1.7c-0.9,0.9-2.1,1.4-3.7,1.4
		c-1.3,0-2.4-0.4-3.4-1.2c-1-0.8-1.5-2.1-1.5-3.9c0-1.7,0.5-3,1.3-3.9c0.9-0.9,2-1.3,3.5-1.3C84,269.7,84.7,269.9,85.4,270.2
		 M81.6,272.4c-0.4,0.4-0.6,0.9-0.7,1.5h4.4c-0.1-0.7-0.3-1.2-0.7-1.5s-0.9-0.5-1.5-0.5C82.5,271.8,82,272,81.6,272.4"/>
	<polygon class="st0" points="94.4,279.7 94.4,266.6 97.2,266.6 97.2,271.5 102.3,271.5 102.3,266.6 105,266.6 105,279.7 
		102.3,279.7 102.3,273.8 97.2,273.8 97.2,279.7 	"/>
	<path class="st0" d="M110.1,268.8h-2.6v-2.3h2.6V268.8z M107.5,270h2.6v9.7h-2.6V270z"/>
	<path class="st0" d="M117.7,270.1c0.5,0.3,0.8,0.6,1.1,1.1v-4.6h2.6v13.1H119v-1.3c-0.4,0.6-0.8,1-1.2,1.3c-0.5,0.3-1,0.4-1.7,0.4
		c-1.1,0-2.1-0.5-2.9-1.4s-1.2-2.1-1.2-3.5c0-1.6,0.4-2.9,1.2-3.9c0.8-0.9,1.8-1.4,3-1.4C116.7,269.7,117.2,269.9,117.7,270.1
		 M118.3,277c0.4-0.5,0.6-1.2,0.6-2.1c0-1.2-0.3-2-0.9-2.5c-0.4-0.3-0.8-0.5-1.3-0.5c-0.7,0-1.3,0.3-1.6,0.9s-0.5,1.3-0.5,2.1
		c0,0.9,0.2,1.6,0.5,2.1c0.4,0.5,0.9,0.8,1.6,0.8C117.4,277.8,117.9,277.6,118.3,277"/>
	<path class="st0" d="M127.5,273.8c0.5-0.1,0.8-0.1,1-0.2c0.4-0.2,0.6-0.4,0.6-0.7c0-0.4-0.1-0.7-0.4-0.8c-0.3-0.1-0.7-0.2-1.2-0.2
		c-0.6,0-1,0.2-1.3,0.5c-0.2,0.2-0.3,0.5-0.4,0.9h-2.4c0.1-0.9,0.3-1.5,0.7-2.1c0.7-0.8,1.8-1.3,3.5-1.3c1.1,0,2,0.2,2.8,0.6
		c0.8,0.4,1.2,1.2,1.2,2.4v4.4c0,0.3,0,0.7,0,1.1c0,0.3,0.1,0.6,0.2,0.7c0.1,0.1,0.2,0.2,0.4,0.3v0.4h-2.8c-0.1-0.2-0.1-0.4-0.2-0.6
		c0-0.2-0.1-0.4-0.1-0.6c-0.4,0.4-0.8,0.7-1.2,1c-0.5,0.3-1.2,0.5-1.9,0.5c-0.9,0-1.6-0.3-2.2-0.8c-0.6-0.5-0.9-1.2-0.9-2.1
		c0-1.2,0.5-2.1,1.4-2.6c0.5-0.3,1.2-0.5,2.2-0.6L127.5,273.8z M129,275c-0.2,0.1-0.3,0.2-0.5,0.2c-0.2,0.1-0.4,0.1-0.7,0.2
		l-0.6,0.1c-0.6,0.1-0.9,0.2-1.2,0.3c-0.4,0.2-0.6,0.6-0.6,1.1c0,0.4,0.1,0.7,0.4,0.9c0.2,0.2,0.5,0.3,0.9,0.3
		c0.6,0,1.1-0.2,1.5-0.5c0.5-0.3,0.7-0.9,0.7-1.7V275H129z"/>
	<rect x="133.8" y="266.6" class="st0" width="2.5" height="13.1"/>
	<path class="st0" d="M143.6,270c0.6,0.3,1.1,0.7,1.5,1.4V270h2.5v9.2c0,1.2-0.2,2.2-0.6,2.8c-0.7,1.1-2.1,1.6-4.2,1.6
		c-1.2,0-2.3-0.2-3-0.7c-0.8-0.5-1.2-1.2-1.3-2.2h2.8c0.1,0.3,0.2,0.5,0.3,0.6c0.3,0.2,0.7,0.3,1.4,0.3c0.9,0,1.5-0.3,1.8-0.9
		c0.2-0.4,0.3-1,0.3-2v-0.6c-0.2,0.4-0.5,0.7-0.8,0.9c-0.5,0.4-1.2,0.6-2,0.6c-1.2,0-2.2-0.4-3-1.3c-0.7-0.9-1.1-2-1.1-3.6
		c0-1.4,0.4-2.6,1.1-3.6c0.7-1,1.7-1.5,3-1.5C142.8,269.7,143.2,269.8,143.6,270 M144.5,276.9c0.4-0.4,0.6-1.2,0.6-2.1
		s-0.2-1.6-0.6-2.1c-0.4-0.5-0.9-0.7-1.6-0.7c-0.9,0-1.5,0.4-1.8,1.3c-0.2,0.4-0.3,1-0.3,1.6s0.1,1.1,0.3,1.5c0.3,0.8,1,1.2,1.8,1.2
		C143.6,277.6,144.1,277.4,144.5,276.9"/>
	<path class="st0" d="M158,278.5c-0.8,1-2.1,1.5-3.7,1.5c-1.7,0-2.9-0.5-3.7-1.5c-0.8-1-1.2-2.2-1.2-3.6s0.4-2.6,1.2-3.6
		c0.8-1,2.1-1.5,3.7-1.5c1.7,0,2.9,0.5,3.7,1.5c0.8,1,1.2,2.2,1.2,3.6C159.2,276.2,158.8,277.5,158,278.5 M156,277.1
		c0.4-0.5,0.6-1.3,0.6-2.2c0-1-0.2-1.7-0.6-2.2c-0.4-0.5-1-0.8-1.7-0.8c-0.7,0-1.3,0.3-1.7,0.8c-0.4,0.5-0.6,1.3-0.6,2.2
		c0,1,0.2,1.7,0.6,2.2c0.4,0.5,1,0.8,1.7,0.8C155,277.9,155.6,277.6,156,277.1"/>
	<polygon class="st0" points="104.1,229.2 104.1,233.5 110,233.5 112.8,235.9 116.2,233.5 122.1,233.5 122.1,229.2 112.8,235.3 	"/>
	<path class="st0" d="M110.6,234c0,0.9-0.8,1.6-1.9,1.6c-1,0-1.9-0.7-1.9-1.6v-0.5c0-0.9,0.8-1.6,1.9-1.6c1,0,1.9,0.7,1.9,1.6V234z"
		/>
	<path class="st0" d="M118,234c0,0.9-0.8,1.6-1.9,1.6c-1,0-1.9-0.7-1.9-1.6v-0.5c0-0.9,0.8-1.6,1.9-1.6c1,0,1.9,0.7,1.9,1.6V234z"/>
	<path class="st0" d="M199.5,90.9c0.3-0.1,0.6,0,0.8-0.2c0.5-0.2,1.1-0.5,1.4-1h-0.1c-0.1,0.1-0.2,0.2-0.4,0.3
		c-0.4,0.1-0.7,0.1-1,0.3l0,0c-0.2,0.1-0.4,0.2-0.5,0.3h-0.2v-0.1c0.2-0.2,0.4-0.3,0.6-0.4c0.4-0.2,0.8-0.2,1.1-0.4l0,0
		c0.1-0.1,0.4-0.1,0.3-0.3c-0.5-0.1-1.1,0.2-1.5,0.4c-0.3,0.1-0.6,0.3-0.8,0.5l0,0c-0.4,0.3-0.7,0.3-1,0.5c-0.1,0.1-0.4,0.2-0.5,0.3
		l0.2,0.1l0,0l0.1-0.1l0,0l0.1-0.1C198.6,90.9,199.1,90.8,199.5,90.9z"/>
	<path class="st0" d="M200.7,88.4c-0.3,0-0.6,0.2-0.8,0.4l-0.1,0.1c-0.5,0.2-1,0.8-1.1,1.4c0.2,0.1,0.4-0.2,0.5-0.3
		c0.4-0.3,0.8-0.5,1.1-0.8l0.1-0.2l-0.2,0.1l0,0l0,0c-0.4,0.1-0.6,0.4-0.9,0.6v-0.2C199.8,89.1,200.3,88.8,200.7,88.4L200.7,88.4z"
		/>
	<path class="st0" d="M201.7,90.6c-0.4,0.3-0.8,0.6-1.2,0.7c-0.1,0.1-0.3,0.1-0.5,0.1c-0.1,0.1-0.2-0.1-0.3,0v-0.1
		c0.1-0.1,0.2,0,0.3,0c0.5-0.2,1.1-0.3,1.5-0.8v-0.1c-0.2,0.1-0.5,0.2-0.7,0.4c-0.5,0.3-0.9,0.3-1.4,0.3c-0.2,0.1-0.4,0-0.6,0.2
		c0.3,0.1,0.6,0.2,0.9,0.3c0.2,0.1,0.4,0.1,0.6,0c0.1-0.1,0.2,0,0.3-0.1c0.2,0,0.4-0.2,0.6-0.2c0.2-0.1,0.3-0.2,0.5-0.3
		C201.6,90.8,201.9,90.7,201.7,90.6z"/>
	<path class="st0" d="M196.6,91.5c-0.1,0.1-0.4,0-0.5,0.1c-0.2,0-0.4,0.1-0.6,0.1l-0.2,0.1c-0.2,0-0.5,0.1-0.7,0.1h-0.1
		c-0.1,0-0.3,0-0.4,0l-0.1-0.1c0.1-0.1,0.3-0.1,0.4-0.2c0.3,0,0.6-0.1,0.9-0.1c0.6-0.2,1.2-0.1,1.7-0.4l0,0c-0.3,0-0.7-0.1-1,0
		c-0.1-0.1-0.3,0-0.4,0h-0.1c-0.6,0.1-1.3,0.3-1.9,0.5c-0.2,0.1-0.3,0.2-0.5,0.1c-0.3,0-0.5,0-0.8,0.1l0.3,0.1l0,0
		c0.2,0,0.3,0.1,0.5,0.1c0.3,0,0.6,0,0.9,0.1c0.1,0,0.2,0,0.3,0.1c0.3,0.2,0.6-0.1,0.8,0h0.3c0.1-0.1,0.3,0,0.4-0.1
		c0.3,0,0.5-0.1,0.7-0.2c0.3-0.2,0.7-0.2,0.9-0.5C197.3,91.3,196.9,91.4,196.6,91.5z"/>
	<path class="st0" d="M194.9,90.6L194.9,90.6c0.6-0.1,1-0.3,1.5-0.4c-0.3-0.2-0.7,0-0.9,0c-0.1-0.1-0.3,0-0.4,0
		c-0.5,0.1-0.9,0.3-1.3,0.6c-0.1,0.2-0.3,0.3-0.3,0.5h0.1c0.5-0.3,1-0.3,1.6-0.4c0.2,0,0.4,0,0.6-0.1c0.2,0,0.3-0.2,0.4-0.1l0.3-0.1
		l0.1-0.1c-0.1,0-0.3-0.1-0.4,0c-0.2-0.1-0.4,0.1-0.6,0.1S195.2,90.7,194.9,90.6c-0.2,0.1-0.4,0.2-0.6,0.1
		C194.5,90.7,194.7,90.6,194.9,90.6L194.9,90.6z"/>
	<path class="st0" d="M196.5,92.6c-0.3,0.1-1.3,0.2-1.3,0.2c-0.2,0-0.3,0-0.4-0.1l0.1-0.1h0.2c0.5-0.1,1-0.2,1.5-0.2
		c0.1-0.1,0.3,0,0.4-0.1h-0.2c-0.3-0.3-0.6,0.1-0.9,0c0,0-2.1,0-2.2,0.1c0.1,0.1,1,0.7,1.2,0.7c0.2-0.1,0.4-0.1,0.6-0.1
		c0.1-0.1,0.2,0,0.3-0.1c0.4,0,0.9-0.1,1.3-0.3C196.9,92.5,196.6,92.7,196.5,92.6z"/>
	<polygon class="st0" points="187.4,88 187.1,87.9 187.1,87.6 187.4,87.7 	"/>
	<path class="st0" d="M112.3,72.8v-0.9l-71-0.5l0.1,127h0.9l-0.8-0.1c0,0-0.1,0.7-0.1,1.8c0,2.5,0.6,7.2,4.5,11.7s10.9,8.5,23.5,9.8
		c15.3,1.6,23.9,1.9,29.6,3c2.9,0.5,5,1.3,7,2.4c2,1.2,3.8,2.8,6,5.1l0.3,0.3h0.4h0.4l0.3-0.3c2.2-2.4,4-4,6-5.1
		c3-1.7,6.4-2.5,11.9-3.1c5.6-0.6,13.3-1.1,24.7-2.3c12.6-1.3,19.7-5.4,23.5-9.8c3.9-4.5,4.5-9.2,4.5-11.7c0-1.1-0.1-1.8-0.1-1.8
		l-0.8,0.1h0.9l0.1-127l-71,0.6h-1l0,0l0,0V72.8v0.9h1l69.2-0.4l-0.1,125.4v0.1l0,0c0,0.1,0.1,0.7,0.1,1.5c0,2.2-0.5,6.5-4,10.6
		c-3.5,4-10.1,7.9-22.4,9.2c-15.2,1.6-23.8,1.9-29.8,3c-3,0.6-5.4,1.3-7.6,2.6c-2.2,1.3-4.2,3-6.4,5.4l0.6,0.6v-0.9h-0.1v0.9
		l0.6-0.6c-2.3-2.4-4.2-4.2-6.4-5.4c-3.3-1.9-7-2.7-12.6-3.3s-13.3-1.1-24.7-2.3c-12.3-1.3-18.9-5.2-22.4-9.2s-4-8.3-4-10.6
		c0-0.5,0-0.9,0-1.2c0-0.1,0-0.2,0-0.3v-0.1l0,0v-0.1L43,73.2l69.2,0.4l0,0L112.3,72.8L112.3,72.8z"/>
	<path class="st0" d="M157.7,146.6c-3.6,0.1-7.5-2.1-9.2-3.7c-1.7-1.6-6.4-4.5-8.5-7.5c-2.1-3.1-2.6-3.3-3.8-3.5
		c-1.2-0.2-2.3-1.5-2.8-4c-0.5-2.5-1.7-1.9-2.4-2.7c-0.7-0.8-0.3-5.5-0.7-10c-0.4-4.5-2.2-7.1-2.8-7.4s-1.1,1.7-1.7,1.2
		s-0.9-1.6-1.2-1.7c-0.4-0.1-1,1-1.3-0.5c-0.4-1.4-2.3-5-2.9-7.3c-0.6-2.4-0.2-5.3-0.6-6.8c-0.4-1.4-2.3-0.5-2.3-0.5
		c-0.7-1-8.1,1.1-8.4,2.4c-0.3,1.2-0.2,4.1-2.6,5.8c-2.4,1.7-2.4,3.4-2.9,5.1s-3.1,3.5-4.4,4.4c-1.2,0.9-1.6,3.1-2.1,4.1
		s-0.7,1-1.5-0.2c-0.9-1.2-1.8,0-1.9,0.8c-0.1,0.8-0.7,0.1-0.7,0.1c-1.7-0.9-1.9,2.5-1.9,2.5c0.5,5.8-0.9,10.1-2.9,12.3
		c-2,2.2-5.1,2.9-5.6,4s-2.7,2.3-3.7,2.8s-5.8,3.1-6.2,3.7c-0.4,0.6,0.3,2.2-2.4,3.2c-2.7,1-5.8,3.3-5.8,3.3l-0.8,1.2l45.9,1
		c3.3-1.4,9.3-3.4,7.6-4.8c-2.4-1.9,5.9-4.5,5.7-8.5c-0.1-1.8,2.4-1.3,1.9-3.1c-0.6-1.8,0.9-2.2-0.4-2.8c-1.3-0.6-1.4-4.6-1.4-4.6
		c0-10.2-3.8-13.3-4.3-14c-0.4-0.7-0.3-5-1.5-7.2c-1.1-2.2-0.5-5.4-0.6-7.3l1-3.3c0,0,1.1-1.1,1.2,0.8c0.1,1.9-0.2,6.1,0.9,8.3
		c1.1,2.2,2.7,5.3,3.1,6c0.4,0.7,0.9-0.3,1.3,0.3c0.4,0.6,0.5,0.9,1,1.1c0.4,0.2,1.5,0.4,1.6-0.2c0.1-0.7,0.7-0.4,1,0.7
		c0.4,1.1,1.7,3.4,1.7,13.6c0,0-0.2,2.5,1.1,3.1s1.4,0.6,2,2.3c0.6,1.8,0.4,2.3,1.7,3.5s2.6,0.2,3.5,1.9c0.9,1.6,3.5,4.7,5.9,6.6
		c2.4,1.9,7.3,5.2,8.3,6.1L123,149l34.6,0.8C158,149.9,161.3,146.5,157.7,146.6z"/>
	<g>
		<path class="st0" d="M124.2,161.5C124.2,161.6,124.1,161.6,124.2,161.5c2.2,0.6,4.2,1.3,5.7,2c0,0,0,0,0-0.1v-0.2
			c0-0.3,0.2-0.5,0.4-0.7c-0.5-0.3-1.1-0.5-1.6-0.7c-1.3-0.5-2.7-0.9-4.3-1.3C124.3,160.8,124.3,161.2,124.2,161.5z"/>
		<path class="st0" d="M121.9,161.2c0-0.1,0-0.2,0-0.3c0-0.3,0-0.7,0.1-0.9c-2.6-0.5-5.5-0.9-8.5-1c0,0.2,0,0.3,0,0.5
			c0,0.1,0,0.2,0,0.3v0.1c0,0.1,0,0.2-0.1,0.3C116.4,160.4,119.3,160.7,121.9,161.2z"/>
		<path class="st0" d="M132.1,164.3c-0.1,0.2-0.3,0.2-0.4,0.3c0.6,0.4,1.1,0.9,1.4,1.3c0.2-0.2,0.5-0.3,0.7-0.4
			c0.1,0,0.3-0.1,0.4-0.1c-0.2-0.3-0.5-0.6-0.9-0.9c-0.2-0.2-0.5-0.4-0.8-0.6C132.3,164,132.2,164.1,132.1,164.3z"/>
		<path class="st0" d="M130,171.3c0-0.2,0-0.4-0.1-0.4c0-0.1,0-0.1-0.1-0.2c-2.8,1.2-7.1,2-12.2,2.1c0.1,0.1,0.1,0.3,0.2,0.4
			c0.1,0.3,0.1,0.6,0.1,0.8c4.8-0.2,9-1.1,12-2.2C130,171.7,130,171.5,130,171.3z"/>
		<path class="st0" d="M115.6,173.9c-0.1-0.2-0.2-0.5-0.3-0.6c-0.1-0.1-0.1-0.2-0.1-0.4l0,0c-0.8,0-1.6,0-2.5-0.1
			c-4.2-0.2-8.2-0.7-11.4-1.6c-0.1,0.2-0.2,0.8-0.4,1.2c3.3,0.9,7.3,1.5,11.5,1.6c0.9,0,1.8,0.1,2.6,0.1c0.2,0,0.3,0,0.5,0
			C115.6,174.1,115.6,174,115.6,173.9z"/>
		<path class="st0" d="M98.7,171.1c0-0.2,0.1-0.3,0.2-0.5c-3.2-1-5.4-2.4-6.2-3.8l-0.3-0.3h-0.1c-0.2,0-0.5,0.1-0.7,0.2l-0.2,0.2
			c0,0.1-0.1,0.2-0.1,0.3c0,0,0,0.1-0.1,0.1c0.3,0.4,0.6,0.9,1.1,1.3c1.1,0.9,2.6,1.8,4.6,2.6c0.5,0.2,1.1,0.4,1.6,0.6
			C98.6,171.6,98.7,171.3,98.7,171.1z"/>
		<path class="st0" d="M134.7,167.6l-0.2-0.1c-0.2-0.1-0.4-0.1-0.4-0.1l0,0l0,0l-0.1,0.1c-0.1,0.1-0.2,0.1-0.4,0.1
			c-0.1,0.8-0.8,1.6-1.8,2.2c0.1,0.2,0.3,0.6,0.3,1.1c0.5-0.3,0.9-0.6,1.3-0.9C134.2,169.3,134.7,168.5,134.7,167.6L134.7,167.6z"/>
		<path class="st0" d="M101.8,160.4c0,0.1,0,0.2,0,0.4l0,0c2.6-0.4,5.6-0.6,8.9-0.6v-0.1c-0.1-0.3-0.1-0.6-0.1-0.9
			c0-0.1,0-0.1,0-0.2h-0.1c-3.3,0-6.4,0.3-9.1,0.7C101.5,159.8,101.7,160.1,101.8,160.4z"/>
		<path class="st0" d="M99.2,161c0-0.2-0.1-0.3-0.4-0.6c-0.1,0-0.1-0.1-0.1-0.2c-2.1,0.5-3.8,1.2-5.2,2c0.2,0.1,0.3,0.2,0.5,0.3
			c0.2,0.2,0.4,0.3,0.5,0.5c1.2-0.7,2.8-1.3,4.8-1.8C99.3,161.2,99.2,161.1,99.2,161z"/>
		<path class="st0" d="M92.7,164.4c0-0.1-0.1-0.2-0.3-0.3c-0.2-0.1-0.4-0.2-0.5-0.2h-0.2c0,0-0.1,0-0.1-0.1
			c-0.2,0.3-0.4,0.6-0.6,0.9c0.2-0.1,0.3-0.1,0.5-0.1c0.1,0,0.3,0,0.4,0.1c0.3,0.1,0.4,0.2,0.6,0.4c0.1-0.2,0.1-0.3,0.2-0.5l0,0
			V164.4z"/>
	</g>
	<g>
		<path class="st0" d="M132.8,188.5c-0.2,0-0.3-0.1-0.4-0.2c-0.1,0-0.1-0.1-0.2-0.2c-1.7,1.3-4.8,3.3-8.9,4.9
			c0.2,0.1,0.3,0.3,0.3,0.6v0.2C128.4,192,131.7,189.5,132.8,188.5z"/>
		<path class="st0" d="M92,188.8c0-0.1,0-0.2,0.1-0.3c-0.5-0.3-0.9-0.7-1.3-1v0.8c0.4,0.3,0.8,0.6,1.2,1C92,189.3,92,188.8,92,188.8
			z"/>
		<path class="st0" d="M121.2,194.6v-0.8c-2.5,0.8-5.2,1.3-8.2,1.4c-0.4,0-0.8,0-1.1,0c-1.9,0-3.6-0.2-5.3-0.4v0.5
			c0,0.2,0,0.3-0.1,0.4c1.7,0.3,3.5,0.5,5.4,0.5c0.4,0,0.7,0,1.1,0C116,196.1,118.7,195.5,121.2,194.6
			C121.2,194.7,121.2,194.7,121.2,194.6z"/>
		<path class="st0" d="M104.3,194.4c-4.1-1-7.5-2.7-10.2-4.5c0,0.2-0.2,0.4-0.3,0.5c0,0-0.1,0-0.1,0.1c2.7,1.9,6.2,3.8,10.6,4.9
			V194.4z"/>
	</g>
	<g>
		<path class="st0" d="M131.8,181c-1.2,0.5-3.1,0.8-4.3,0.9l-4.1,10.6c4.4-1.7,7.7-4,9.2-5.2L131.8,181z"/>
		<path class="st0" d="M105.6,193.1l10.3-18.6c-1.2,0-2.3,0-3.5,0c-4.5-0.2-8.6-0.8-12-1.8L105.6,193.1z"/>
		<path class="st0" d="M131.2,176.2l-0.4-3.1l-1.4,3.5C130.1,176.7,130.8,176.5,131.2,176.2z"/>
		<path class="st0" d="M115.1,178.7c0.8,0.2,1.7,0.2,2.4,0.1l-0.8-3.1L115.1,178.7z"/>
		<path class="st0" d="M126.2,182L126.2,182l3.9-9.9c-3.2,1.3-7.6,2.1-12.7,2.3l-0.1,0.1l4.9,17.2L126.2,182z"/>
		<path class="st0" d="M132.1,175.8L132.1,175.8l0.6,4.6l0,0l0.8,6.2l0,0l1-17.4c-0.6,0.9-1.6,1.7-3,2.4L132.1,175.8z"/>
		<path class="st0" d="M91,172.6l-0.5-5l0,0v4.8C90.5,172.4,90.7,172.5,91,172.6z"/>
		<path class="st0" d="M91.5,177.8c-0.4-0.1-0.8-0.2-1-0.5v9.3c0.6,0.5,1.2,1,1.9,1.5L91.5,177.8z"/>
		<path class="st0" d="M93.6,186.6l5.3-13.8l-0.1-0.4l0.3-0.1c-3.3-1-5.8-2.3-7.2-3.8l0.4,4.1l0,0l0.5,5.3l0,0L93.6,186.6z"/>
		<path class="st0" d="M118.9,184.1c-2.5,0.6-5.2,0.2-6.8,0l-5.6,10.1c2,0.4,4.2,0.5,6.5,0.5c3-0.1,5.8-0.7,8.2-1.4L118.9,184.1z"/>
		<path class="st0" d="M99.9,176.7l-0.6-2.3l-0.8,2.2C98.9,176.6,99.4,176.6,99.9,176.7z"/>
		<path class="st0" d="M101.6,182.7c-1.3-0.2-3.6-0.6-4.8-1.4L94,189c2.7,1.9,6.3,3.7,10.7,4.8L101.6,182.7z"/>
	</g>
	<g>
		<path class="st0" d="M52.9,93.7v-8.4h-1.2h-0.1c-0.5,0-0.7,0.1-0.8,0.3c-0.2,0.1-0.2,0.2-0.2,0.3l0,0l0,0l0,0v7.6v0.1l0,0
			c0.1,0,0.2,0.1,0.6,0.1h0.2l0,0C51.6,93.7,52.2,93.7,52.9,93.7z"/>
	</g>
	<g>
		<path class="st0" d="M57.8,82.6c-0.2,0.4-0.5,0.8-0.8,1.1c-0.7,0.7-1.3,1.1-1.3,1.1h-0.2h-1.7c-0.2,0-0.3,0.1-0.3,0.1l0,0l0,0l0,0
			V85l0,0v8.7c0.2,0,0.4,0,0.6,0c1.2,0,2.6,0,3.7,0V82.6z"/>
	</g>
	<g>
		<path class="st0" d="M58.3,84.7v9c0.7,0,1.3,0,1.6,0c0.1-0.5,0.5-1.7,1.5-2.9c1.2-1.6,3.3-3.2,6.8-3.2l0,0h0.2l0,0
			c3.5,0,5.6,1.6,6.8,3.2c0.9,1.2,1.3,2.4,1.5,2.9c0.3,0,0.9,0,1.6,0v-9H58.3z"/>
	</g>
	<g>
		<path class="st0" d="M65.4,84.1l-3-6.4c0,0-0.1,0-0.2,0c-0.3,0-0.9,0.2-2.1,1c-1.6,1.1-1.8,1.8-1.8,2v0.1l0,0l0,0v0.1l0,0v3.3
			L65.4,84.1L65.4,84.1z"/>
	</g>
	<g>
		<path class="st0" d="M78.3,80.6c0-0.2-0.1-0.8-1.8-2c-1.2-0.8-1.9-1-2.1-1l0,0l-3,6.5h6.9v-3.3l0,0V80.6L78.3,80.6L78.3,80.6z"/>
		<path class="st0" d="M73.7,77.7L73.7,77.7L73.7,77.7L73.7,77.7L73.7,77.7L73.7,77.7l-0.1-0.4c-0.1-0.2-0.2-0.4-0.5-0.7
			c-0.6-0.5-1.8-1-4.4-1c-0.1,0-0.2,0-0.3,0l0,0h-0.2l0,0c-0.1,0-0.2,0-0.3,0c-2.4,0-3.7,0.5-4.3,1C63.1,77,63,77.3,63,77.5l3.1,6.7
			h4.7L73.7,77.7z"/>
	</g>
	<path class="st0" d="M156,112.9c0,0-4.8,1.6-5.2,6.1C150.8,119,156.2,117.1,156,112.9"/>
	<path class="st0" d="M155.8,110.3c0,0-5.9,3.2-6.1,6.5c0,0,5.9-2.3,6.6-5.4s0-0.1,0-0.1L155.8,110.3z"/>
	<path class="st0" d="M156.6,109.8c0.1,0,1.4,0.2,2.6,3c1.2,2.8,1.2,5.2,1.2,5.3c0,0.1-3.5-1.6-4.4-6.3L156.6,109.8z"/>
	<path class="st0" d="M155.6,117.5c0,0,3.6,3.8-1.3,11.8c0,0,0.4-3.2,0.1-4.4C154.2,123.8,153.3,118.2,155.6,117.5"/>
	<path class="st0" d="M155.6,117.5c0,0,1.9,4.9-5.7,10.4c0,0,1.6-2.8,1.8-4C151.9,122.7,153.2,117.3,155.6,117.5"/>
	<path class="st0" d="M130,87c0,0,3.5-0.9,7.3,2.9c3.9,3.8,7.6,6.7,10.1,6.7c0.2,0-0.3,1.1-0.3,1.1s-4.5-1.4-7.8-4.3
		c-3.3-3-5.8-2.8-7.9-4.4C129.3,87.3,130,87,130,87"/>
	<path class="st0" d="M139.2,87.2c0,0,4,2.1,4.1,8.5C143.3,95.6,140.6,94.2,139.2,87.2"/>
	<path class="st0" d="M142.7,95.2c0,0-0.6,2.3-4.8,2.4c-4.2,0-5.6-1-5.7-1c-0.1,0,3.1-1,3.7-1.4C136.5,94.9,139.6,93.1,142.7,95.2"
		/>
	<path class="st0" d="M146.6,99c0,0-3-0.5-3.6-1c-0.7-0.5-1-1-1.8-0.5c-0.8,0.5-0.3,1.1,0.3,1.2c0.7,0.1,1.3-0.2,1.8,0.1
		c0.5,0.3,0.6,0.4,0.6,0.4s-0.5,0.4-1.3,0.3c-0.7-0.1-1.4-0.2-1.8,0.6c-0.4,0.8,0.6,1.4,1.2,1.1c0.6-0.3,0.6-0.8,1.3-1.1
		c0.7-0.3,2.4-0.6,3.1-0.7C147.2,99.4,146.6,99,146.6,99"/>
	<path class="st0" d="M140.6,92.8c0,0-2.4-3.5-2.7-5.3c0,0,0.8-0.9,0-1.6c-0.8-0.8-1.5,0.1-1.2,0.8c0.3,0.6,0.9,1.3,0.9,1.3
		s1.6,2.4,1.2,3.5C138.3,92.5,140.6,92.8,140.6,92.8"/>
	<path class="st0" d="M168.3,90.8c0,0,2.7-3,5.6-3.3C173.9,87.5,172.7,89.4,168.3,90.8"/>
	<path class="st0" d="M166.9,91.8c0,0-1.4-2.8-0.1-6.2C166.8,85.6,168.7,87.6,166.9,91.8"/>
	<path class="st0" d="M167.7,91.1c0,0,0-2.5,2.4-5.7C170.1,85.3,171.3,87.5,167.7,91.1"/>
	<path class="st0" d="M166.3,94c0.1-0.1,2.1-0.3,2.6-0.1c0,0,0.8-0.7,1.4-0.3c0.5,0.4,0.7,0.8,0.4,1.3c-0.2,0.5-1.3,0.7-1.9-0.2
		c-0.6-0.9-2.2-0.1-2.2-0.1L166.3,94z"/>
	<path class="st0" d="M160.4,119.2c-0.6-0.1-1-0.1-1-0.1c-0.1,0-1.5-0.3-1.9-1.3s-0.9-1.7-0.9-1.7s0.2-4.4,0.3-5.9
		c0.1-1.3,0.2-3,0.6-4.5c-0.3,0-0.6,0-0.9,0c-0.1,1-0.3,2.5-0.6,2.9c0,0-2.4,0.3-3.2,0.7c0,0-0.5,0.1-1,0c-0.5-0.1-1.3,0.6-1,1.1
		c0.4,0.5,1,0.7,1.3,0.3c0.3-0.4,0.2-0.6,0.7-0.9c0.5-0.3,2.4-0.7,3-0.6c0,0-1.4,3.7-0.6,7.8c0,0,0,0.3,0.1,0.6
		c0.1,0.3,0.1,0.6,0.1,0.6s0.7-1.2,0.6-1.6c0,0,0.1-0.2,0.4,0.4c0.3,0.6,0.6,1.7,0.7,2.1c0.2,0.4,0.5,1,0.4,1.5
		c0,0.5-0.1,1.2,0.9,1.2c0,0,0.8-0.7-0.2-1.3c0,0-0.4-0.6-0.4-1.5c0,0,1,0.2,1.5,0.6c0,0,0.1,0.4,0.3,0.6c0.2,0.2,0.8,0.2,1.1-0.1
		C161.1,120.1,161,119.3,160.4,119.2z"/>
	<path class="st0" d="M148.9,93.3c-1.1,1-2.6,6-2.6,6l0.1,0.3c0.3,0,0.6,0,1,0.1c1.3,0.2,8,0.6,10.8,0.3c2.8-0.3,6-1.2,6-1.2
		s2.1-0.7,3.6-0.8v-0.1c-1.5-8.6-4.5-7.8-7.2-11.7c-2.7-3.9-6.7-4.3-9.4-3.8c-2.6,0.4-5.7,3.8-5.5,7.6
		C146,93.5,148.9,93.3,148.9,93.3z"/>
	<path class="st0" d="M164.2,98.7l0.2,0.5c0,0,0.1,0,0.4-0.1c0.8-0.2,2.5-0.7,3.5-0.7c0.2,0,0.4,0,0.5,0.1h0.1l0.1-0.1h-0.1l0,0
		l0.1-0.1h-0.1c0.1,0.1,0.1,0.3,0.1,0.4c0,0.3-0.1,0.6-0.2,0.9c-0.1,0.4-0.3,0.8-0.3,1.3c0,0.2,0,0.3,0.1,0.5
		c0.1,0.4,0.2,0.8,0.2,1.2c0,0.4-0.1,0.7-0.2,1c-0.2,0.3-0.4,0.6-0.9,0.9c-0.1,0.1-0.4,0.2-0.9,0.3c-1.4,0.2-4,0.3-6.6,0.3
		c-1.8,0-3.6,0-5.1,0c-1.2,0-2.2,0-3,0.1c-1.5,0.1-2.9,0.2-4,0.2c-0.6,0-1.1,0-1.4-0.1c-0.2,0-0.2-0.1-0.3-0.1l0,0
		c0-0.1-0.1-0.2-0.1-0.3c0-0.2,0-0.3,0.1-0.5c0.1-0.2,0.2-0.4,0.2-0.8c0-0.1,0-0.3-0.1-0.5c-0.2-0.5-0.5-0.8-0.7-1.1
		c-0.2-0.3-0.4-0.6-0.4-0.8c0-0.1,0-0.2,0.1-0.3c0.3-0.4,0.5-0.7,0.6-0.8c0.1-0.1,0.2-0.1,0.5-0.1c0.2,0,0.4,0,0.7,0.1
		c0.5,0.1,1.7,0.2,3.1,0.3c1.4,0.1,3.1,0.1,4.7,0.1c1.2,0,2.4,0,3.2-0.1c2.9-0.3,6.1-1.2,6.1-1.2l0,0l0,0L164.2,98.7l-0.1-0.6
		c0,0-0.2,0.1-0.5,0.1c-1,0.3-3.3,0.8-5.4,1c-0.8,0.1-1.9,0.1-3.1,0.1c-1.5,0-3.2-0.1-4.6-0.1c-1.4-0.1-2.6-0.2-3-0.2
		c-0.3-0.1-0.6-0.1-0.9-0.1c-0.4,0-0.9,0.1-1.2,0.4s-0.6,0.6-0.8,1c-0.2,0.3-0.3,0.6-0.3,0.9c0,0.6,0.3,1.1,0.6,1.5s0.5,0.7,0.5,0.8
		v0.1c0,0.1,0,0.2-0.1,0.4c-0.1,0.2-0.2,0.5-0.2,0.8c0,0.2,0,0.4,0.1,0.6c0.1,0.3,0.2,0.5,0.4,0.6c0.3,0.2,0.7,0.3,1,0.4
		c0.4,0.1,0.8,0.1,1.3,0.1c1.1,0,2.5-0.1,4.1-0.2c0.7-0.1,1.7-0.1,2.9-0.1c1.5,0,3.3,0,5.1,0c1.8,0,3.5,0,4.9-0.1
		c0.7,0,1.3-0.1,1.9-0.2c0.5-0.1,0.9-0.2,1.3-0.4c0.6-0.4,1-0.8,1.3-1.3s0.3-1,0.3-1.5s-0.1-1-0.2-1.5v-0.3c0-0.3,0.1-0.6,0.2-1
		s0.3-0.8,0.3-1.3c0-0.3,0-0.6-0.2-0.8c-0.1-0.4-0.5-0.6-0.7-0.6c-0.3-0.1-0.6-0.1-0.9-0.1c-0.9,0-1.9,0.2-2.7,0.4
		c-0.8,0.2-1.5,0.4-1.5,0.4L164.2,98.7l-0.1-0.6L164.2,98.7z"/>
	<path class="st0" d="M144.8,225.9c-0.1-0.1-0.3-0.2-0.4-0.2h-0.1l-3.3,0.2l-0.2,0.2c0,0-0.1,0.1-0.2,0.2c-0.4,0.6-1.4,2-2.8,3.3
		c-1.3,1.3-3,2.6-4.5,2.8c-0.7,0.1-1.4,0.2-2,0.2c-1.3,0-2.4-0.3-3.1-0.7c-0.5-0.3-0.7-0.6-0.9-1c0.1,0.2,0.3,0.3,0.5,0.4
		c0.2,0.1,0.4,0.1,0.7,0.1c0.6,0,1.1-0.2,1.6-0.6c0.5-0.4,0.9-0.9,0.9-1.7V229c0-0.6-0.2-1.3-0.6-1.8c-0.4-0.5-1.1-0.9-2-0.9
		c-0.4,0-0.8,0.1-1.2,0.2c-0.2,0-0.3,0.1-0.5,0.2c-1.9-0.3-5.3,0.6-5.4,4.4c-0.1,4.5,4.8,5.1,4.8,5.1c1.5,0.1,2.9,0.1,4.2-0.1
		c0.3,0,0.6,0,0.8,0c3.3,0,7-1.9,9.8-5.2c1.8-2.1,2.8-3.2,3.3-3.9c0.3-0.3,0.4-0.5,0.5-0.6l0.1-0.1v-0.1v-0.1c0,0,0-0.1,0.1-0.3
		C144.9,226.2,144.9,226.1,144.8,225.9z M127.4,229.5L127.4,229.5c0,0,0-0.1,0.1-0.1c0.1-0.1,0.2-0.1,0.3-0.2
		C127.6,229.3,127.5,229.4,127.4,229.5z M140.1,230.5c-2.7,3.1-6.1,4.8-9,4.8c-1.5,0-2.8-0.5-3.9-1.4c-1.3-1.2-1.8-2.3-1.8-3.3
		c0-1.4,0.9-2.5,2-2.8c0.4-0.1,0.7-0.2,0.9-0.2c0.6,0,0.9,0.2,1.1,0.5s0.4,0.7,0.4,1.1l0,0c0,0.3-0.2,0.5-0.4,0.8
		c-0.3,0.2-0.7,0.3-0.9,0.3h-0.2h-0.1l0,0l0.1-0.2l0,0l0,0l0,0c0.3,0,0.6-0.1,0.8-0.3c0.2-0.2,0.2-0.4,0.2-0.6v-0.1l0,0l0,0l0,0l0,0
		c-0.1-0.3-0.3-0.6-0.5-0.8c-0.3-0.2-0.6-0.3-0.9-0.3c-0.5,0-0.9,0.2-1.3,0.6c-0.4,0.4-0.6,1-0.6,1.8l0,0c0,1.1,0.6,2.1,1.6,2.6
		c1,0.6,2.2,0.9,3.7,0.9c0.7,0,1.5-0.1,2.2-0.2c2.2-0.4,4.2-2.1,5.7-3.7c1.2-1.2,2-2.4,2.3-2.9l1.4-0.1
		C142.5,227.6,141.6,228.7,140.1,230.5z"/>
	<g>
		<path class="st0" d="M113.4,66.9l-86-45.6L25,15.2L8.6,9.8l11.1,13.5l7.2-0.6c0,0-28.1,28.1-18.4,73.4
			c4.1,18.9,13.7,31.8,23.5,40.4v-0.8l0,0c0-0.1,0-0.1,0-0.2c0-0.1,0-0.3,0-0.4c0-0.9,0.4-2,0.9-3.2c0.5-1.2,1.1-2.5,1.7-3.7
			c1.2-2.4,2.5-4.5,2.5-4.5v-0.1v-5.9l-0.8-1.2l0.8-0.8v-2.3l-5.2-4.3L35,107l-5.1-6.1l2.6-1l-4.8-5.8h4.1L26.3,86h5.1l-4.6-4.9
			l4-0.4l-6.2-7.2l4.5,0.5L24,65.7l5.4,1.9l-4.3-7.7l4.8-1.5l-4.4-6.3l5.9-1.8l-4.2-6.4l4.4-2.3l-1.2-10.8l6.3,7.7l3.3-3.1L40,40.5
			l5.1-4l0.4,5.3l6.1-3l-1.9,5.9l7.4-2.8L56,47.3l7.1-2.3L62,51.7l7.1-4.4l-0.9,5.8l7-0.9c0,0-1.4,5.1-1.1,5.3s6.6-1.8,6.6-1.8
			l-1,6.6l6.4-2.9l-0.8,5.5l5.8-0.7l-0.8,2.3h23V66.9z M22.4,18.9l-1.6,2.5l-7.2-8.2L22.4,18.9l1.5-2.3l1.4,4.1L22.4,18.9z"/>
	</g>
	<path class="st0" d="M97.7,228.8c0.2,0,0.3,0.1,0.5,0.1c0.4,0.1,0.8,0.2,1.1,0.2C98.9,228.4,98,228.5,97.7,228.8z"/>
	<path class="st0" d="M99.6,226.9c-0.2-0.1-0.3-0.1-0.5-0.2c-0.4-0.1-0.9-0.2-1.2-0.2c-0.9,0-1.6,0.4-2,0.9
		c-0.4,0.5-0.6,1.2-0.6,1.8v0.1c0,0.7,0.4,1.3,0.9,1.7s1.1,0.6,1.6,0.6c0.2,0,0.4,0,0.7-0.1c0.2-0.1,0.4-0.2,0.5-0.4
		c-0.2,0.4-0.4,0.7-0.9,1c-0.7,0.4-1.8,0.7-3.1,0.7c-0.6,0-1.3-0.1-2-0.2c-1.7-0.3-3.6-1.8-5-3.3c-0.7-0.8-1.3-1.5-1.6-2
		c-0.2-0.3-0.4-0.5-0.5-0.7l-0.1-0.2v-0.1l-0.2-0.3h-0.3l-3.1-0.1c0,0-0.1,0-0.2,0c-0.1,0-0.3,0-0.4,0.2c-0.1,0.2-0.1,0.3-0.1,0.4
		c0,0.1,0,0.2,0,0.2l0.1,0.1l0.2,0.3h0.1c0,0,0,0,0.1,0.1c0.4,0.4,1.3,1.5,3.6,4.1c2.9,3.3,6.5,5.2,9.8,5.2c0.3,0,0.6,0,0.8,0
		c1.2,0.2,2.6,0.2,4.2,0.1c0,0,4.9-0.6,4.8-5.1C104.9,227.6,101.5,226.6,99.6,226.9z M98.8,229.5c-0.1-0.1-0.2-0.2-0.3-0.3
		c0.1,0,0.2,0.1,0.3,0.2C98.8,229.4,98.9,229.5,98.8,229.5C98.9,229.5,98.9,229.5,98.8,229.5z M99.4,234.3c-3.4,3-9.4,1.5-13.7-3.5
		c-3.1-3.6-3.7-4.2-3.8-4.4l0,0l0,0l3.2,0.1c0,0,3.6,5.8,7.6,6.5s6.9-0.5,6.9-2.8s-2-2.1-2.1-1.1c0,0-0.1,0.3,0.5,0.4
		c0.5,0,1,1,0.2,1.4c-0.8,0.3-2.4-0.4-2.4-1.6c0-1.2,0.9-2.7,3.2-2C101.2,228,102.7,231.3,99.4,234.3z"/>
	<g>
		<path class="st0" d="M187.9,66.9C187.9,66.9,187.9,66.8,187.9,66.9c-0.2-0.2-0.3-0.1-0.4,0H187.9z"/>
		<path class="st0" d="M189.4,87.4c-0.2-0.2-0.4-0.3-0.5-0.4c-0.1-0.1-0.3-0.3-0.4-0.5c-0.1,0-0.1-0.1-0.2-0.2v1.1
			c0.1,0.1,0.3,0.3,0.3,0.5s0.3,0.4,0.6,0.5c0.2,0.1,0.3-0.1,0.1-0.3c-0.2-0.2-0.5-0.3-0.4-0.5c0.1-0.1,0.3,0,0.5,0.2
			c0.1,0.2,0.3,0.5,0.4,0.5c0.1,0,0.1-0.3,0-0.5C189.6,87.7,189.6,87.6,189.4,87.4z"/>
		<path class="st0" d="M204.9,76.9c-0.3-0.4-0.5-1.7-0.5-3.1c-0.1-1.4-1.1-2.9-1.5-3.6c-0.4-0.8-0.9-0.4-1.1-0.7
			c-0.2-0.3-0.4-0.4-0.7-0.5c-0.3-0.1-0.7,0.2-0.9,0.5c-0.2,0.3,0.1,0.8,0.3,1.6c0.1,0.8-1,1.5-0.6,1.2c0.3-0.4,0.3-1.3,0.1-1.5
			c-0.2-0.2,0-0.7-0.3-1.2s-0.1-0.4,0.2-0.9c0.2-0.5-0.2-0.3-0.4-0.2c-0.2,0.1-0.9,0.1-0.5-0.2c0.4-0.2,0.6-0.8,0.4-0.6
			c-0.3,0.3-0.9,0.3-0.9,0.3s0.1-0.3,0.3-0.5c0.2-0.1,0.2-0.5-0.2-0.2c-0.4,0.2-0.6,0.2-0.6,0.2c0.4-0.4,0.2-0.5-0.2-0.3
			c-0.3,0.2-0.8,0.1-1.3,0c0-0.1-0.1-0.1-0.1-0.2c-0.1-0.2-0.2-0.2-0.2-0.2c-0.4-0.5-0.3-1.1,0.1-1.1c0,0-0.5,0.3,0.3,0.7
			c0.5,0.3,0.7,0.3,0.7,0.2h0.1c0,0-0.2-0.4-0.5-0.4s-0.3-0.3-0.3-0.3s0.6,0,0.7,0c0.1,0,0.2,0.4,0.5,0.4l0.3-0.3l0.3-0.4
			c0,0,0-0.3-0.2-0.3c-0.2,0-0.1-0.1-0.2,0c-0.1,0.1-0.5,0.1-0.6,0.2c-0.1,0,0.1-0.2,0.2-0.2c0.1,0-0.1-0.1-0.3-0.2
			c-0.2,0-0.7-0.1-0.9-0.2c-0.2,0-0.7-0.1-1,0.3c-0.3,0.3-0.7,1.1-0.7,1.4c0,0.2,0.4,0.7,0.5,0.8l0,0c-0.1,0-0.2,0.1-0.2,0.1
			c0-0.3-0.8-0.8-1.5,0c-0.4,0.5-0.3,0.9-0.1,1.2h-0.1c-0.4-0.1-1.4-0.5-2.6,0.6c-1.3,1.1-0.6,2.4-0.6,2.4s1.1,1.3,0.9,1.5
			c-0.2,0.2-0.4,0.3-0.4,0.3s-1.8-0.4-2-1.4c-0.2-1,0.2-0.8,0.5-1.1c0.2-0.3,0.6-0.6,0.6-1.6s1.1-0.6,1.6-1c0.5-0.4,0.7-1,0.6-1.5
			s0.2-0.1,0.1-0.3c-0.1-0.2-0.3-0.6-0.4-0.8c-0.1-0.2,0-0.4-0.1-0.5c-0.1-0.1-0.3-0.3-0.4-0.2c-0.2,0.1-0.4,0.3-0.5,0.6
			c0,0.3-0.1,0.8,0.1,1s0.3,0.3,0.4,0.3c0.2,0,0.2,0.2-0.1,0.4c-0.3,0.1-0.5,0.5-0.8,0.5s-0.7,0.1-1,0.3c-0.3,0.2-0.5,0.4-0.6,0.9
			c-0.1,0.6,0,1-0.3,1.4c0,0,0,0-0.1,0.1v14.1c0.2,0.3,0.3,0.6,0.4,0.7h0.1c0,0,0,0,0,0.1s-0.1,0.4,0.4,0.4c0.1,0,0.1,0,0.2,0
			c0.1,0.3-0.1,0.5-0.3,0.7c-0.2,0.2,0,0.3,0.4,0.3s0.8,1.2,1,1.3c0.2,0.1,0.3,0.8,0.3,0.7c0-0.1,0.3-0.2,0.5-0.2
			c0.2,0,0.4,0.2,0.5,0.3c0.1,0.1,0.4,0.3,0.6,0.4c0.1,0.1,0-0.1-0.1-0.4c0-0.3,0.2-0.3,0.1-0.5c0-0.1,0.3,0,0.5,0.1
			c0.2,0.1,0.5,0.1,0.6,0s0.3,0.1,0.3,0.3c0,0.2,0.1,0.2,0.1,0.3c0.1,0.1,0.1,0.1,0.3,0c0.2-0.1,0-0.2,0.3-0.3
			c0.2-0.1,0.2-0.1,0.4-0.1c0.1,0,0.5,0.2,0.6,0.3c0.1,0.1,0.2-0.2,0.2-0.4c0-0.1-0.1-0.2-0.3-0.2c0.2-0.1,0.3-0.2,0.5-0.2
			c0.6-0.2,0.3-0.5,2.3-1.3c2-0.7,2.5-1.7,2.8-2.1s0.4-0.3,0.7-0.1c0.3,0.2,0.4-0.3,0.4-0.3c2-2.7,2.6-6.1,2.5-6.5s0-0.9,0.2-0.8
			C204.9,77.2,205.3,77.3,204.9,76.9z M194.1,68.3c0.5-0.5,0.5-0.1,1,0.2c0.2,0.1,0.5,0.3,0.7,0.4c-0.1,0.1-0.1,0.2-0.1,0.2
			c-0.2-0.1-0.3-0.2-0.4-0.3c-0.1-0.1-0.3,0-0.3,0.1c-0.3-0.1-0.7-0.3-1.1-0.4C193.9,68.6,194,68.5,194.1,68.3z M189.6,74
			c-0.2,0-0.4,0.1-0.7,0s-0.3-0.3-0.3-0.5C188.8,73.7,189.2,73.9,189.6,74z M189.8,78.3c-0.3,0.6-0.2,1-0.4,1.2s-0.4,1.1-0.5,1.3
			l0,0c-0.1-0.3-0.1-1-0.2-1.1c0,0-0.1-0.2,0-0.3c0.1-0.2,0.1-0.2,0.2-0.5c0.2-0.3,0.2-0.6,0-0.5c-0.2,0.1-0.3,0.1-0.3-0.2
			c0-0.3-0.3-0.4-0.1-0.7l0,0c0,0,0,0,0.1,0.1c0.6,0.4,0.2,0.9,0.6,0.9C189.5,78.6,190.1,77.7,189.8,78.3z M189.9,74.2L189.9,74.2
			c0.1,0,0.3,0,0.5,0l0,0C190.2,74.4,190.1,74.5,189.9,74.2z M191.5,86c-0.3,0.1-1-0.1-1.3-0.3c-0.2-0.2,0-0.4,0.2-0.5
			c0.3-0.1,0.3-0.2,0.2-0.5c-0.1-0.3-0.3-1-0.6-1.6V83c0-0.2,0.1-0.4,0.3-0.4c0.2,0,0.5-0.3,0.5-0.3c-0.2,0.5-0.3,1.3-0.3,1.5
			c-0.1,0.2,0.3,0.4,0.4,0.6s0.1,0.7,0.3,0.9c0.2,0.3,0.2-0.3,0.3,0.1c0,0.2,0.1,0.3,0.2,0.5C191.7,85.9,191.6,86,191.5,86z
			 M192,71.9c-0.1-0.2-0.3-0.4-0.5-0.6c0,0-0.9-1,0.6-1.7c0,0,1.8,0.5,2.1,0.5c-0.1,0-0.1-0.1-0.1-0.1c0.2,0.1,0.2,0.1,0.1,0.1
			c0.3,0.1,1.3,0.4,2,0l0.1-0.1l0,0c0.1,0.2,0.1,0.3,0,0.4c-0.1,0-0.3,0.1-0.6,0c-0.4,0-0.5,0.4-1.1,0.4s-0.2,0.2-1.1,0.2
			C192.9,71,192.5,71.4,192,71.9z M198.8,84.6c-0.2,0.6-2,2.2-3.5,3.1c-0.4,0.2-0.7,0.4-0.9,0.5l0,0c-0.1-0.2,0,0,0.1-0.2
			c0.1-0.2-0.3-0.2-0.6,0s-0.3,0.1-0.3-0.1c0-0.3-0.5-0.2-0.6-0.3c-0.1,0-0.2-0.2-0.1-0.3v-0.1c0.1,0.1,0.2,0.2,0.3,0.2
			c0.4,0.2,0.4,0,0.6-0.2c0.2-0.2,0.3-4.9,0.3-5.7c0-0.8-0.3-0.7,0-0.9c0.3-0.2,1.1-1.2,1.3-1.4c0.1-0.2,0.2-0.4,0.4-0.4
			c0.3,0,0.4,0,0.1,0.2c-0.3,0.2,0,1.6,0,1.9s-0.7,1.5-0.7,1.9s-0.1,0.4,0.3,0.1c0.3-0.3,1-1.3,1-1.3c0.3,0.4-0.3,1.3-0.6,1.7
			c-0.4,0.4-1.3,1.3-0.6,1.2c0.7-0.1,2.1-2.1,2.1-1.8c0,0.3-0.4,0.6-0.7,1s-0.9,1-1.5,1.9c-0.6,0.8-1,1.1-0.8,1.1
			c0.2,0,0.9-0.5,1.6-1c0.7-0.5,2-1.6,1.7-1.3c-0.2,0.3-1.2,1-1.4,1.4s-1.3,1.2-1.5,1.4c-0.3,0.2-0.6,0.5-0.4,0.5
			c0.2,0.1,1.2-0.7,2.5-1.4C198.3,85.5,199,83.9,198.8,84.6z"/>
	</g>
	<path class="st0" d="M183.1,66.9c0.2-0.1,0.5-0.3,0.7-0.4s0.3,0.1,0.5,0.1l0.3,0.1c0.1,0,0.3,0,0.3-0.2c-0.1-0.2-0.3-0.3-0.3-0.4
		c0.2,0,0.3,0.1,0.5,0.1c0.2,0.2,0.4,0,0.6,0c0.4-0.2-0.2-0.3-0.2-0.5c0.2-0.1,0.5,0,0.6-0.2c0.7-0.4-0.3-0.4-0.3-0.8
		c-0.2-0.2-0.5-0.1-0.7,0c-0.1,0-0.3,0.1-0.4,0l0.1-0.2l-0.1-0.2c-0.3,0-0.6,0.2-0.7,0.5c-0.1,0.1-0.1,0.2-0.3,0.2
		c0-0.1-0.1-0.3-0.2-0.4c-0.2,0.1-0.3,0.2-0.4,0.4c0,0.2,0.1,0.5,0,0.8c-0.4,0.2-0.1,0.7-0.4,1c0,0.1-0.1,0.2-0.2,0.2L183.1,66.9
		L183.1,66.9z"/>
	<path class="st0" d="M50.1,66.9l0.1-0.2c0.2-0.2,0.5-0.3,0.8-0.5l1.3-1.3l0,0l-1.6,0.9c-0.3,0.2-0.5,0.7-0.7,1.1H50.1z"/>
	<path class="st0" d="M52.3,66.9c0.3-0.3,0.5-0.6,0.5-1.2L51,66.9H52.3z"/>
	<path class="st0" d="M44.4,66.9c0.4-1.2,1.2-2.4,2.7-3.3c3.7-2.1,5.9-1.8,9.6,3.3h0.9c-4.2-6.2-6.5-6.6-10.5-4.4
		c-1.9,1.1-2.7,2.8-2.9,4.4H44.4z"/>
	<g>
		<polygon class="st0" points="37.1,78.4 31.3,76.5 37.1,80.4 		"/>
		<polygon class="st0" points="37.1,71.7 30.7,71.1 37.1,75.1 		"/>
		<path class="st0" d="M37.1,69.9v-3.1h5.4c-0.4-1.7-0.5-3-0.4-4.1c1.3,0.1,2.6-0.9,2.9-1.1c0.3-0.2,7.6-5.2,8.6-5.9
			c4.5,1.6,10.7,7.3,14.3,11h5.7l4.8-8.7l-11.9,6.8l6.5-11.5l-9.2,4.6l3.8-8.4L58.5,55l3.2-8.8l-10.2,8.9l3.7-11.2l-6.1,4.2l0.3-2.5
			l-2.3,1.9l0.6-6.4l-2.8,3.8l-0.3-5.1L41,45.9l-2.3-6.5v5l-5.1-4.6l3.6,9.4h-0.2l4.6,6.6l-3.8-8.4l4.9,7.2L39.8,45l4.7,8l-2.8-8
			l4.4,7.5l-2.9-8l4.2,7.4l-2.2-6.6l3.2,6.1v-3.7l2.9,5.1c-2.8,0.6-9.5,5.6-9.8,5.7c-0.2,0-0.9,0.9-1.1,1.8l-0.3-0.2l-2.5-5.3
			l3.4,2.6L36.8,49l-6.2-1.1l6.9,7.2l0.6,1.1l0.2,0.7l-7.7-1.8l8.2,9.5l-8.2-1.5L37.1,69.9z"/>
		<polygon class="st0" points="81.4,66.9 82.7,62.3 74.6,66.9 		"/>
		<polygon class="st0" points="37.1,84.8 32.5,83.2 37.1,86.5 		"/>
		<polygon class="st0" points="37.1,103.3 35.3,102.9 37.1,104 		"/>
		<polygon class="st0" points="37.1,108.6 36.3,108.5 37.1,109.1 		"/>
		<polygon class="st0" points="37.1,91 33,89.6 37.1,92.4 		"/>
		<polygon class="st0" points="37.1,98.2 33.3,97.7 37.1,99.6 		"/>
	</g>
	<path class="st0" d="M191.3,92.7c-0.3,0-0.6,0-0.9,0c-0.1,0-0.3-0.1-0.5-0.1c-0.3-0.1-0.6-0.3-0.9-0.5V92c0.2,0,2,0.4,2.2,0.4v-0.1
		c-0.2-0.1-2-0.6-2.5-0.8c-0.2-0.1-0.3-0.2-0.5-0.4v0.5c0.2,0.2,0.4,0.5,0.7,0.6l0.2,0.2l0.3,0.1c0.1,0.1,0.8,0.3,1,0.3h0.3
		C190.9,92.9,191.1,92.8,191.3,92.7C191.3,92.8,191.4,92.8,191.3,92.7z"/>
	<g>
		<path class="st0" d="M191.4,91.8c0,0-0.8-0.1-1.1-0.4c-0.1,0-0.2-0.1-0.3-0.1c-0.2-0.1-0.5-0.2-0.8-0.3c-0.2-0.1-0.4,0-0.6-0.2
			c0.2-0.1,0.4,0.1,0.7,0c0.1,0,0.3,0.1,0.4,0.1l0,0c0.1,0,0.2,0.1,0.3,0.1c0.1,0.1,0.2,0,0.3,0.1c0.4,0.1,0.7,0.3,1.2,0.3h0.3
			c-0.1-0.2-0.4-0.3-0.7-0.4l-0.2-0.1c-0.2-0.1-0.4-0.1-0.6-0.1l-0.2-0.1c-0.3,0-0.7-0.2-1-0.2c-0.1,0-0.3-0.1-0.5-0.1l0.2-0.1
			c0.1,0,0.3,0,0.4,0c0.2,0,0.4,0.2,0.6,0.1c0.3,0.1,0.7,0.1,1,0v-0.1c-0.1-0.1-0.2-0.1-0.4-0.1c-0.1-0.1-0.2,0-0.3-0.1
			c-0.3,0-0.6-0.1-0.9-0.1c-0.1,0-0.3,0-0.5,0v-0.1c0.2-0.2,0.5-0.2,0.7-0.2c0.4,0.2,0.9,0.1,1.3,0.3c0.2,0,0.4,0.1,0.7-0.1
			c-0.2-0.2-0.5,0-0.7-0.2c-0.5-0.1-1-0.4-1.5-0.3H189c-0.3,0.1-0.7,0.1-1,0.4v0.1l0.1,0.2H188V91c0.2,0.2,0.5,0.3,0.8,0.4
			c0,0.1,0.2,0.2,0.3,0.2c0.2,0.2,0.5,0.2,0.8,0.3c0.2,0,0.4,0.1,0.6,0.2c0.2,0.1,0.4,0,0.6,0c0.2-0.1,0.4-0.1,0.5-0.2
			C191.8,91.7,191.5,91.8,191.4,91.8z"/>
		<path class="st0" d="M188.2,89.3v0.3c0,0,0.1-0.1,0.1-0.2C188.3,89.4,188.2,89.3,188.2,89.3z"/>
	</g>
	<path class="st0" d="M83.5,110.9c-0.1-0.1-0.2-0.1-0.3-0.2c-0.2-0.2-0.3-0.5-0.4-0.7c-0.1-0.1-0.1-0.3-0.2-0.3v-0.1l0,0
		c-0.1-0.2-0.3-0.4-0.5-0.4h-1H81h-0.1l0,0c-0.1,0-0.2,0-0.4,0.1c-1.5-1-2.3-2.1-2.7-2.8c0.3-0.1,0.6-0.2,0.9-0.4
		c0.4-0.3,0.7-0.8,0.7-1.4s-0.3-1.1-0.7-1.4s-0.8-0.4-1.3-0.4h-0.1h-0.1l0,0c0,0-0.2,0-0.4,0.1c-1.3-2.8-1.3-6.1-1.3-6.1
		c0-0.5-0.1-1-0.2-1.5c0.3,0,0.6-0.1,0.8-0.3c0.2-0.2,0.4-0.5,0.4-0.8s-0.2-0.6-0.4-0.8c-0.2-0.2-0.5-0.3-0.8-0.3h-0.7
		c-2-4.2-6.4-4-6.4-4s-4.4-0.2-6.3,4h-0.7c-0.3,0-0.6,0.1-0.8,0.3C60.2,93.7,60,94,60,94.3s0.2,0.6,0.4,0.8c0.2,0.2,0.5,0.3,0.8,0.3
		c-0.1,0.5-0.1,1-0.2,1.5c0,0,0,3.4-1.3,6.1h-0.1c-0.1,0-0.2,0-0.3,0h-0.1l0,0h-0.1H59c-0.5,0-0.9,0.1-1.3,0.4
		c-0.4,0.3-0.7,0.8-0.7,1.4s0.3,1.1,0.7,1.4c0.3,0.2,0.6,0.3,0.9,0.4c-0.4,0.7-1.1,1.8-2.7,2.8c-0.1,0-0.3,0-0.4-0.1l0,0h-0.1h-0.1
		h-1c-0.2,0-0.5,0.1-0.5,0.4l0,0c0,0.1-0.3,0.7-0.6,1.1c-0.1,0-0.2,0.1-0.3,0.2c-0.1,0.1-0.2,0.3-0.2,0.4v0.6l0,0v0.4
		c0,0.2,0.2,0.4,0.4,0.5c0.1,0,2.6,1,13.2,1.1c0.3,1,1.1,1.7,2.2,1.7c1,0,1.9-0.7,2.2-1.7c10.1-0.1,12.5-1,12.7-1
		c0.2-0.1,0.3-0.3,0.4-0.5v-0.4l0,0v-0.6C83.7,111.2,83.7,111,83.5,110.9z M60.6,94.3c0-0.3,0.3-0.6,0.7-0.6h7h7
		c0.4,0,0.7,0.3,0.7,0.6c0,0.3-0.3,0.6-0.7,0.6h-7h-7C60.9,94.9,60.6,94.6,60.6,94.3z M58.5,105.2L58.5,105.2
		c-0.1-0.1-0.1-0.1-0.2-0.2c0-0.1-0.1-0.2-0.1-0.2c0-0.4,0.4-0.6,0.9-0.6l0,0l0,0c0.3,0.1,2.5,0.5,9.1,0.5c6.7,0,8.9-0.4,9.1-0.5
		l0,0l0,0c0.5,0,0.9,0.3,0.9,0.6c0,0.1,0,0.2-0.1,0.2c0,0.1-0.1,0.1-0.1,0.2l0,0c-0.1,0.1-0.3,0.2-0.6,0.2l0,0l0,0c0,0,0,0-0.1,0
		c0,0-1.7,0.5-9.2,0.5s-9.2-0.5-9.2-0.5C58.9,105.4,58.7,105.3,58.5,105.2z M82.6,111.9c-1,0.2-4.5,0.9-13.6,0.9c-0.3,0-0.5,0-0.8,0
		l0,0c-0.2,0-0.4,0-0.6,0c-5.8,0-9.3-0.3-11.3-0.5c-1-0.1-1.7-0.2-2.1-0.3c-0.1,0-0.1,0-0.2,0v-0.1c0,0,0.1,0,0.1-0.1
		c0.4-0.5,0.7-1,0.8-1.3h0.5h0.1l0,0c0.9,0.2,2.7,0.4,5.8,0.6l0,0h0.1l0,0c0.3,0,0.6,0,0.9,0l0,0c0.1,0,0.2,0,0.4,0l0,0
		c0.2,0,0.4,0,0.7,0l0,0c0.2,0,0.5,0,0.7,0l0,0c0.1,0,0.3,0,0.4,0c1.2,0,2.5,0.1,3.9,0.1c7.5,0,11.2-0.5,12.8-0.8l0,0h0.1h0.5
		c0.2,0.3,0.4,0.9,0.8,1.3C82.5,111.7,82.6,111.8,82.6,111.9L82.6,111.9z"/>
	<g>
		<path class="st0" d="M119,206.8c-1.1,0.2-2-0.2-2.9-0.7c-0.9-0.5-2.3-1-3-1c-0.7,0-1.4,0.6-2.1,0.2c-0.8-0.4-2.7,0-3.2,0.4
			c-0.4,0.4-1.7,0.6-3,0.4c-1.3-0.1-2,0.5-2.4,0.9c-0.5,0.4-1,0.9-1.8,0.9c-0.7,0-1.7,1.1-1.7,1.1s1,0.3,1.6,0.3
			c0.6,0,2.8-0.1,4.3,0.4s4.1,0.2,4.5,0c0.4-0.2,1.6-0.9,3.1-0.3c1.6,0.6,2.5,0.1,3.4,0c0.9-0.1,1.5-0.6,1.5-0.6s1.7,0.1,3.9,0
			s1.7-0.9,1.7-0.9C123,207.5,120.1,206.6,119,206.8z"/>
		<path class="st0" d="M167.9,179.5c-1.1,0.2-2-0.2-2.9-0.7s-2.3-1-3-1s-1.4,0.6-2.1,0.2c-0.8-0.4-2.7,0-3.2,0.4
			c-0.4,0.4-1.7,0.6-3,0.4c-1.3-0.1-2,0.5-2.5,0.9c-0.5,0.4-1,0.9-1.8,0.9c-0.7,0-1.7,1.1-1.7,1.1s1,0.4,1.6,0.4s2.8-0.1,4.3,0.4
			c1.5,0.5,4.1,0.2,4.5,0s1.6-0.9,3.1-0.3c1.6,0.6,2.5,0.1,3.4,0s1.5-0.6,1.5-0.6s1.7,0.1,3.9,0c2.2-0.1,1.7-0.9,1.7-0.9
			C171.9,180.2,169,179.3,167.9,179.5z"/>
		<path class="st0" d="M183,198.9l0.1-51.8H42.6v33.6c0.8-0.4,2-1,2.7-1.6c1.2-0.9,3.3-1.1,3.3-1.1c1-1.3,1.8-0.6,4.1-1.9
			c2.3-1.4,4.4-1.1,5.9-1.9c1.6-0.8,2.6,0.1,4.2-0.9c1.6-0.9,3.5-0.1,4.6-0.3s3.3,0.8,5.2,0.8c2,0,3.3,1.4,4.4,1.4
			c1.1,0.1,3.2,2.3,4.3,3.4c1.1,1.1,2.4,0.9,1.7,1.1c-0.8,0.1-2.5,1-3.8,1.4s-1.3,1.3-2.6,1.4c-1.4,0.1-2.4-0.4-3.3,0.7
			c-0.9,1.1-2.1,1.4-2.6,1.3c-0.5-0.1-0.8-0.6-1.4,0c-0.6,0.6-3,0.9-3.7,0.8c-0.7-0.1-1.5-0.6-2.9-0.7c-1.4-0.1-4.2-0.2-5.6-0.7
			c-1.4-0.5-4.8-1.4-6.1-1.4c-1.4,0.1-1.4,0.4-1.9,0.6c-0.6,0.1-0.7-0.4-1.1-0.6c-0.3-0.2-3.6-0.8-5.3-1.1v17.7c0,0-3.4,19,27,22.1
			c30.4,3.2,34.3,1.2,43.2,10.7h0.1c8.9-9.5,12.7-7.5,43.2-10.7C186.3,217.9,183,198.9,183,198.9z M166.2,147.7
			c6.3,0.4,11.1,4.2,11.1,4.2s-10.7-6.3-23.6,0C153.7,151.9,159.9,147.3,166.2,147.7z M144.9,153.7c8.3,0.4,14.6,4.2,14.6,4.2
			c-17.4-7-31.1,0-31.1,0S136.6,153.3,144.9,153.7z M90.3,165.2c0.1-0.7,0.5-1.4,1.1-2v-0.1c0.1-0.3,0.3-0.6,0.6-0.7
			c0.2-0.1,0.4-0.2,0.6-0.2c1-0.7,2.2-1.2,3.6-1.8c0.8-0.3,1.6-0.5,2.5-0.7c0,0,0,0,0-0.1c0.1-0.1,0.2-0.2,0.4-0.2
			c0.3-0.1,0.6-0.2,0.9-0.2c0.1,0,0.2,0,0.4,0c2.9-0.6,6.3-0.9,9.9-0.9c0.1,0,0.1,0,0.2,0l0,0l0,0l0,0l0,0c0-0.2,0.2-0.2,0.2-0.3
			c0.1-0.1,0.2-0.1,0.3-0.1c0.2-0.1,0.5-0.1,0.7-0.1l0,0h0.1c0.2,0,0.5,0.1,0.7,0.1c0.2,0.1,0.4,0.2,0.5,0.4c0,0.1,0.1,0.1,0.1,0.2
			c3.1,0.1,6.1,0.5,8.8,1c0.2-0.1,0.5-0.2,0.8-0.2c0.1,0,0.2,0,0.4,0.1c0.2,0.1,0.4,0.2,0.6,0.4c0.1,0.1,0.1,0.1,0.2,0.2
			c2.6,0.6,4.8,1.4,6.6,2.4c0.2-0.1,0.4-0.1,0.6-0.1h0.2c0.5,0,0.9,0.3,1,0.6c0.2,0.3,0.2,0.5,0.2,0.5v0.2c0.2,0.2,0.5,0.4,0.7,0.5
			c0.5,0.4,0.9,0.9,1.2,1.3c0.1,0,0.2,0,0.3,0.1c0.2,0.1,0.4,0.3,0.5,0.6c0.1,0.2,0.1,0.4,0.1,0.6c0,0.2,0,0.4-0.1,0.6
			c0,0.2-0.1,0.3-0.2,0.4c0,0.5-0.2,1.1-0.6,1.6l-0.9,17.1c0.2,0.1,0.3,0.3,0.3,0.6v0.8c0,0.2-0.1,0.4-0.3,0.6v0.1l-0.1,0.1
			c0,0-3.9,3.6-10.1,6v0.1c0,0.3-0.2,0.5-0.4,0.7c-0.2,0.2-0.5,0.2-0.8,0.2s-0.6-0.1-0.8-0.2l0,0c-2.6,0.8-5.4,1.4-8.5,1.5
			c-0.4,0-0.8,0-1.1,0c-2.2,0-4.2-0.2-6.1-0.6c-0.1,0-0.2,0-0.3,0c-0.3,0-0.5-0.1-0.7-0.3l0,0c-4.9-1.1-8.8-3.3-11.7-5.4
			c-0.2,0-0.5-0.1-0.7-0.2c-0.1-0.1-0.3-0.3-0.3-0.5c-0.6-0.5-1.2-0.9-1.7-1.4l-0.1-0.1V187l0,0v-19.7h0.2c-0.1-0.1-0.1-0.1-0.2-0.2
			c-0.2-0.2-0.4-0.6-0.4-1C89.8,165.8,90,165.4,90.3,165.2z M144.9,190.9c8.3,0.4,14.6,4.3,14.6,4.3s-15.3-6.5-31.1,0
			C128.4,195.2,136.6,190.5,144.9,190.9z M46.4,151.8c0,0,0.3-0.2,0.9-0.5c1.8-0.9,5.9-2.6,10.1-2.4c5.6,0.3,9.8,2.8,9.8,2.8
			c-9.6-4.4-17.3-1.7-19.9-0.5C46.7,151.6,46.4,151.8,46.4,151.8z M64.6,157.2c0,0-6.9-4.5-14.4,0c0,0,3.8-3.1,7.7-2.8
			C61.7,154.7,64.6,157.2,64.6,157.2z M48,163.4c0,0,5.7-4.7,11.5-4.3s10.2,4.3,10.2,4.3C57.4,156.3,48,163.4,48,163.4z M61.4,171.3
			c0,0,6.5-4.7,13.1-4.3s11.6,4.3,11.6,4.3C72.9,163.9,61.4,171.3,61.4,171.3z M77.9,196.6c8.3,0.4,14.6,4.3,14.6,4.3
			c-15.6-7.2-31.1,0-31.1,0S69.6,196.2,77.9,196.6z M46.6,190c0,0,4.5-2.5,9-2.3s7.9,2.3,7.9,2.3S55,187.7,46.6,190z M51.7,212.2
			c0,0,8.2-4.7,16.5-4.3s14.6,4.3,14.6,4.3S67,205.3,51.7,212.2z M86.6,220.8c0,0,8.2-4.7,16.5-4.3s14.6,4.3,14.6,4.3
			S102.8,213.7,86.6,220.8z M128.4,208.5c-0.8,0.1-2.5,1-3.8,1.4s-1.3,1.3-2.6,1.4c-1.4,0.1-2.4-0.4-3.3,0.7
			c-0.9,1.1-2.1,1.4-2.6,1.3c-0.5-0.1-0.8-0.6-1.4,0s-3,0.9-3.7,0.8c-0.7-0.1-1.5-0.6-2.9-0.7c-1.4-0.1-4.2-0.2-5.6-0.7
			c-1.4-0.5-4.8-1.4-6.1-1.4c-1.4,0.1-1.4,0.4-1.9,0.6c-0.6,0.1-0.7-0.4-1.1-0.6C92.9,211,87,210,87,210c0.5-0.1,2.5-1.1,3.7-2
			c1.2-0.9,3.3-1.1,3.3-1.1c1-1.3,1.8-0.6,4.1-1.9c2.3-1.4,4.4-1.1,5.9-1.9c1.6-0.8,2.6,0.1,4.2-0.9c1.6-0.9,3.5-0.1,4.6-0.3
			s3.3,0.8,5.2,0.8c1.9,0,3.3,1.4,4.4,1.4c1.1,0.1,3.2,2.3,4.3,3.4C127.8,208.5,129.1,208.4,128.4,208.5z M135.9,213.2
			c0,0,8.2-4.7,16.5-4.3c8.3,0.4,14.6,4.3,14.6,4.3S152.5,207.2,135.9,213.2z M151.3,203c0,0,5.9-4.7,11.8-4.3
			c5.9,0.4,10.4,4.3,10.4,4.3C162,196.6,151.3,203,151.3,203z M177.4,181.2c-0.8,0.1-2.5,1-3.8,1.4s-1.3,1.3-2.6,1.4
			c-1.4,0.1-2.4-0.4-3.3,0.7c-0.9,1.1-2.1,1.4-2.6,1.3c-0.5-0.1-0.8-0.6-1.4,0s-3,0.9-3.7,0.8c-0.7-0.1-1.5-0.6-2.9-0.7
			c-1.4-0.1-4.2-0.2-5.6-0.7c-1.4-0.5-4.8-1.4-6.1-1.4c-1.4,0.1-1.4,0.4-1.9,0.6c-0.6,0.1-0.7-0.4-1.1-0.6c-0.4-0.3-6.3-1.3-6.3-1.3
			c0.5-0.1,2.5-1.1,3.7-2s3.3-1.1,3.3-1.1c1-1.3,1.8-0.6,4.1-1.9c2.3-1.4,4.4-1.1,5.9-1.9c1.6-0.8,2.6,0.1,4.2-0.9
			c1.6-0.9,3.5-0.1,4.6-0.3c1.1-0.2,3.3,0.8,5.2,0.8c2,0,3.3,1.4,4.4,1.4c1.1,0.1,3.2,2.3,4.3,3.4
			C176.8,181.2,178.1,181.1,177.4,181.2z M146.2,171.9c0,0,8.2-4.7,16.5-4.3s14.6,4.3,14.6,4.3C161.9,164.7,146.2,171.9,146.2,171.9
			z M148.5,165.6c0,0,8.2-4.7,16.5-4.3s14.6,4.3,14.6,4.3C164.6,158.8,148.5,165.6,148.5,165.6z"/>
		<path class="st0" d="M59.4,180.8c1.5,0.5,4.1,0.2,4.5,0s1.6-0.9,3.1-0.3c1.6,0.6,2.5,0.1,3.4,0c0.9-0.1,1.5-0.6,1.5-0.6
			s1.7,0.1,3.9,0c2.2-0.1,1.7-0.9,1.7-0.9c0-0.4-2.9-1.3-4-1.1s-2-0.2-2.9-0.7c-0.9-0.5-2.3-1-3-1s-1.4,0.6-2.1,0.2
			c-0.8-0.4-2.7,0-3.2,0.4c-0.4,0.4-1.7,0.6-3,0.4c-1.3-0.1-2,0.5-2.4,0.9c-0.5,0.4-1,0.9-1.8,0.9c-0.7,0-1.7,1.1-1.7,1.1
			s1,0.3,1.6,0.3C55.7,180.4,57.9,180.3,59.4,180.8z"/>
	</g>
	<g>
		<path class="st0" d="M224.9,73.6c-0.5-12.8-3.6-23.7-7.1-32.2c-1.7-4.1-4-8.1-6.1-11.5c-1.8-2.9-3.6-5.4-4.8-7.1l3.7,0.3
			l11.1-13.5l-16.4,5.3L203,21l-86.7,45.9h58.8l39.6-24.2l0,0c3.4,8.2,6.4,18.7,6.9,31c0,0.2,0,0.5,0,0.7l-33.3,28.4v21.1
			c0.3,0.4,2.8,4.7,4.2,8.2c0.5,1.2,0.8,2.3,0.9,3.2v0.1l0,0l0,0c0,0.1,0,0.2,0,0.3c0,0.3,0,0.5,0,0.8l-0.3,6.9c0,0-0.9,3-4.7,3
			c0,0,0,0-0.1,0v3c0,0,0,0,0.1,0c3.3,0,4.4,2.2,4.6,2.9c0.3-0.4,0.7-0.7,1-1.1c11.3-12.3,23.9-30.4,28.8-53.5
			c1.5-7.2,2.2-14,2.2-20.4C225,76.1,225,74.8,224.9,73.6z M205.4,20.6l-0.2,0.1h-0.7l3.4-2.2l-1.2-2l11-4.5l-9.8,6.5l1.5,2.5
			l-3.9-0.2L205.4,20.6z"/>
	</g>
</g>
</svg>
