<svg xmlns="http://www.w3.org/2000/svg" xmlns:xlink="http://www.w3.org/1999/xlink" width="40" zoomAndPan="magnify" viewBox="0 0 30 30.000001" height="40" preserveAspectRatio="xMidYMid meet" version="1.0"><path fill="#ddc9a3" d="M 24.832031 9.78125 L 24.757812 9.78125 L 24.757812 9.851562 L 24.722656 9.851562 L 24.722656 9.890625 L 24.6875 9.890625 L 24.6875 9.925781 L 24.46875 9.925781 L 24.46875 9.960938 L 24.433594 9.960938 L 24.398438 9.925781 L 24.253906 9.925781 L 24.214844 9.960938 L 24.179688 10 L 24.179688 10.035156 L 24.109375 10.035156 L 24.109375 10 L 24.070312 10 L 24.070312 9.925781 L 24.109375 9.925781 L 24.109375 9.890625 L 24.144531 9.890625 L 24.144531 9.746094 L 24.179688 9.746094 L 24.144531 9.707031 L 24.902344 9.707031 L 24.902344 9.78125 L 24.9375 9.78125 L 24.9375 9.816406 L 24.902344 9.816406 L 24.902344 9.851562 L 24.867188 9.851562 L 24.867188 9.816406 L 24.832031 9.816406 Z M 24.832031 9.78125 " fill-opacity="1" fill-rule="evenodd"/><path fill="#ddc9a3" d="M 17.710938 3.890625 L 17.710938 3.851562 L 18.070312 3.851562 L 18.070312 3.890625 L 18.109375 3.890625 L 18.109375 3.925781 L 18.070312 3.925781 L 18.070312 4 L 18.035156 4 L 18.035156 4.109375 L 18.070312 4.109375 L 18.070312 4.144531 L 18.144531 4.144531 L 18.179688 4.109375 L 18.179688 4.070312 L 18.214844 4.070312 L 18.214844 4 L 18.179688 4 L 18.179688 3.890625 L 22.046875 3.890625 L 22.046875 3.960938 L 22.15625 3.960938 L 22.15625 4.035156 L 22.226562 4.035156 L 22.226562 4.070312 L 22.265625 4.070312 L 22.265625 4.144531 L 22.445312 4.144531 L 22.445312 4.109375 L 22.480469 4.109375 L 22.480469 4.144531 L 22.515625 4.109375 L 22.589844 4.109375 L 22.589844 4.070312 L 22.660156 4.070312 L 22.660156 4.035156 L 22.734375 4.035156 L 22.734375 4.070312 L 22.804688 4.070312 L 22.804688 4.144531 L 22.84375 4.144531 L 22.84375 4.109375 L 22.949219 4.109375 L 22.949219 4.070312 L 22.988281 4.070312 L 22.988281 4.035156 L 23.023438 4.035156 L 23.023438 4.070312 L 23.058594 4.070312 L 23.058594 4.109375 L 23.132812 4.109375 L 23.132812 4.070312 L 23.167969 4.070312 L 23.203125 4.035156 L 23.203125 4.070312 L 23.242188 4.109375 L 23.242188 4.035156 L 23.347656 4.035156 L 23.386719 4 L 23.386719 3.960938 L 23.347656 3.925781 L 23.386719 3.925781 L 23.386719 3.851562 L 23.421875 3.851562 L 23.457031 3.816406 L 23.492188 3.816406 L 23.53125 3.78125 L 23.53125 3.742188 L 24 3.742188 L 24 3.671875 L 24.035156 3.671875 L 24.035156 3.5625 L 24.070312 3.5625 L 24.070312 3.527344 L 24.324219 3.527344 L 24.324219 3.597656 L 24.289062 3.632812 L 24.289062 3.851562 L 24.253906 3.851562 L 24.253906 3.925781 L 24.214844 3.960938 L 24.214844 4 L 24.109375 4 L 24.109375 4.035156 L 24.070312 4.070312 L 24.035156 4.109375 L 24.035156 4.214844 L 24.070312 4.214844 L 24.070312 4.253906 L 24.214844 4.253906 L 24.214844 4.289062 L 24.253906 4.289062 L 24.253906 4.398438 L 24.324219 4.398438 L 24.324219 4.363281 L 24.398438 4.363281 L 24.398438 4.324219 L 24.433594 4.363281 L 24.433594 4.324219 L 24.578125 4.324219 L 24.578125 4.398438 L 24.613281 4.398438 L 24.613281 4.433594 L 24.648438 4.433594 L 24.6875 4.472656 L 24.722656 4.472656 L 24.722656 4.507812 L 24.757812 4.472656 L 24.792969 4.472656 L 24.792969 4.398438 L 24.832031 4.398438 L 24.832031 4.363281 L 24.867188 4.363281 L 24.867188 4.324219 L 24.902344 4.324219 L 24.902344 4.253906 L 24.9375 4.289062 L 24.976562 4.324219 L 24.976562 4.289062 L 25.011719 4.289062 L 25.011719 4.214844 L 25.046875 4.214844 L 25.046875 4.144531 L 25.226562 4.144531 L 25.226562 4.179688 L 25.191406 4.179688 L 25.191406 4.253906 L 25.335938 4.253906 L 25.335938 4.289062 L 25.371094 4.289062 L 25.371094 4.324219 L 25.410156 4.363281 L 25.410156 4.398438 L 25.371094 4.398438 L 25.371094 4.433594 L 25.335938 4.472656 L 25.371094 4.507812 L 25.410156 4.542969 L 25.445312 4.542969 L 25.480469 4.582031 L 25.515625 4.582031 L 25.515625 4.617188 L 25.554688 4.617188 L 25.554688 4.652344 L 25.515625 4.652344 L 25.515625 4.6875 L 25.480469 4.652344 L 25.480469 4.6875 L 25.445312 4.726562 L 25.445312 4.835938 L 25.515625 4.835938 L 25.515625 4.796875 L 25.589844 4.796875 L 25.589844 4.761719 L 25.734375 4.761719 L 25.734375 4.796875 L 25.769531 4.835938 L 25.84375 4.835938 L 25.878906 4.871094 L 25.878906 4.945312 L 25.914062 4.980469 L 25.949219 4.980469 L 25.949219 5.015625 L 26.023438 5.015625 L 26.023438 5.054688 L 26.09375 5.054688 L 26.09375 5.089844 L 26.132812 5.089844 L 26.167969 5.125 L 26.203125 5.125 L 26.203125 5.160156 L 26.238281 5.199219 L 26.238281 5.378906 L 26.203125 5.378906 L 26.203125 5.417969 L 26.167969 5.417969 L 26.167969 5.527344 L 26.203125 5.597656 L 26.203125 5.671875 L 26.238281 5.707031 L 26.203125 5.742188 L 26.203125 5.851562 L 26.167969 5.890625 L 26.167969 5.960938 L 26.132812 6 L 26.09375 6 L 26.058594 6.035156 L 26.058594 6.144531 L 26.09375 6.144531 L 26.09375 6.179688 L 26.058594 6.214844 L 26.023438 6.214844 L 26.023438 6.179688 L 25.988281 6.179688 L 25.988281 6.144531 L 25.914062 6.144531 L 25.914062 6.179688 L 25.84375 6.179688 L 25.84375 6.144531 L 25.804688 6.144531 L 25.804688 6.109375 L 25.769531 6.109375 L 25.769531 6.035156 L 25.699219 6.035156 L 25.660156 6 L 25.660156 6.070312 L 25.625 6.109375 L 25.660156 6.109375 L 25.660156 6.214844 L 25.589844 6.214844 L 25.589844 6.253906 L 25.554688 6.253906 L 25.554688 6.289062 L 25.515625 6.289062 L 25.515625 6.324219 L 25.480469 6.324219 L 25.480469 6.472656 L 25.515625 6.472656 L 25.515625 6.582031 L 25.480469 6.617188 L 25.371094 6.652344 L 25.335938 6.652344 L 25.335938 6.691406 L 25.300781 6.691406 L 25.300781 6.761719 L 25.335938 6.761719 L 25.335938 6.796875 L 25.300781 6.835938 L 25.300781 6.90625 L 25.265625 6.90625 L 25.265625 6.945312 L 25.371094 6.945312 L 25.371094 7.089844 L 25.335938 7.089844 L 25.335938 7.199219 L 25.300781 7.234375 L 25.300781 7.269531 L 25.265625 7.269531 L 25.265625 7.234375 L 25.226562 7.234375 L 25.226562 7.199219 L 25.191406 7.199219 L 25.15625 7.164062 L 25.121094 7.164062 L 25.121094 7.308594 L 25.082031 7.308594 L 25.082031 7.417969 L 25.046875 7.417969 L 25.046875 7.453125 L 25.011719 7.453125 L 25.011719 7.527344 L 24.976562 7.5625 L 24.976562 7.597656 L 25.011719 7.597656 L 25.011719 7.671875 L 24.976562 7.671875 L 24.976562 7.78125 L 25.046875 7.851562 L 25.082031 7.851562 L 25.121094 7.890625 L 25.121094 7.851562 L 25.15625 7.851562 L 25.15625 7.816406 L 25.226562 7.816406 L 25.226562 7.890625 L 25.191406 7.890625 L 25.191406 7.925781 L 25.15625 7.925781 L 25.15625 7.960938 L 25.121094 7.960938 L 25.121094 8 L 25.15625 8 L 25.15625 8.035156 L 25.121094 8.035156 L 25.121094 8.070312 L 25.082031 8.070312 L 25.082031 8.109375 L 24.902344 8.109375 L 24.902344 8.144531 L 24.792969 8.144531 L 24.792969 8.21875 L 24.757812 8.253906 L 24.757812 8.324219 L 24.722656 8.324219 L 24.722656 8.472656 L 24.6875 8.507812 L 24.6875 8.582031 L 24.648438 8.582031 L 24.648438 8.617188 L 24.613281 8.617188 L 24.613281 8.652344 L 24.648438 8.652344 L 24.648438 8.691406 L 24.6875 8.691406 L 24.6875 8.726562 L 24.722656 8.726562 L 24.722656 8.871094 L 24.757812 8.871094 L 24.757812 8.945312 L 24.648438 8.945312 L 24.648438 8.980469 L 24.6875 8.980469 L 24.6875 9.054688 L 24.722656 9.054688 L 24.722656 9.164062 L 24.792969 9.234375 L 24.832031 9.234375 L 24.832031 9.273438 L 24.792969 9.273438 L 24.792969 9.34375 L 24.832031 9.378906 L 24.832031 9.34375 L 24.867188 9.34375 L 24.867188 9.378906 L 24.976562 9.378906 L 25.011719 9.417969 L 25.046875 9.378906 L 25.046875 9.417969 L 25.082031 9.417969 L 25.082031 9.378906 L 25.15625 9.378906 L 25.15625 9.417969 L 25.191406 9.417969 L 25.191406 9.378906 L 25.226562 9.378906 L 25.226562 9.417969 L 25.191406 9.417969 L 25.191406 9.488281 L 25.15625 9.488281 L 25.15625 9.597656 L 25.121094 9.597656 L 25.121094 9.707031 L 25.082031 9.707031 L 25.082031 9.746094 L 25.046875 9.746094 L 25.046875 9.707031 L 24.976562 9.707031 L 24.976562 9.671875 L 24.902344 9.671875 L 24.902344 9.707031 L 24.109375 9.707031 L 24.109375 9.78125 L 24.070312 9.78125 L 24.070312 9.746094 L 24.035156 9.746094 L 24.035156 9.707031 L 23.964844 9.707031 L 23.964844 9.746094 L 23.925781 9.746094 L 23.925781 9.851562 L 23.890625 9.890625 L 23.855469 9.925781 L 23.820312 9.925781 L 23.78125 9.960938 L 23.710938 9.960938 L 23.710938 9.925781 L 23.675781 9.925781 L 23.675781 9.890625 L 23.601562 9.890625 L 23.601562 9.851562 L 23.566406 9.851562 L 23.566406 9.78125 L 23.457031 9.78125 L 23.492188 9.746094 L 23.566406 9.746094 L 23.566406 9.707031 L 23.601562 9.707031 L 23.636719 9.671875 L 23.710938 9.671875 L 23.78125 9.636719 L 23.78125 9.597656 L 23.855469 9.597656 L 23.855469 9.5625 L 23.890625 9.5625 L 23.890625 9.453125 L 23.855469 9.417969 L 23.855469 9.453125 L 23.820312 9.453125 L 23.78125 9.417969 L 23.710938 9.417969 L 23.710938 9.234375 L 23.566406 9.234375 L 23.566406 9.199219 L 23.457031 9.199219 L 23.457031 9.234375 L 23.421875 9.199219 L 23.421875 9.164062 L 23.3125 9.164062 L 23.3125 9.125 L 23.347656 9.125 L 23.347656 9.054688 L 23.386719 9.054688 L 23.386719 9.015625 L 23.347656 9.015625 L 23.347656 8.90625 L 23.386719 8.90625 L 23.386719 8.800781 L 23.421875 8.761719 L 23.457031 8.726562 L 23.386719 8.726562 L 23.386719 8.691406 L 23.347656 8.691406 L 23.347656 8.761719 L 23.3125 8.761719 L 23.3125 8.800781 L 23.277344 8.800781 L 23.277344 8.835938 L 23.203125 8.835938 L 23.242188 8.800781 L 23.203125 8.800781 L 23.167969 8.761719 L 23.132812 8.726562 L 23.09375 8.726562 L 23.09375 8.761719 L 23.023438 8.761719 L 23.023438 8.871094 L 22.949219 8.871094 L 22.949219 8.90625 L 22.804688 8.90625 L 22.804688 8.871094 L 22.699219 8.871094 L 22.699219 8.835938 L 22.554688 8.835938 L 22.554688 8.871094 L 22.515625 8.871094 L 22.515625 8.90625 L 22.445312 8.90625 L 22.445312 8.980469 L 22.371094 8.980469 L 22.371094 8.945312 L 22.335938 8.945312 L 22.335938 8.980469 L 22.265625 8.980469 L 22.265625 9.015625 L 22.226562 9.015625 L 22.226562 8.980469 L 22.191406 8.980469 L 22.191406 9.054688 L 22.15625 9.054688 L 22.15625 9.089844 L 22.121094 9.125 L 22.082031 9.125 L 22.082031 9.164062 L 22.046875 9.164062 L 22.046875 9.199219 L 22.011719 9.199219 L 22.011719 9.234375 L 21.976562 9.234375 L 21.976562 9.273438 L 22.011719 9.273438 L 21.976562 9.308594 L 21.976562 9.34375 L 21.9375 9.378906 L 21.902344 9.417969 L 21.902344 9.488281 L 21.867188 9.488281 L 21.867188 9.5625 L 21.902344 9.597656 L 21.902344 9.746094 L 21.867188 9.78125 L 21.867188 9.851562 L 21.832031 9.890625 L 21.832031 9.925781 L 21.792969 9.925781 L 21.792969 9.960938 L 21.757812 9.960938 L 21.757812 10 L 21.722656 10 L 21.722656 10.070312 L 21.757812 10.070312 L 21.757812 10.144531 L 21.722656 10.144531 L 21.722656 10.21875 L 21.757812 10.253906 L 21.757812 10.328125 L 21.792969 10.363281 L 21.792969 10.398438 L 21.832031 10.398438 L 21.832031 10.472656 L 21.867188 10.472656 L 21.867188 10.507812 L 21.902344 10.507812 L 21.9375 10.542969 L 21.902344 10.542969 L 21.902344 10.582031 L 21.832031 10.582031 L 21.832031 10.617188 L 21.648438 10.617188 L 21.648438 10.652344 L 21.613281 10.652344 L 21.613281 10.691406 L 21.578125 10.691406 L 21.578125 10.726562 L 21.46875 10.726562 L 21.433594 10.761719 L 21.324219 10.761719 L 21.324219 10.800781 L 21.253906 10.761719 L 21.253906 10.800781 L 21.214844 10.800781 L 21.214844 10.835938 L 21.144531 10.835938 L 21.144531 10.800781 L 21.109375 10.800781 L 21.109375 10.761719 L 21.070312 10.726562 L 21.070312 10.652344 L 21 10.652344 L 21 10.691406 L 20.925781 10.691406 L 20.925781 10.726562 L 20.964844 10.761719 L 21 10.800781 L 21 10.835938 L 21.109375 10.835938 L 21.109375 10.871094 L 21.035156 10.871094 L 21.035156 10.90625 L 21 10.90625 L 21 10.945312 L 20.890625 10.945312 L 20.890625 10.980469 L 20.855469 10.980469 L 20.855469 11.015625 L 20.820312 11.015625 L 20.820312 11.054688 L 20.78125 11.054688 L 20.78125 11.089844 L 20.746094 11.089844 L 20.746094 11.199219 L 20.78125 11.308594 L 20.746094 11.308594 L 20.746094 11.34375 L 20.710938 11.34375 L 20.710938 11.417969 L 20.675781 11.382812 L 20.675781 11.417969 L 20.636719 11.382812 L 20.636719 11.488281 L 20.566406 11.488281 L 20.566406 11.527344 L 20.492188 11.527344 L 20.492188 11.671875 L 20.53125 11.671875 L 20.53125 11.746094 L 20.566406 11.78125 L 20.566406 11.816406 L 20.601562 11.855469 L 20.601562 11.890625 L 20.636719 11.890625 L 20.636719 11.925781 L 20.675781 11.925781 L 20.675781 11.960938 L 20.746094 11.960938 L 20.746094 11.890625 L 20.78125 11.855469 L 20.78125 11.746094 L 20.820312 11.746094 L 20.820312 11.707031 L 20.855469 11.671875 L 20.890625 11.671875 L 20.890625 11.636719 L 20.964844 11.636719 L 20.964844 11.597656 L 21 11.597656 L 20.964844 11.5625 L 21 11.5625 L 21 11.527344 L 21.035156 11.527344 L 21.035156 11.488281 L 21.070312 11.488281 L 21.070312 11.527344 L 21.109375 11.527344 L 21.109375 11.453125 L 21.214844 11.453125 L 21.214844 11.417969 L 21.253906 11.417969 L 21.253906 11.34375 L 21.324219 11.34375 L 21.359375 11.308594 L 21.433594 11.308594 L 21.433594 11.273438 L 21.578125 11.273438 L 21.578125 11.234375 L 21.613281 11.234375 L 21.613281 11.199219 L 21.6875 11.199219 L 21.722656 11.164062 L 21.757812 11.164062 L 21.757812 11.125 L 21.792969 11.125 L 21.792969 11.089844 L 21.832031 11.089844 L 21.832031 11.054688 L 21.867188 11.054688 L 21.867188 11.015625 L 21.902344 11.015625 L 21.902344 10.980469 L 21.9375 10.980469 L 21.976562 10.945312 L 21.976562 10.90625 L 22.011719 10.90625 L 22.011719 10.835938 L 22.046875 10.835938 L 22.046875 10.800781 L 22.082031 10.800781 L 22.082031 10.726562 L 22.15625 10.726562 L 22.15625 10.652344 L 22.226562 10.652344 L 22.265625 10.617188 L 22.265625 10.582031 L 22.300781 10.582031 L 22.300781 10.542969 L 22.335938 10.582031 L 22.335938 10.652344 L 22.371094 10.652344 L 22.371094 10.726562 L 22.335938 10.726562 L 22.335938 10.761719 L 22.300781 10.761719 L 22.300781 10.871094 L 22.265625 10.90625 L 22.265625 10.980469 L 22.226562 10.980469 L 22.226562 11.015625 L 22.191406 11.015625 L 22.191406 11.054688 L 22.226562 11.054688 L 22.226562 11.089844 L 22.191406 11.089844 L 22.191406 11.125 L 22.15625 11.164062 L 22.121094 11.164062 L 22.121094 11.199219 L 22.082031 11.199219 L 22.046875 11.234375 L 22.046875 11.273438 L 22.011719 11.273438 L 22.011719 11.417969 L 21.976562 11.417969 L 21.976562 11.34375 L 21.867188 11.34375 L 21.867188 11.382812 L 21.832031 11.382812 L 21.792969 11.417969 L 21.832031 11.417969 L 21.832031 11.597656 L 21.792969 11.597656 L 21.792969 11.746094 L 21.757812 11.746094 L 21.757812 11.890625 L 21.6875 11.890625 L 21.6875 11.925781 L 21.613281 11.925781 L 21.613281 12 L 21.542969 12 L 21.542969 12.035156 L 21.46875 12.035156 L 21.46875 12.070312 L 21.433594 12.070312 L 21.433594 12.144531 L 21.398438 12.144531 L 21.398438 12.179688 L 21.359375 12.179688 L 21.359375 12.21875 L 21.324219 12.21875 L 21.324219 12.289062 L 21.289062 12.289062 L 21.289062 12.328125 L 21.324219 12.328125 L 21.324219 12.4375 L 21.359375 12.4375 L 21.359375 12.507812 L 21.398438 12.507812 L 21.398438 12.652344 L 21.433594 12.652344 L 21.433594 12.726562 L 21.46875 12.761719 L 21.46875 12.835938 L 21.542969 12.835938 L 21.542969 12.945312 L 21.578125 12.945312 L 21.578125 13.054688 L 21.542969 13.054688 L 21.542969 13.125 L 21.503906 13.125 L 21.503906 13.089844 L 21.289062 13.089844 L 21.289062 13.054688 L 21.214844 13.054688 L 21.214844 13.015625 L 21.070312 13.015625 L 21.035156 13.054688 L 21 13.125 L 20.964844 13.164062 L 20.964844 13.199219 L 20.925781 13.199219 L 20.925781 13.308594 L 20.890625 13.34375 L 20.890625 13.382812 L 20.925781 13.382812 L 20.890625 13.417969 L 20.925781 13.417969 L 20.925781 13.527344 L 20.890625 13.527344 L 20.890625 13.5625 L 20.925781 13.5625 L 20.925781 13.707031 L 20.890625 13.707031 L 20.890625 13.816406 L 20.855469 13.855469 L 20.855469 13.890625 L 20.820312 13.890625 L 20.78125 14.035156 L 20.746094 14.035156 L 20.746094 14.070312 L 20.710938 14.070312 L 20.710938 14.109375 L 20.675781 14.109375 L 20.675781 14.144531 L 20.636719 14.144531 L 20.636719 14.179688 L 20.601562 14.179688 L 20.601562 14.21875 L 20.53125 14.21875 L 20.492188 14.253906 L 20.457031 14.253906 L 20.457031 14.328125 L 20.421875 14.328125 L 20.421875 14.398438 L 20.203125 14.398438 L 20.203125 14.4375 L 20.167969 14.4375 L 20.167969 14.472656 L 20.023438 14.472656 L 20.023438 14.507812 L 19.988281 14.542969 L 19.914062 14.542969 L 19.914062 14.582031 L 19.878906 14.582031 L 19.878906 14.691406 L 19.914062 14.726562 L 19.988281 14.726562 L 19.988281 14.761719 L 20.023438 14.761719 L 20.023438 14.835938 L 20.058594 14.835938 L 20.058594 14.871094 L 20.132812 14.871094 L 20.132812 14.910156 L 20.167969 14.910156 L 20.167969 14.945312 L 20.132812 14.945312 L 20.132812 14.980469 L 20.167969 14.980469 L 20.167969 15.019531 L 20.203125 15.019531 L 20.203125 15.054688 L 20.242188 15.054688 L 20.242188 15.125 L 20.277344 15.125 L 20.277344 15.164062 L 20.3125 15.164062 L 20.3125 15.199219 L 20.347656 15.199219 L 20.347656 15.234375 L 20.386719 15.234375 L 20.386719 15.273438 L 20.421875 15.273438 L 20.421875 15.308594 L 20.457031 15.308594 L 20.457031 15.34375 L 20.492188 15.34375 L 20.492188 15.492188 L 20.53125 15.527344 L 20.53125 15.5625 L 20.566406 15.5625 L 20.566406 15.597656 L 20.53125 15.597656 L 20.53125 15.636719 L 20.566406 15.636719 L 20.566406 15.816406 L 20.601562 15.816406 L 20.601562 15.925781 L 20.566406 15.964844 L 20.566406 16.035156 L 20.601562 16.035156 L 20.601562 16.109375 L 20.566406 16.109375 L 20.566406 16.144531 L 20.601562 16.144531 L 20.601562 16.21875 L 20.675781 16.21875 L 20.675781 16.253906 L 20.601562 16.253906 L 20.601562 16.289062 L 20.675781 16.289062 L 20.675781 16.472656 L 20.710938 16.472656 L 20.710938 16.507812 L 20.675781 16.507812 L 20.675781 16.617188 L 20.636719 16.617188 L 20.636719 16.761719 L 20.710938 16.761719 L 20.710938 16.800781 L 20.746094 16.761719 L 20.746094 16.800781 L 20.78125 16.835938 L 20.78125 16.871094 L 20.820312 16.871094 L 20.820312 16.910156 L 20.855469 16.910156 L 20.855469 16.945312 L 20.925781 16.945312 L 20.925781 16.980469 L 20.964844 16.980469 L 20.964844 17.019531 L 21 17.019531 L 21.035156 17.054688 L 21.070312 17.054688 L 21.070312 17.089844 L 21.179688 17.089844 L 21.179688 17.054688 L 21.214844 17.054688 L 21.214844 17.089844 L 21.253906 17.089844 L 21.253906 17.128906 L 21.289062 17.128906 L 21.289062 17.089844 L 21.398438 17.089844 L 21.398438 17.054688 L 21.433594 17.054688 L 21.433594 17.089844 L 21.542969 17.089844 L 21.542969 17.128906 L 21.613281 17.128906 L 21.613281 17.089844 L 21.792969 17.089844 L 21.792969 17.128906 L 21.867188 17.128906 L 21.867188 17.164062 L 21.9375 17.164062 L 21.9375 17.128906 L 21.976562 17.128906 L 22.046875 17.019531 L 22.082031 16.980469 L 22.121094 16.945312 L 22.121094 16.910156 L 22.15625 16.871094 L 22.15625 16.835938 L 22.191406 16.835938 L 22.265625 16.761719 L 22.300781 16.691406 L 22.300781 16.652344 L 22.335938 16.652344 L 22.335938 16.617188 L 22.371094 16.582031 L 22.410156 16.546875 L 22.445312 16.507812 L 22.554688 16.363281 L 22.660156 16.289062 L 22.699219 16.253906 L 22.804688 16.179688 L 22.84375 16.144531 L 22.878906 16.109375 L 22.914062 16.109375 L 22.914062 16.074219 L 22.949219 16.035156 L 23.023438 16 L 23.023438 16.035156 L 23.09375 16.035156 L 23.09375 16.074219 L 23.203125 16.074219 L 23.203125 16.035156 L 23.421875 16.035156 L 23.421875 16 L 23.492188 16 L 23.53125 15.964844 L 23.566406 15.964844 L 23.566406 15.925781 L 23.601562 15.925781 L 23.601562 15.890625 L 23.636719 15.890625 L 23.636719 15.855469 L 23.710938 15.855469 L 23.746094 15.816406 L 23.78125 15.816406 L 23.78125 15.78125 L 23.855469 15.78125 L 23.855469 15.746094 L 23.964844 15.746094 L 23.964844 15.707031 L 24 15.707031 L 24 15.671875 L 24.035156 15.671875 L 24.035156 15.636719 L 24 15.636719 L 24 15.527344 L 24.035156 15.527344 L 24.035156 15.492188 L 24 15.492188 L 24 15.453125 L 24.035156 15.453125 L 24.035156 15.417969 L 24.070312 15.417969 L 24.070312 15.382812 L 24.035156 15.382812 L 24.035156 15.308594 L 24.070312 15.308594 L 24.070312 15.234375 L 24.144531 15.234375 L 24.144531 15.199219 L 24.179688 15.199219 L 24.179688 15.164062 L 24.214844 15.164062 L 24.214844 15.125 L 24.253906 15.125 L 24.253906 15.164062 L 24.289062 15.164062 L 24.289062 15.125 L 24.253906 15.125 L 24.253906 15.089844 L 24.289062 15.089844 L 24.289062 15.054688 L 24.359375 15.054688 L 24.359375 14.980469 L 24.433594 14.980469 L 24.46875 14.945312 L 24.542969 14.945312 L 24.542969 14.871094 L 24.578125 14.871094 L 24.578125 14.835938 L 24.613281 14.835938 L 24.578125 14.800781 L 24.578125 14.761719 L 24.613281 14.761719 L 24.613281 14.726562 L 24.6875 14.726562 L 24.6875 14.652344 L 24.722656 14.652344 L 24.722656 14.617188 L 24.757812 14.617188 L 24.757812 14.582031 L 24.792969 14.582031 L 24.792969 14.542969 L 24.832031 14.507812 L 24.867188 14.507812 L 24.867188 14.472656 L 24.902344 14.4375 L 24.976562 14.4375 L 24.976562 14.398438 L 25.011719 14.398438 L 25.011719 14.363281 L 25.082031 14.363281 L 25.082031 14.398438 L 25.121094 14.398438 L 25.15625 14.363281 L 25.15625 14.328125 L 25.226562 14.328125 L 25.226562 14.253906 L 25.265625 14.253906 L 25.265625 14.21875 L 25.226562 14.21875 L 25.226562 14.179688 L 25.265625 14.179688 L 25.265625 14.109375 L 25.300781 14.109375 L 25.300781 14.070312 L 25.335938 14.070312 L 25.335938 14.035156 L 25.480469 14.035156 L 25.480469 14 L 25.515625 13.964844 L 25.554688 13.964844 L 25.554688 14 L 25.589844 14 L 25.589844 13.964844 L 25.660156 13.964844 L 25.699219 14 L 25.84375 14 L 25.84375 14.035156 L 25.878906 14.035156 L 25.878906 14 L 25.914062 13.964844 L 25.949219 13.964844 L 25.949219 14 L 25.988281 14 L 25.988281 13.925781 L 26.023438 13.964844 L 26.058594 13.964844 L 26.058594 13.925781 L 26.132812 13.925781 L 26.132812 13.855469 L 26.167969 13.855469 L 26.167969 13.816406 L 26.203125 13.816406 L 26.203125 13.746094 L 26.238281 13.746094 L 26.277344 13.707031 L 26.3125 13.707031 L 26.3125 13.671875 L 26.347656 13.671875 L 26.347656 13.636719 L 26.3125 13.636719 L 26.3125 13.5625 L 26.382812 13.5625 L 26.421875 13.527344 L 26.382812 13.492188 L 26.382812 13.34375 L 26.421875 13.34375 L 26.421875 13.382812 L 26.457031 13.382812 L 26.457031 13.34375 L 26.492188 13.34375 L 26.492188 13.308594 L 26.527344 13.308594 L 26.527344 13.273438 L 26.566406 13.273438 L 26.566406 13.234375 L 26.601562 13.199219 L 26.601562 13.164062 L 26.636719 13.125 L 26.636719 13.089844 L 26.710938 13.089844 L 26.710938 12.945312 L 26.746094 12.945312 L 26.746094 12.980469 L 26.78125 12.980469 L 26.78125 13.015625 L 26.855469 13.015625 L 26.855469 12.980469 L 26.820312 12.980469 L 26.820312 12.910156 L 26.890625 12.910156 L 26.890625 12.871094 L 26.78125 12.871094 L 26.78125 12.835938 L 26.890625 12.835938 L 26.890625 12.761719 L 26.925781 12.800781 L 26.925781 12.726562 L 26.964844 12.726562 L 26.964844 12.691406 L 27 12.691406 L 27.035156 12.652344 L 27.035156 12.582031 L 27 12.582031 L 26.964844 12.542969 L 27.109375 12.542969 L 27.144531 12.582031 L 27.144531 12.542969 L 27.179688 12.542969 L 27.179688 12.472656 L 27.144531 12.472656 L 27.144531 12.398438 L 27.289062 12.398438 L 27.289062 12.4375 L 27.324219 12.4375 L 27.324219 12.363281 L 27.359375 12.363281 L 27.359375 12.289062 L 27.398438 12.289062 L 27.398438 12.253906 L 27.433594 12.253906 L 27.433594 12.21875 L 27.398438 12.179688 L 27.398438 12.109375 L 27.433594 12.109375 L 27.433594 12 L 27.46875 12 L 27.46875 11.960938 L 27.503906 11.960938 L 27.503906 11.890625 L 27.542969 11.890625 L 27.542969 11.746094 L 27.578125 11.746094 L 27.578125 11.671875 L 27.46875 11.671875 L 27.46875 11.5625 L 27.578125 11.5625 L 27.578125 11.597656 L 27.613281 11.597656 L 27.648438 11.636719 L 27.648438 11.671875 L 27.6875 11.707031 L 27.6875 11.746094 L 27.757812 11.816406 L 27.757812 11.855469 L 27.792969 11.925781 L 27.832031 11.925781 L 27.832031 11.960938 L 27.867188 12 L 27.902344 12.070312 L 27.9375 12.144531 L 27.976562 12.179688 L 28.011719 12.21875 L 28.011719 12.253906 L 28.226562 12.253906 L 28.226562 12.289062 L 28.265625 12.289062 L 28.265625 12.328125 L 28.300781 12.328125 L 28.300781 12.363281 L 28.335938 12.4375 L 28.335938 12.617188 L 28.371094 12.652344 L 28.371094 12.726562 L 28.335938 12.761719 L 28.335938 12.800781 L 28.226562 12.910156 L 28.226562 13.015625 L 28.265625 13.015625 L 28.265625 13.125 L 28.300781 13.164062 L 28.300781 13.199219 L 28.335938 13.234375 L 28.335938 13.308594 L 28.371094 13.382812 L 28.410156 13.417969 L 28.410156 13.492188 L 28.445312 13.5625 L 28.480469 13.636719 L 28.480469 13.671875 L 28.554688 13.816406 L 28.515625 13.855469 L 28.445312 13.855469 L 28.445312 13.890625 L 28.410156 13.890625 L 28.410156 13.925781 L 28.445312 13.925781 L 28.445312 13.964844 L 28.480469 13.964844 L 28.480469 13.925781 L 28.625 13.925781 L 28.625 13.964844 L 28.660156 13.964844 L 28.660156 13.925781 L 28.699219 13.925781 L 28.699219 13.964844 L 28.769531 13.964844 L 28.769531 14 L 28.804688 14 L 28.804688 14.035156 L 28.878906 14.035156 L 28.878906 14.070312 L 28.804688 14.070312 L 28.804688 14.179688 L 28.769531 14.179688 L 28.769531 14.21875 L 28.699219 14.21875 L 28.734375 14.253906 L 28.734375 14.289062 L 28.769531 14.289062 L 28.769531 14.328125 L 28.804688 14.328125 L 28.804688 14.363281 L 28.84375 14.363281 L 28.84375 14.398438 L 28.804688 14.398438 L 28.804688 14.472656 L 28.769531 14.507812 L 28.769531 14.542969 L 28.699219 14.542969 L 28.699219 14.582031 L 28.554688 14.582031 L 28.554688 14.726562 L 28.515625 14.800781 L 28.480469 14.835938 L 28.480469 14.871094 L 28.515625 14.910156 L 28.515625 14.945312 L 28.480469 14.945312 L 28.480469 15.019531 L 28.515625 15.019531 L 28.515625 15.054688 L 28.445312 15.054688 L 28.410156 15.089844 L 28.410156 15.125 L 28.335938 15.125 L 28.335938 15.164062 L 28.191406 15.164062 L 28.191406 15.199219 L 28.15625 15.199219 L 28.15625 15.234375 L 28.121094 15.234375 L 28.121094 15.273438 L 28.082031 15.273438 L 28.046875 15.308594 L 28.046875 15.34375 L 28.011719 15.34375 L 28.011719 15.308594 L 27.976562 15.308594 L 27.9375 15.273438 L 27.9375 15.308594 L 27.832031 15.308594 L 27.832031 15.34375 L 27.757812 15.34375 L 27.757812 15.382812 L 27.722656 15.382812 L 27.722656 15.417969 L 27.6875 15.417969 L 27.6875 15.453125 L 27.648438 15.453125 L 27.648438 15.527344 L 27.613281 15.5625 L 27.613281 15.597656 L 27.578125 15.597656 L 27.578125 15.636719 L 27.613281 15.671875 L 27.648438 15.671875 L 27.648438 15.707031 L 27.613281 15.707031 L 27.613281 15.746094 L 27.578125 15.746094 L 27.542969 15.78125 L 27.578125 15.816406 L 27.578125 15.890625 L 27.542969 15.925781 L 27.503906 15.925781 L 27.46875 15.964844 L 27.433594 15.964844 L 27.433594 16 L 27.398438 16.035156 L 27.433594 16.035156 L 27.433594 16.074219 L 27.398438 16.109375 L 27.398438 16.144531 L 27.324219 16.144531 L 27.289062 16.21875 L 27.253906 16.21875 L 27.214844 16.253906 L 27.214844 16.328125 L 27.179688 16.363281 L 27.144531 16.363281 L 27.144531 16.472656 L 27.070312 16.472656 L 27.070312 16.507812 L 27.035156 16.507812 L 27.035156 16.546875 L 27.070312 16.546875 L 27.070312 16.652344 L 27.035156 16.652344 L 27.035156 16.726562 L 26.964844 16.726562 L 26.964844 16.761719 L 26.890625 16.761719 L 26.890625 16.800781 L 26.855469 16.835938 L 26.890625 16.835938 L 26.890625 16.945312 L 26.78125 16.945312 L 26.78125 16.980469 L 26.746094 16.980469 L 26.746094 17.019531 L 26.636719 17.019531 L 26.636719 16.980469 L 26.601562 16.980469 L 26.601562 17.019531 L 26.636719 17.019531 L 26.636719 17.054688 L 26.457031 17.054688 L 26.457031 17.019531 L 26.421875 17.019531 L 26.421875 17.054688 L 26.382812 17.054688 L 26.382812 17.089844 L 26.277344 17.089844 L 26.277344 17.054688 L 26.238281 17.054688 L 26.238281 17.019531 L 26.167969 17.019531 L 26.132812 16.980469 L 26.058594 16.980469 L 26.058594 17.019531 L 26.09375 17.019531 L 26.09375 17.164062 L 26.132812 17.164062 L 26.132812 17.273438 L 26.09375 17.273438 L 26.09375 17.382812 L 26.132812 17.382812 L 26.132812 17.492188 L 26.09375 17.492188 L 26.09375 17.5625 L 26.132812 17.5625 L 26.132812 17.636719 L 25.949219 17.636719 L 25.949219 17.707031 L 25.878906 17.707031 L 25.84375 17.671875 L 25.84375 17.707031 L 25.804688 17.671875 L 25.769531 17.671875 L 25.769531 17.636719 L 25.660156 17.636719 L 25.660156 17.671875 L 25.589844 17.671875 L 25.589844 17.707031 L 25.554688 17.707031 L 25.554688 17.671875 L 25.445312 17.671875 L 25.445312 17.636719 L 25.410156 17.671875 L 25.371094 17.671875 L 25.371094 17.636719 L 25.335938 17.636719 L 25.335938 17.5625 L 25.300781 17.5625 L 25.300781 17.527344 L 25.265625 17.527344 L 25.265625 17.492188 L 25.226562 17.492188 L 25.226562 17.527344 L 25.15625 17.527344 L 25.15625 17.5625 L 24.976562 17.5625 L 24.976562 17.601562 L 24.9375 17.601562 L 24.9375 17.636719 L 24.976562 17.636719 L 24.976562 17.816406 L 24.902344 17.816406 L 24.902344 17.890625 L 24.867188 17.890625 L 24.867188 17.964844 L 24.832031 18 L 24.832031 18.035156 L 24.757812 18.035156 L 24.757812 18.074219 L 24.722656 18.074219 L 24.722656 18.109375 L 24.613281 18.109375 L 24.613281 18.144531 L 24.578125 18.144531 L 24.578125 18.472656 L 24.613281 18.472656 L 24.613281 18.65625 L 24.648438 18.65625 L 24.648438 18.691406 L 24.6875 18.761719 L 24.6875 18.800781 L 24.722656 18.835938 L 24.722656 18.871094 L 24.757812 18.910156 L 25.011719 18.910156 L 25.046875 18.871094 L 25.226562 18.871094 L 25.226562 18.800781 L 25.300781 18.800781 L 25.300781 18.726562 L 25.335938 18.726562 L 25.335938 18.691406 L 25.300781 18.65625 L 25.335938 18.65625 L 25.335938 18.617188 L 25.371094 18.617188 L 25.371094 18.582031 L 25.515625 18.582031 L 25.554688 18.546875 L 25.589844 18.546875 L 25.589844 18.582031 L 25.625 18.582031 L 25.625 18.617188 L 25.660156 18.582031 L 25.699219 18.582031 L 25.699219 18.4375 L 25.769531 18.4375 L 25.769531 18.398438 L 25.804688 18.363281 L 25.84375 18.363281 L 25.84375 18.289062 L 25.878906 18.289062 L 25.914062 18.253906 L 25.914062 18.21875 L 26.023438 18.21875 L 26.023438 18.183594 L 26.058594 18.183594 L 26.058594 18.21875 L 26.132812 18.21875 L 26.132812 18.289062 L 26.203125 18.289062 L 26.203125 18.328125 L 26.238281 18.328125 L 26.277344 18.363281 L 26.277344 18.398438 L 26.3125 18.398438 L 26.347656 18.4375 L 26.347656 18.472656 L 26.382812 18.472656 L 26.382812 18.507812 L 26.421875 18.507812 L 26.421875 18.546875 L 26.457031 18.507812 L 26.457031 18.546875 L 26.492188 18.546875 L 26.492188 18.582031 L 26.527344 18.582031 L 26.527344 18.617188 L 26.566406 18.617188 L 26.566406 18.65625 L 26.601562 18.691406 L 26.601562 18.761719 L 26.636719 18.761719 L 26.636719 18.800781 L 26.566406 18.800781 L 26.566406 18.835938 L 26.492188 18.835938 L 26.492188 18.871094 L 26.527344 18.871094 L 26.527344 18.980469 L 26.566406 18.980469 L 26.566406 19.019531 L 26.601562 19.019531 L 26.601562 19.054688 L 26.636719 19.054688 L 26.636719 19.089844 L 26.671875 19.089844 L 26.671875 19.128906 L 26.78125 19.128906 L 26.78125 19.234375 L 26.820312 19.234375 L 26.820312 19.273438 L 26.890625 19.273438 L 26.890625 19.308594 L 26.925781 19.308594 L 26.925781 19.417969 L 26.890625 19.417969 L 26.890625 19.5625 L 26.855469 19.5625 L 26.855469 19.671875 L 26.890625 19.671875 L 26.890625 19.746094 L 26.855469 19.746094 L 26.855469 19.816406 L 26.820312 19.816406 L 26.820312 19.78125 L 26.78125 19.816406 L 26.746094 19.816406 L 26.746094 19.890625 L 26.78125 19.890625 L 26.78125 19.925781 L 27.070312 19.925781 L 27.070312 19.964844 L 27.179688 19.964844 L 27.179688 20 L 27.324219 20 L 27.324219 19.925781 L 27.359375 19.925781 L 27.359375 19.964844 L 27.398438 19.964844 L 27.398438 20 L 27.359375 20 L 27.359375 20.035156 L 27.324219 20.074219 L 27.324219 20.109375 L 27.289062 20.144531 L 27.324219 20.144531 L 27.324219 20.253906 L 27.289062 20.253906 L 27.289062 20.328125 L 27.253906 20.363281 L 27.214844 20.363281 L 27.214844 20.328125 L 27.144531 20.328125 L 27.144531 20.363281 L 27.070312 20.363281 L 27.070312 20.328125 L 27.035156 20.328125 L 27.035156 20.289062 L 27 20.289062 L 27 20.363281 L 26.964844 20.398438 L 26.964844 20.582031 L 26.890625 20.582031 L 26.890625 20.617188 L 26.78125 20.617188 L 26.78125 20.691406 L 26.746094 20.691406 L 26.746094 20.726562 L 26.636719 20.726562 L 26.636719 20.765625 L 26.527344 20.765625 L 26.527344 20.800781 L 26.492188 20.800781 L 26.492188 20.871094 L 26.527344 20.871094 L 26.527344 20.945312 L 26.492188 20.980469 L 26.492188 21.019531 L 26.457031 21.019531 L 26.457031 21.089844 L 26.421875 21.089844 L 26.421875 21.199219 L 26.382812 21.308594 L 26.382812 21.382812 L 26.347656 21.382812 L 26.347656 21.417969 L 26.277344 21.417969 L 26.277344 21.453125 L 26.238281 21.453125 L 26.238281 21.527344 L 26.203125 21.527344 L 26.203125 21.601562 L 26.238281 21.636719 L 26.238281 21.671875 L 26.277344 21.671875 L 26.277344 21.710938 L 26.3125 21.710938 L 26.3125 21.820312 L 26.277344 21.820312 L 26.457031 21.925781 L 26.457031 21.964844 L 26.421875 22 L 26.421875 22.035156 L 26.382812 22.035156 L 26.382812 22.109375 L 26.347656 22.109375 L 26.347656 22.292969 L 26.3125 22.292969 L 26.3125 22.328125 L 26.421875 22.4375 L 26.421875 22.472656 L 26.457031 22.507812 L 26.457031 22.546875 L 26.527344 22.617188 L 26.527344 22.65625 L 26.492188 22.65625 L 26.238281 22.910156 L 25.988281 22.945312 L 25.988281 22.910156 L 25.949219 22.875 L 25.804688 22.875 L 25.804688 22.835938 L 25.734375 22.835938 L 25.734375 22.800781 L 25.699219 22.800781 L 25.660156 22.835938 L 25.625 22.835938 L 25.625 22.875 L 25.589844 22.910156 L 25.589844 22.945312 L 25.554688 22.980469 L 25.554688 23.054688 L 25.589844 23.054688 L 25.589844 23.089844 L 25.625 23.089844 L 25.625 23.128906 L 25.515625 23.128906 L 25.515625 23.089844 L 25.480469 23.089844 L 25.480469 23.128906 L 25.445312 23.128906 L 25.410156 23.089844 L 25.371094 23.089844 L 25.371094 23.128906 L 25.335938 23.089844 L 25.335938 23.128906 L 25.191406 23.128906 L 25.15625 23.164062 L 25.191406 23.199219 L 25.300781 23.199219 L 25.300781 23.273438 L 25.265625 23.273438 L 25.265625 23.308594 L 25.226562 23.308594 L 25.191406 23.347656 L 25.191406 23.417969 L 25.15625 23.453125 L 25.15625 23.417969 L 25.121094 23.417969 L 25.15625 23.492188 L 25.265625 23.492188 L 25.300781 23.527344 L 25.265625 23.527344 L 25.265625 23.601562 L 25.226562 23.636719 L 25.226562 23.601562 L 25.191406 23.601562 L 25.191406 23.636719 L 25.15625 23.636719 L 25.15625 23.671875 L 25.121094 23.671875 L 25.121094 23.636719 L 25.082031 23.636719 L 25.082031 23.671875 L 25.011719 23.671875 L 25.046875 23.636719 L 24.976562 23.636719 L 24.9375 23.710938 L 24.976562 23.746094 L 24.976562 23.890625 L 24.9375 23.890625 L 24.9375 23.925781 L 24.976562 23.925781 L 24.976562 23.964844 L 24.9375 23.964844 L 24.902344 24 L 24.832031 24 L 24.792969 24.035156 L 24.792969 24.074219 L 24.757812 24.074219 L 24.722656 24.109375 L 24.6875 24.109375 L 24.6875 24.074219 L 24.648438 24.109375 L 24.648438 24.144531 L 24.6875 24.144531 L 24.648438 24.183594 L 24.648438 24.21875 L 24.613281 24.21875 L 24.613281 24.328125 L 24.578125 24.328125 L 24.542969 24.363281 L 24.46875 24.363281 L 24.433594 24.402344 L 24.398438 24.4375 L 24.398438 24.472656 L 24.359375 24.472656 L 24.359375 24.507812 L 24.324219 24.582031 L 24.289062 24.617188 L 24.289062 24.65625 L 24.359375 24.65625 L 24.359375 24.691406 L 24.433594 24.691406 L 24.433594 24.726562 L 24.46875 24.726562 L 24.46875 24.765625 L 24.578125 24.765625 L 24.578125 24.726562 L 24.867188 24.726562 L 24.902344 24.765625 L 24.976562 24.765625 L 24.976562 24.800781 L 25.011719 24.800781 L 25.011719 24.980469 L 25.046875 24.980469 L 25.046875 25.128906 L 25.082031 25.128906 L 25.082031 25.164062 L 25.191406 25.164062 L 25.191406 25.199219 L 25.226562 25.199219 L 25.226562 25.308594 L 25.265625 25.347656 L 25.265625 25.5625 L 25.300781 25.5625 L 25.300781 25.601562 L 25.371094 25.601562 L 25.371094 25.671875 L 25.410156 25.671875 L 25.410156 25.710938 L 25.445312 25.710938 L 25.445312 25.746094 L 25.480469 25.746094 L 25.480469 25.820312 L 25.515625 25.820312 L 25.515625 25.855469 L 25.625 25.855469 L 25.625 25.820312 L 25.660156 25.820312 L 25.660156 25.78125 L 25.699219 25.820312 L 25.769531 25.820312 L 25.699219 25.890625 L 25.769531 25.890625 L 25.804688 25.855469 L 25.878906 25.855469 L 25.878906 25.890625 L 25.914062 25.890625 L 25.949219 25.929688 L 25.988281 25.964844 L 26.058594 25.964844 L 26.058594 26 L 26.132812 26 L 26.132812 26.035156 L 26.058594 26.035156 L 26.058594 26.144531 L 26.09375 26.144531 L 26.09375 26.253906 L 26.058594 26.253906 L 26.058594 26.292969 L 26.09375 26.292969 L 26.09375 26.363281 L 26.058594 26.363281 L 26.058594 26.402344 L 25.988281 26.402344 L 25.988281 26.4375 L 25.878906 26.4375 L 25.878906 26.402344 L 25.769531 26.402344 L 25.769531 26.472656 L 25.589844 26.582031 L 25.554688 26.582031 L 25.554688 26.617188 L 25.515625 26.65625 L 25.515625 26.691406 L 25.445312 26.691406 L 25.410156 26.726562 L 25.335938 26.726562 L 25.335938 26.765625 L 25.191406 26.765625 L 25.15625 26.800781 L 25.082031 26.800781 L 25.082031 26.765625 L 25.046875 26.765625 L 25.046875 26.726562 L 25.011719 26.726562 L 25.011719 26.691406 L 24.976562 26.691406 L 24.976562 26.65625 L 24.9375 26.691406 L 24.867188 26.691406 L 24.867188 26.65625 L 24.832031 26.65625 L 24.832031 26.691406 L 24.867188 26.765625 L 24.792969 26.765625 L 24.792969 26.726562 L 24.757812 26.726562 L 24.757812 26.691406 L 24.722656 26.691406 L 24.6875 26.65625 L 24.648438 26.65625 L 24.648438 26.691406 L 24.503906 26.691406 L 24.46875 26.65625 L 24.359375 26.65625 L 24.359375 26.691406 L 24.253906 26.691406 L 24.214844 26.726562 L 24.214844 26.691406 L 24.179688 26.691406 L 24.179688 26.726562 L 24.070312 26.726562 L 24.070312 26.765625 L 24.109375 26.835938 L 24.109375 26.910156 L 24.070312 26.910156 L 24.070312 26.984375 L 24.109375 26.984375 L 24.109375 27.019531 L 24.144531 27.019531 L 24.109375 27.054688 L 24.109375 27.089844 L 24.144531 27.128906 L 24.144531 27.089844 L 24.253906 27.089844 L 24.253906 27.199219 L 24.214844 27.199219 L 24.214844 27.308594 L 24.144531 27.417969 L 24.109375 27.457031 L 24.070312 27.527344 L 24.035156 27.601562 L 23.964844 27.710938 L 23.925781 27.78125 L 23.890625 27.78125 L 23.820312 27.890625 L 23.78125 27.964844 L 23.746094 28.039062 L 23.601562 28.21875 L 23.566406 28.292969 L 23.386719 28.546875 L 22.988281 28.4375 L 22.878906 28.4375 L 22.699219 28.472656 L 22.515625 28.472656 L 22.515625 28.511719 L 22.480469 28.511719 L 22.480469 28.472656 L 22.445312 28.472656 L 22.445312 28.4375 L 22.265625 28.4375 L 22.265625 28.472656 L 22.191406 28.472656 L 22.15625 28.511719 L 22.15625 28.472656 L 21.976562 28.472656 L 21.976562 28.4375 L 21.792969 28.4375 L 21.757812 28.402344 L 21.757812 28.617188 L 21.648438 28.617188 L 21.648438 28.65625 L 21.613281 28.65625 L 21.613281 28.691406 L 21.46875 28.691406 L 21.46875 28.65625 L 21.433594 28.65625 L 21.398438 28.691406 L 21.324219 28.691406 L 21.324219 28.65625 L 21.289062 28.617188 L 21.253906 28.546875 L 21.214844 28.546875 L 21.214844 28.472656 L 21.253906 28.472656 L 21.253906 28.4375 L 21.214844 28.4375 L 21.214844 28.363281 L 21.179688 28.363281 L 21.179688 28.328125 L 21.109375 28.183594 L 21.070312 28.21875 L 21 28.292969 L 20.925781 28.402344 L 20.890625 28.4375 L 20.890625 28.363281 L 20.78125 28.363281 L 20.78125 28.328125 L 20.675781 28.328125 L 20.675781 28.292969 L 20.710938 28.183594 L 20.710938 28.144531 L 20.636719 28.109375 L 20.601562 28.109375 L 20.601562 28.144531 L 20.421875 28.144531 L 20.421875 28.21875 L 20.386719 28.21875 L 20.386719 28.292969 L 20.347656 28.292969 L 20.347656 28.363281 L 20.3125 28.363281 L 20.3125 28.402344 L 20.277344 28.402344 L 20.277344 28.472656 L 20.242188 28.472656 L 20.242188 28.511719 L 20.203125 28.511719 L 20.203125 28.546875 L 20.167969 28.546875 L 20.167969 28.582031 L 20.132812 28.582031 L 20.132812 28.65625 L 20.097656 28.65625 L 20.097656 28.691406 L 20.058594 28.691406 L 20.023438 28.726562 L 19.988281 28.726562 L 19.953125 28.765625 L 19.699219 28.765625 L 19.699219 28.726562 L 19.664062 28.765625 L 19.664062 28.800781 L 19.554688 28.800781 L 19.554688 28.726562 L 19.515625 28.726562 L 19.515625 28.691406 L 19.480469 28.691406 L 19.480469 28.65625 L 19.410156 28.65625 L 19.410156 28.691406 L 19.371094 28.65625 L 19.335938 28.65625 L 19.300781 28.691406 L 19.191406 28.691406 L 19.191406 28.65625 L 19.226562 28.617188 L 19.191406 28.582031 L 19.191406 28.546875 L 19.15625 28.511719 L 19.121094 28.511719 L 19.121094 28.4375 L 19.082031 28.4375 L 19.082031 28.402344 L 19.046875 28.363281 L 19.046875 28.292969 L 19.082031 28.253906 L 19.082031 28.21875 L 19.046875 28.21875 L 19.082031 28.183594 L 19.082031 28.144531 L 19.121094 28.144531 L 19.082031 28.109375 L 19.121094 28.109375 L 19.121094 28.074219 L 19.082031 28.039062 L 19.082031 27.855469 L 19.121094 27.855469 L 19.121094 27.820312 L 19.15625 27.820312 L 19.15625 27.890625 L 19.191406 27.890625 L 19.191406 27.929688 L 19.265625 27.929688 L 19.300781 28 L 19.300781 27.964844 L 19.335938 27.929688 L 19.371094 27.929688 L 19.371094 27.964844 L 19.410156 27.964844 L 19.410156 28 L 19.515625 28 L 19.515625 27.964844 L 19.554688 27.964844 L 19.554688 27.929688 L 19.589844 27.929688 L 19.589844 27.890625 L 19.769531 27.890625 L 19.808594 27.855469 L 19.808594 27.78125 L 19.699219 27.78125 L 19.699219 27.746094 L 19.664062 27.710938 L 19.589844 27.710938 L 19.589844 27.671875 L 19.515625 27.671875 L 19.515625 27.636719 L 19.554688 27.636719 L 19.554688 27.601562 L 19.625 27.601562 L 19.625 27.566406 L 19.664062 27.566406 L 19.664062 27.382812 L 19.699219 27.382812 L 19.699219 27.347656 L 19.734375 27.347656 L 19.734375 27.273438 L 19.769531 27.238281 L 19.734375 27.238281 L 19.699219 27.199219 L 19.699219 27.164062 L 19.664062 27.164062 L 19.664062 27.019531 L 19.625 27.019531 L 19.625 26.984375 L 19.664062 26.945312 L 19.589844 26.945312 L 19.625 26.910156 L 19.625 26.875 L 19.664062 26.875 L 19.664062 26.835938 L 19.699219 26.835938 L 19.699219 26.800781 L 19.734375 26.765625 L 19.734375 26.800781 L 19.769531 26.765625 L 19.808594 26.765625 L 19.84375 26.726562 L 19.914062 26.726562 L 19.914062 26.765625 L 19.988281 26.765625 L 19.988281 26.726562 L 20.023438 26.726562 L 20.023438 26.65625 L 20.058594 26.65625 L 20.058594 26.617188 L 20.023438 26.617188 L 20.023438 26.546875 L 20.058594 26.472656 L 20.058594 26.253906 L 20.097656 26.253906 L 20.097656 26.183594 L 20.132812 26.183594 L 20.132812 26.144531 L 20.058594 26.144531 L 20.097656 26.109375 L 20.023438 26.074219 L 19.988281 26.035156 L 19.914062 26.035156 L 19.914062 26 L 19.953125 25.964844 L 19.914062 25.964844 L 19.914062 25.929688 L 19.878906 25.890625 L 19.878906 25.855469 L 19.914062 25.820312 L 19.84375 25.820312 L 19.808594 25.78125 L 19.808594 25.820312 L 19.734375 25.820312 L 19.734375 25.855469 L 19.699219 25.855469 L 19.699219 25.78125 L 19.734375 25.710938 L 19.664062 25.710938 L 19.664062 25.671875 L 19.589844 25.671875 L 19.515625 25.636719 L 19.480469 25.601562 L 19.480469 25.5625 L 19.515625 25.527344 L 19.515625 25.492188 L 19.480469 25.492188 L 19.480469 25.417969 L 19.445312 25.417969 L 19.410156 25.382812 L 19.410156 25.347656 L 19.371094 25.347656 L 19.371094 25.308594 L 19.300781 25.238281 L 19.265625 25.238281 L 19.300781 25.199219 L 19.226562 25.199219 L 19.265625 25.164062 L 19.226562 25.164062 L 19.226562 25.128906 L 19.191406 25.128906 L 19.191406 25.089844 L 19.121094 25.089844 L 19.121094 25.054688 L 19.082031 25.089844 L 19.011719 25.089844 L 18.976562 25.128906 L 18.9375 25.128906 L 18.9375 25.164062 L 18.976562 25.164062 L 18.976562 25.417969 L 18.9375 25.382812 L 18.9375 25.417969 L 18.902344 25.417969 L 18.902344 25.382812 L 18.832031 25.347656 L 18.722656 25.238281 L 18.6875 25.199219 L 18.648438 25.199219 L 18.648438 25.164062 L 18.613281 25.128906 L 18.648438 25.089844 L 18.722656 25.019531 L 18.757812 24.980469 L 18.792969 24.945312 L 18.832031 24.910156 L 18.867188 24.875 L 18.902344 24.875 L 18.902344 24.835938 L 18.9375 24.800781 L 18.976562 24.800781 L 18.976562 24.65625 L 18.902344 24.65625 L 18.832031 24.691406 L 18.832031 24.765625 L 18.792969 24.765625 L 18.792969 24.835938 L 18.722656 24.835938 L 18.722656 24.800781 L 18.648438 24.800781 L 18.648438 24.765625 L 18.613281 24.765625 L 18.578125 24.726562 L 18.542969 24.765625 L 18.542969 24.726562 L 18.503906 24.726562 L 18.503906 24.800781 L 18.46875 24.765625 L 18.433594 24.765625 L 18.433594 24.800781 L 18.398438 24.765625 L 18.398438 24.800781 L 18.359375 24.800781 L 18.359375 24.765625 L 18.324219 24.765625 L 18.324219 24.726562 L 18.289062 24.691406 L 18.289062 24.65625 L 18.144531 24.65625 L 18.144531 24.617188 L 18.070312 24.617188 L 18.035156 24.582031 L 18 24.582031 L 18 24.546875 L 17.964844 24.507812 L 17.925781 24.472656 L 17.855469 24.472656 L 17.820312 24.4375 L 17.710938 24.4375 L 17.710938 24.472656 L 17.566406 24.472656 L 17.566406 24.4375 L 17.492188 24.4375 L 17.492188 24.402344 L 17.421875 24.402344 L 17.421875 24.363281 L 17.3125 24.363281 L 17.242188 24.4375 L 17.167969 24.546875 L 17.203125 24.546875 L 17.203125 24.582031 L 17.242188 24.582031 L 17.203125 24.65625 L 17.242188 24.65625 L 17.203125 24.691406 L 17.203125 24.726562 L 17.167969 24.726562 L 17.167969 24.765625 L 17.097656 24.765625 L 17.097656 24.726562 L 17.058594 24.726562 L 17.058594 24.691406 L 16.988281 24.691406 L 16.988281 24.65625 L 16.878906 24.65625 L 16.878906 24.617188 L 16.84375 24.617188 L 16.84375 24.582031 L 16.808594 24.617188 L 16.769531 24.582031 L 16.734375 24.546875 L 16.664062 24.507812 L 16.625 24.507812 L 16.589844 24.472656 L 16.519531 24.4375 L 16.519531 24.402344 L 16.410156 24.402344 L 16.410156 24.363281 L 16.445312 24.328125 L 16.445312 24.21875 L 16.300781 24.109375 L 16.230469 24.035156 L 16.191406 24.109375 L 16.082031 24.21875 L 16.011719 24.183594 L 15.902344 24.144531 L 15.867188 24.109375 L 15.832031 24.109375 L 15.832031 24.144531 L 15.792969 24.109375 L 15.792969 24.144531 L 15.722656 24.144531 L 15.722656 24.21875 L 15.648438 24.21875 L 15.613281 24.253906 L 15.613281 24.328125 L 15.648438 24.328125 L 15.648438 24.363281 L 15.613281 24.363281 L 15.613281 24.402344 L 15.542969 24.328125 L 15.503906 24.328125 L 15.503906 24.363281 L 15.46875 24.402344 L 15.433594 24.4375 L 15.398438 24.4375 L 15.433594 24.472656 L 15.398438 24.472656 L 15.433594 24.507812 L 15.359375 24.507812 L 15.398438 24.546875 L 15.398438 24.582031 L 15.359375 24.546875 L 15.359375 24.582031 L 15.324219 24.617188 L 15.433594 24.65625 L 15.46875 24.691406 L 15.503906 24.691406 L 15.503906 24.765625 L 15.46875 24.765625 L 15.46875 24.800781 L 15.503906 24.800781 L 15.542969 24.765625 L 15.542969 24.800781 L 15.503906 24.835938 L 15.503906 24.875 L 15.46875 24.910156 L 15.46875 24.945312 L 15.503906 24.945312 L 15.503906 25.019531 L 15.398438 25.019531 L 15.398438 25.054688 L 15.359375 25.054688 L 15.359375 25.089844 L 15.324219 25.089844 L 15.253906 25.054688 L 15.214844 25.054688 L 15.179688 25.019531 L 15.179688 25.128906 L 15.144531 25.128906 L 15.144531 25.199219 L 15.109375 25.238281 L 15.070312 25.308594 L 15.035156 25.457031 L 15 25.527344 L 14.964844 25.601562 L 14.925781 25.671875 L 14.925781 25.636719 L 14.890625 25.636719 L 14.890625 25.710938 L 14.855469 25.746094 L 14.855469 25.710938 L 14.746094 25.710938 L 14.746094 25.671875 L 14.710938 25.671875 L 14.710938 25.636719 L 14.636719 25.636719 L 14.636719 25.601562 L 14.566406 25.601562 L 14.492188 25.5625 L 14.492188 25.527344 L 14.457031 25.527344 L 14.457031 25.492188 L 14.386719 25.492188 L 14.386719 25.457031 L 14.3125 25.457031 L 14.3125 25.417969 L 14.242188 25.417969 L 14.242188 25.382812 L 14.167969 25.382812 L 14.167969 25.347656 L 14.132812 25.347656 L 13.988281 25.308594 L 13.988281 25.273438 L 14.097656 25.238281 L 14.097656 25.199219 L 14.132812 25.199219 L 14.097656 25.164062 L 14.097656 25.199219 L 13.988281 24.980469 L 13.953125 24.980469 L 13.953125 24.910156 L 13.914062 24.910156 L 13.878906 24.800781 L 13.84375 24.800781 L 13.84375 24.726562 L 13.808594 24.726562 L 13.808594 24.691406 L 14.023438 24.582031 L 14.097656 24.546875 L 14.132812 24.507812 L 14.203125 24.472656 L 14.242188 24.472656 L 14.277344 24.4375 L 14.53125 24.328125 L 14.601562 24.292969 L 14.675781 24.328125 L 14.710938 24.328125 L 14.710938 24.363281 L 14.78125 24.363281 L 14.78125 24.328125 L 14.746094 24.328125 L 14.746094 24.292969 L 14.710938 24.292969 L 14.710938 24.253906 L 14.675781 24.253906 L 14.710938 24.21875 L 14.746094 24.21875 L 14.746094 24.074219 L 14.78125 24.035156 L 14.78125 23.964844 L 14.746094 23.710938 L 14.710938 23.710938 L 14.710938 23.746094 L 14.636719 23.746094 L 14.636719 23.671875 L 14.601562 23.671875 L 14.566406 23.636719 L 14.566406 23.601562 L 14.53125 23.636719 L 14.492188 23.601562 L 14.347656 23.527344 L 14.347656 23.492188 L 14.3125 23.453125 L 14.3125 23.417969 L 14.167969 23.492188 L 14.097656 23.492188 L 14.097656 23.382812 L 14.132812 23.382812 L 14.132812 23.273438 L 14.347656 23.273438 L 14.566406 23.019531 L 14.566406 22.980469 L 14.675781 22.980469 L 14.675781 22.945312 L 14.746094 22.945312 L 14.78125 22.980469 L 14.820312 22.980469 L 14.820312 22.945312 L 14.925781 22.945312 L 14.925781 22.875 L 14.890625 22.835938 L 14.890625 22.726562 L 14.925781 22.65625 L 14.925781 22.546875 L 14.890625 22.507812 L 14.890625 22.472656 L 14.855469 22.472656 L 14.855469 22.398438 L 14.890625 22.292969 L 14.855469 22.253906 L 14.890625 22.253906 L 14.855469 22.183594 L 14.855469 22.109375 L 14.78125 22.109375 L 14.746094 22.074219 L 14.710938 22.109375 L 14.636719 22.109375 L 14.636719 22.035156 L 14.675781 21.964844 L 14.675781 21.925781 L 14.601562 21.925781 L 14.601562 21.890625 L 14.53125 21.890625 L 14.53125 21.855469 L 14.492188 21.855469 L 14.492188 21.820312 L 14.457031 21.820312 L 14.457031 21.78125 L 14.421875 21.78125 L 14.421875 21.746094 L 14.386719 21.746094 L 14.386719 21.710938 L 14.347656 21.710938 L 14.347656 21.671875 L 14.3125 21.671875 L 14.3125 21.636719 L 14.277344 21.636719 L 14.242188 21.601562 L 14.203125 21.601562 L 14.203125 21.527344 L 14.167969 21.527344 L 14.132812 21.5625 L 14.132812 21.601562 L 14.097656 21.636719 L 14.097656 21.671875 L 14.058594 21.710938 L 14.058594 21.746094 L 13.953125 21.746094 L 13.953125 21.78125 L 13.914062 21.925781 L 13.914062 22 L 13.878906 22 L 13.878906 22.035156 L 13.953125 22.035156 L 13.953125 22.074219 L 13.988281 22.074219 L 13.988281 22.144531 L 13.953125 22.183594 L 13.953125 22.21875 L 13.914062 22.253906 L 13.914062 22.292969 L 13.878906 22.398438 L 13.878906 22.4375 L 13.84375 22.4375 L 13.84375 22.582031 L 13.878906 22.617188 L 13.84375 22.617188 L 13.84375 22.65625 L 13.808594 22.617188 L 13.808594 22.65625 L 13.769531 22.691406 L 13.808594 22.691406 L 13.769531 22.726562 L 13.769531 22.765625 L 13.734375 22.800781 L 13.808594 22.800781 L 13.808594 22.835938 L 13.878906 22.835938 L 13.878906 22.875 L 13.84375 22.945312 L 13.988281 22.945312 L 14.023438 23.128906 L 13.878906 23.128906 L 13.84375 23.164062 L 13.84375 23.128906 L 13.734375 23.164062 L 13.664062 23.164062 L 13.664062 23.128906 L 13.589844 23.054688 L 13.554688 23.054688 L 13.554688 22.945312 L 13.589844 22.945312 L 13.589844 22.726562 L 13.625 22.726562 L 13.625 22.691406 L 13.589844 22.65625 L 13.589844 22.617188 L 13.625 22.582031 L 13.664062 22.582031 L 13.664062 22.546875 L 13.589844 22.546875 L 13.589844 22.472656 L 13.625 22.472656 L 13.625 22.4375 L 13.589844 22.398438 L 13.589844 22.363281 L 13.519531 22.363281 L 13.519531 22.398438 L 13.410156 22.398438 L 13.335938 22.472656 L 13.300781 22.546875 L 13.300781 22.582031 L 13.335938 22.582031 L 13.335938 22.617188 L 13.375 22.617188 L 13.375 22.65625 L 13.335938 22.65625 L 13.335938 22.691406 L 13.300781 22.691406 L 13.300781 22.726562 L 13.230469 22.726562 L 13.230469 22.765625 L 13.191406 22.765625 L 13.191406 22.800781 L 13.230469 22.800781 L 13.230469 22.875 L 13.191406 22.875 L 13.191406 23.019531 L 13.15625 23.019531 L 13.15625 22.945312 L 13.121094 22.945312 L 13.121094 22.910156 L 13.085938 22.910156 L 13.085938 22.582031 L 13.121094 22.472656 L 13.121094 22.363281 L 13.085938 22.363281 L 13.046875 22.328125 L 12.902344 22.328125 L 12.867188 22.292969 L 12.867188 22.183594 L 12.796875 22.109375 L 12.722656 22.074219 L 12.652344 22.109375 L 12.503906 22.109375 L 12.433594 22.144531 L 12.289062 22.144531 L 12.179688 22.109375 L 12.144531 22.109375 L 12.144531 22.144531 L 12.109375 22.183594 L 11.925781 22.183594 L 11.925781 22.21875 L 11.890625 22.21875 L 11.890625 22.183594 L 11.820312 22.183594 L 11.820312 22.21875 L 11.746094 22.21875 L 11.710938 22.183594 L 11.710938 22.363281 L 11.675781 22.363281 L 11.675781 22.4375 L 11.566406 22.4375 L 11.566406 22.582031 L 11.457031 22.65625 L 11.386719 22.65625 L 11.421875 22.691406 L 11.421875 22.765625 L 11.386719 22.765625 L 11.347656 22.800781 L 11.3125 22.800781 L 11.3125 22.765625 L 11.277344 22.765625 L 11.242188 22.726562 L 11.242188 22.800781 L 11.277344 22.800781 L 11.277344 22.835938 L 11.242188 22.835938 L 11.242188 22.875 L 11.132812 22.875 L 11.132812 22.980469 L 11.097656 23.019531 L 11.097656 23.054688 L 11.058594 23.054688 L 11.058594 23.089844 L 11.023438 23.089844 L 11.023438 23.128906 L 10.988281 23.128906 L 10.953125 23.164062 L 10.953125 23.238281 L 10.878906 23.238281 L 10.878906 23.273438 L 10.914062 23.273438 L 10.914062 23.308594 L 10.878906 23.347656 L 10.808594 23.382812 L 10.734375 23.417969 L 10.699219 23.417969 L 10.734375 23.453125 L 10.734375 23.492188 L 10.769531 23.601562 L 10.808594 23.671875 L 10.84375 23.746094 L 10.84375 23.820312 L 10.914062 23.820312 L 10.953125 23.855469 L 10.953125 23.78125 L 10.988281 23.746094 L 10.988281 23.710938 L 11.023438 23.710938 L 11.023438 23.820312 L 10.953125 24 L 10.914062 24 L 10.878906 24.035156 L 10.84375 24.035156 L 10.84375 24.144531 L 10.808594 24.183594 L 10.769531 24.183594 L 10.769531 24.21875 L 10.808594 24.21875 L 10.808594 24.292969 L 10.84375 24.292969 L 10.84375 24.328125 L 10.878906 24.363281 L 10.84375 24.402344 L 10.84375 24.472656 L 10.808594 24.472656 L 10.808594 24.507812 L 10.734375 24.582031 L 10.734375 24.617188 L 10.664062 24.617188 L 10.664062 24.582031 L 10.625 24.617188 L 10.519531 24.617188 L 10.445312 24.726562 L 10.410156 24.875 L 10.085938 24.875 L 10.085938 24.910156 L 10.046875 24.945312 L 10.046875 24.980469 L 10.011719 24.980469 L 10.011719 25.054688 L 9.976562 25.089844 L 9.976562 25.199219 L 9.941406 25.164062 L 9.902344 25.164062 L 9.867188 25.199219 L 9.867188 25.238281 L 9.832031 25.238281 L 9.722656 25.273438 L 9.6875 25.308594 L 9.652344 25.382812 L 9.613281 25.417969 L 9.578125 25.457031 L 9.578125 25.492188 L 9.542969 25.527344 L 9.542969 25.5625 L 9.507812 25.5625 L 9.507812 25.601562 L 9.542969 25.601562 L 9.542969 25.671875 L 9.507812 25.671875 L 9.507812 25.78125 L 9.542969 25.78125 L 9.542969 25.855469 L 9.578125 25.855469 L 9.46875 25.890625 L 9.363281 25.890625 L 9.324219 25.929688 L 9.253906 25.929688 L 9.253906 25.890625 L 9.144531 25.890625 L 9.144531 25.820312 L 9.074219 25.820312 L 9.074219 25.929688 L 9.035156 25.890625 L 9 25.929688 L 9 26.109375 L 9.035156 26.109375 L 9.035156 26.144531 L 9 26.144531 L 9 26.183594 L 8.925781 26.183594 L 8.925781 26.21875 L 8.890625 26.21875 L 8.890625 26.183594 L 8.855469 26.183594 L 8.855469 26.144531 L 8.601562 26.144531 L 8.601562 26.183594 L 8.566406 26.183594 L 8.601562 26.21875 L 8.566406 26.21875 L 8.566406 26.253906 L 8.492188 26.253906 L 8.492188 26.292969 L 8.421875 26.292969 L 8.421875 26.21875 L 8.386719 26.21875 L 8.386719 26.183594 L 8.421875 26.183594 L 8.421875 26.144531 L 8.457031 26.144531 L 8.457031 26.109375 L 8.347656 26.109375 L 8.347656 26 L 8.386719 25.964844 L 8.457031 25.964844 L 8.457031 25.929688 L 8.492188 25.929688 L 8.53125 25.890625 L 8.457031 25.890625 L 8.457031 25.855469 L 8.421875 25.820312 L 8.421875 25.78125 L 8.386719 25.78125 L 8.386719 25.601562 L 8.421875 25.601562 L 8.421875 25.527344 L 8.457031 25.527344 L 8.457031 25.308594 L 8.492188 25.308594 L 8.53125 25.273438 L 8.566406 25.273438 L 8.566406 25.199219 L 8.53125 25.164062 L 8.53125 25.128906 L 8.566406 25.128906 L 8.53125 25.089844 L 8.566406 25.019531 L 8.492188 25.019531 L 8.492188 24.980469 L 8.421875 24.980469 L 8.386719 24.945312 L 8.3125 24.945312 L 8.3125 24.910156 L 8.277344 24.910156 L 8.242188 24.945312 L 8.132812 24.980469 L 7.988281 25.054688 L 7.914062 25.054688 L 7.84375 24.980469 L 7.84375 24.835938 L 7.808594 24.835938 L 7.808594 24.765625 L 7.769531 24.765625 L 7.769531 24.691406 L 7.734375 24.691406 L 7.734375 24.726562 L 7.699219 24.726562 L 7.699219 24.691406 L 7.664062 24.691406 L 7.664062 24.65625 L 7.625 24.65625 L 7.625 24.617188 L 7.589844 24.582031 L 7.554688 24.582031 L 7.519531 24.546875 L 7.480469 24.546875 L 7.589844 24.402344 L 7.625 24.363281 L 7.589844 24.292969 L 7.625 24.292969 L 7.625 24.21875 L 7.589844 24.253906 L 7.554688 24.292969 L 7.519531 24.328125 L 7.445312 24.328125 L 7.410156 24.363281 L 7.375 24.402344 L 7.230469 24.402344 L 7.191406 24.363281 L 7.15625 24.363281 L 7.15625 24.328125 L 7.011719 24.328125 L 7.011719 24.292969 L 6.976562 24.292969 L 6.976562 24.21875 L 6.902344 24.21875 L 7.046875 23.601562 L 7.046875 23.417969 L 7.011719 23.417969 L 7.011719 23.382812 L 6.976562 23.382812 L 6.976562 23.347656 L 7.011719 23.347656 L 7.011719 23.308594 L 7.085938 23.308594 L 7.121094 23.273438 L 7.121094 23.308594 L 7.15625 23.308594 L 7.15625 23.273438 L 7.230469 23.273438 L 7.230469 23.238281 L 7.300781 23.238281 L 7.335938 23.273438 L 7.375 23.273438 L 7.375 23.164062 L 7.335938 23.164062 L 7.335938 23.128906 L 7.375 23.128906 L 7.375 23.089844 L 7.335938 23.089844 L 7.335938 23.054688 L 7.300781 23.054688 L 7.300781 23.019531 L 7.410156 23.019531 L 7.410156 22.980469 L 7.445312 22.980469 L 7.480469 22.945312 L 7.480469 22.800781 L 7.519531 22.800781 L 7.519531 22.765625 L 7.554688 22.765625 L 7.554688 22.726562 L 7.589844 22.726562 L 7.589844 22.65625 L 7.554688 22.65625 L 7.554688 22.507812 L 7.519531 22.507812 L 7.480469 22.363281 L 7.480469 22.292969 L 7.445312 22.253906 L 7.445312 22.21875 L 7.410156 22.109375 L 7.410156 22.035156 L 7.335938 22 L 7.335938 21.964844 L 7.300781 21.925781 L 7.265625 21.890625 L 7.265625 21.855469 L 7.230469 21.820312 L 7.230469 21.671875 L 7.191406 21.671875 L 7.191406 21.636719 L 7.15625 21.636719 L 7.085938 21.5625 L 7.011719 21.492188 L 6.902344 21.417969 L 6.867188 21.273438 L 6.867188 21.128906 L 6.832031 21.128906 L 6.832031 21.054688 L 6.796875 21.054688 L 6.796875 21.019531 L 6.757812 21.019531 L 6.757812 20.980469 L 6.6875 20.980469 L 6.6875 20.945312 L 6.652344 20.910156 L 6.652344 20.835938 L 6.613281 20.800781 L 6.578125 20.726562 L 6.578125 20.691406 L 6.542969 20.65625 L 6.507812 20.65625 L 6.507812 20.617188 L 6.46875 20.546875 L 6.433594 20.546875 L 6.433594 20.507812 L 6.398438 20.472656 L 6.363281 20.472656 L 6.363281 20.4375 L 6.324219 20.4375 L 6.324219 20.398438 L 6.363281 20.363281 L 6.363281 20.328125 L 6.398438 20.363281 L 6.507812 20.363281 L 6.507812 20.328125 L 6.542969 20.328125 L 6.578125 20.289062 L 6.542969 20.253906 L 6.542969 20.21875 L 6.507812 20.183594 L 6.507812 20.144531 L 6.46875 20.109375 L 6.433594 20.035156 L 6.433594 19.964844 L 6.253906 19.964844 L 6.21875 20 L 6.21875 20.035156 L 6.179688 20.074219 L 6.179688 20.144531 L 5.929688 20.144531 L 5.929688 20.183594 L 5.890625 20.183594 L 5.890625 20.144531 L 5.855469 20.144531 L 5.855469 20.035156 L 5.710938 20.035156 L 5.710938 20.074219 L 5.566406 20.074219 L 5.53125 20.035156 L 5.53125 20.144531 L 5.496094 20.183594 L 5.386719 20.183594 L 5.386719 20.144531 L 5.347656 20.144531 L 5.347656 20.109375 L 5.3125 20.109375 L 5.203125 20.074219 L 5.132812 20.074219 L 5.097656 20.109375 L 5.023438 20.144531 L 4.988281 20.183594 L 4.953125 20.183594 L 4.953125 20.21875 L 4.914062 20.21875 L 4.808594 20.328125 L 4.664062 20.472656 L 4.664062 20.4375 L 4.589844 20.363281 L 4.589844 20.253906 L 4.519531 20.253906 L 4.519531 20.183594 L 4.300781 20.183594 L 4.265625 20.109375 L 4.265625 20 L 4.230469 19.964844 L 4.230469 19.925781 L 4.085938 19.925781 L 4.046875 20.035156 L 4.011719 20.109375 L 4.011719 20.144531 L 3.976562 20.21875 L 3.976562 20.144531 L 3.941406 20.109375 L 3.902344 20.109375 L 3.902344 20.074219 L 3.832031 20.074219 L 3.652344 20.035156 L 3.613281 20.035156 L 3.578125 20.074219 L 3.507812 20.144531 L 3.324219 20.144531 L 3.324219 20.109375 L 3.289062 20.109375 L 3.289062 20.074219 L 3.21875 20.074219 L 3.109375 19.964844 L 3.035156 19.964844 L 3.035156 19.925781 L 3 19.925781 L 3 19.890625 L 2.964844 19.890625 L 2.964844 19.855469 L 2.929688 19.855469 L 2.929688 19.816406 L 2.855469 19.816406 L 2.855469 19.78125 L 2.820312 19.78125 L 2.820312 19.746094 L 2.785156 19.710938 L 2.746094 19.710938 L 2.746094 19.671875 L 2.710938 19.671875 L 2.53125 19.492188 L 2.496094 19.453125 L 2.496094 19.417969 L 2.457031 19.417969 L 2.351562 19.308594 L 2.3125 19.273438 L 2.277344 19.273438 L 2.277344 19.234375 L 2.242188 19.234375 L 2.207031 19.199219 L 2.242188 19.164062 L 2.242188 19.128906 L 2.277344 19.164062 L 2.3125 19.164062 L 2.3125 19.128906 L 2.277344 19.089844 L 2.277344 19.019531 L 2.242188 19.019531 L 2.207031 18.980469 L 2.167969 18.945312 L 2.132812 18.910156 L 2.097656 18.871094 L 2.0625 18.871094 L 2.0625 18.835938 L 2.023438 18.800781 L 1.988281 18.800781 L 1.953125 18.761719 L 1.953125 18.726562 L 1.917969 18.726562 L 1.917969 18.691406 L 1.878906 18.691406 L 1.84375 18.65625 L 1.808594 18.617188 L 1.769531 18.582031 L 1.664062 18.507812 L 1.664062 18.472656 L 1.589844 18.4375 L 1.519531 18.363281 L 1.480469 18.398438 L 1.445312 18.4375 L 1.480469 18.4375 L 1.410156 18.507812 L 1.375 18.507812 L 1.375 18.546875 L 1.300781 18.546875 L 1.300781 18.582031 L 1.265625 18.582031 L 1.300781 17.964844 L 1.335938 17.707031 L 1.375 17.164062 L 1.375 17.054688 L 1.410156 17.054688 L 1.410156 16.910156 L 1.445312 16.472656 L 1.519531 15.671875 L 1.554688 15.273438 L 1.554688 15.199219 L 1.664062 14.253906 L 1.84375 14.253906 L 1.84375 14.21875 L 1.953125 14.21875 L 1.953125 14.179688 L 2.023438 14.179688 L 2.023438 14.144531 L 2.097656 14.144531 L 2.097656 14.109375 L 2.132812 14.109375 L 2.132812 14.070312 L 2.277344 14.070312 L 2.277344 14.035156 L 2.3125 14.035156 L 2.3125 13.964844 L 2.496094 13.964844 L 2.496094 14 L 2.53125 13.964844 L 2.566406 13.964844 L 2.566406 13.925781 L 2.710938 13.925781 L 2.710938 13.890625 L 2.785156 13.890625 L 2.785156 13.925781 L 2.820312 13.925781 L 2.820312 13.964844 L 2.929688 13.964844 L 2.929688 13.925781 L 2.964844 13.925781 L 2.964844 13.890625 L 3 13.890625 L 3 13.855469 L 3.035156 13.855469 L 3.035156 13.816406 L 3.074219 13.816406 L 3.074219 13.746094 L 3.109375 13.746094 L 3.109375 13.707031 L 3.144531 13.707031 L 3.144531 13.671875 L 3.324219 13.671875 L 3.363281 13.636719 L 3.363281 13.597656 L 3.398438 13.597656 L 3.398438 13.636719 L 3.433594 13.636719 L 3.433594 13.671875 L 3.542969 13.671875 L 3.542969 13.707031 L 3.613281 13.707031 L 3.613281 13.636719 L 3.578125 13.636719 L 3.578125 13.597656 L 3.722656 13.597656 L 3.722656 13.636719 L 3.757812 13.636719 L 3.757812 13.5625 L 3.796875 13.5625 L 3.796875 13.527344 L 3.832031 13.527344 L 3.832031 13.453125 L 3.867188 13.453125 L 3.867188 13.492188 L 3.902344 13.492188 L 3.902344 13.453125 L 3.976562 13.453125 L 3.976562 13.382812 L 4.085938 13.382812 L 4.085938 13.34375 L 4.121094 13.34375 L 4.121094 13.273438 L 4.230469 13.273438 L 4.230469 13.234375 L 4.265625 13.234375 L 4.265625 13.273438 L 4.300781 13.273438 L 4.300781 13.234375 L 4.375 13.234375 L 4.375 13.199219 L 4.519531 13.199219 L 4.519531 13.234375 L 4.589844 13.234375 L 4.625 13.273438 L 4.664062 13.273438 L 4.664062 13.382812 L 4.699219 13.382812 L 4.699219 13.417969 L 4.734375 13.417969 L 4.734375 13.382812 L 4.769531 13.382812 L 4.808594 13.34375 L 4.808594 13.273438 L 4.878906 13.273438 L 4.878906 13.164062 L 5.058594 13.164062 L 5.058594 13.125 L 5.097656 13.125 L 5.097656 13.015625 L 5.132812 12.980469 L 5.132812 12.945312 L 5.203125 12.945312 L 5.242188 12.980469 L 5.3125 12.980469 L 5.3125 12.800781 L 5.347656 12.800781 L 5.347656 12.761719 L 5.386719 12.761719 L 5.386719 12.726562 L 5.421875 12.691406 L 5.496094 12.691406 L 5.496094 12.617188 L 5.601562 12.617188 L 5.601562 12.582031 L 5.890625 12.582031 L 5.890625 12.542969 L 5.929688 12.542969 L 5.929688 12.472656 L 5.964844 12.4375 L 6 12.398438 L 6.035156 12.398438 L 6.035156 12.363281 L 6.144531 12.363281 L 6.144531 12.328125 L 6.433594 12.328125 L 6.433594 12.21875 L 6.398438 12.179688 L 6.398438 12.144531 L 6.433594 12.144531 L 6.433594 12.109375 L 6.363281 12.109375 L 6.363281 12.070312 L 6.324219 12.070312 L 6.324219 12.035156 L 6.289062 12.035156 L 6.289062 12 L 6.363281 12 L 6.363281 11.890625 L 6.324219 11.890625 L 6.324219 11.816406 L 6.289062 11.816406 L 6.289062 11.78125 L 6.253906 11.78125 L 6.21875 11.746094 L 6.21875 11.707031 L 6.179688 11.707031 L 6.144531 11.671875 L 6.109375 11.671875 L 6.109375 11.636719 L 6.035156 11.636719 L 6.035156 11.597656 L 5.929688 11.597656 L 5.929688 11.488281 L 5.890625 11.488281 L 5.855469 11.453125 L 5.855469 11.417969 L 5.820312 11.417969 L 5.820312 11.34375 L 5.785156 11.34375 L 5.785156 11.273438 L 5.746094 11.234375 L 5.746094 11.015625 L 5.785156 11.015625 L 5.785156 10.980469 L 5.820312 10.945312 L 5.855469 10.945312 L 5.855469 10.90625 L 5.890625 10.90625 L 5.929688 10.871094 L 6 10.871094 L 6.035156 10.835938 L 6.035156 10.800781 L 6.144531 10.800781 L 6.144531 10.761719 L 6.179688 10.761719 L 6.179688 10.691406 L 6.253906 10.691406 L 6.289062 10.652344 L 6.363281 10.652344 L 6.363281 10.507812 L 6.398438 10.507812 L 6.398438 10.398438 L 6.46875 10.398438 L 6.46875 10.328125 L 6.398438 10.328125 L 6.398438 10.21875 L 6.363281 10.21875 L 6.363281 10.179688 L 6.398438 10.179688 L 6.433594 10.21875 L 6.46875 10.253906 L 6.46875 10.21875 L 6.507812 10.21875 L 6.542969 10.179688 L 6.578125 10.144531 L 6.578125 10.035156 L 6.542969 10.035156 L 6.542969 10.070312 L 6.46875 10.070312 L 6.46875 10.035156 L 6.433594 10.035156 L 6.433594 10 L 6.507812 10 L 6.507812 9.925781 L 6.542969 9.925781 L 6.542969 9.890625 L 6.578125 9.890625 L 6.578125 9.851562 L 6.613281 9.851562 L 6.613281 9.816406 L 6.652344 9.816406 L 6.652344 9.671875 L 6.613281 9.671875 L 6.613281 9.636719 L 6.578125 9.597656 L 6.578125 9.5625 L 6.613281 9.5625 L 6.613281 9.527344 L 6.652344 9.527344 L 6.652344 9.488281 L 6.6875 9.453125 L 6.757812 9.453125 L 6.757812 9.417969 L 6.796875 9.417969 L 6.796875 9.378906 L 6.902344 9.378906 L 6.902344 9.308594 L 7.085938 9.308594 L 7.085938 9.273438 L 7.046875 9.273438 L 7.046875 9.199219 L 7.085938 9.164062 L 7.121094 9.164062 L 7.121094 9.199219 L 7.15625 9.199219 L 7.15625 9.234375 L 7.230469 9.234375 L 7.191406 9.199219 L 7.15625 9.199219 L 7.15625 9.164062 L 7.191406 9.125 L 7.191406 9.054688 L 7.230469 9.054688 L 7.230469 8.980469 L 7.265625 8.980469 L 7.265625 8.945312 L 7.300781 8.945312 L 7.300781 8.90625 L 7.265625 8.871094 L 7.300781 8.871094 L 7.300781 8.835938 L 7.265625 8.835938 L 7.265625 8.761719 L 7.300781 8.761719 L 7.335938 8.726562 L 7.335938 8.652344 L 7.375 8.652344 L 7.375 8.542969 L 7.335938 8.542969 L 7.335938 8.507812 L 7.375 8.507812 L 7.375 8.472656 L 7.519531 8.472656 L 7.554688 8.433594 L 7.664062 8.433594 L 7.664062 8.398438 L 7.699219 8.398438 L 7.699219 8.289062 L 7.664062 8.253906 L 7.664062 8.144531 L 7.625 8.109375 L 7.664062 8.109375 L 7.664062 8.070312 L 7.734375 8.070312 L 7.769531 8.035156 L 7.808594 8.035156 L 7.808594 8 L 7.84375 8 L 7.84375 7.960938 L 7.808594 7.925781 L 7.808594 7.960938 L 7.769531 7.960938 L 7.769531 7.925781 L 7.734375 7.925781 L 7.769531 7.890625 L 7.808594 7.890625 L 7.808594 7.851562 L 7.84375 7.851562 L 7.84375 7.816406 L 7.914062 7.816406 L 7.914062 7.746094 L 7.953125 7.746094 L 7.953125 7.707031 L 7.988281 7.671875 L 7.988281 7.597656 L 7.953125 7.597656 L 7.953125 7.5625 L 7.988281 7.5625 L 7.988281 7.488281 L 8.023438 7.453125 L 8.023438 7.417969 L 7.988281 7.417969 L 7.988281 7.378906 L 7.953125 7.378906 L 7.953125 7.34375 L 7.914062 7.34375 L 7.914062 7.199219 L 7.953125 7.199219 L 7.953125 7.125 L 7.988281 7.125 L 7.953125 7.089844 L 7.953125 6.945312 L 7.988281 6.945312 L 7.988281 6.835938 L 8.023438 6.835938 L 8.058594 6.796875 L 8.097656 6.761719 L 8.058594 6.761719 L 8.097656 6.726562 L 8.097656 6.691406 L 8.058594 6.691406 L 8.058594 6.617188 L 8.097656 6.617188 L 8.097656 6.582031 L 8.167969 6.582031 L 8.167969 6.542969 L 8.203125 6.542969 L 8.203125 6.507812 L 8.3125 6.507812 L 8.3125 6.289062 L 8.347656 6.289062 L 8.347656 6.253906 L 8.386719 6.253906 L 8.386719 6.214844 L 8.347656 6.214844 L 8.347656 6.109375 L 8.277344 6.109375 L 8.277344 6.070312 L 8.242188 6.035156 L 8.167969 6.035156 L 8.167969 5.960938 L 8.203125 5.960938 L 8.203125 5.925781 L 8.3125 5.925781 L 8.3125 5.78125 L 8.242188 5.78125 L 8.242188 5.742188 L 8.132812 5.742188 L 8.132812 5.78125 L 8.097656 5.816406 L 8.058594 5.816406 L 8.058594 5.851562 L 8.023438 5.851562 L 7.988281 5.816406 L 7.988281 5.636719 L 7.953125 5.636719 L 7.953125 5.671875 L 7.914062 5.671875 L 7.914062 5.5625 L 7.878906 5.5625 L 7.878906 5.527344 L 7.84375 5.527344 L 7.84375 5.308594 L 7.953125 5.308594 L 7.953125 5.269531 L 8.023438 5.269531 L 8.023438 5.308594 L 8.132812 5.308594 L 8.132812 5.34375 L 8.167969 5.34375 L 8.203125 5.308594 L 8.3125 5.308594 L 8.3125 5.269531 L 8.347656 5.269531 L 8.386719 5.234375 L 8.386719 5.269531 L 8.421875 5.269531 L 8.421875 5.34375 L 8.457031 5.308594 L 8.492188 5.269531 L 8.566406 5.269531 L 8.566406 5.308594 L 8.601562 5.308594 L 8.601562 5.269531 L 8.636719 5.269531 L 8.636719 5.199219 L 8.675781 5.199219 L 8.675781 5.125 L 8.636719 5.125 L 8.636719 4.980469 L 8.675781 4.980469 L 8.675781 4.945312 L 8.710938 4.90625 L 8.746094 4.90625 L 8.746094 4.835938 L 8.855469 4.835938 L 8.855469 4.796875 L 8.890625 4.796875 L 8.890625 4.761719 L 8.925781 4.761719 L 8.925781 4.6875 L 8.964844 4.6875 L 8.964844 4.652344 L 9.035156 4.652344 L 9.035156 4.617188 L 9.074219 4.617188 L 9.074219 4.582031 L 9.179688 4.582031 L 9.179688 4.617188 L 9.21875 4.617188 L 9.21875 4.6875 L 9.253906 4.6875 L 9.253906 4.652344 L 9.363281 4.652344 L 9.363281 4.6875 L 9.398438 4.6875 L 9.398438 4.726562 L 9.433594 4.726562 L 9.46875 4.761719 L 9.46875 4.835938 L 9.507812 4.835938 L 9.507812 4.796875 L 9.542969 4.796875 L 9.542969 4.835938 L 9.507812 4.835938 L 9.507812 4.90625 L 9.542969 4.945312 L 9.578125 4.945312 L 9.578125 4.980469 L 9.613281 4.980469 L 9.613281 4.945312 L 9.6875 4.945312 L 9.6875 4.980469 L 9.722656 4.980469 L 9.722656 5.015625 L 9.6875 5.054688 L 9.6875 5.089844 L 9.722656 5.089844 L 9.722656 5.125 L 9.832031 5.125 L 9.832031 5.160156 L 9.867188 5.160156 L 9.902344 5.199219 L 9.902344 5.234375 L 10.011719 5.234375 L 10.011719 5.269531 L 10.085938 5.269531 L 10.085938 5.234375 L 10.121094 5.234375 L 10.121094 5.199219 L 10.15625 5.199219 L 10.15625 5.160156 L 10.191406 5.125 L 10.230469 5.125 L 10.230469 5.089844 L 10.265625 5.089844 L 10.265625 5.160156 L 10.375 5.160156 L 10.410156 5.199219 L 10.519531 5.199219 L 10.554688 5.160156 L 10.589844 5.160156 L 10.589844 5.125 L 10.625 5.125 L 10.625 5.089844 L 10.589844 5.054688 L 10.625 5.054688 L 10.625 5.015625 L 10.664062 5.015625 L 10.664062 4.980469 L 10.734375 4.980469 L 10.734375 4.945312 L 10.878906 4.945312 L 10.878906 4.90625 L 10.914062 4.945312 L 10.953125 4.945312 L 10.988281 4.90625 L 10.988281 4.871094 L 11.023438 4.871094 L 11.023438 4.835938 L 11.058594 4.835938 L 11.058594 4.761719 L 11.097656 4.761719 L 11.097656 4.652344 L 11.167969 4.652344 L 11.167969 4.6875 L 11.203125 4.6875 L 11.203125 4.652344 L 11.277344 4.652344 L 11.277344 4.617188 L 11.3125 4.617188 L 11.347656 4.582031 L 11.386719 4.582031 L 11.386719 4.542969 L 11.457031 4.542969 L 11.457031 4.507812 L 11.53125 4.507812 L 11.53125 4.542969 L 11.566406 4.542969 L 11.566406 4.507812 L 11.601562 4.507812 L 11.601562 4.472656 L 11.636719 4.472656 L 11.636719 4.433594 L 11.78125 4.433594 L 11.78125 4.507812 L 12 4.507812 L 12.035156 4.472656 L 12.035156 4.363281 L 12.109375 4.363281 L 12.144531 4.398438 L 12.398438 4.398438 L 12.398438 4.363281 L 12.433594 4.363281 L 12.433594 4.289062 L 12.46875 4.289062 L 12.46875 4.324219 L 12.542969 4.324219 L 12.542969 4.253906 L 12.578125 4.253906 L 12.578125 4.214844 L 12.613281 4.214844 L 12.652344 4.179688 L 12.613281 4.179688 L 12.613281 4.144531 L 12.542969 4.144531 L 12.542969 4.070312 L 12.578125 4.070312 L 12.578125 4.109375 L 12.652344 4.109375 L 12.652344 4.070312 L 12.757812 4.070312 L 12.757812 4.109375 L 12.796875 4.109375 L 12.796875 4.179688 L 12.722656 4.179688 L 12.722656 4.214844 L 12.6875 4.214844 L 12.6875 4.253906 L 12.652344 4.253906 L 12.652344 4.289062 L 12.613281 4.289062 L 12.613281 4.324219 L 12.6875 4.324219 L 12.6875 4.363281 L 12.757812 4.363281 L 12.757812 4.398438 L 12.796875 4.398438 L 12.796875 4.324219 L 12.832031 4.324219 L 12.832031 4.289062 L 12.902344 4.289062 L 12.902344 4.253906 L 12.867188 4.253906 L 12.867188 4.214844 L 12.902344 4.179688 L 12.941406 4.179688 L 12.941406 4.144531 L 12.976562 4.144531 L 12.976562 4 L 13.046875 4 L 12.941406 3.632812 L 12.941406 3.488281 L 12.902344 3.453125 L 15.214844 3.453125 L 15.214844 3.5625 L 15.359375 3.671875 L 15.398438 3.707031 L 15.398438 3.925781 L 15.832031 3.925781 L 15.832031 3.960938 L 15.867188 3.960938 L 15.902344 4 L 15.902344 3.960938 L 15.9375 3.960938 L 15.9375 4 L 15.976562 4.035156 L 15.976562 4.070312 L 16.046875 4.070312 L 16.082031 4.035156 L 16.082031 4.070312 L 16.121094 4.070312 L 16.121094 4.109375 L 16.191406 4.109375 L 16.191406 4.144531 L 16.230469 4.179688 L 16.300781 4.179688 L 16.300781 4.214844 L 16.335938 4.214844 L 16.335938 4.179688 L 16.445312 4.179688 L 16.445312 4.144531 L 16.664062 4.144531 L 16.664062 4.179688 L 16.699219 4.179688 L 16.699219 4.214844 L 16.734375 4.179688 L 16.734375 4.144531 L 16.769531 4.144531 L 16.769531 4.109375 L 16.808594 4.109375 L 16.808594 4.070312 L 16.769531 4.070312 L 16.769531 4 L 16.734375 3.960938 L 16.769531 3.960938 L 16.769531 3.890625 L 16.953125 3.890625 L 16.953125 3.925781 L 16.988281 3.925781 L 16.988281 3.960938 L 16.953125 4 L 17.058594 4 L 17.058594 3.960938 L 17.132812 3.960938 L 17.132812 3.851562 L 17.675781 3.851562 L 17.675781 3.890625 Z M 17.710938 3.890625 " fill-opacity="1" fill-rule="evenodd"/><path fill="#ddc9a3" d="M 16.480469 3.707031 L 16.480469 3.671875 L 16.589844 3.671875 L 16.589844 3.707031 L 16.664062 3.707031 L 16.664062 3.742188 L 16.625 3.78125 L 16.625 3.816406 L 16.664062 3.851562 L 16.664062 3.816406 L 16.699219 3.816406 L 16.699219 3.78125 L 16.734375 3.78125 L 16.734375 3.742188 L 16.769531 3.742188 L 16.769531 3.78125 L 16.878906 3.78125 L 16.878906 3.816406 L 16.914062 3.816406 L 16.914062 3.851562 L 16.953125 3.851562 L 16.953125 3.890625 L 16.699219 3.890625 L 16.699219 3.925781 L 16.625 3.925781 L 16.625 3.890625 L 16.589844 3.890625 L 16.589844 3.851562 L 16.519531 3.78125 L 16.519531 3.742188 L 16.480469 3.742188 Z M 16.480469 3.707031 " fill-opacity="1" fill-rule="evenodd"/><path fill="#ddc9a3" d="M 20.3125 0.617188 L 20.277344 0.617188 L 20.277344 0.652344 Z M 21.144531 0.363281 L 21.144531 0.324219 L 21.179688 0.324219 L 21.179688 0.363281 L 21.253906 0.363281 L 21.253906 0.433594 L 21.214844 0.433594 L 21.214844 0.507812 L 21.253906 0.507812 L 21.253906 0.46875 L 21.324219 0.46875 L 21.324219 0.433594 L 21.359375 0.433594 L 21.359375 0.46875 L 21.398438 0.46875 L 21.398438 0.617188 L 21.433594 0.617188 L 21.433594 0.871094 L 21.398438 0.871094 L 21.433594 0.90625 L 21.398438 0.90625 L 21.398438 0.980469 L 21.433594 0.980469 L 21.433594 1.015625 L 21.46875 1.015625 L 21.46875 1.050781 L 21.503906 1.050781 L 21.503906 1.089844 L 21.46875 1.125 L 21.433594 1.125 L 21.398438 1.160156 L 21.324219 1.160156 L 21.324219 1.199219 L 21.289062 1.199219 L 21.289062 1.125 L 21.214844 1.125 L 21.214844 1.089844 L 21.179688 1.089844 L 21.179688 1.125 L 21.144531 1.125 L 21.144531 1.160156 L 21.109375 1.160156 L 21.109375 1.199219 L 21.070312 1.199219 L 21.070312 1.234375 L 21.035156 1.234375 L 21.035156 1.269531 L 21 1.269531 L 21 1.34375 L 21.035156 1.34375 L 21.035156 1.417969 L 21 1.453125 L 21 1.488281 L 20.964844 1.488281 L 20.964844 1.523438 L 20.855469 1.632812 L 20.855469 1.671875 L 20.820312 1.671875 L 20.820312 1.707031 L 20.78125 1.742188 L 20.78125 1.78125 L 20.746094 1.78125 L 20.746094 1.816406 L 20.710938 1.851562 L 20.710938 1.890625 L 20.675781 1.890625 L 20.675781 1.960938 L 20.636719 2.035156 L 20.636719 2.070312 L 20.601562 2.105469 L 20.566406 2.144531 L 20.566406 2.179688 L 20.53125 2.179688 L 20.53125 2.214844 L 20.492188 2.214844 L 20.492188 2.253906 L 20.421875 2.324219 L 20.421875 2.363281 L 20.386719 2.398438 L 20.386719 2.433594 L 20.347656 2.433594 L 20.347656 2.472656 L 20.457031 2.472656 L 20.457031 2.507812 L 20.492188 2.507812 L 20.492188 2.542969 L 20.53125 2.542969 L 20.566406 2.578125 L 20.566406 2.617188 L 20.601562 2.617188 L 20.636719 2.652344 L 20.675781 2.6875 L 20.710938 2.6875 L 20.710938 2.726562 L 20.746094 2.726562 L 20.746094 2.761719 L 20.820312 2.761719 L 20.820312 2.726562 L 20.855469 2.726562 L 20.855469 2.761719 L 20.890625 2.726562 L 21 2.726562 L 21 2.652344 L 21.433594 2.652344 L 21.433594 2.6875 L 21.46875 2.6875 L 21.46875 2.726562 L 21.433594 2.726562 L 21.433594 2.796875 L 21.46875 2.796875 L 21.46875 2.90625 L 21.433594 2.90625 L 21.433594 2.945312 L 21.324219 2.945312 L 21.324219 2.980469 L 21.289062 2.980469 L 21.289062 3.054688 L 21.324219 3.054688 L 21.324219 3.125 L 21.359375 3.125 L 21.398438 3.160156 L 21.433594 3.125 L 21.433594 3.089844 L 21.503906 3.089844 L 21.503906 3.160156 L 21.578125 3.160156 L 21.578125 3.199219 L 21.613281 3.199219 L 21.613281 3.234375 L 21.648438 3.234375 L 21.648438 3.269531 L 21.722656 3.269531 L 21.722656 3.308594 L 21.6875 3.308594 L 21.6875 3.34375 L 21.648438 3.34375 L 21.613281 3.378906 L 21.648438 3.417969 L 21.792969 3.417969 L 21.792969 3.632812 L 21.757812 3.632812 L 21.757812 3.671875 L 21.792969 3.671875 L 21.792969 3.78125 L 21.902344 3.78125 L 21.902344 3.816406 L 21.976562 3.816406 L 21.976562 3.851562 L 22.011719 3.851562 L 22.011719 3.890625 L 18.179688 3.890625 L 18.179688 3.78125 L 18.214844 3.78125 L 18.214844 3.707031 L 18.289062 3.707031 L 18.324219 3.671875 L 18.289062 3.671875 L 18.289062 3.597656 L 18.324219 3.597656 L 18.324219 3.527344 L 18.359375 3.527344 L 18.359375 3.5625 L 18.398438 3.5625 L 18.433594 3.527344 L 18.433594 3.597656 L 18.46875 3.597656 L 18.46875 3.632812 L 18.503906 3.632812 L 18.542969 3.597656 L 18.542969 3.671875 L 18.578125 3.671875 L 18.578125 3.707031 L 18.613281 3.742188 L 18.613281 3.78125 L 18.6875 3.816406 L 18.6875 3.742188 L 18.722656 3.742188 L 18.722656 3.78125 L 18.902344 3.78125 L 18.9375 3.816406 L 18.9375 3.78125 L 19.011719 3.78125 L 18.976562 3.742188 L 19.046875 3.742188 L 19.046875 3.707031 L 19.121094 3.707031 L 19.121094 3.671875 L 19.15625 3.671875 L 19.191406 3.632812 L 19.265625 3.632812 L 19.300781 3.597656 L 19.300781 3.5625 L 19.371094 3.5625 L 19.371094 3.527344 L 19.410156 3.527344 L 19.410156 3.488281 L 19.445312 3.488281 L 19.445312 3.453125 L 19.410156 3.453125 L 19.445312 3.417969 L 19.410156 3.417969 L 19.445312 3.378906 L 19.445312 3.34375 L 19.480469 3.269531 L 19.445312 3.234375 L 19.480469 3.234375 L 19.480469 3.089844 L 19.515625 3.054688 L 19.515625 2.761719 L 19.480469 2.726562 L 19.410156 2.726562 L 19.410156 2.617188 L 19.445312 2.617188 L 19.445312 2.578125 L 19.515625 2.578125 L 19.515625 2.542969 L 19.480469 2.542969 L 19.480469 2.433594 L 19.445312 2.433594 L 19.445312 2.398438 L 19.480469 2.398438 L 19.480469 2.253906 L 19.554688 2.253906 L 19.554688 2.214844 L 19.589844 2.214844 L 19.589844 2.144531 L 19.480469 2.144531 L 19.515625 2.105469 L 19.515625 2 L 19.480469 2 L 19.480469 1.960938 L 19.445312 1.960938 L 19.445312 1.890625 L 19.410156 1.890625 L 19.410156 1.925781 L 19.371094 1.925781 L 19.371094 1.960938 L 19.335938 1.960938 L 19.335938 1.925781 L 19.300781 1.925781 L 19.300781 1.851562 L 19.226562 1.851562 L 19.226562 1.816406 L 19.15625 1.816406 L 19.15625 1.78125 L 19.121094 1.78125 L 19.082031 1.742188 L 18.792969 1.742188 L 18.757812 1.707031 L 18.722656 1.707031 L 18.722656 1.671875 L 18.648438 1.671875 L 18.648438 1.632812 L 18.613281 1.632812 L 18.613281 1.597656 L 18.503906 1.597656 L 18.503906 1.5625 L 18.46875 1.5625 L 18.46875 1.523438 L 18.433594 1.523438 L 18.433594 1.488281 L 18.398438 1.488281 L 18.398438 1.417969 L 18.359375 1.417969 L 18.359375 1.34375 L 18.289062 1.34375 L 18.289062 1.234375 L 18.324219 1.234375 L 18.398438 1.160156 L 18.398438 1.199219 L 18.722656 1.199219 L 18.722656 1.125 L 18.757812 1.125 L 18.757812 1.089844 L 18.792969 1.089844 L 18.792969 1.050781 L 18.832031 1.050781 L 18.832031 0.90625 L 18.902344 0.90625 L 18.902344 0.871094 L 18.9375 0.871094 L 18.9375 0.945312 L 19.011719 0.945312 L 19.011719 0.90625 L 19.082031 0.90625 L 19.082031 0.980469 L 19.121094 0.980469 L 19.121094 0.90625 L 19.191406 0.90625 L 19.191406 1.015625 L 19.226562 1.015625 L 19.226562 0.980469 L 19.265625 0.980469 L 19.265625 0.945312 L 19.300781 0.945312 L 19.300781 1.015625 L 19.515625 1.015625 L 19.515625 0.980469 L 19.554688 0.980469 L 19.554688 0.90625 L 19.589844 0.90625 L 19.589844 0.871094 L 19.625 0.871094 L 19.625 0.796875 L 19.699219 0.796875 L 19.699219 0.761719 L 19.734375 0.761719 L 19.734375 0.835938 L 19.769531 0.835938 L 19.769531 0.761719 L 19.988281 0.761719 L 20.023438 0.796875 L 20.023438 0.726562 L 20.058594 0.726562 L 20.058594 0.6875 L 20.097656 0.6875 L 20.097656 0.652344 L 20.203125 0.652344 L 20.203125 0.578125 L 20.386719 0.578125 L 20.386719 0.652344 L 20.492188 0.652344 L 20.492188 0.6875 L 20.457031 0.6875 L 20.457031 0.726562 L 20.492188 0.761719 L 20.492188 0.796875 L 20.53125 0.796875 L 20.53125 0.835938 L 20.566406 0.835938 L 20.566406 0.871094 L 20.601562 0.871094 L 20.601562 0.835938 L 20.675781 0.835938 L 20.675781 0.90625 L 20.710938 0.90625 L 20.710938 0.945312 L 20.746094 0.945312 L 20.746094 0.90625 L 20.820312 0.90625 L 20.820312 0.871094 L 20.855469 0.871094 L 20.855469 0.796875 L 20.746094 0.796875 L 20.710938 0.761719 L 20.746094 0.761719 L 20.746094 0.6875 L 20.78125 0.6875 L 20.820312 0.652344 L 20.855469 0.652344 L 20.855469 0.617188 L 20.890625 0.617188 L 20.890625 0.578125 L 20.855469 0.578125 L 20.855469 0.507812 L 20.890625 0.507812 L 20.890625 0.46875 L 20.925781 0.507812 L 20.925781 0.542969 L 21 0.542969 L 21 0.507812 L 21.035156 0.507812 L 21.070312 0.46875 L 21.070312 0.433594 L 21.144531 0.433594 Z M 21.144531 0.363281 " fill-opacity="1" fill-rule="evenodd"/><path fill="#ddc9a3" d="M 17.132812 3.816406 L 17.097656 3.816406 L 17.132812 3.78125 L 17.386719 3.78125 L 17.386719 3.816406 L 17.421875 3.816406 L 17.421875 3.78125 L 17.457031 3.742188 L 17.492188 3.742188 L 17.492188 3.707031 L 17.53125 3.707031 L 17.53125 3.742188 L 17.566406 3.78125 L 17.566406 3.851562 L 17.132812 3.851562 Z M 17.132812 3.816406 " fill-opacity="1" fill-rule="evenodd"/><path fill="#ddc9a3" d="M 17.925781 3.78125 L 17.964844 3.742188 L 18.035156 3.742188 L 18.035156 3.78125 L 18.070312 3.78125 L 18.070312 3.816406 L 18.035156 3.816406 L 18.035156 3.851562 L 17.710938 3.851562 L 17.675781 3.816406 L 17.675781 3.78125 L 17.710938 3.78125 L 17.710938 3.816406 L 17.746094 3.816406 L 17.746094 3.78125 L 17.78125 3.78125 L 17.78125 3.742188 L 17.820312 3.742188 L 17.820312 3.78125 L 17.78125 3.78125 L 17.78125 3.816406 L 17.820312 3.816406 L 17.820312 3.78125 L 17.855469 3.78125 L 17.855469 3.816406 L 17.890625 3.816406 L 17.890625 3.78125 Z M 17.925781 3.78125 " fill-opacity="1" fill-rule="evenodd"/><path fill="#ddc9a3" d="M 23.710938 3.632812 L 23.746094 3.597656 L 23.746094 3.632812 L 23.78125 3.632812 L 23.78125 3.671875 L 23.820312 3.671875 L 23.820312 3.632812 L 23.855469 3.632812 L 23.855469 3.671875 L 23.820312 3.671875 L 23.820312 3.707031 L 23.964844 3.707031 L 23.964844 3.742188 L 23.601562 3.742188 L 23.601562 3.707031 L 23.675781 3.707031 L 23.675781 3.671875 Z M 23.710938 3.632812 " fill-opacity="1" fill-rule="evenodd"/><path fill="#ddc9a3" d="M 14.097656 2 L 14.097656 1.960938 L 14.132812 1.960938 L 14.132812 1.925781 L 14.167969 1.925781 L 14.167969 2 L 14.242188 2 L 14.277344 2.035156 L 14.277344 2 L 14.3125 2 L 14.3125 1.925781 L 14.347656 1.925781 L 14.347656 1.890625 L 14.421875 1.890625 L 14.421875 1.851562 L 14.457031 1.851562 L 14.457031 1.960938 L 14.492188 2 L 14.53125 2.144531 L 14.53125 2.105469 L 14.601562 2.105469 L 14.601562 2.070312 L 14.636719 2.070312 L 14.675781 2.144531 L 14.675781 2.253906 L 14.710938 2.289062 L 14.710938 2.542969 L 14.746094 2.542969 L 14.746094 2.578125 L 14.78125 2.617188 L 14.820312 2.617188 L 14.820312 2.652344 L 14.78125 2.652344 L 14.78125 2.6875 L 14.820312 2.6875 L 14.820312 2.726562 L 14.855469 2.726562 L 14.855469 2.835938 L 14.820312 2.835938 L 14.820312 2.90625 L 14.855469 2.945312 L 14.855469 2.980469 L 14.925781 2.980469 L 14.925781 2.945312 L 15 2.945312 L 15 2.980469 L 15.070312 2.980469 L 15.070312 3.015625 L 15.109375 2.980469 L 15.144531 2.980469 L 15.144531 3.054688 L 15.109375 3.054688 L 15.109375 3.089844 L 15 3.089844 L 14.964844 3.160156 L 14.925781 3.160156 L 14.925781 3.234375 L 15.035156 3.234375 L 15.035156 3.308594 L 15.070312 3.34375 L 15.070312 3.417969 L 15.144531 3.417969 L 15.144531 3.453125 L 12.902344 3.453125 L 12.902344 3.34375 L 12.832031 3.308594 L 12.6875 3.308594 L 12.652344 3.269531 L 12.578125 3.199219 L 12.578125 3.054688 L 12.613281 3.015625 L 12.613281 2.980469 L 12.652344 2.980469 L 12.6875 2.945312 L 12.796875 2.945312 L 12.832031 2.90625 L 12.832031 2.871094 L 12.902344 2.796875 L 12.902344 2.578125 L 12.867188 2.542969 L 12.902344 2.542969 L 12.902344 2.472656 L 12.867188 2.433594 L 12.867188 2.363281 L 12.976562 2.363281 L 12.941406 2.398438 L 13.011719 2.398438 L 13.011719 2.363281 L 13.046875 2.363281 L 13.046875 2.324219 L 13.085938 2.324219 L 13.085938 2.363281 L 13.121094 2.324219 L 13.15625 2.324219 L 13.15625 2.289062 L 13.191406 2.289062 L 13.191406 2.324219 L 13.230469 2.324219 L 13.230469 2.289062 L 13.300781 2.289062 L 13.300781 2.214844 L 13.335938 2.214844 L 13.375 2.179688 L 13.410156 2.179688 L 13.410156 2.144531 L 13.519531 2.144531 L 13.519531 2.105469 L 13.699219 2.105469 L 13.734375 2.070312 L 13.769531 2.070312 L 13.769531 2.105469 L 13.84375 2.105469 L 13.878906 2.070312 L 13.914062 2.070312 L 13.914062 2.105469 L 14.023438 2.105469 L 14.023438 2.070312 L 13.988281 2.070312 L 13.988281 2.035156 L 14.023438 2.035156 L 13.988281 2 Z M 14.097656 2 " fill-opacity="1" fill-rule="evenodd"/><path fill="#ddc9a3" d="M 14.78125 25.746094 L 14.820312 25.710938 L 14.820312 25.746094 Z M 14.78125 25.746094 " fill-opacity="1" fill-rule="evenodd"/><path fill="#ddc9a3" d="M 13.808594 22.765625 L 13.769531 22.726562 L 13.808594 22.726562 Z M 13.808594 22.765625 " fill-opacity="1" fill-rule="evenodd"/><path fill="#ddc9a3" d="M 15.503906 3.925781 L 15.503906 3.890625 L 15.542969 3.851562 L 15.578125 3.851562 L 15.648438 3.78125 L 15.792969 3.78125 L 15.792969 3.925781 Z M 15.503906 3.925781 " fill-opacity="1" fill-rule="evenodd"/><path fill="#ddc9a3" d="M 17.457031 3.671875 L 17.492188 3.671875 L 17.492188 3.707031 L 17.457031 3.707031 Z M 17.457031 3.671875 " fill-opacity="1" fill-rule="evenodd"/><path fill="#ddc9a3" d="M 23.964844 3.632812 L 24 3.632812 L 24 3.671875 L 23.964844 3.671875 Z M 23.964844 3.632812 " fill-opacity="1" fill-rule="evenodd"/><path fill="#ddc9a3" d="M 24.144531 3.488281 L 24.289062 3.488281 L 24.289062 3.527344 L 24.144531 3.527344 Z M 24.144531 3.488281 " fill-opacity="1" fill-rule="evenodd"/><path fill="#ddc9a3" d="M 12.902344 3.488281 L 12.902344 3.453125 L 12.941406 3.488281 Z M 12.902344 3.488281 " fill-opacity="1" fill-rule="evenodd"/><path fill="#ddc9a3" d="M 15.109375 3.089844 L 15.144531 3.089844 L 15.144531 3.125 L 15.109375 3.125 Z M 15.109375 3.089844 " fill-opacity="1" fill-rule="evenodd"/><path fill="#ddc9a3" d="M 21.46875 0.871094 L 21.433594 0.835938 L 21.46875 0.835938 Z M 21.46875 0.871094 " fill-opacity="1" fill-rule="evenodd"/></svg>