<svg xmlns="http://www.w3.org/2000/svg" width="40" height="40" version="1.0" viewBox="0 0 30 30"><path fill="#ddc9a3" fill-rule="evenodd" d="M24.832 9.781h-.074v.07h-.035v.04h-.035v.035h-.22v.035h-.034l-.036-.035h-.144l-.04.035-.034.039v.035h-.07V10h-.04v-.074h.04V9.89h.035v-.145h.035l-.035-.039h.757v.074h.035v.035h-.035v.036h-.035v-.036h-.035Zm0 0"/><path fill="#ddc9a3" fill-rule="evenodd" d="M17.71 3.89v-.038h.36v.039h.04v.035h-.04V4h-.035v.11h.035v.035h.075l.035-.036V4.07h.035V4h-.035v-.11h3.867v.07h.11v.075h.07v.035h.039v.075h.18v-.036h.034v.036l.036-.036h.074V4.07h.07v-.035h.074v.035h.07v.075h.04v-.036h.105V4.07h.04v-.035h.034v.035h.036v.04h.074v-.04h.035l.035-.035v.035l.04.04v-.075h.105L23.387 4v-.04l-.04-.034h.04v-.074h.035l.035-.036h.035l.04-.035v-.039H24v-.07h.035v-.11h.035v-.035h.254v.07l-.035.036v.219h-.035v.074l-.04.035V4h-.105v.035l-.039.035-.035.04v.105h.035v.039h.145v.035h.039v.11h.07v-.036h.074v-.039l.036.04v-.04h.144v.074h.035v.036h.035l.04.039h.035v.035l.035-.035h.035v-.075h.039v-.035h.035v-.039h.035v-.07l.035.035.04.035V4.29h.035v-.074h.035v-.07h.18v.035h-.036v.074h.145v.035h.035v.035l.04.04v.034h-.04v.036l-.035.039.035.035.04.035h.034l.035.039h.036v.035h.039v.035h-.04v.035l-.035-.035v.035l-.035.04v.109h.07v-.04h.075v-.034h.144v.035l.036.039h.074l.035.035v.074l.035.035h.035v.036h.074v.039h.07v.035h.04l.035.035h.035v.035l.035.04v.179h-.035v.039h-.035v.11l.035.07v.074l.035.035-.035.035v.11l-.035.039v.07L26.133 6h-.04l-.034.035v.11h.035v.035l-.035.035h-.036V6.18h-.035v-.035h-.074v.035h-.07v-.035h-.04v-.036h-.034v-.074h-.07L25.66 6v.07l-.035.04h.035v.105h-.07v.039h-.035v.035h-.04v.035h-.035v.149h.036v.109l-.036.035-.109.035h-.035v.04H25.3v.07h.035v.035l-.035.039v.07h-.035v.04h.105v.144h-.035v.11l-.035.034v.036h-.035v-.036h-.04V7.2h-.035l-.035-.035h-.035v.145h-.039v.109h-.035v.035h-.035v.074l-.035.035v.036h.035v.074h-.035v.11l.07.07h.035l.04.039v-.04h.034v-.035h.07v.075h-.035v.035h-.035v.035h-.035V8h.035v.035h-.035v.035h-.039v.04h-.18v.035h-.109v.074l-.035.035v.07h-.035v.149l-.035.035v.074h-.04v.035h-.035v.035h.035v.04h.04v.035h.035v.144h.035v.074h-.11v.035h.04v.075h.035v.11l.07.07h.039v.038h-.039v.07l.039.036v-.035h.035v.035h.11l.035.039.035-.04v.04h.035v-.04h.074v.04h.035v-.04h.036v.04h-.036v.07h-.035v.11h-.035v.109h-.039v.04h-.035v-.04h-.07v-.035h-.075v.035h-.793v.074h-.039v-.035h-.035v-.039h-.07v.04h-.04v.105l-.034.039-.036.035h-.035l-.039.035h-.07v-.035h-.035V9.89h-.074v-.04h-.036v-.07h-.109l.035-.035h.074v-.039h.036l.035-.035h.074l.07-.035v-.04h.074v-.034h.036v-.11l-.036-.035v.035h-.035l-.039-.035h-.07v-.184h-.145V9.2h-.109v.035l-.035-.035v-.035h-.11v-.039h.036v-.07h.039v-.04h-.04v-.109h.04v-.105l.035-.04.035-.034h-.07V8.69h-.04v.07h-.035v.04h-.035v.035h-.074l.04-.035h-.04l-.035-.04-.035-.034h-.04v.035h-.07v.11h-.074v.034h-.144v-.035h-.106v-.035h-.144v.035h-.04v.035h-.07v.074h-.074v-.035h-.035v.035h-.07v.036h-.04V8.98h-.035v.075h-.035v.035l-.035.035h-.039v.04h-.035v.034h-.035v.035h-.035v.04h.035l-.035.035v.035l-.04.035-.035.039v.07h-.035v.075l.035.035v.148l-.035.035v.07l-.035.04v.035h-.039v.035h-.035V10h-.035v.07h.035v.075h-.035v.074l.035.035v.074l.035.035v.035h.039v.075h.035v.035h.035l.035.035h-.035v.039h-.07v.035h-.184v.035h-.035v.04h-.035v.035h-.11l-.034.035h-.11v.039l-.07-.04v.04h-.04v.035h-.07V10.8h-.035v-.04l-.039-.034v-.075H21v.04h-.074v.035l.039.035.035.039v.035h.11v.035h-.075v.035H21v.04h-.11v.034h-.035v.036h-.035v.039h-.039v.035h-.035v.11l.035.109h-.035v.035h-.035v.074l-.035-.035v.035l-.04-.035v.105h-.07v.04h-.074v.144h.04v.074l.034.035v.035l.036.04v.035h.035v.035h.039v.035h.07v-.07l.035-.036v-.109h.04v-.039l.034-.035h.036v-.035h.074v-.04H21l-.035-.034H21v-.036h.035v-.039h.035v.04h.04v-.075h.105v-.035h.039v-.074h.07l.035-.035h.075v-.036h.144v-.039h.035V11.2h.075l.035-.035h.035v-.039h.035v-.035h.039v-.035h.035v-.04h.035v-.035h.035l.04-.035v-.039h.035v-.07h.035V10.8h.035v-.074h.074v-.075h.07l.04-.035v-.035h.035v-.039l.035.039v.07h.035v.075h-.035v.035H22.3v.11l-.035.034v.074h-.04v.036h-.035v.039h.036v.035h-.036v.035l-.035.04h-.035v.034h-.039l-.035.035v.04h-.035v.144h-.035v-.074h-.11v.039h-.035l-.039.035h.039v.18h-.039v.148h-.035v.145h-.07v.035h-.075V12h-.07v.035h-.074v.035h-.035v.075h-.036v.035h-.039v.039h-.035v.07h-.035v.04h.035v.108h.035v.07h.04v.145h.035v.075l.035.035v.074h.074v.11h.035v.109h-.035v.07h-.04v-.035h-.214v-.035h-.074v-.04h-.145l-.035.04-.035.07-.035.04v.034h-.04v.11l-.034.035v.039h.035l-.035.035h.035v.11h-.035v.034h.035v.145h-.035v.11l-.036.038v.036h-.035l-.039.144h-.035v.035h-.035v.04h-.035v.035h-.04v.035h-.034v.039h-.07l-.04.035h-.035v.074h-.035v.07h-.219v.04h-.035v.035h-.145v.035l-.035.035h-.074v.039h-.035v.11l.035.035h.074v.035h.035v.074h.036v.035h.074v.04h.035v.034h-.035v.035h.035v.04h.035v.035h.04v.07h.034v.04h.035v.034h.036v.035h.039v.04h.035v.035h.035v.035h.035v.148l.04.035v.036h.034v.035h-.035v.039h.035v.18h.036v.109l-.036.039v.07h.036v.074h-.036v.036h.036v.074h.074v.035h-.074v.035h.074v.184h.035v.035h-.035v.11h-.04v.144h.075v.039l.035-.04v.04l.035.035v.035h.04v.04h.034v.034h.07v.035h.04v.04H21l.035.035h.035v.035h.11v-.035h.035v.035h.039v.039h.035v-.04h.11v-.034h.035v.035h.109v.039h.07v-.04h.18v.04h.074v.035h.07v-.035h.04l.07-.11.035-.039.04-.035v-.035l.034-.039v-.035h.035l.075-.074.035-.07v-.04h.035v-.035l.035-.035.04-.035.034-.04.11-.144.105-.074.04-.035.105-.074.039-.035.035-.036h.035v-.035l.035-.039.074-.035v.035h.07v.04h.11v-.04h.219V16h.07l.04-.035h.034v-.04h.036v-.034h.035v-.036h.074l.035-.039h.035v-.035h.074v-.035h.11v-.039H24v-.035h.035v-.035H24v-.11h.035v-.035H24v-.039h.035v-.035h.035v-.035h-.035v-.074h.035v-.075h.075V15.2h.035v-.035h.035v-.039h.039v.04h.035v-.04h-.035v-.035h.035v-.035h.07v-.075h.075l.035-.035h.074v-.074h.035v-.035h.035l-.035-.035v-.04h.035v-.034h.075v-.075h.035v-.035h.035v-.035h.035v-.039l.039-.035h.035v-.035l.035-.036h.075v-.039h.035v-.035h.07v.035h.04l.034-.035v-.035h.07v-.074h.04v-.035h-.04v-.04h.04v-.07h.035v-.039h.035v-.035h.144V14l.036-.035h.039V14h.035v-.035h.07l.04.035h.144v.035h.035V14l.035-.035h.035V14h.04v-.074l.034.039h.036v-.04h.074v-.07h.035v-.039h.035v-.07h.035l.04-.039h.035v-.035h.035v-.035h-.035v-.075h.07l.039-.035-.04-.035v-.148h.04v.039h.035v-.04h.035v-.034h.035v-.036h.04v-.039l.035-.035v-.035l.035-.039v-.035h.074v-.145h.035v.035h.035v.036h.074v-.036h-.035v-.07h.07v-.039h-.109v-.035h.11v-.074l.035.039v-.074h.039v-.036H27l.035-.039v-.07H27l-.035-.039h.144l.036.039v-.039h.035v-.07h-.035v-.075h.144v.04h.035v-.075h.035v-.074h.04v-.035h.035v-.035l-.036-.04v-.07h.036V12h.035v-.04h.035v-.07h.039v-.144h.035v-.074h-.11v-.11h.11v.036h.035l.035.039v.035l.04.035v.04l.07.07v.038l.035.07h.039v.036l.035.039.035.07.035.075.04.035.035.039v.035h.215v.035h.039v.04h.035v.034l.035.075v.18l.035.034v.075l-.035.035v.039l-.11.11v.105h.04v.109l.035.04v.034l.035.035v.075l.035.074.04.035v.074l.034.07.035.075v.035l.075.144-.04.04h-.07v.035h-.035v.035h.035v.039h.035v-.04h.145v.04h.035v-.04h.04v.04h.07V14h.035v.035h.074v.035h-.074v.11h-.035v.039h-.07l.034.035v.035h.036v.04h.035v.034h.039v.035h-.04v.075l-.034.035v.035h-.07v.039h-.145v.145l-.04.074-.035.035v.035l.036.04v.034h-.036v.075h.036v.035h-.07l-.036.035v.035h-.074v.04h-.145v.034h-.035v.035h-.035v.04h-.039l-.035.035v.035h-.035v-.035h-.035l-.04-.036v.036h-.105v.035h-.074v.039h-.035v.035h-.035v.035h-.04v.074l-.035.036v.035h-.035v.039l.035.035h.035v.035h-.035v.04h-.035l-.035.034.035.035v.075l-.035.035h-.04l-.034.039h-.035V16l-.036.035h.036v.04l-.036.034v.036h-.074l-.035.074h-.035l-.04.035v.074l-.034.035h-.035v.11h-.075v.035h-.035v.039h.035v.105h-.035v.075h-.07v.035h-.074v.039l-.036.035h.036v.11h-.11v.034h-.035v.04h-.11v-.04h-.034v.04h.035v.035h-.18v-.035h-.035v.035h-.04v.035h-.105v-.035h-.039v-.035h-.07l-.035-.04h-.074v.04h.035v.144h.039v.11h-.04v.109h.04v.11h-.04v.07h.04v.074h-.184v.07h-.07l-.035-.035v.035l-.04-.035h-.034v-.035h-.11v.035h-.07v.035h-.035v-.035h-.11v-.035l-.035.035h-.039v-.035h-.035v-.075H25.3v-.035h-.035v-.035h-.04v.035h-.07v.035h-.18v.04h-.038v.035h.039v.18h-.075v.074h-.035v.074l-.035.035v.035h-.074v.04h-.035v.034h-.11v.036h-.035v.328h.035v.183h.035v.035l.04.07v.04l.035.035v.035l.035.04h.254l.035-.04h.18v-.07h.074v-.074h.035v-.036l-.035-.035h.035v-.039h.035v-.035h.145l.039-.035h.035v.035h.035v.035l.035-.035h.04v-.145h.07v-.039l.035-.035h.039v-.074h.035l.035-.035v-.035h.11v-.035h.035v.035h.074v.07h.07v.04h.035l.04.034v.035h.035l.035.04v.035h.035v.035h.039v.039l.035-.04v.04h.035v.035h.035v.035h.04v.04l.035.034v.07h.035v.04h-.07v.035h-.075v.035h.035v.11h.04v.039h.035v.035h.035v.035h.035v.039h.11v.105h.038v.04h.07v.035h.036v.109h-.035v.145h-.036v.109h.036v.074h-.036v.07h-.035v-.035l-.039.035h-.035v.075h.035v.035h.29v.039h.109V20h.144v-.074h.035v.039h.04V20h-.04v.035l-.035.04v.034l-.035.036h.035v.109h-.035v.074l-.035.035h-.04v-.035h-.07v.035h-.074v-.035h-.035v-.039H27v.074l-.035.035v.184h-.074v.035h-.11v.074h-.035v.036h-.11v.039h-.109v.035h-.035v.07h.035v.074l-.035.035v.04h-.035v.07h-.035v.11l-.04.109v.074h-.034v.035h-.07v.035h-.04v.074h-.035v.075l.035.035v.035h.04v.039h.035v.11h-.036l.18.105v.039l-.035.035v.035h-.04v.074h-.034v.184h-.035v.035l.109.11v.035l.035.035v.039l.07.07v.04h-.035l-.254.253-.25.035v-.035l-.039-.035h-.144v-.04h-.07v-.034h-.036l-.039.035h-.035v.039l-.035.035v.035l-.035.035v.075h.035v.035h.035v.039h-.11v-.04h-.035v.04h-.035l-.035-.04h-.039v.04l-.035-.04v.04h-.145l-.035.035.035.035h.11v.074h-.035v.036h-.04l-.035.039v.07l-.035.035v-.035h-.035l.035.074h.11l.035.035h-.035v.075l-.04.035v-.035h-.035v.035h-.035v.035h-.035v-.035h-.039v.035h-.07l.035-.035h-.07l-.04.074.04.035v.145h-.04v.035h.04v.039h-.04l-.035.035h-.07l-.039.035v.04h-.035l-.035.034h-.035v-.035l-.04.035v.036h.04l-.04.039v.035h-.035v.11h-.035l-.035.034h-.074l-.035.04-.036.035v.035h-.039v.035l-.035.074-.035.035v.04h.07v.034h.075v.036h.035v.039h.11v-.04h.288l.035.04h.075v.035h.035v.18h.035v.148h.035v.035h.11v.035h.035v.11l.039.039v.215h.035v.039h.07v.07h.04v.039h.034v.035h.035v.074h.036v.035h.109v-.035h.035v-.039l.04.04h.07l-.07.07h.07l.035-.036h.074v.036h.035l.035.039.04.035h.07V26h.074v.035h-.074v.11h.035v.109h-.035v.039h.035v.07h-.035v.04h-.07v.035h-.11v-.036h-.11v.07l-.18.11h-.034v.035l-.04.04v.034h-.07l-.035.036h-.074v.039h-.145l-.035.035h-.074v-.035h-.035v-.04h-.035v-.035h-.035v-.035l-.04.035h-.07v-.035h-.035v.035l.035.075h-.074v-.04h-.035v-.035h-.035l-.035-.035h-.04v.035h-.144l-.035-.035h-.11v.035h-.105l-.04.036v-.036h-.034v.036h-.11v.039l.04.07v.074h-.04v.074h.04v.036h.035l-.036.035v.035l.036.039v-.04h.109v.11h-.04v.11l-.07.109-.035.039-.039.07-.035.075-.07.109-.04.07h-.034l-.07.11-.04.074-.035.074-.144.18-.036.074-.18.254-.398-.11h-.11l-.179.036h-.183v.039h-.036v-.04h-.035v-.035h-.18v.036h-.074l-.035.039v-.04h-.18v-.035h-.183l-.035-.035v.215h-.11v.04h-.035v.034h-.144v-.035h-.035l-.036.035h-.074v-.035l-.035-.039-.035-.07h-.04v-.074h.04v-.035h-.04v-.075h-.034v-.035l-.07-.144-.04.035-.07.074-.074.11-.035.035v-.075h-.11v-.035h-.105v-.035l.035-.11v-.038l-.074-.036h-.035v.036h-.18v.074h-.035v.074h-.04v.07h-.035v.04h-.035v.07h-.035v.039h-.039v.035h-.035v.035h-.035v.074h-.035v.035h-.04l-.035.036h-.035l-.035.039H19.7v-.04l-.035.04v.035h-.11v-.074h-.038v-.036h-.036v-.035h-.07v.035l-.039-.035h-.035l-.035.035h-.11v-.035l.036-.039-.036-.035v-.035l-.035-.035h-.035v-.075h-.039v-.035l-.035-.039v-.07l.035-.04v-.034h-.035l.035-.035v-.04h.04l-.04-.035h.04v-.035l-.04-.035v-.184h.04v-.035h.034v.07h.035v.04h.075l.035.07v-.035l.035-.035h.035v.035h.04V28h.105v-.035h.039v-.035h.035v-.04h.18l.039-.035v-.074h-.11v-.035l-.035-.035h-.074v-.04h-.074v-.034h.039v-.035h.07v-.036h.04v-.183h.034v-.035h.035v-.075l.036-.035h-.036L19.7 27.2v-.035h-.035v-.144h-.039v-.036l.04-.039h-.075l.035-.035v-.035h.04v-.04h.034v-.034l.035-.035v.035l.036-.035h.039l.035-.04h.07v.04h.074v-.04h.035v-.07h.036v-.039h-.036v-.07l.036-.074v-.22h.039v-.07h.035v-.038h-.074l.039-.036-.075-.035-.035-.039h-.074V26l.04-.035h-.04v-.035l-.035-.04v-.035l.035-.035h-.07l-.035-.039v.04h-.075v.034H19.7v-.074l.035-.07h-.07v-.04h-.074l-.074-.034-.036-.035v-.04l.036-.035v-.035h-.036v-.074h-.035l-.035-.035v-.035h-.039v-.04l-.07-.07h-.035l.035-.039h-.074l.039-.035h-.04v-.035h-.035v-.04h-.07v-.034l-.039.035h-.07l-.035.039h-.04v.035h.04v.254l-.04-.035v.035h-.035v-.035l-.07-.035-.11-.11-.035-.039h-.039v-.035l-.035-.035.035-.04.075-.07.035-.039.035-.035.039-.035.035-.035h.035v-.04l.035-.034h.04v-.145h-.075l-.07.035v.075h-.039v.07h-.07V24.8h-.075v-.035h-.035l-.035-.04-.035.04v-.04h-.04v.075l-.034-.035h-.035v.035l-.036-.035v.035h-.039v-.035h-.035v-.04l-.035-.035v-.035h-.144v-.039h-.075l-.035-.035H18v-.035l-.035-.04-.04-.034h-.07l-.035-.035h-.11v.035h-.144v-.035h-.074v-.036h-.07v-.039h-.11l-.07.075-.074.109h.035v.035h.04l-.04.074h.04l-.04.035v.036h-.035v.039h-.07v-.04h-.04v-.035h-.07v-.035h-.11v-.039h-.034v-.035l-.035.035-.04-.035-.035-.035-.07-.04h-.039l-.035-.034-.07-.035v-.036h-.11v-.039l.035-.035v-.11l-.144-.109-.07-.074-.04.074-.109.11-.07-.035-.11-.04-.035-.035h-.035v.036l-.039-.036v.036h-.07v.074h-.075l-.035.035v.074h.035v.035h-.035v.04l-.07-.075h-.04v.035l-.034.04-.035.035h-.036l.036.035h-.036l.036.035h-.075l.04.039v.035l-.04-.035v.035l-.035.035.11.04.035.034h.035v.075h-.035v.035h.035l.039-.035v.035l-.04.035v.039l-.034.035v.035h.035v.075h-.106v.035h-.039v.035h-.035l-.07-.035h-.04l-.034-.035v.109h-.035v.07l-.036.04-.039.07-.035.148-.035.07-.035.075-.04.07v-.035h-.034v.074l-.036.035v-.035h-.109v-.04h-.035v-.034h-.074v-.035h-.07l-.075-.04v-.035h-.035v-.035h-.07v-.035h-.075v-.039h-.07v-.035h-.074v-.035h-.035l-.145-.04v-.035l.11-.035V25.2h.035l-.035-.035v.035l-.11-.219h-.035v-.07h-.039l-.035-.11h-.035v-.073h-.035v-.036l.214-.109.075-.035.035-.04.07-.034h.04l.034-.035.254-.11.07-.035.075.035h.035v.035h.07v-.035h-.035v-.035h-.035v-.04h-.035l.035-.034h.035v-.145l.035-.039v-.07l-.035-.254h-.035v.035h-.074v-.074h-.035l-.036-.035v-.035l-.035.035-.039-.035-.144-.075v-.035l-.036-.039v-.035l-.144.074h-.07v-.11h.035v-.109h.215l.218-.253v-.04h.11v-.035h.07l.035.035h.04v-.035h.105v-.07l-.035-.04v-.108l.035-.07v-.11l-.035-.04v-.034h-.036v-.075l.036-.105-.036-.04h.036l-.036-.07v-.074h-.074l-.035-.035-.035.035h-.074v-.074l.039-.07v-.04h-.074v-.034h-.07v-.036h-.04v-.035h-.035v-.039h-.035v-.035h-.035v-.035h-.04v-.04h-.034v-.034h-.036l-.035-.035h-.039v-.075h-.035l-.035.035v.04l-.035.035v.035l-.04.039v.035h-.105v.035l-.039.145V22h-.035v.035h.074v.04h.035v.07l-.035.039v.035l-.039.035v.039l-.035.105v.04h-.035v.144l.035.035h-.035v.04l-.035-.04v.04l-.04.034h.04l-.04.036v.039l-.035.035h.075v.035h.07v.039l-.035.07h.144l.035.184h-.144l-.035.035v-.035l-.11.035h-.07v-.035l-.074-.074h-.035v-.11h.035v-.218h.035v-.036l-.035-.035v-.039l.035-.035h.04v-.035h-.075v-.074h.035v-.035l-.035-.04v-.035h-.07v.035h-.11l-.074.075-.035.074v.035h.035v.035h.039v.04h-.04v.034h-.034v.036h-.07v.039h-.04v.035h.04v.074h-.04v.145h-.035v-.075h-.035v-.035h-.035v-.328l.035-.11v-.109h-.035l-.04-.035h-.144l-.035-.035v-.11l-.07-.074-.074-.035-.07.035h-.15l-.07.036h-.144l-.11-.036h-.034v.036l-.036.039h-.183v.035h-.035v-.035h-.07v.035h-.075l-.035-.035v.18h-.035v.073h-.11v.145l-.109.074h-.07l.035.035v.075h-.035l-.04.035h-.034v-.035h-.036l-.035-.04v.075h.035v.035h-.035v.039h-.11v.105l-.034.04v.035h-.04v.035h-.035v.039h-.035l-.035.035v.074h-.074v.035h.035v.036l-.035.039-.07.035-.075.035H10.7l.035.035v.04l.036.109.039.07.035.074v.074h.07l.04.035v-.074l.034-.035v-.035h.035v.11l-.07.179h-.039l-.035.035h-.035v.11l-.035.039h-.04v.035h.04v.074h.035v.035l.035.035-.035.04v.07h-.035v.035l-.075.074v.035h-.07v-.035l-.039.035h-.105l-.075.11-.035.148h-.324v.035l-.04.035v.035h-.034v.075l-.035.035v.11l-.036-.036h-.039l-.035.035v.04h-.035l-.11.034-.034.036-.036.074-.039.035-.035.039v.035l-.035.035v.035h-.035v.04h.035v.07h-.035v.11h.035v.073h.035l-.11.036h-.105l-.039.039h-.07v-.04h-.11v-.07h-.07v.11l-.039-.04-.035.04v.18h.035v.035H9v.039h-.074v.035H8.89v-.035h-.036v-.04h-.253v.04h-.036l.036.035h-.036v.035h-.074v.039h-.07v-.074h-.035v-.035h.035v-.04h.035v-.035h-.11V26l.04-.035h.07v-.035h.035l.04-.04h-.075v-.035l-.035-.035v-.039h-.035v-.18h.035v-.074h.035v-.218h.035l.04-.036h.034V25.2l-.035-.035v-.035h.035l-.035-.04.035-.07h-.074v-.039h-.07l-.035-.035h-.075v-.035h-.035l-.035.035-.11.035-.144.075h-.074l-.07-.075v-.144h-.035v-.07h-.04v-.075h-.035v.036H7.7v-.036h-.035v-.035h-.039v-.039l-.035-.035h-.035l-.035-.035h-.04l.11-.145.035-.039-.035-.07h.035v-.074l-.035.035-.035.039-.035.035h-.075l-.035.035-.035.04H7.23l-.039-.04h-.035v-.035h-.144v-.035h-.035v-.074h-.075l.145-.617v-.184h-.035v-.035h-.035v-.035h.035v-.04h.074l.035-.035v.036h.035v-.036h.074v-.035h.07l.036.035h.039v-.109h-.04v-.035h.04v-.04h-.04v-.034h-.034v-.035h.11v-.04h.034l.035-.035v-.144h.04v-.035h.035v-.04h.035v-.07h-.035v-.148H7.52l-.04-.145v-.07l-.035-.04v-.034l-.035-.11v-.074L7.336 22v-.035l-.035-.04-.035-.034v-.036l-.036-.035v-.148h-.039v-.035h-.035l-.07-.075-.074-.07-.11-.074-.035-.145v-.144h-.035v-.074h-.035v-.035h-.04v-.04h-.07v-.035l-.035-.035v-.074l-.039-.035-.035-.074v-.036l-.035-.035h-.035v-.039l-.04-.07h-.034v-.04l-.036-.034h-.035v-.035h-.039v-.04l.04-.035v-.035l.034.035h.11v-.035h.035l.035-.039-.035-.035v-.035l-.035-.035v-.04l-.04-.035-.034-.074v-.07h-.18L6.219 20v.035l-.04.04v.07h-.25v.039h-.038v-.04h-.036v-.109h-.144v.04h-.145l-.035-.04v.11l-.035.039h-.11v-.04h-.038v-.035h-.035l-.11-.035h-.07l-.035.035-.075.036-.035.039h-.035v.035h-.039l-.105.11-.145.144v-.035l-.074-.075v-.11h-.07v-.07H4.3l-.034-.074V20l-.036-.035v-.04h-.144l-.04.11-.034.074v.036l-.035.074v-.074l-.036-.036h-.039v-.035h-.07l-.18-.039h-.039l-.035.04-.07.07h-.184v-.036H3.29v-.035h-.07l-.11-.11h-.074v-.038H3v-.035h-.035v-.036H2.93v-.039h-.075v-.035H2.82v-.035l-.035-.035h-.039v-.04h-.035l-.18-.179-.035-.039v-.035h-.039l-.105-.11-.04-.035h-.035v-.039h-.035l-.035-.035.035-.035v-.035l.035.035h.035v-.035l-.035-.04v-.07h-.035l-.035-.039-.039-.035-.035-.035-.035-.039h-.035v-.035l-.04-.035h-.035l-.035-.04v-.034h-.035v-.036h-.04l-.034-.035-.035-.039-.04-.035-.105-.074v-.035l-.074-.035-.07-.075-.04.035-.035.04h.035l-.07.07h-.035v.039h-.074v.035h-.035l.035-.617.035-.258.039-.543v-.11h.035v-.144l.035-.437.075-.801.035-.399V15.2l.11-.945h.179v-.035h.11v-.04h.07v-.034h.074v-.036h.035v-.039h.144v-.035h.035v-.07h.184V14l.035-.035h.035v-.04h.145v-.034h.074v.035h.035v.039h.11v-.04h.035v-.034H3v-.036h.035v-.039h.04v-.07h.034v-.039h.036v-.035h.18l.038-.035v-.04h.035v.04h.036v.035h.109v.035h.07v-.07h-.035v-.04h.145v.04h.035v-.075h.039v-.035h.035v-.074h.035v.04h.035v-.04h.075v-.07h.109v-.04h.035v-.07h.11v-.039h.035v.04H4.3v-.04h.074V13.2h.145v.035h.07l.035.04h.04v.109h.034v.035h.035v-.035h.036l.039-.04v-.07h.07v-.109h.18v-.039h.039v-.11l.035-.035v-.035h.07l.04.035h.07v-.18h.035v-.038h.039v-.035l.035-.036h.074v-.074h.106v-.035h.289v-.039h.039v-.07l.035-.036.035-.039h.035v-.035h.11v-.035h.289v-.11l-.036-.038v-.035h.036v-.036h-.07v-.039h-.04v-.035H6.29V12h.074v-.11h-.039v-.074H6.29v-.035h-.035l-.035-.035v-.039h-.04l-.034-.035h-.036v-.035h-.074v-.04H5.93v-.109h-.04l-.035-.035v-.035H5.82v-.074h-.035v-.07l-.039-.04v-.218h.04v-.036l.034-.035h.035v-.039h.036l.039-.035H6l.035-.035V10.8h.11v-.04h.035v-.07h.074l.035-.039h.074v-.144h.035v-.11h.07v-.07h-.07v-.11h-.035v-.038h.035l.036.039.035.035v-.035h.039l.035-.04.035-.034v-.11h-.035v.035h-.074v-.035h-.035V10h.074v-.074h.035V9.89h.035v-.04h.035v-.035h.04v-.144h-.04v-.035l-.035-.04v-.034h.035v-.036h.04v-.039l.035-.035h.07v-.035h.039v-.04h.105v-.07h.184v-.035h-.04V9.2l.04-.035h.035V9.2h.035v.035h.074L7.191 9.2h-.035v-.035l.035-.039v-.07h.04V8.98h.035v-.035H7.3v-.039l-.035-.035H7.3v-.035h-.035v-.074H7.3l.035-.035v-.075h.039v-.109h-.04v-.035h.04v-.035h.145l.035-.04h.11v-.035h.034V8.29l-.035-.035v-.11l-.039-.035h.04V8.07h.07l.035-.035h.039V8h.035v-.04l-.035-.034v.035h-.04v-.035h-.035l.036-.035h.039v-.04h.035v-.035h.07v-.07h.04v-.039l.034-.035v-.074h-.035v-.035h.035v-.075l.035-.035v-.035h-.035v-.04h-.035v-.034h-.039v-.145h.04v-.074h.034l-.035-.035v-.145h.035v-.11h.035l.036-.038.039-.035h-.04l.04-.035V6.69h-.04v-.074h.04v-.035h.07v-.039h.035v-.035h.11v-.219h.035v-.035h.039v-.04h-.04V6.11h-.07V6.07l-.035-.035h-.074v-.074h.035v-.035h.11V5.78h-.07v-.039h-.11v.04l-.035.034h-.04v.036h-.035l-.035-.036v-.18h-.035v.036h-.039v-.11H7.88v-.035h-.035V5.31h.11v-.04h.07v.04h.109v.035h.035l.035-.035h.11v-.04h.035l.039-.035v.036h.035v.074l.035-.035.035-.04h.074v.04h.036v-.04h.035V5.2h.039v-.074h-.04V4.98h.04v-.035l.035-.039h.035v-.07h.11v-.04h.035v-.034h.035v-.074h.039v-.036h.07v-.035h.04v-.035h.105v.035h.039v.07h.035v-.035h.11v.035h.034v.04h.036l.035.035v.074h.039v-.04h.035v.04h-.035v.07l.035.04h.035v.034h.035v-.035h.075v.035h.035v.036l-.036.039v.035h.036v.035h.109v.035h.035l.035.04v.034h.11v.036h.074v-.036h.035V5.2h.035V5.16l.035-.035h.04V5.09h.035v.07h.109l.035.04h.11l.035-.04h.035v-.035h.035V5.09l-.035-.035h.035v-.04h.04V4.98h.07v-.035h.144v-.039l.035.04h.04l.034-.04v-.035h.035v-.035h.036v-.074h.039v-.11h.07v.035h.035v-.035h.074v-.035h.036l.035-.035h.039v-.039h.07v-.035h.074v.035h.035v-.035h.036v-.035h.035v-.04h.144v.075H12l.035-.035v-.11h.074l.036.035h.253v-.035h.036V4.29h.035v.035h.074v-.07h.035v-.04h.035l.04-.034h-.04v-.035h-.07V4.07h.035v.04h.074v-.04h.106v.04h.039v.07h-.074v.035h-.036v.039h-.035v.035h-.039v.035h.075v.04h.07v.034h.039v-.074h.035V4.29h.07v-.035h-.035v-.04l.035-.034h.04v-.035h.035V4h.07l-.106-.367v-.145l-.039-.035h2.313v.11l.144.109.04.035v.219h.433v.035h.035l.035.039v-.04h.036V4l.039.035v.035h.07l.035-.035v.035h.04v.04h.07v.035l.038.035h.07v.035h.036V4.18h.11v-.035h.218v.035h.035v.035l.035-.035v-.035h.036v-.036h.039V4.07h-.04V4l-.035-.04h.036v-.07h.183v.036h.035v.035L16.953 4h.106v-.04h.074v-.108h.543v.039Zm0 0"/><path fill="#ddc9a3" fill-rule="evenodd" d="M16.48 3.707v-.035h.11v.035h.074v.035l-.039.04v.034l.04.036v-.036h.034v-.035h.035v-.039h.036v.04h.109v.034h.035v.036h.04v.039h-.255v.035h-.074V3.89h-.035v-.04l-.07-.07v-.039h-.04ZM20.313.617h-.036v.035Zm.832-.254V.324h.035v.04h.074v.07h-.04v.074h.04v-.04h.07V.435h.035v.035h.04v.148h.035v.254h-.036l.036.035h-.036V.98h.036v.036h.035v.035h.035v.039l-.035.035h-.035l-.036.035h-.074v.04h-.035v-.075h-.074V1.09h-.035v.035h-.035v.035h-.036v.04h-.039v.034h-.035v.036H21v.074h.035v.074L21 1.453v.035h-.035v.035l-.11.11v.039h-.035v.035l-.039.035v.04h-.035v.034l-.035.036v.039h-.035v.07l-.04.074v.035l-.034.035-.036.04v.035h-.035v.035h-.039v.039l-.07.07v.04l-.035.034v.036h-.04v.039h.11v.035h.035v.035h.04l.034.035v.04h.036l.035.034.039.035h.035v.04h.035v.035h.074v-.035h.035v.035l.036-.035H21v-.075h.434v.035h.035v.04h-.035v.07h.035v.11h-.035v.038h-.11v.035h-.035v.075h.035v.07h.035l.04.035.035-.035V3.09h.07v.07h.074v.04h.035v.034h.035v.036h.075v.039h-.035v.035h-.04l-.035.035.035.039h.145v.215h-.035v.039h.035v.11h.11v.034h.074v.036h.035v.039H18.18v-.11h.035v-.074h.074l.035-.035h-.035v-.074h.035v-.07h.035v.034h.04l.035-.035v.07h.035v.036h.035l.039-.035v.074h.035v.035l.035.035v.04l.075.034v-.074h.035v.04h.18l.035.034v-.035h.074l-.035-.039h.07v-.035h.074v-.035h.035l.035-.04h.075l.035-.034v-.035h.07v-.036h.04v-.039h.034v-.035h-.035l.035-.035h-.035l.035-.04v-.034l.035-.074-.035-.036h.035V3.09l.036-.035v-.293l-.036-.035h-.07v-.11h.035v-.039h.07v-.035h-.035v-.11h-.035v-.035h.035v-.144h.075v-.04h.035v-.07h-.11l.036-.039V2h-.036v-.04h-.035v-.07h-.035v.036h-.039v.035h-.035v-.035H19.3v-.074h-.074v-.036h-.07v-.035h-.036l-.039-.039h-.289l-.035-.035h-.035v-.035h-.075v-.04h-.035v-.034h-.11v-.036h-.034v-.039h-.035v-.035h-.036v-.07h-.039v-.074h-.07v-.11h.035l.074-.074v.04h.325v-.075h.035V1.09h.035v-.04h.039V.907h.07V.871h.035v.074h.075V.906h.07V.98h.04V.906h.07v.11h.035V.98h.039V.945h.035v.07h.215V.98h.039V.906h.035V.871h.035V.797h.074V.762h.035v.074h.036V.762h.218l.035.035v-.07h.036v-.04h.039V.652h.105V.578h.184v.074h.105v.035h-.035v.04l.035.035v.035h.04v.039h.034V.87h.036V.836h.074v.07h.035v.04h.035v-.04h.074V.871h.035V.797h-.109l-.035-.035h.035V.687h.035l.04-.035h.034V.617h.036V.578h-.036v-.07h.036v-.04l.035.04v.035H21V.508h.035l.035-.04V.435h.075ZM17.133 3.816h-.035l.035-.035h.254v.035h.035v-.035l.035-.039h.035v-.035h.04v.035l.034.04v.07h-.433ZM17.926 3.781l.039-.039h.07v.04h.035v.034h-.035v.036h-.324l-.035-.036v-.035h.035v.035h.035v-.035h.035v-.039h.04v.04h-.04v.034h.04v-.035h.034v.035h.036v-.035ZM23.71 3.633l.036-.035v.035h.035v.039h.04v-.04h.034v.04h-.035v.035h.145v.035h-.363v-.035h.074v-.035ZM14.098 2v-.04h.035v-.034h.035V2h.074l.035.035V2h.036v-.074h.035V1.89h.074v-.04h.035v.11l.035.039.04.145v-.04h.07V2.07h.035l.039.075v.109l.035.035v.254h.035v.035l.035.04h.04v.034h-.04v.035h.04v.04h.034v.109h-.035v.07l.035.04v.034h.07v-.035H15v.035h.07v.036l.04-.036h.035v.075h-.036v.035H15l-.035.07h-.04v.074h.11v.075l.035.035v.074h.075v.035h-2.243v-.11l-.07-.034h-.145l-.035-.04-.074-.07v-.144l.035-.04V2.98h.04l.034-.035h.11l.035-.039v-.035l.07-.074v-.219l-.035-.035h.035v-.07l-.035-.04v-.07h.11l-.036.035h.07v-.035h.036v-.039h.039v.04l.035-.04h.035V2.29h.035v.035h.04V2.29h.07v-.074h.035l.039-.035h.035v-.035h.11v-.04h.18l.034-.035h.036v.035h.074l.035-.035h.035v.035h.11V2.07h-.036v-.035h.035L13.988 2ZM14.781 25.746l.04-.035v.035ZM13.809 22.766l-.04-.04h.04ZM15.504 3.926V3.89l.039-.04h.035l.07-.07h.145v.145Zm0 0"/><path fill="#ddc9a3" fill-rule="evenodd" d="M17.457 3.672h.035v.035h-.035ZM23.965 3.633H24v.039h-.035ZM24.145 3.488h.144v.04h-.144ZM12.902 3.488v-.035l.04.035ZM15.11 3.09h.035v.035h-.036ZM21.469.871l-.035-.035h.035Zm0 0"/></svg>